G04 Layer_Physical_Order=3*
G04 Layer_Color=56745*
%FSLAX25Y25*%
%MOIN*%
G70*
G01*
G75*
%ADD60R,0.05906X0.05906*%
%ADD61C,0.05906*%
%ADD62C,0.10000*%
%ADD63C,0.06000*%
%ADD69R,0.05512X0.08268*%
%ADD71R,0.09843X0.09843*%
%ADD76C,0.02362*%
G36*
X1957468Y967484D02*
X1957228Y966953D01*
X1956732Y966854D01*
X1956081Y966419D01*
X1955646Y965768D01*
X1955493Y965000D01*
X1955646Y964232D01*
X1956081Y963581D01*
X1956732Y963146D01*
X1957500Y962993D01*
X1958268Y963146D01*
X1958919Y963581D01*
X1959354Y964232D01*
X1959507Y965000D01*
X1959409Y965495D01*
X1959759Y965993D01*
X2004782Y965758D01*
X2004993Y965500D01*
X2005146Y964732D01*
X2005581Y964081D01*
X2006232Y963646D01*
X2007000Y963493D01*
X2007768Y963646D01*
X2008419Y964081D01*
X2008854Y964732D01*
X2009007Y965500D01*
X2009201Y965735D01*
X2016345Y965697D01*
X2016496Y965196D01*
X2016081Y964919D01*
X2015646Y964268D01*
X2015493Y963500D01*
X2015646Y962732D01*
X2016081Y962081D01*
X2016732Y961646D01*
X2017500Y961493D01*
X2018268Y961646D01*
X2018919Y962081D01*
X2019354Y962732D01*
X2019507Y963500D01*
X2019354Y964268D01*
X2018919Y964919D01*
X2018520Y965186D01*
X2018673Y965685D01*
X2029048Y965631D01*
X2029081Y965581D01*
X2029732Y965146D01*
X2030500Y964993D01*
X2031268Y965146D01*
X2031919Y965581D01*
X2031942Y965615D01*
X2054000Y965500D01*
X2054000Y917574D01*
X2053526Y917413D01*
X2053370Y917618D01*
X2052383Y918375D01*
X2051233Y918851D01*
X2050000Y919013D01*
X2048767Y918851D01*
X2047617Y918375D01*
X2046630Y917618D01*
X2045873Y916631D01*
X2045397Y915481D01*
X2045235Y914248D01*
X2045397Y913015D01*
X2045873Y911866D01*
X2046630Y910878D01*
X2047617Y910121D01*
X2047816Y910039D01*
X2047716Y909539D01*
X2030009D01*
X2029857Y910039D01*
X2029919Y910081D01*
X2030354Y910732D01*
X2030507Y911500D01*
X2030354Y912268D01*
X2029919Y912919D01*
X2029268Y913354D01*
X2028500Y913507D01*
X2027732Y913354D01*
X2027081Y912919D01*
X2026646Y912268D01*
X2026493Y911500D01*
X2026646Y910732D01*
X2027081Y910081D01*
X2027143Y910039D01*
X2026991Y909539D01*
X1956675D01*
X1937732Y938692D01*
X1937848Y938968D01*
X1938499Y939403D01*
X1938934Y940054D01*
X1939087Y940822D01*
X1938934Y941590D01*
X1938499Y942241D01*
X1937848Y942676D01*
X1937080Y942829D01*
X1936312Y942676D01*
X1935913Y942410D01*
X1935268Y942485D01*
X1931565Y948183D01*
X1931759Y948644D01*
X1931768Y948646D01*
X1932419Y949081D01*
X1932854Y949732D01*
X1933007Y950500D01*
X1932854Y951268D01*
X1932419Y951919D01*
X1931768Y952354D01*
X1931000Y952507D01*
X1930232Y952354D01*
X1929688Y951991D01*
X1929098Y951981D01*
X1917058Y970510D01*
X1917302Y971053D01*
X1917768Y971146D01*
X1918419Y971581D01*
X1918854Y972232D01*
X1919007Y973000D01*
X1918854Y973768D01*
X1918419Y974419D01*
X1917768Y974854D01*
X1917000Y975007D01*
X1916232Y974854D01*
X1915581Y974419D01*
X1915344Y974065D01*
X1914746Y974069D01*
X1889001Y1013691D01*
X1889000Y1029646D01*
X1889354Y1030000D01*
X1890592D01*
X1890646Y1029732D01*
X1891081Y1029081D01*
X1891732Y1028646D01*
X1892500Y1028493D01*
X1893268Y1028646D01*
X1893919Y1029081D01*
X1894354Y1029732D01*
X1894408Y1030000D01*
X1896550D01*
X1896702Y1029500D01*
X1896581Y1029419D01*
X1896146Y1028768D01*
X1895993Y1028000D01*
X1896146Y1027232D01*
X1896581Y1026581D01*
X1897232Y1026146D01*
X1898000Y1025993D01*
X1898768Y1026146D01*
X1899419Y1026581D01*
X1899854Y1027232D01*
X1900007Y1028000D01*
X1899854Y1028768D01*
X1899419Y1029419D01*
X1899298Y1029500D01*
X1899450Y1030000D01*
X1914000Y1030000D01*
X1957468Y967484D01*
D02*
G37*
G36*
X1717000Y1149555D02*
X1786070D01*
X1786338Y1149055D01*
X1786146Y1148768D01*
X1785993Y1148000D01*
X1786146Y1147232D01*
X1786581Y1146581D01*
X1787232Y1146146D01*
X1788000Y1145993D01*
X1788768Y1146146D01*
X1789419Y1146581D01*
X1789854Y1147232D01*
X1790007Y1148000D01*
X1789854Y1148768D01*
X1789662Y1149055D01*
X1789930Y1149555D01*
X1800133D01*
X1800285Y1149055D01*
X1800081Y1148919D01*
X1799646Y1148268D01*
X1799493Y1147500D01*
X1799646Y1146732D01*
X1800081Y1146081D01*
X1800732Y1145646D01*
X1801500Y1145493D01*
X1802268Y1145646D01*
X1802919Y1146081D01*
X1803354Y1146732D01*
X1803507Y1147500D01*
X1803354Y1148268D01*
X1802919Y1148919D01*
X1802715Y1149055D01*
X1802867Y1149555D01*
X1841633D01*
X1841784Y1149055D01*
X1841581Y1148919D01*
X1841146Y1148268D01*
X1840993Y1147500D01*
X1841146Y1146732D01*
X1841581Y1146081D01*
X1842025Y1145784D01*
Y1145216D01*
X1841581Y1144919D01*
X1841146Y1144268D01*
X1840993Y1143500D01*
X1841146Y1142732D01*
X1841581Y1142081D01*
X1842025Y1141784D01*
Y1141216D01*
X1841581Y1140919D01*
X1841146Y1140268D01*
X1840993Y1139500D01*
X1841146Y1138732D01*
X1841581Y1138081D01*
X1842025Y1137784D01*
Y1137216D01*
X1841581Y1136919D01*
X1841146Y1136268D01*
X1840993Y1135500D01*
X1841146Y1134732D01*
X1841581Y1134081D01*
X1842025Y1133784D01*
Y1133216D01*
X1841581Y1132919D01*
X1841146Y1132268D01*
X1840993Y1131500D01*
X1841146Y1130732D01*
X1841581Y1130081D01*
X1842025Y1129784D01*
Y1129216D01*
X1841581Y1128919D01*
X1841146Y1128268D01*
X1840993Y1127500D01*
X1841146Y1126732D01*
X1841581Y1126081D01*
X1842025Y1125784D01*
Y1125216D01*
X1841581Y1124919D01*
X1841146Y1124268D01*
X1840993Y1123500D01*
X1841146Y1122732D01*
X1841581Y1122081D01*
X1842025Y1121784D01*
Y1121216D01*
X1841581Y1120919D01*
X1841146Y1120268D01*
X1840993Y1119500D01*
X1841146Y1118732D01*
X1841581Y1118081D01*
X1842232Y1117646D01*
X1843000Y1117493D01*
X1843768Y1117646D01*
X1844419Y1118081D01*
X1844854Y1118732D01*
X1845007Y1119500D01*
X1844854Y1120268D01*
X1844419Y1120919D01*
X1843975Y1121216D01*
Y1121784D01*
X1844419Y1122081D01*
X1844854Y1122732D01*
X1845007Y1123500D01*
X1844854Y1124268D01*
X1844419Y1124919D01*
X1843975Y1125216D01*
Y1125784D01*
X1844419Y1126081D01*
X1844854Y1126732D01*
X1845007Y1127500D01*
X1844854Y1128268D01*
X1844419Y1128919D01*
X1843975Y1129216D01*
Y1129784D01*
X1844419Y1130081D01*
X1844854Y1130732D01*
X1845007Y1131500D01*
X1844854Y1132268D01*
X1844419Y1132919D01*
X1843975Y1133216D01*
Y1133784D01*
X1844419Y1134081D01*
X1844854Y1134732D01*
X1845007Y1135500D01*
X1844854Y1136268D01*
X1844419Y1136919D01*
X1843975Y1137216D01*
Y1137784D01*
X1844419Y1138081D01*
X1844854Y1138732D01*
X1845007Y1139500D01*
X1844854Y1140268D01*
X1844419Y1140919D01*
X1843975Y1141216D01*
Y1141784D01*
X1844419Y1142081D01*
X1844854Y1142732D01*
X1845007Y1143500D01*
X1844854Y1144268D01*
X1844419Y1144919D01*
X1843975Y1145216D01*
Y1145784D01*
X1844419Y1146081D01*
X1844854Y1146732D01*
X1845007Y1147500D01*
X1844854Y1148268D01*
X1844419Y1148919D01*
X1844216Y1149055D01*
X1844367Y1149555D01*
X1845146D01*
X1845500Y1149202D01*
X1845500Y1091950D01*
X1845000Y1091798D01*
X1844919Y1091919D01*
X1844268Y1092354D01*
X1843500Y1092507D01*
X1842732Y1092354D01*
X1842081Y1091919D01*
X1841646Y1091268D01*
X1841493Y1090500D01*
X1841646Y1089732D01*
X1842081Y1089081D01*
X1842732Y1088646D01*
X1843500Y1088493D01*
X1844268Y1088646D01*
X1844320Y1088680D01*
X1844680Y1088320D01*
X1844646Y1088268D01*
X1844493Y1087500D01*
X1844646Y1086732D01*
X1845081Y1086081D01*
X1845732Y1085646D01*
X1846500Y1085493D01*
X1847268Y1085646D01*
X1847702Y1085936D01*
X1848114Y1085610D01*
X1847993Y1085000D01*
X1848146Y1084232D01*
X1848581Y1083581D01*
X1849232Y1083146D01*
X1850000Y1082993D01*
X1850768Y1083146D01*
X1851419Y1083581D01*
X1851854Y1084232D01*
X1852007Y1085000D01*
X1851854Y1085768D01*
X1851419Y1086419D01*
X1850768Y1086854D01*
X1850000Y1087007D01*
X1849232Y1086854D01*
X1848798Y1086564D01*
X1848386Y1086890D01*
X1848507Y1087500D01*
X1848354Y1088268D01*
X1847919Y1088919D01*
X1847268Y1089354D01*
X1846500Y1089507D01*
X1845732Y1089354D01*
X1845680Y1089320D01*
X1845320Y1089680D01*
X1845354Y1089732D01*
X1845507Y1090500D01*
Y1090500D01*
X1845917Y1091000D01*
X1850050D01*
X1850764Y1089665D01*
X1851846Y1088346D01*
X1853165Y1087263D01*
X1854669Y1086459D01*
X1856302Y1085964D01*
X1858000Y1085797D01*
X1859698Y1085964D01*
X1861331Y1086459D01*
X1862835Y1087263D01*
X1864154Y1088346D01*
X1865236Y1089665D01*
X1865950Y1091000D01*
X1881000D01*
Y1089755D01*
X1880500Y1089408D01*
X1880000Y1089507D01*
X1879232Y1089354D01*
X1878581Y1088919D01*
X1878284Y1088475D01*
X1877716D01*
X1877419Y1088919D01*
X1876768Y1089354D01*
X1876000Y1089507D01*
X1875232Y1089354D01*
X1874581Y1088919D01*
X1874284Y1088475D01*
X1873716D01*
X1873419Y1088919D01*
X1872768Y1089354D01*
X1872000Y1089507D01*
X1871232Y1089354D01*
X1870581Y1088919D01*
X1870284Y1088475D01*
X1869716D01*
X1869419Y1088919D01*
X1868768Y1089354D01*
X1868000Y1089507D01*
X1867232Y1089354D01*
X1866581Y1088919D01*
X1866146Y1088268D01*
X1865993Y1087500D01*
X1866146Y1086732D01*
X1866581Y1086081D01*
X1867232Y1085646D01*
X1868000Y1085493D01*
X1868768Y1085646D01*
X1869419Y1086081D01*
X1869716Y1086525D01*
X1870284D01*
X1870581Y1086081D01*
X1871232Y1085646D01*
X1872000Y1085493D01*
X1872768Y1085646D01*
X1873419Y1086081D01*
X1873716Y1086525D01*
X1874284D01*
X1874581Y1086081D01*
X1875232Y1085646D01*
X1876000Y1085493D01*
X1876768Y1085646D01*
X1877419Y1086081D01*
X1877716Y1086525D01*
X1878284D01*
X1878581Y1086081D01*
X1879232Y1085646D01*
X1880000Y1085493D01*
X1880500Y1085592D01*
X1881000Y1085245D01*
X1881000Y1067367D01*
X1876274Y1062303D01*
X1866674Y1062303D01*
X1833378Y1077473D01*
X1824812Y1090934D01*
X1824751Y1090998D01*
X1824702Y1091071D01*
X1824644Y1091110D01*
X1824595Y1091161D01*
X1824515Y1091196D01*
X1824442Y1091245D01*
X1824373Y1091259D01*
X1824309Y1091287D01*
X1824221Y1091289D01*
X1824134Y1091306D01*
X1804840Y1091311D01*
X1804573Y1091811D01*
X1804854Y1092232D01*
X1805007Y1093000D01*
X1804854Y1093768D01*
X1804419Y1094419D01*
X1803768Y1094854D01*
X1803000Y1095007D01*
X1802232Y1094854D01*
X1801581Y1094419D01*
X1801146Y1093768D01*
X1800993Y1093000D01*
X1801146Y1092232D01*
X1801427Y1091812D01*
X1801159Y1091312D01*
X1797779Y1091313D01*
X1797629Y1091283D01*
X1797480Y1091255D01*
X1797476Y1091253D01*
X1797471Y1091252D01*
X1797345Y1091167D01*
X1797217Y1091084D01*
X1797215Y1091080D01*
X1797211Y1091078D01*
X1797190Y1091047D01*
X1741126Y1091739D01*
X1740840Y1092152D01*
X1740856Y1092243D01*
X1741007Y1093000D01*
X1740854Y1093768D01*
X1740419Y1094419D01*
X1739768Y1094854D01*
X1739000Y1095007D01*
X1738232Y1094854D01*
X1737581Y1094419D01*
X1737146Y1093768D01*
X1736993Y1093000D01*
X1737135Y1092288D01*
X1737091Y1092128D01*
X1736908Y1091791D01*
X1734634Y1091819D01*
X1734372Y1092323D01*
X1734507Y1093000D01*
X1734354Y1093768D01*
X1733919Y1094419D01*
X1733268Y1094854D01*
X1732500Y1095007D01*
X1731732Y1094854D01*
X1731081Y1094419D01*
X1730646Y1093768D01*
X1730493Y1093000D01*
X1730618Y1092369D01*
X1730330Y1091873D01*
X1724716Y1091942D01*
X1724397Y1092446D01*
X1724507Y1093000D01*
X1724354Y1093768D01*
X1723919Y1094419D01*
X1723268Y1094854D01*
X1722500Y1095007D01*
X1721732Y1094854D01*
X1721081Y1094419D01*
X1720646Y1093768D01*
X1720493Y1093000D01*
X1720594Y1092493D01*
X1720247Y1091997D01*
X1718269Y1092021D01*
X1717913Y1092526D01*
X1718007Y1093000D01*
X1717854Y1093768D01*
X1717419Y1094419D01*
X1716768Y1094854D01*
X1716000Y1095007D01*
X1715232Y1094854D01*
X1715039Y1094726D01*
X1714539Y1094993D01*
Y1101007D01*
X1715039Y1101274D01*
X1715232Y1101146D01*
X1716000Y1100993D01*
X1716768Y1101146D01*
X1717419Y1101581D01*
X1717854Y1102232D01*
X1718007Y1103000D01*
X1717854Y1103768D01*
X1717419Y1104419D01*
X1716768Y1104854D01*
X1716000Y1105007D01*
X1715232Y1104854D01*
X1715039Y1104725D01*
X1714539Y1104993D01*
Y1147095D01*
X1714521Y1147188D01*
X1714692Y1148050D01*
X1715234Y1148861D01*
X1716044Y1149402D01*
X1716907Y1149574D01*
X1717000Y1149555D01*
D02*
G37*
G36*
X1816599Y1028493D02*
X1816692Y1009920D01*
X1816244Y1009698D01*
X1816012Y1009875D01*
X1815091Y1010257D01*
X1814102Y1010387D01*
X1813114Y1010257D01*
X1812192Y1009875D01*
X1811401Y1009268D01*
X1810794Y1008477D01*
X1810412Y1007556D01*
X1810282Y1006567D01*
X1810412Y1005578D01*
X1810794Y1004657D01*
X1811401Y1003866D01*
X1812192Y1003259D01*
X1813114Y1002877D01*
X1814102Y1002747D01*
X1815091Y1002877D01*
X1816012Y1003259D01*
X1816276Y1003461D01*
X1816725Y1003241D01*
X1816742Y999881D01*
X1816294Y999659D01*
X1816012Y999875D01*
X1815091Y1000257D01*
X1814102Y1000387D01*
X1813114Y1000257D01*
X1812192Y999875D01*
X1811401Y999268D01*
X1810794Y998477D01*
X1810412Y997556D01*
X1810282Y996567D01*
X1810412Y995578D01*
X1810794Y994657D01*
X1811401Y993866D01*
X1812192Y993259D01*
X1813114Y992877D01*
X1814102Y992747D01*
X1815091Y992877D01*
X1816012Y993259D01*
X1816326Y993499D01*
X1816775Y993279D01*
X1816793Y989843D01*
X1816345Y989620D01*
X1816012Y989875D01*
X1815091Y990257D01*
X1814102Y990387D01*
X1813114Y990257D01*
X1812192Y989875D01*
X1811401Y989268D01*
X1810794Y988477D01*
X1810412Y987556D01*
X1810282Y986567D01*
X1810412Y985578D01*
X1810794Y984657D01*
X1811401Y983866D01*
X1812192Y983259D01*
X1813114Y982877D01*
X1814102Y982747D01*
X1815091Y982877D01*
X1816012Y983259D01*
X1816324Y983498D01*
X1816826Y983252D01*
X1816843Y979868D01*
X1816344Y979621D01*
X1816012Y979875D01*
X1815091Y980257D01*
X1814102Y980387D01*
X1813114Y980257D01*
X1812192Y979875D01*
X1811401Y979268D01*
X1810794Y978477D01*
X1810412Y977556D01*
X1810282Y976567D01*
X1810412Y975578D01*
X1810794Y974657D01*
X1811401Y973866D01*
X1812192Y973259D01*
X1813114Y972877D01*
X1814102Y972747D01*
X1815091Y972877D01*
X1816012Y973259D01*
X1816374Y973536D01*
X1816876Y973291D01*
X1817000Y948500D01*
X1821739Y941053D01*
X1821810Y940511D01*
X1822192Y939590D01*
X1822799Y938799D01*
X1823531Y938237D01*
X1823877Y937694D01*
X1823988Y909893D01*
X1823635Y909539D01*
X1731493D01*
X1731226Y910039D01*
X1731354Y910232D01*
X1731507Y911000D01*
X1731354Y911768D01*
X1730919Y912419D01*
X1730268Y912854D01*
X1729500Y913007D01*
X1728732Y912854D01*
X1728081Y912419D01*
X1727646Y911768D01*
X1727493Y911000D01*
X1727646Y910232D01*
X1727774Y910039D01*
X1727507Y909539D01*
X1717000D01*
X1716907Y909521D01*
X1716044Y909692D01*
X1715234Y910234D01*
X1714692Y911044D01*
X1714521Y911907D01*
X1714539Y912000D01*
Y917181D01*
X1715013Y917341D01*
X1715372Y916872D01*
X1716581Y915945D01*
X1717989Y915362D01*
X1719500Y915163D01*
X1721011Y915362D01*
X1722419Y915945D01*
X1723628Y916872D01*
X1724555Y918081D01*
X1725138Y919489D01*
X1725337Y921000D01*
X1725138Y922511D01*
X1724555Y923919D01*
X1723628Y925128D01*
X1722419Y926055D01*
X1721011Y926638D01*
X1719500Y926837D01*
X1717989Y926638D01*
X1716581Y926055D01*
X1715372Y925128D01*
X1715013Y924659D01*
X1714539Y924819D01*
Y936870D01*
X1715010Y937038D01*
X1715248Y936748D01*
X1716159Y936000D01*
X1717199Y935445D01*
X1717532Y935344D01*
Y941000D01*
Y946656D01*
X1717199Y946556D01*
X1716159Y946000D01*
X1715248Y945252D01*
X1715010Y944962D01*
X1714539Y945130D01*
Y957181D01*
X1715013Y957341D01*
X1715372Y956872D01*
X1716581Y955945D01*
X1717989Y955362D01*
X1719500Y955163D01*
X1721011Y955362D01*
X1722419Y955945D01*
X1723628Y956872D01*
X1724555Y958081D01*
X1725138Y959489D01*
X1725337Y961000D01*
X1725138Y962511D01*
X1724555Y963919D01*
X1723628Y965128D01*
X1722419Y966055D01*
X1721011Y966638D01*
X1719500Y966837D01*
X1717989Y966638D01*
X1716581Y966055D01*
X1715372Y965128D01*
X1715013Y964659D01*
X1714539Y964820D01*
Y976870D01*
X1715010Y977038D01*
X1715248Y976748D01*
X1716159Y976000D01*
X1717199Y975445D01*
X1717532Y975344D01*
Y981000D01*
Y986656D01*
X1717199Y986555D01*
X1716159Y986000D01*
X1715248Y985252D01*
X1715010Y984962D01*
X1714539Y985130D01*
Y997180D01*
X1715013Y997341D01*
X1715372Y996872D01*
X1716581Y995945D01*
X1717989Y995362D01*
X1719500Y995163D01*
X1721011Y995362D01*
X1722419Y995945D01*
X1723628Y996872D01*
X1724555Y998081D01*
X1725138Y999489D01*
X1725337Y1001000D01*
X1725138Y1002511D01*
X1724555Y1003919D01*
X1723628Y1005128D01*
X1722419Y1006055D01*
X1721011Y1006638D01*
X1719500Y1006837D01*
X1717989Y1006638D01*
X1716581Y1006055D01*
X1715372Y1005128D01*
X1715013Y1004659D01*
X1714539Y1004819D01*
Y1016870D01*
X1715010Y1017038D01*
X1715248Y1016748D01*
X1716159Y1016000D01*
X1717199Y1015444D01*
X1717532Y1015344D01*
Y1021000D01*
Y1026656D01*
X1717199Y1026556D01*
X1716159Y1026000D01*
X1715248Y1025252D01*
X1715010Y1024962D01*
X1714539Y1025130D01*
Y1037181D01*
X1715013Y1037341D01*
X1715372Y1036872D01*
X1716581Y1035945D01*
X1717989Y1035362D01*
X1719500Y1035163D01*
X1721011Y1035362D01*
X1722419Y1035945D01*
X1723628Y1036872D01*
X1724555Y1038081D01*
X1725138Y1039489D01*
X1725337Y1041000D01*
X1725138Y1042511D01*
X1724555Y1043919D01*
X1723628Y1045128D01*
X1722419Y1046055D01*
X1721011Y1046638D01*
X1719500Y1046837D01*
X1717989Y1046638D01*
X1716581Y1046055D01*
X1715372Y1045128D01*
X1715013Y1044659D01*
X1714539Y1044820D01*
Y1056870D01*
X1715010Y1057038D01*
X1715248Y1056748D01*
X1716159Y1056000D01*
X1717199Y1055445D01*
X1717532Y1055344D01*
Y1061000D01*
Y1066656D01*
X1717199Y1066556D01*
X1716159Y1066000D01*
X1715248Y1065252D01*
X1715010Y1064962D01*
X1714539Y1065130D01*
Y1075000D01*
X1757000D01*
X1816599Y1028493D01*
D02*
G37*
G36*
X1945373Y850603D02*
X1945757Y849335D01*
X1946382Y848167D01*
X1947222Y847143D01*
X1948246Y846303D01*
X1949414Y845679D01*
X1950682Y845294D01*
X1951256Y845238D01*
X1951471Y845149D01*
X1954880Y843374D01*
X1958121Y841309D01*
X1961170Y838970D01*
X1964004Y836373D01*
X1966600Y833539D01*
X1968940Y830490D01*
X1971005Y827249D01*
X1972779Y823840D01*
X1974250Y820289D01*
X1975406Y816624D01*
X1976238Y812872D01*
X1976739Y809061D01*
X1976761Y808561D01*
X1976325Y808316D01*
X1976268Y808354D01*
X1975500Y808507D01*
X1974732Y808354D01*
X1974081Y807919D01*
X1973646Y807268D01*
X1973493Y806500D01*
X1973646Y805732D01*
X1974081Y805081D01*
X1974732Y804646D01*
X1975500Y804493D01*
X1976268Y804646D01*
X1976440Y804761D01*
X1976876Y804516D01*
X1976739Y801382D01*
X1976238Y797572D01*
X1975406Y793819D01*
X1974250Y790154D01*
X1972779Y786603D01*
X1971005Y783194D01*
X1968940Y779953D01*
X1966600Y776903D01*
X1964004Y774070D01*
X1961170Y771474D01*
X1958121Y769134D01*
X1954880Y767069D01*
X1951471Y765294D01*
X1947920Y763823D01*
X1944254Y762668D01*
X1940502Y761836D01*
X1937808Y761481D01*
X1937426Y761804D01*
X1937421Y761935D01*
Y769012D01*
X1927579D01*
Y762027D01*
X1927233Y761568D01*
X1925202Y761836D01*
X1921450Y762668D01*
X1917784Y763823D01*
X1914234Y765294D01*
X1910825Y767069D01*
X1907583Y769134D01*
X1904534Y771474D01*
X1901701Y774070D01*
X1899104Y776903D01*
X1896764Y779953D01*
X1894699Y783194D01*
X1892925Y786603D01*
X1891454Y790154D01*
X1890298Y793819D01*
X1889466Y797572D01*
X1888965Y801382D01*
X1888797Y805221D01*
X1888965Y809061D01*
X1889466Y812872D01*
X1890298Y816624D01*
X1891454Y820289D01*
X1892925Y823840D01*
X1894699Y827249D01*
X1896764Y830490D01*
X1899104Y833539D01*
X1901701Y836373D01*
X1904534Y838970D01*
X1907583Y841309D01*
X1910825Y843374D01*
X1914234Y845149D01*
X1914392Y845215D01*
X1915200Y845294D01*
X1916468Y845679D01*
X1917636Y846303D01*
X1918660Y847143D01*
X1919500Y848167D01*
X1920124Y849335D01*
X1920509Y850603D01*
X1920566Y851186D01*
X1945304Y851306D01*
X1945373Y850603D01*
D02*
G37*
G36*
X1824134Y1090503D02*
X1832828Y1076841D01*
X1866500Y1061500D01*
X1876623Y1061500D01*
X1882634Y1067941D01*
X1916170Y1068013D01*
X1942006Y1028909D01*
X1941957Y1022000D01*
X1930231Y1022000D01*
X1909077Y1047000D01*
X1859049Y1047000D01*
X1839463Y1056853D01*
X1839419Y1056919D01*
X1838768Y1057354D01*
X1838271Y1057453D01*
X1797632Y1077898D01*
X1797778Y1090510D01*
X1824134Y1090503D01*
D02*
G37*
G36*
X1721732Y1091146D02*
X1722500Y1090993D01*
X1723268Y1091146D01*
X1723556Y1091338D01*
X1723701Y1091391D01*
X1723794Y1091389D01*
X1724254Y1091285D01*
Y1091285D01*
X1724326Y1091245D01*
X1724400Y1091204D01*
X1724472Y1091189D01*
X1724540Y1091158D01*
X1724624Y1091156D01*
X1724624Y1091156D01*
X1724695Y1091141D01*
X1724706Y1091139D01*
X1730320Y1091070D01*
X1730428Y1091090D01*
X1730536Y1091096D01*
X1730580Y1091118D01*
X1730628Y1091127D01*
X1730720Y1091186D01*
X1730818Y1091234D01*
X1730850Y1091271D01*
X1730891Y1091298D01*
X1730953Y1091388D01*
X1731025Y1091469D01*
X1731190Y1091508D01*
X1731732Y1091146D01*
X1732500Y1090993D01*
X1733268Y1091146D01*
X1733532Y1091322D01*
X1734060Y1091259D01*
X1734093Y1091236D01*
X1734118Y1091204D01*
X1734221Y1091148D01*
X1734318Y1091082D01*
X1734357Y1091073D01*
X1734393Y1091054D01*
X1734509Y1091041D01*
X1734624Y1091016D01*
X1736898Y1090989D01*
X1737016Y1091010D01*
X1737136Y1091022D01*
X1737169Y1091039D01*
X1737206Y1091046D01*
X1737307Y1091111D01*
X1737414Y1091168D01*
X1737437Y1091196D01*
X1737469Y1091217D01*
X1737537Y1091316D01*
X1737614Y1091408D01*
X1737778Y1091449D01*
X1738232Y1091146D01*
X1739000Y1090993D01*
X1739768Y1091146D01*
X1740029Y1091320D01*
X1740552Y1091179D01*
X1740626Y1091127D01*
X1740692Y1091064D01*
X1740754Y1091039D01*
X1740810Y1091001D01*
X1740899Y1090983D01*
X1740983Y1090949D01*
X1741050Y1090950D01*
X1741116Y1090936D01*
X1796972Y1090247D01*
X1796829Y1077907D01*
X1796854Y1077777D01*
X1796870Y1077646D01*
X1796882Y1077624D01*
X1796887Y1077600D01*
X1796959Y1077489D01*
X1797024Y1077374D01*
X1797044Y1077358D01*
X1797058Y1077337D01*
X1797167Y1077262D01*
X1797271Y1077181D01*
X1837910Y1056736D01*
X1838015Y1056707D01*
X1838115Y1056666D01*
X1838455Y1056598D01*
X1838854Y1056331D01*
X1838855Y1056329D01*
X1838941Y1056262D01*
X1839017Y1056186D01*
X1839063Y1056167D01*
X1839102Y1056136D01*
X1858688Y1046283D01*
X1858717Y1046275D01*
X1858742Y1046258D01*
X1858867Y1046233D01*
X1858990Y1046199D01*
X1859020Y1046203D01*
X1859049Y1046197D01*
X1908705Y1046197D01*
X1929618Y1021481D01*
X1929644Y1021460D01*
X1929663Y1021432D01*
X1929766Y1021364D01*
X1929863Y1021286D01*
X1929895Y1021277D01*
X1929923Y1021258D01*
X1930045Y1021234D01*
X1930164Y1021200D01*
X1930197Y1021204D01*
X1930231Y1021197D01*
X1941957Y1021197D01*
X1942107Y1021227D01*
X1942258Y1021256D01*
X1942261Y1021257D01*
X1942264Y1021258D01*
X1942392Y1021344D01*
X1942520Y1021428D01*
X1942522Y1021430D01*
X1942524Y1021432D01*
X1942610Y1021561D01*
X1942696Y1021687D01*
X1942697Y1021690D01*
X1942698Y1021692D01*
X1942728Y1021844D01*
X1942759Y1021994D01*
X1942809Y1028903D01*
X1942794Y1028981D01*
X1942795Y1029061D01*
X1942765Y1029134D01*
X1942750Y1029211D01*
X1942706Y1029277D01*
X1942676Y1029351D01*
X1916840Y1068456D01*
X1916782Y1068514D01*
X1916736Y1068582D01*
X1916673Y1068624D01*
X1916619Y1068679D01*
X1916544Y1068710D01*
X1916475Y1068756D01*
X1916401Y1068771D01*
X1916331Y1068800D01*
X1916248Y1068800D01*
X1916168Y1068816D01*
X1882632Y1068744D01*
X1882619Y1068741D01*
X1882606Y1068743D01*
X1882466Y1068710D01*
X1882325Y1068682D01*
X1882314Y1068674D01*
X1882301Y1068671D01*
X1881957Y1068794D01*
X1881803Y1068933D01*
X1881803Y1085233D01*
X1881803Y1085245D01*
X1881803Y1085245D01*
X1881789Y1085316D01*
Y1085316D01*
X1881790Y1085388D01*
X1881759Y1085468D01*
X1881742Y1085552D01*
X1881707Y1085620D01*
X1881676Y1085679D01*
D01*
X1881584Y1086080D01*
X1881860Y1086525D01*
X1882284D01*
X1882581Y1086081D01*
X1883232Y1085646D01*
X1884000Y1085493D01*
X1884768Y1085646D01*
X1885419Y1086081D01*
X1885716Y1086525D01*
X1886284D01*
X1886581Y1086081D01*
X1887232Y1085646D01*
X1888000Y1085493D01*
X1888768Y1085646D01*
X1889419Y1086081D01*
X1889716Y1086525D01*
X1890284D01*
X1890581Y1086081D01*
X1891232Y1085646D01*
X1892000Y1085493D01*
X1892768Y1085646D01*
X1893419Y1086081D01*
X1893716Y1086525D01*
X1894284D01*
X1894581Y1086081D01*
X1895232Y1085646D01*
X1896000Y1085493D01*
X1896768Y1085646D01*
X1897419Y1086081D01*
X1897716Y1086525D01*
X1898284D01*
X1898581Y1086081D01*
X1899232Y1085646D01*
X1900000Y1085493D01*
X1900768Y1085646D01*
X1901419Y1086081D01*
X1901716Y1086525D01*
X1902284D01*
X1902581Y1086081D01*
X1903232Y1085646D01*
X1904000Y1085493D01*
X1904768Y1085646D01*
X1905419Y1086081D01*
X1905716Y1086525D01*
X1906284D01*
X1906581Y1086081D01*
X1907232Y1085646D01*
X1908000Y1085493D01*
X1908768Y1085646D01*
X1909419Y1086081D01*
X1909716Y1086525D01*
X1910284D01*
X1910581Y1086081D01*
X1911232Y1085646D01*
X1912000Y1085493D01*
X1912768Y1085646D01*
X1913419Y1086081D01*
X1913716Y1086525D01*
X1914284D01*
X1914581Y1086081D01*
X1915232Y1085646D01*
X1916000Y1085493D01*
X1916768Y1085646D01*
X1917419Y1086081D01*
X1917716Y1086525D01*
X1918284D01*
X1918581Y1086081D01*
X1919232Y1085646D01*
X1920000Y1085493D01*
X1920768Y1085646D01*
X1921419Y1086081D01*
X1921716Y1086525D01*
X1922284D01*
X1922581Y1086081D01*
X1923232Y1085646D01*
X1924000Y1085493D01*
X1924768Y1085646D01*
X1925419Y1086081D01*
X1925716Y1086525D01*
X1926284D01*
X1926581Y1086081D01*
X1927232Y1085646D01*
X1928000Y1085493D01*
X1928768Y1085646D01*
X1929419Y1086081D01*
X1929716Y1086525D01*
X1930284D01*
X1930581Y1086081D01*
X1931232Y1085646D01*
X1932000Y1085493D01*
X1932768Y1085646D01*
X1933419Y1086081D01*
X1933716Y1086525D01*
X1934284D01*
X1934581Y1086081D01*
X1935232Y1085646D01*
X1936000Y1085493D01*
X1936768Y1085646D01*
X1937419Y1086081D01*
X1937716Y1086525D01*
X1938284D01*
X1938581Y1086081D01*
X1939232Y1085646D01*
X1940000Y1085493D01*
X1940768Y1085646D01*
X1941419Y1086081D01*
X1941716Y1086525D01*
X1942284D01*
X1942581Y1086081D01*
X1943232Y1085646D01*
X1944000Y1085493D01*
X1944768Y1085646D01*
X1945419Y1086081D01*
X1945716Y1086525D01*
X1946284D01*
X1946581Y1086081D01*
X1947232Y1085646D01*
X1948000Y1085493D01*
X1948768Y1085646D01*
X1949419Y1086081D01*
X1949716Y1086525D01*
X1950284D01*
X1950581Y1086081D01*
X1951232Y1085646D01*
X1952000Y1085493D01*
X1952768Y1085646D01*
X1953419Y1086081D01*
X1953716Y1086525D01*
X1954284D01*
X1954581Y1086081D01*
X1955232Y1085646D01*
X1956000Y1085493D01*
X1956768Y1085646D01*
X1957419Y1086081D01*
X1957716Y1086525D01*
X1958284D01*
X1958581Y1086081D01*
X1959232Y1085646D01*
X1960000Y1085493D01*
X1960768Y1085646D01*
X1961419Y1086081D01*
X1961716Y1086525D01*
X1962284D01*
X1962581Y1086081D01*
X1963232Y1085646D01*
X1964000Y1085493D01*
X1964768Y1085646D01*
X1965419Y1086081D01*
X1965716Y1086525D01*
X1966284D01*
X1966581Y1086081D01*
X1967232Y1085646D01*
X1968000Y1085493D01*
X1968768Y1085646D01*
X1969419Y1086081D01*
X1969716Y1086525D01*
X1970284D01*
X1970581Y1086081D01*
X1971232Y1085646D01*
X1972000Y1085493D01*
X1972768Y1085646D01*
X1973419Y1086081D01*
X1973716Y1086525D01*
X1974284D01*
X1974581Y1086081D01*
X1975232Y1085646D01*
X1976000Y1085493D01*
X1976768Y1085646D01*
X1977419Y1086081D01*
X1977716Y1086525D01*
X1978284D01*
X1978581Y1086081D01*
X1979232Y1085646D01*
X1980000Y1085493D01*
X1980768Y1085646D01*
X1981419Y1086081D01*
X1981716Y1086525D01*
X1982284D01*
X1982581Y1086081D01*
X1983232Y1085646D01*
X1984000Y1085493D01*
X1984768Y1085646D01*
X1985419Y1086081D01*
X1985716Y1086525D01*
X1986284D01*
X1986581Y1086081D01*
X1987232Y1085646D01*
X1988000Y1085493D01*
X1988768Y1085646D01*
X1989419Y1086081D01*
X1989716Y1086525D01*
X1990284D01*
X1990581Y1086081D01*
X1991232Y1085646D01*
X1992000Y1085493D01*
X1992768Y1085646D01*
X1993419Y1086081D01*
X1993716Y1086525D01*
X1994284D01*
X1994581Y1086081D01*
X1995232Y1085646D01*
X1996000Y1085493D01*
X1996768Y1085646D01*
X1997419Y1086081D01*
X1997716Y1086525D01*
X1998284D01*
X1998581Y1086081D01*
X1999232Y1085646D01*
X2000000Y1085493D01*
X2000768Y1085646D01*
X2001419Y1086081D01*
X2001716Y1086525D01*
X2002284D01*
X2002581Y1086081D01*
X2003232Y1085646D01*
X2004000Y1085493D01*
X2004768Y1085646D01*
X2005419Y1086081D01*
X2005716Y1086525D01*
X2006284D01*
X2006581Y1086081D01*
X2007232Y1085646D01*
X2008000Y1085493D01*
X2008768Y1085646D01*
X2009419Y1086081D01*
X2009716Y1086525D01*
X2010284D01*
X2010581Y1086081D01*
X2011232Y1085646D01*
X2012000Y1085493D01*
X2012768Y1085646D01*
X2013419Y1086081D01*
X2013716Y1086525D01*
X2014284D01*
X2014581Y1086081D01*
X2015232Y1085646D01*
X2016000Y1085493D01*
X2016768Y1085646D01*
X2017419Y1086081D01*
X2017716Y1086525D01*
X2018284D01*
X2018581Y1086081D01*
X2019025Y1085784D01*
Y1085216D01*
X2018581Y1084919D01*
X2018146Y1084268D01*
X2017993Y1083500D01*
X2018146Y1082732D01*
X2018581Y1082081D01*
X2019025Y1081784D01*
Y1081216D01*
X2018581Y1080919D01*
X2018146Y1080268D01*
X2017993Y1079500D01*
X2018146Y1078732D01*
X2018581Y1078081D01*
X2019025Y1077784D01*
Y1077216D01*
X2018581Y1076919D01*
X2018146Y1076268D01*
X2017993Y1075500D01*
X2018146Y1074732D01*
X2018581Y1074081D01*
X2019025Y1073784D01*
Y1073216D01*
X2018581Y1072919D01*
X2018146Y1072268D01*
X2017993Y1071500D01*
X2018146Y1070732D01*
X2018581Y1070081D01*
X2019025Y1069784D01*
Y1069216D01*
X2018581Y1068919D01*
X2018146Y1068268D01*
X2017993Y1067500D01*
X2018146Y1066732D01*
X2018581Y1066081D01*
X2019232Y1065646D01*
X2020000Y1065493D01*
X2020768Y1065646D01*
X2021419Y1066081D01*
X2021854Y1066732D01*
X2022007Y1067500D01*
X2021854Y1068268D01*
X2021419Y1068919D01*
X2020975Y1069216D01*
Y1069784D01*
X2021419Y1070081D01*
X2021854Y1070732D01*
X2022007Y1071500D01*
X2021854Y1072268D01*
X2021419Y1072919D01*
X2020975Y1073216D01*
Y1073784D01*
X2021419Y1074081D01*
X2021854Y1074732D01*
X2022007Y1075500D01*
X2021854Y1076268D01*
X2021419Y1076919D01*
X2020975Y1077216D01*
Y1077784D01*
X2021419Y1078081D01*
X2021854Y1078732D01*
X2022007Y1079500D01*
X2021854Y1080268D01*
X2021419Y1080919D01*
X2020975Y1081216D01*
Y1081784D01*
X2021419Y1082081D01*
X2021854Y1082732D01*
X2022007Y1083500D01*
X2021854Y1084268D01*
X2021419Y1084919D01*
X2020975Y1085216D01*
Y1085784D01*
X2021419Y1086081D01*
X2021854Y1086732D01*
X2022007Y1087500D01*
X2021854Y1088268D01*
X2021419Y1088919D01*
X2020768Y1089354D01*
X2020000Y1089507D01*
X2019232Y1089354D01*
X2018581Y1088919D01*
X2018284Y1088475D01*
X2017716D01*
X2017419Y1088919D01*
X2016768Y1089354D01*
X2016000Y1089507D01*
X2015232Y1089354D01*
X2014581Y1088919D01*
X2014284Y1088475D01*
X2013716D01*
X2013419Y1088919D01*
X2012768Y1089354D01*
X2012000Y1089507D01*
X2011232Y1089354D01*
X2010581Y1088919D01*
X2010284Y1088475D01*
X2009716D01*
X2009419Y1088919D01*
X2008768Y1089354D01*
X2008000Y1089507D01*
X2007232Y1089354D01*
X2006581Y1088919D01*
X2006284Y1088475D01*
X2005716D01*
X2005419Y1088919D01*
X2004768Y1089354D01*
X2004000Y1089507D01*
X2003232Y1089354D01*
X2002581Y1088919D01*
X2002284Y1088475D01*
X2001716D01*
X2001419Y1088919D01*
X2000768Y1089354D01*
X2000000Y1089507D01*
X1999232Y1089354D01*
X1998581Y1088919D01*
X1998284Y1088475D01*
X1997716D01*
X1997419Y1088919D01*
X1996768Y1089354D01*
X1996000Y1089507D01*
X1995232Y1089354D01*
X1994581Y1088919D01*
X1994284Y1088475D01*
X1993716D01*
X1993419Y1088919D01*
X1992768Y1089354D01*
X1992000Y1089507D01*
X1991232Y1089354D01*
X1990581Y1088919D01*
X1990284Y1088475D01*
X1989716D01*
X1989419Y1088919D01*
X1988768Y1089354D01*
X1988000Y1089507D01*
X1987232Y1089354D01*
X1986581Y1088919D01*
X1986284Y1088475D01*
X1985716D01*
X1985419Y1088919D01*
X1984768Y1089354D01*
X1984000Y1089507D01*
X1983232Y1089354D01*
X1982581Y1088919D01*
X1982284Y1088475D01*
X1981716D01*
X1981419Y1088919D01*
X1980768Y1089354D01*
X1980000Y1089507D01*
X1979232Y1089354D01*
X1978581Y1088919D01*
X1978284Y1088475D01*
X1977716D01*
X1977419Y1088919D01*
X1976768Y1089354D01*
X1976000Y1089507D01*
X1975232Y1089354D01*
X1974581Y1088919D01*
X1974284Y1088475D01*
X1973716D01*
X1973419Y1088919D01*
X1972768Y1089354D01*
X1972000Y1089507D01*
X1971232Y1089354D01*
X1970581Y1088919D01*
X1970284Y1088475D01*
X1969716D01*
X1969419Y1088919D01*
X1968768Y1089354D01*
X1968000Y1089507D01*
X1967232Y1089354D01*
X1966581Y1088919D01*
X1966284Y1088475D01*
X1965716D01*
X1965419Y1088919D01*
X1964768Y1089354D01*
X1964000Y1089507D01*
X1963232Y1089354D01*
X1962581Y1088919D01*
X1962284Y1088475D01*
X1961716D01*
X1961419Y1088919D01*
X1960768Y1089354D01*
X1960000Y1089507D01*
X1959232Y1089354D01*
X1958581Y1088919D01*
X1958284Y1088475D01*
X1957716D01*
X1957419Y1088919D01*
X1956768Y1089354D01*
X1956000Y1089507D01*
X1955232Y1089354D01*
X1954581Y1088919D01*
X1954284Y1088475D01*
X1953716D01*
X1953419Y1088919D01*
X1952768Y1089354D01*
X1952000Y1089507D01*
X1951232Y1089354D01*
X1950581Y1088919D01*
X1950284Y1088475D01*
X1949716D01*
X1949419Y1088919D01*
X1948768Y1089354D01*
X1948000Y1089507D01*
X1947232Y1089354D01*
X1946581Y1088919D01*
X1946284Y1088475D01*
X1945716D01*
X1945419Y1088919D01*
X1944768Y1089354D01*
X1944000Y1089507D01*
X1943232Y1089354D01*
X1942581Y1088919D01*
X1942284Y1088475D01*
X1941716D01*
X1941419Y1088919D01*
X1940768Y1089354D01*
X1940000Y1089507D01*
X1939232Y1089354D01*
X1938581Y1088919D01*
X1938284Y1088475D01*
X1937716D01*
X1937419Y1088919D01*
X1936768Y1089354D01*
X1936000Y1089507D01*
X1935232Y1089354D01*
X1934581Y1088919D01*
X1934284Y1088475D01*
X1933716D01*
X1933419Y1088919D01*
X1932768Y1089354D01*
X1932000Y1089507D01*
X1931232Y1089354D01*
X1930581Y1088919D01*
X1930284Y1088475D01*
X1929716D01*
X1929419Y1088919D01*
X1928768Y1089354D01*
X1928000Y1089507D01*
X1927232Y1089354D01*
X1926581Y1088919D01*
X1926284Y1088475D01*
X1925716D01*
X1925419Y1088919D01*
X1924768Y1089354D01*
X1924000Y1089507D01*
X1923232Y1089354D01*
X1922581Y1088919D01*
X1922284Y1088475D01*
X1921716D01*
X1921419Y1088919D01*
X1920768Y1089354D01*
X1920000Y1089507D01*
X1919232Y1089354D01*
X1918581Y1088919D01*
X1918284Y1088475D01*
X1917716D01*
X1917419Y1088919D01*
X1916768Y1089354D01*
X1916000Y1089507D01*
X1915232Y1089354D01*
X1914581Y1088919D01*
X1914284Y1088475D01*
X1913716D01*
X1913419Y1088919D01*
X1912768Y1089354D01*
X1912000Y1089507D01*
X1911232Y1089354D01*
X1910581Y1088919D01*
X1910284Y1088475D01*
X1909716D01*
X1909419Y1088919D01*
X1908768Y1089354D01*
X1908000Y1089507D01*
X1907232Y1089354D01*
X1906581Y1088919D01*
X1906284Y1088475D01*
X1905716D01*
X1905419Y1088919D01*
X1904768Y1089354D01*
X1904000Y1089507D01*
X1903232Y1089354D01*
X1902581Y1088919D01*
X1902284Y1088475D01*
X1901716D01*
X1901419Y1088919D01*
X1900768Y1089354D01*
X1900000Y1089507D01*
X1899232Y1089354D01*
X1898581Y1088919D01*
X1898284Y1088475D01*
X1897716D01*
X1897419Y1088919D01*
X1896768Y1089354D01*
X1896000Y1089507D01*
X1895232Y1089354D01*
X1894581Y1088919D01*
X1894284Y1088475D01*
X1893716D01*
X1893419Y1088919D01*
X1892768Y1089354D01*
X1892000Y1089507D01*
X1891232Y1089354D01*
X1890581Y1088919D01*
X1890284Y1088475D01*
X1889716D01*
X1889419Y1088919D01*
X1888768Y1089354D01*
X1888000Y1089507D01*
X1887232Y1089354D01*
X1886581Y1088919D01*
X1886284Y1088475D01*
X1885716D01*
X1885419Y1088919D01*
X1884768Y1089354D01*
X1884000Y1089507D01*
X1883232Y1089354D01*
X1882581Y1088919D01*
X1882284Y1088475D01*
X1881860D01*
X1881584Y1088920D01*
X1881676Y1089321D01*
D01*
X1881707Y1089380D01*
X1881742Y1089448D01*
X1881759Y1089532D01*
X1881790Y1089612D01*
X1881789Y1089684D01*
Y1089684D01*
X1881803Y1089755D01*
X1881803Y1089755D01*
X1881803Y1089767D01*
Y1090646D01*
X1882156Y1091000D01*
X2103461Y1091000D01*
Y1088123D01*
X2103151Y1087751D01*
X2102958Y1087749D01*
X2102865Y1088212D01*
X2102854Y1088268D01*
X2102419Y1088919D01*
X2101768Y1089354D01*
X2101000Y1089507D01*
X2100232Y1089354D01*
X2099581Y1088919D01*
X2099284Y1088475D01*
X2098716D01*
X2098419Y1088919D01*
X2097768Y1089354D01*
X2097000Y1089507D01*
X2096232Y1089354D01*
X2095581Y1088919D01*
X2095284Y1088475D01*
X2094716D01*
X2094419Y1088919D01*
X2093768Y1089354D01*
X2093000Y1089507D01*
X2092232Y1089354D01*
X2091581Y1088919D01*
X2091284Y1088475D01*
X2090716D01*
X2090419Y1088919D01*
X2089768Y1089354D01*
X2089000Y1089507D01*
X2088232Y1089354D01*
X2087581Y1088919D01*
X2087284Y1088475D01*
X2086716D01*
X2086419Y1088919D01*
X2085768Y1089354D01*
X2085000Y1089507D01*
X2084232Y1089354D01*
X2083581Y1088919D01*
X2083284Y1088475D01*
X2082716D01*
X2082419Y1088919D01*
X2081768Y1089354D01*
X2081000Y1089507D01*
X2080232Y1089354D01*
X2079581Y1088919D01*
X2079284Y1088475D01*
X2078716D01*
X2078419Y1088919D01*
X2077768Y1089354D01*
X2077000Y1089507D01*
X2076232Y1089354D01*
X2075581Y1088919D01*
X2075284Y1088475D01*
X2074716D01*
X2074419Y1088919D01*
X2073768Y1089354D01*
X2073000Y1089507D01*
X2072232Y1089354D01*
X2071581Y1088919D01*
X2071284Y1088475D01*
X2070716D01*
X2070419Y1088919D01*
X2069768Y1089354D01*
X2069000Y1089507D01*
X2068232Y1089354D01*
X2067581Y1088919D01*
X2067284Y1088475D01*
X2066716D01*
X2066419Y1088919D01*
X2065768Y1089354D01*
X2065000Y1089507D01*
X2064232Y1089354D01*
X2063581Y1088919D01*
X2063284Y1088475D01*
X2062716D01*
X2062419Y1088919D01*
X2061768Y1089354D01*
X2061000Y1089507D01*
X2060232Y1089354D01*
X2059581Y1088919D01*
X2059284Y1088475D01*
X2058716D01*
X2058419Y1088919D01*
X2057768Y1089354D01*
X2057000Y1089507D01*
X2056232Y1089354D01*
X2055581Y1088919D01*
X2055284Y1088475D01*
X2054716D01*
X2054419Y1088919D01*
X2053768Y1089354D01*
X2053000Y1089507D01*
X2052232Y1089354D01*
X2051581Y1088919D01*
X2051284Y1088475D01*
X2050716D01*
X2050419Y1088919D01*
X2049768Y1089354D01*
X2049000Y1089507D01*
X2048232Y1089354D01*
X2047581Y1088919D01*
X2047284Y1088475D01*
X2046716D01*
X2046419Y1088919D01*
X2045768Y1089354D01*
X2045000Y1089507D01*
X2044232Y1089354D01*
X2043581Y1088919D01*
X2043284Y1088475D01*
X2042716D01*
X2042419Y1088919D01*
X2041768Y1089354D01*
X2041000Y1089507D01*
X2040232Y1089354D01*
X2039581Y1088919D01*
X2039284Y1088475D01*
X2038716D01*
X2038419Y1088919D01*
X2037768Y1089354D01*
X2037000Y1089507D01*
X2036232Y1089354D01*
X2035581Y1088919D01*
X2035284Y1088475D01*
X2034716D01*
X2034419Y1088919D01*
X2033768Y1089354D01*
X2033000Y1089507D01*
X2032232Y1089354D01*
X2031581Y1088919D01*
X2031284Y1088475D01*
X2030716D01*
X2030419Y1088919D01*
X2029768Y1089354D01*
X2029000Y1089507D01*
X2028232Y1089354D01*
X2027581Y1088919D01*
X2027146Y1088268D01*
X2026993Y1087500D01*
X2027146Y1086732D01*
X2027581Y1086081D01*
X2028025Y1085784D01*
Y1085216D01*
X2027581Y1084919D01*
X2027146Y1084268D01*
X2026993Y1083500D01*
X2027146Y1082732D01*
X2027581Y1082081D01*
X2028025Y1081784D01*
Y1081216D01*
X2027581Y1080919D01*
X2027146Y1080268D01*
X2026993Y1079500D01*
X2027146Y1078732D01*
X2027581Y1078081D01*
X2028025Y1077784D01*
Y1077216D01*
X2027581Y1076919D01*
X2027146Y1076268D01*
X2026993Y1075500D01*
X2027146Y1074732D01*
X2027581Y1074081D01*
X2028025Y1073784D01*
Y1073216D01*
X2027581Y1072919D01*
X2027146Y1072268D01*
X2026993Y1071500D01*
X2027146Y1070732D01*
X2027581Y1070081D01*
X2028025Y1069784D01*
Y1069216D01*
X2027581Y1068919D01*
X2027146Y1068268D01*
X2026993Y1067500D01*
X2027146Y1066732D01*
X2027581Y1066081D01*
X2028232Y1065646D01*
X2029000Y1065493D01*
X2029768Y1065646D01*
X2030419Y1066081D01*
X2030854Y1066732D01*
X2031007Y1067500D01*
X2030854Y1068268D01*
X2030419Y1068919D01*
X2029975Y1069216D01*
Y1069784D01*
X2030419Y1070081D01*
X2030854Y1070732D01*
X2031007Y1071500D01*
X2030854Y1072268D01*
X2030419Y1072919D01*
X2029975Y1073216D01*
Y1073784D01*
X2030419Y1074081D01*
X2030854Y1074732D01*
X2031007Y1075500D01*
X2030854Y1076268D01*
X2030419Y1076919D01*
X2029975Y1077216D01*
Y1077784D01*
X2030419Y1078081D01*
X2030854Y1078732D01*
X2031007Y1079500D01*
X2030854Y1080268D01*
X2030419Y1080919D01*
X2029975Y1081216D01*
Y1081784D01*
X2030419Y1082081D01*
X2030854Y1082732D01*
X2031007Y1083500D01*
X2030854Y1084268D01*
X2030419Y1084919D01*
X2029975Y1085216D01*
Y1085784D01*
X2030419Y1086081D01*
X2030716Y1086525D01*
X2031284D01*
X2031581Y1086081D01*
X2032232Y1085646D01*
X2033000Y1085493D01*
X2033768Y1085646D01*
X2034419Y1086081D01*
X2034716Y1086525D01*
X2035284D01*
X2035581Y1086081D01*
X2036232Y1085646D01*
X2037000Y1085493D01*
X2037768Y1085646D01*
X2038419Y1086081D01*
X2038716Y1086525D01*
X2039284D01*
X2039581Y1086081D01*
X2040232Y1085646D01*
X2041000Y1085493D01*
X2041768Y1085646D01*
X2042419Y1086081D01*
X2042716Y1086525D01*
X2043284D01*
X2043581Y1086081D01*
X2044232Y1085646D01*
X2045000Y1085493D01*
X2045768Y1085646D01*
X2046419Y1086081D01*
X2046716Y1086525D01*
X2047284D01*
X2047581Y1086081D01*
X2048232Y1085646D01*
X2049000Y1085493D01*
X2049768Y1085646D01*
X2050419Y1086081D01*
X2050716Y1086525D01*
X2051284D01*
X2051581Y1086081D01*
X2052232Y1085646D01*
X2053000Y1085493D01*
X2053768Y1085646D01*
X2054419Y1086081D01*
X2054716Y1086525D01*
X2055284D01*
X2055581Y1086081D01*
X2056232Y1085646D01*
X2057000Y1085493D01*
X2057768Y1085646D01*
X2058419Y1086081D01*
X2058716Y1086525D01*
X2059284D01*
X2059581Y1086081D01*
X2060232Y1085646D01*
X2061000Y1085493D01*
X2061768Y1085646D01*
X2062419Y1086081D01*
X2062716Y1086525D01*
X2063284D01*
X2063581Y1086081D01*
X2064232Y1085646D01*
X2065000Y1085493D01*
X2065768Y1085646D01*
X2066419Y1086081D01*
X2066716Y1086525D01*
X2067284D01*
X2067581Y1086081D01*
X2068232Y1085646D01*
X2069000Y1085493D01*
X2069768Y1085646D01*
X2070419Y1086081D01*
X2070716Y1086525D01*
X2071284D01*
X2071581Y1086081D01*
X2072232Y1085646D01*
X2073000Y1085493D01*
X2073768Y1085646D01*
X2074419Y1086081D01*
X2074716Y1086525D01*
X2075284D01*
X2075581Y1086081D01*
X2076232Y1085646D01*
X2077000Y1085493D01*
X2077768Y1085646D01*
X2078419Y1086081D01*
X2078716Y1086525D01*
X2079284D01*
X2079581Y1086081D01*
X2080232Y1085646D01*
X2081000Y1085493D01*
X2081768Y1085646D01*
X2082419Y1086081D01*
X2082716Y1086525D01*
X2083284D01*
X2083581Y1086081D01*
X2084232Y1085646D01*
X2085000Y1085493D01*
X2085768Y1085646D01*
X2086419Y1086081D01*
X2086716Y1086525D01*
X2087284D01*
X2087581Y1086081D01*
X2088232Y1085646D01*
X2089000Y1085493D01*
X2089768Y1085646D01*
X2090419Y1086081D01*
X2090716Y1086525D01*
X2091284D01*
X2091581Y1086081D01*
X2092232Y1085646D01*
X2093000Y1085493D01*
X2093768Y1085646D01*
X2094419Y1086081D01*
X2094716Y1086525D01*
X2095284D01*
X2095581Y1086081D01*
X2096232Y1085646D01*
X2097000Y1085493D01*
X2097768Y1085646D01*
X2098419Y1086081D01*
X2098716Y1086525D01*
X2099284D01*
X2099581Y1086081D01*
X2100232Y1085646D01*
X2101000Y1085493D01*
X2101768Y1085646D01*
X2102419Y1086081D01*
X2102854Y1086732D01*
X2102865Y1086788D01*
X2102958Y1087251D01*
X2103151Y1087249D01*
X2103461Y1086877D01*
Y1059630D01*
X2102987Y1059469D01*
X2102853Y1059644D01*
X2102017Y1060285D01*
X2101378Y1060550D01*
Y1056791D01*
Y1053032D01*
X2102017Y1053297D01*
X2102853Y1053938D01*
X2102987Y1054114D01*
X2103461Y1053953D01*
Y1049324D01*
X2102961Y1049154D01*
X2102701Y1049492D01*
X2101910Y1050100D01*
X2100989Y1050481D01*
X2100000Y1050611D01*
X2099011Y1050481D01*
X2098090Y1050100D01*
X2097299Y1049492D01*
X2096692Y1048701D01*
X2096310Y1047780D01*
X2096180Y1046791D01*
X2096310Y1045803D01*
X2096692Y1044881D01*
X2097299Y1044090D01*
X2098090Y1043483D01*
X2099011Y1043101D01*
X2100000Y1042971D01*
X2100989Y1043101D01*
X2101910Y1043483D01*
X2102701Y1044090D01*
X2102961Y1044429D01*
X2103461Y1044259D01*
Y1039324D01*
X2102961Y1039154D01*
X2102701Y1039493D01*
X2101910Y1040100D01*
X2100989Y1040481D01*
X2100000Y1040611D01*
X2099011Y1040481D01*
X2098090Y1040100D01*
X2097299Y1039493D01*
X2096692Y1038701D01*
X2096310Y1037780D01*
X2096180Y1036791D01*
X2096310Y1035803D01*
X2096692Y1034881D01*
X2097299Y1034090D01*
X2098090Y1033483D01*
X2099011Y1033101D01*
X2100000Y1032971D01*
X2100989Y1033101D01*
X2101910Y1033483D01*
X2102701Y1034090D01*
X2102961Y1034429D01*
X2103461Y1034259D01*
Y1029324D01*
X2102961Y1029154D01*
X2102701Y1029492D01*
X2101910Y1030100D01*
X2100989Y1030481D01*
X2100000Y1030611D01*
X2099011Y1030481D01*
X2098090Y1030100D01*
X2097299Y1029492D01*
X2096692Y1028701D01*
X2096310Y1027780D01*
X2096180Y1026791D01*
X2096310Y1025803D01*
X2096692Y1024881D01*
X2097299Y1024090D01*
X2098090Y1023483D01*
X2099011Y1023101D01*
X2100000Y1022971D01*
X2100989Y1023101D01*
X2101910Y1023483D01*
X2102701Y1024090D01*
X2102961Y1024428D01*
X2103461Y1024259D01*
Y1019324D01*
X2102961Y1019154D01*
X2102701Y1019493D01*
X2101910Y1020100D01*
X2100989Y1020481D01*
X2100000Y1020611D01*
X2099011Y1020481D01*
X2098090Y1020100D01*
X2097299Y1019493D01*
X2096692Y1018701D01*
X2096310Y1017780D01*
X2096180Y1016791D01*
X2096310Y1015803D01*
X2096692Y1014881D01*
X2097299Y1014090D01*
X2098090Y1013483D01*
X2099011Y1013101D01*
X2100000Y1012971D01*
X2100989Y1013101D01*
X2101910Y1013483D01*
X2102701Y1014090D01*
X2102961Y1014429D01*
X2103461Y1014259D01*
Y1009324D01*
X2102961Y1009154D01*
X2102701Y1009492D01*
X2101910Y1010100D01*
X2100989Y1010481D01*
X2100000Y1010611D01*
X2099011Y1010481D01*
X2098090Y1010100D01*
X2097299Y1009492D01*
X2096692Y1008701D01*
X2096310Y1007780D01*
X2096180Y1006791D01*
X2096310Y1005803D01*
X2096692Y1004881D01*
X2097299Y1004090D01*
X2098090Y1003483D01*
X2099011Y1003101D01*
X2100000Y1002971D01*
X2100989Y1003101D01*
X2101910Y1003483D01*
X2102701Y1004090D01*
X2102961Y1004428D01*
X2103461Y1004259D01*
Y999324D01*
X2102961Y999154D01*
X2102701Y999492D01*
X2101910Y1000100D01*
X2100989Y1000481D01*
X2100000Y1000611D01*
X2099011Y1000481D01*
X2098090Y1000100D01*
X2097299Y999492D01*
X2096692Y998701D01*
X2096310Y997780D01*
X2096180Y996791D01*
X2096310Y995803D01*
X2096692Y994881D01*
X2097299Y994090D01*
X2097532Y993911D01*
X2097320Y993443D01*
X2097000Y993507D01*
X2096232Y993354D01*
X2095581Y992919D01*
X2095146Y992268D01*
X2094993Y991500D01*
X2095146Y990732D01*
X2095581Y990081D01*
X2096232Y989646D01*
X2096713Y989550D01*
X2096926Y989007D01*
X2096692Y988701D01*
X2096310Y987780D01*
X2096180Y986791D01*
X2096310Y985803D01*
X2096692Y984881D01*
X2097299Y984090D01*
X2098090Y983483D01*
X2099011Y983101D01*
X2100000Y982971D01*
X2100989Y983101D01*
X2101910Y983483D01*
X2102701Y984090D01*
X2102961Y984429D01*
X2103461Y984259D01*
Y979324D01*
X2102961Y979154D01*
X2102701Y979492D01*
X2101910Y980100D01*
X2100989Y980481D01*
X2100000Y980611D01*
X2099011Y980481D01*
X2098090Y980100D01*
X2097299Y979492D01*
X2096692Y978701D01*
X2096310Y977780D01*
X2096180Y976791D01*
X2096310Y975803D01*
X2096692Y974881D01*
X2097299Y974090D01*
X2098090Y973483D01*
X2099011Y973101D01*
X2100000Y972971D01*
X2100989Y973101D01*
X2101910Y973483D01*
X2102701Y974090D01*
X2102961Y974428D01*
X2103461Y974259D01*
Y969324D01*
X2102961Y969154D01*
X2102701Y969493D01*
X2101910Y970100D01*
X2100989Y970481D01*
X2100000Y970611D01*
X2099011Y970481D01*
X2098090Y970100D01*
X2097299Y969493D01*
X2096692Y968701D01*
X2096310Y967780D01*
X2096180Y966791D01*
X2096310Y965803D01*
X2096692Y964881D01*
X2097299Y964090D01*
X2098090Y963483D01*
X2099011Y963101D01*
X2100000Y962971D01*
X2100989Y963101D01*
X2101910Y963483D01*
X2102701Y964090D01*
X2102961Y964429D01*
X2103461Y964259D01*
Y959324D01*
X2102961Y959154D01*
X2102701Y959492D01*
X2101910Y960100D01*
X2100989Y960481D01*
X2100000Y960611D01*
X2099011Y960481D01*
X2098703Y960353D01*
X2098416Y960665D01*
X2098358Y960752D01*
X2098507Y961500D01*
X2098354Y962268D01*
X2097919Y962919D01*
X2097268Y963354D01*
X2096500Y963507D01*
X2095732Y963354D01*
X2095081Y962919D01*
X2094646Y962268D01*
X2094493Y961500D01*
X2094646Y960732D01*
X2095081Y960081D01*
X2095732Y959646D01*
X2096500Y959493D01*
X2096699Y959533D01*
X2096981Y959079D01*
X2096692Y958701D01*
X2096310Y957780D01*
X2096180Y956791D01*
X2096310Y955803D01*
X2096692Y954881D01*
X2097299Y954090D01*
X2098090Y953483D01*
X2099011Y953101D01*
X2100000Y952971D01*
X2100989Y953101D01*
X2101910Y953483D01*
X2102701Y954090D01*
X2102961Y954428D01*
X2103461Y954259D01*
Y949324D01*
X2102961Y949154D01*
X2102701Y949492D01*
X2101910Y950100D01*
X2100989Y950481D01*
X2100000Y950611D01*
X2099011Y950481D01*
X2098090Y950100D01*
X2097299Y949492D01*
X2096692Y948701D01*
X2096310Y947780D01*
X2096180Y946791D01*
X2096310Y945803D01*
X2096692Y944881D01*
X2097299Y944090D01*
X2098090Y943483D01*
X2099011Y943101D01*
X2100000Y942971D01*
X2100989Y943101D01*
X2101910Y943483D01*
X2102701Y944090D01*
X2102961Y944429D01*
X2103461Y944259D01*
Y939324D01*
X2102961Y939154D01*
X2102701Y939493D01*
X2101910Y940100D01*
X2100989Y940481D01*
X2100000Y940611D01*
X2099011Y940481D01*
X2098090Y940100D01*
X2097299Y939493D01*
X2096692Y938701D01*
X2096310Y937780D01*
X2096180Y936791D01*
X2096310Y935803D01*
X2096692Y934881D01*
X2097299Y934090D01*
X2098090Y933483D01*
X2099011Y933101D01*
X2100000Y932971D01*
X2100989Y933101D01*
X2101910Y933483D01*
X2102701Y934090D01*
X2102961Y934429D01*
X2103461Y934259D01*
Y929324D01*
X2102961Y929154D01*
X2102701Y929492D01*
X2101910Y930100D01*
X2100989Y930481D01*
X2100000Y930611D01*
X2099011Y930481D01*
X2098090Y930100D01*
X2097299Y929492D01*
X2096692Y928701D01*
X2096310Y927780D01*
X2096180Y926791D01*
X2096310Y925803D01*
X2096692Y924881D01*
X2097299Y924090D01*
X2098090Y923483D01*
X2099011Y923101D01*
X2100000Y922971D01*
X2100989Y923101D01*
X2101910Y923483D01*
X2102701Y924090D01*
X2102961Y924428D01*
X2103461Y924259D01*
Y912000D01*
X2103479Y911907D01*
X2103308Y911044D01*
X2102766Y910234D01*
X2101956Y909692D01*
X2101093Y909521D01*
X2101000Y909539D01*
X2085003D01*
X2084833Y910039D01*
X2085725Y910724D01*
X2086546Y911793D01*
X2087061Y913038D01*
X2087237Y914374D01*
X2087061Y915710D01*
X2086546Y916955D01*
X2085725Y918024D01*
X2084656Y918845D01*
X2083411Y919360D01*
X2082075Y919536D01*
X2080739Y919360D01*
X2079494Y918845D01*
X2078424Y918024D01*
X2077782Y917187D01*
X2077402Y917296D01*
X2077291Y917368D01*
X2077120Y918663D01*
X2076604Y919908D01*
X2075784Y920977D01*
X2074715Y921797D01*
X2073470Y922313D01*
X2072134Y922489D01*
X2070798Y922313D01*
X2069553Y921797D01*
X2068484Y920977D01*
X2067663Y919908D01*
X2067147Y918663D01*
X2066972Y917327D01*
X2067147Y915991D01*
X2067663Y914746D01*
X2068484Y913676D01*
X2069553Y912856D01*
X2070798Y912340D01*
X2072134Y912164D01*
X2073470Y912340D01*
X2074715Y912856D01*
X2075784Y913676D01*
X2076427Y914514D01*
X2076806Y914405D01*
X2076918Y914333D01*
X2077088Y913038D01*
X2077604Y911793D01*
X2078424Y910724D01*
X2079317Y910039D01*
X2079147Y909539D01*
X2052284D01*
X2052184Y910039D01*
X2052383Y910121D01*
X2053370Y910878D01*
X2054127Y911866D01*
X2054603Y913015D01*
X2054765Y914248D01*
X2054603Y915481D01*
X2054268Y916289D01*
X2054263Y916540D01*
X2054299Y916779D01*
X2054507Y916957D01*
X2054529Y916970D01*
X2054737Y916980D01*
X2055006Y916940D01*
X2055102Y916895D01*
X2055489Y916390D01*
X2056476Y915633D01*
X2057625Y915157D01*
X2058858Y914995D01*
X2060092Y915157D01*
X2061241Y915633D01*
X2062228Y916390D01*
X2062985Y917377D01*
X2063461Y918526D01*
X2063623Y919760D01*
X2063461Y920993D01*
X2062985Y922142D01*
X2062228Y923129D01*
X2061241Y923887D01*
X2060092Y924363D01*
X2058858Y924525D01*
X2057625Y924363D01*
X2056476Y923887D01*
X2055489Y923129D01*
X2055276Y922852D01*
X2054803Y923013D01*
X2054803Y930417D01*
X2055303Y930684D01*
X2055732Y930398D01*
X2056500Y930245D01*
X2057268Y930398D01*
X2057919Y930833D01*
X2058354Y931484D01*
X2058507Y932252D01*
X2058354Y933020D01*
X2057919Y933671D01*
X2057268Y934106D01*
X2056500Y934259D01*
X2055732Y934106D01*
X2055303Y933819D01*
X2054803Y934087D01*
X2054803Y964165D01*
X2055303Y964432D01*
X2055732Y964146D01*
X2056500Y963993D01*
X2057268Y964146D01*
X2057919Y964581D01*
X2058354Y965232D01*
X2058507Y966000D01*
X2058354Y966768D01*
X2057919Y967419D01*
X2057268Y967854D01*
X2056500Y968007D01*
X2055732Y967854D01*
X2055081Y967419D01*
X2054646Y966768D01*
X2054619Y966635D01*
X2054461Y966432D01*
X2054042Y966295D01*
X2054004Y966303D01*
X2032784Y966414D01*
X2032468Y966801D01*
X2032507Y967000D01*
X2032354Y967768D01*
X2031919Y968419D01*
X2031268Y968854D01*
X2030500Y969007D01*
X2029732Y968854D01*
X2029081Y968419D01*
X2028646Y967768D01*
X2028493Y967000D01*
X2028528Y966824D01*
X2028210Y966438D01*
X2018677Y966488D01*
X2018637Y966480D01*
X2018596Y966484D01*
X2018485Y966451D01*
X2018370Y966428D01*
X2018336Y966406D01*
X2018296Y966394D01*
X2018206Y966320D01*
X2018108Y966256D01*
X2018085Y966222D01*
X2018054Y966196D01*
X2017999Y966093D01*
X2017933Y965996D01*
X2017925Y965956D01*
X2017905Y965920D01*
X2017763Y965455D01*
X2017500Y965507D01*
X2017255Y965458D01*
X2017114Y965928D01*
X2017096Y965963D01*
X2017088Y966000D01*
X2017023Y966100D01*
X2016967Y966205D01*
X2016937Y966230D01*
X2016916Y966262D01*
X2016817Y966329D01*
X2016725Y966404D01*
X2016688Y966416D01*
X2016656Y966437D01*
X2016540Y966461D01*
X2016426Y966496D01*
X2016387Y966492D01*
X2016349Y966500D01*
X2009205Y966537D01*
X2009165Y966530D01*
X2009124Y966534D01*
X2009012Y966500D01*
X2008897Y966478D01*
X2008863Y966455D01*
X2008824Y966444D01*
X2008727Y966458D01*
X2008419Y966919D01*
X2007768Y967354D01*
X2007000Y967507D01*
X2006232Y967354D01*
X2005581Y966919D01*
X2005483Y966773D01*
X2005094Y966498D01*
X2004977Y966522D01*
X2004863Y966556D01*
X2004825Y966553D01*
X2004787Y966560D01*
X1959777Y966796D01*
X1959764Y966796D01*
X1959763Y966796D01*
X1959693Y966783D01*
X1959693Y966783D01*
X1959622Y966784D01*
X1959541Y966753D01*
X1959456Y966737D01*
X1959389Y966702D01*
X1959330Y966672D01*
D01*
Y966672D01*
X1958919Y966419D01*
X1958268Y966854D01*
X1958258Y967342D01*
X1958257Y967402D01*
X1958270Y967460D01*
X1958254Y967557D01*
X1958252Y967656D01*
X1958228Y967710D01*
X1958219Y967769D01*
X1958166Y967852D01*
X1958127Y967943D01*
X1914659Y1030458D01*
X1914607Y1030508D01*
X1914568Y1030568D01*
X1914496Y1030616D01*
X1914434Y1030676D01*
X1914367Y1030702D01*
X1914307Y1030742D01*
X1914223Y1030759D01*
X1914142Y1030790D01*
X1914070Y1030789D01*
X1914000Y1030803D01*
X1899450Y1030803D01*
X1899411Y1030795D01*
X1899371Y1030799D01*
X1899258Y1030765D01*
X1899143Y1030742D01*
X1899110Y1030720D01*
X1899072Y1030708D01*
X1898980Y1030633D01*
X1898882Y1030568D01*
X1898860Y1030535D01*
X1898829Y1030509D01*
X1898774Y1030405D01*
X1898708Y1030307D01*
X1898370Y1029933D01*
X1898000Y1030007D01*
X1897630Y1029933D01*
X1897292Y1030307D01*
X1897226Y1030405D01*
X1897171Y1030509D01*
X1897140Y1030535D01*
X1897118Y1030568D01*
X1897020Y1030633D01*
X1896928Y1030708D01*
X1896890Y1030720D01*
X1896857Y1030742D01*
X1896742Y1030765D01*
X1896629Y1030799D01*
X1896589Y1030795D01*
X1896550Y1030803D01*
X1894447D01*
X1894354Y1031268D01*
X1893919Y1031919D01*
X1893268Y1032354D01*
X1892500Y1032507D01*
X1891732Y1032354D01*
X1891081Y1031919D01*
X1890646Y1031268D01*
X1890553Y1030803D01*
X1889354D01*
X1889292Y1030791D01*
X1889046Y1030742D01*
X1888786Y1030568D01*
Y1030568D01*
X1888786D01*
X1888432Y1030214D01*
X1888432Y1030214D01*
X1888258Y1029954D01*
X1888209Y1029708D01*
X1888197Y1029646D01*
Y1029646D01*
X1888198Y1013691D01*
X1888212Y1013618D01*
X1888211Y1013544D01*
X1888242Y1013466D01*
X1888259Y1013384D01*
X1888300Y1013322D01*
X1888327Y1013253D01*
X1892809Y1006356D01*
X1892505Y1005907D01*
X1892000Y1006007D01*
X1891232Y1005854D01*
X1890581Y1005419D01*
X1890146Y1004768D01*
X1889993Y1004000D01*
X1890146Y1003232D01*
X1890581Y1002581D01*
X1891232Y1002146D01*
X1892000Y1001993D01*
X1892768Y1002146D01*
X1893419Y1002581D01*
X1893854Y1003232D01*
X1893945Y1003690D01*
X1894475Y1003792D01*
X1911629Y977392D01*
X1911325Y976943D01*
X1911000Y977007D01*
X1910232Y976854D01*
X1909581Y976419D01*
X1909146Y975768D01*
X1908993Y975000D01*
X1909146Y974232D01*
X1909581Y973581D01*
X1910232Y973146D01*
X1911000Y972993D01*
X1911768Y973146D01*
X1912419Y973581D01*
X1912854Y974232D01*
X1912909Y974505D01*
X1913439Y974607D01*
X1914072Y973632D01*
X1914129Y973573D01*
X1914174Y973505D01*
X1914238Y973462D01*
X1914291Y973407D01*
X1914366Y973375D01*
X1914433Y973329D01*
X1914508Y973314D01*
X1914579Y973284D01*
X1914993Y973000D01*
X1915146Y972232D01*
X1915581Y971581D01*
X1916232Y971146D01*
X1916272Y970677D01*
X1916272Y970605D01*
X1916255Y970534D01*
X1916269Y970450D01*
X1916268Y970364D01*
X1916295Y970297D01*
X1916307Y970225D01*
X1916353Y970153D01*
X1916385Y970073D01*
X1928424Y951544D01*
X1928487Y951479D01*
X1928539Y951405D01*
X1928596Y951368D01*
X1928643Y951320D01*
X1928726Y951284D01*
X1928802Y951235D01*
X1928994Y950890D01*
X1929030Y950717D01*
X1929030Y950689D01*
X1928993Y950500D01*
X1929146Y949732D01*
X1929581Y949081D01*
X1930232Y948646D01*
X1930353Y948622D01*
X1930356Y948620D01*
X1930508Y948524D01*
X1930762Y948188D01*
X1930777Y948113D01*
X1930776Y948037D01*
X1930806Y947961D01*
X1930821Y947881D01*
X1930864Y947817D01*
X1930892Y947746D01*
X1934512Y942174D01*
X1934595Y942047D01*
X1934619Y942022D01*
X1934621Y942020D01*
X1934621Y942020D01*
X1934636Y941991D01*
X1934638Y941986D01*
X1934726Y941905D01*
X1934813Y941823D01*
Y941823D01*
X1934940Y941682D01*
X1935133Y941372D01*
X1935148Y941222D01*
X1935146Y941187D01*
X1935073Y940822D01*
X1935226Y940054D01*
X1935661Y939403D01*
X1936312Y938968D01*
X1936492Y938932D01*
X1936929Y938698D01*
X1936944Y938622D01*
X1936943Y938546D01*
X1936973Y938470D01*
X1936988Y938390D01*
X1937030Y938326D01*
X1937059Y938255D01*
X1947700Y921877D01*
X1947396Y921428D01*
X1947000Y921507D01*
X1946232Y921354D01*
X1945581Y920919D01*
X1945146Y920268D01*
X1944993Y919500D01*
X1945146Y918732D01*
X1945581Y918081D01*
X1946232Y917646D01*
X1947000Y917493D01*
X1947768Y917646D01*
X1948419Y918081D01*
X1948854Y918732D01*
X1948923Y919078D01*
X1949453Y919180D01*
X1955432Y909979D01*
X1955193Y909539D01*
X1952000D01*
X1951934Y909526D01*
X1950682Y909403D01*
X1949414Y909018D01*
X1948246Y908394D01*
X1947222Y907553D01*
X1946382Y906530D01*
X1945757Y905361D01*
X1945373Y904094D01*
X1945250Y902842D01*
X1945236Y902776D01*
X1945250Y902709D01*
X1945373Y901457D01*
X1945757Y900190D01*
X1946382Y899022D01*
X1947222Y897998D01*
X1948246Y897157D01*
X1949414Y896533D01*
X1950682Y896148D01*
X1951934Y896025D01*
X1952000Y896012D01*
X2101000D01*
X2101093Y896031D01*
X2101956Y895859D01*
X2102766Y895317D01*
X2103308Y894507D01*
X2103479Y893645D01*
X2103461Y893551D01*
Y893051D01*
X2096260D01*
Y885571D01*
X2098948D01*
X2099024Y885081D01*
X2098114Y884704D01*
X2097333Y884105D01*
X2096733Y883323D01*
X2096356Y882413D01*
X2096228Y881437D01*
X2096356Y880461D01*
X2096733Y879551D01*
X2097333Y878769D01*
X2098114Y878170D01*
X2099024Y877793D01*
X2099335Y877752D01*
Y877248D01*
X2099024Y877207D01*
X2098114Y876830D01*
X2097333Y876231D01*
X2096733Y875449D01*
X2096356Y874539D01*
X2096228Y873563D01*
X2096356Y872587D01*
X2096733Y871677D01*
X2097333Y870895D01*
X2098114Y870296D01*
X2098824Y870002D01*
X2098800Y869470D01*
X2098007Y869142D01*
X2097181Y868508D01*
X2096547Y867682D01*
X2096292Y867067D01*
X2100000D01*
Y865689D01*
X2101378D01*
Y861981D01*
X2101993Y862236D01*
X2102819Y862870D01*
X2102961Y863054D01*
X2103461Y862885D01*
Y861146D01*
X2103479Y861052D01*
X2103308Y860190D01*
X2102766Y859379D01*
X2101956Y858838D01*
X2101093Y858666D01*
X2101000Y858685D01*
X1952000D01*
X1951934Y858672D01*
X1950682Y858548D01*
X1949414Y858164D01*
X1948246Y857539D01*
X1947222Y856699D01*
X1946382Y855675D01*
X1945757Y854507D01*
X1945452Y853500D01*
X1920430Y853500D01*
X1920124Y854507D01*
X1919500Y855675D01*
X1918660Y856699D01*
X1917636Y857539D01*
X1916468Y858164D01*
X1915200Y858548D01*
X1913948Y858672D01*
X1913882Y858685D01*
X1722205D01*
X1722125Y858783D01*
X1722226Y859451D01*
X1722419Y859581D01*
X1722854Y860232D01*
X1723007Y861000D01*
X1722854Y861768D01*
X1722419Y862419D01*
X1721768Y862854D01*
X1721000Y863007D01*
X1720232Y862854D01*
X1719581Y862419D01*
X1719146Y861768D01*
X1718993Y861000D01*
X1719146Y860232D01*
X1719581Y859581D01*
X1719774Y859451D01*
X1719875Y858783D01*
X1719795Y858685D01*
X1717000D01*
X1716907Y858666D01*
X1716044Y858838D01*
X1715234Y859379D01*
X1714692Y860190D01*
X1714521Y861052D01*
X1714539Y861146D01*
Y893551D01*
X1714521Y893645D01*
X1714692Y894507D01*
X1715234Y895317D01*
X1716044Y895859D01*
X1716907Y896031D01*
X1717000Y896012D01*
X1913882D01*
X1913948Y896025D01*
X1915200Y896148D01*
X1916468Y896533D01*
X1917636Y897157D01*
X1918660Y897998D01*
X1919500Y899022D01*
X1920124Y900190D01*
X1920509Y901457D01*
X1920632Y902709D01*
X1920646Y902776D01*
X1920632Y902842D01*
X1920509Y904094D01*
X1920124Y905361D01*
X1920024Y905550D01*
X1920406Y905896D01*
X1920620Y905753D01*
X1921542Y905569D01*
X1922464Y905753D01*
X1923245Y906275D01*
X1923767Y907056D01*
X1923951Y907978D01*
X1923767Y908899D01*
X1923245Y909681D01*
X1922464Y910203D01*
X1921542Y910386D01*
X1920620Y910203D01*
X1919839Y909681D01*
X1919317Y908899D01*
X1919134Y907978D01*
X1919190Y907696D01*
X1918724Y907476D01*
X1918660Y907553D01*
X1917636Y908394D01*
X1916468Y909018D01*
X1915200Y909403D01*
X1913948Y909526D01*
X1913882Y909539D01*
X1825231D01*
X1825138Y909579D01*
X1824799Y909888D01*
X1824791Y909897D01*
X1824681Y937283D01*
X1825169Y937724D01*
X1825500Y937680D01*
X1826489Y937810D01*
X1827410Y938192D01*
X1828201Y938799D01*
X1828808Y939590D01*
X1829190Y940511D01*
X1829320Y941500D01*
X1829190Y942489D01*
X1828808Y943410D01*
X1828201Y944201D01*
X1827410Y944808D01*
X1826489Y945190D01*
X1825500Y945320D01*
X1824511Y945190D01*
X1823590Y944808D01*
X1822799Y944201D01*
X1822192Y943410D01*
X1822031Y943021D01*
X1821469Y942972D01*
X1817802Y948736D01*
X1817786Y951943D01*
X1818284Y952197D01*
X1818732Y951898D01*
X1819500Y951745D01*
X1820268Y951898D01*
X1820919Y952333D01*
X1821354Y952984D01*
X1821507Y953752D01*
X1821354Y954520D01*
X1820919Y955171D01*
X1820268Y955606D01*
X1819500Y955759D01*
X1818732Y955606D01*
X1818269Y955297D01*
X1817768Y955534D01*
X1817678Y973295D01*
X1817652Y973422D01*
X1817635Y973551D01*
X1817621Y973575D01*
X1817616Y973602D01*
X1817543Y973709D01*
X1817478Y973822D01*
X1817456Y973838D01*
X1817440Y973861D01*
X1817434Y973866D01*
X1817300Y974230D01*
X1817273Y974478D01*
X1817411Y974657D01*
X1817792Y975578D01*
X1817922Y976567D01*
X1817792Y977556D01*
X1817411Y978477D01*
X1817209Y978739D01*
X1817409Y979301D01*
X1817413Y979304D01*
X1817427Y979325D01*
X1817447Y979341D01*
X1817513Y979455D01*
X1817586Y979565D01*
X1817591Y979590D01*
X1817603Y979612D01*
X1817620Y979743D01*
X1817645Y979873D01*
X1817628Y983256D01*
X1817603Y983384D01*
X1817585Y983512D01*
X1817571Y983536D01*
X1817566Y983563D01*
X1817493Y983671D01*
X1817428Y983783D01*
X1817406Y983800D01*
X1817390Y983823D01*
X1817258Y984210D01*
X1817240Y984435D01*
X1817411Y984657D01*
X1817792Y985578D01*
X1817922Y986567D01*
X1817792Y987556D01*
X1817411Y988477D01*
X1817220Y988725D01*
X1817363Y989278D01*
X1817377Y989299D01*
X1817397Y989315D01*
X1817463Y989429D01*
X1817536Y989539D01*
X1817541Y989564D01*
X1817553Y989586D01*
X1817570Y989717D01*
X1817595Y989847D01*
X1817578Y993283D01*
X1817558Y993381D01*
X1817552Y993411D01*
X1817552Y993411D01*
X1817535Y993540D01*
X1817521Y993563D01*
X1817516Y993591D01*
X1817445Y993703D01*
X1817378Y993810D01*
D01*
X1817243Y994260D01*
X1817249Y994446D01*
X1817411Y994657D01*
X1817792Y995578D01*
X1817922Y996567D01*
X1817792Y997556D01*
X1817411Y998477D01*
X1817188Y998768D01*
X1817313Y999316D01*
X1817327Y999338D01*
X1817347Y999353D01*
X1817413Y999468D01*
X1817485Y999578D01*
X1817490Y999603D01*
X1817503Y999625D01*
X1817520Y999756D01*
X1817545Y999885D01*
X1817528Y1003245D01*
X1817508Y1003343D01*
X1817502Y1003372D01*
X1817502Y1003372D01*
X1817485Y1003501D01*
X1817471Y1003525D01*
X1817466Y1003552D01*
X1817392Y1003670D01*
X1817328Y1003772D01*
X1817205Y1004228D01*
X1817216Y1004403D01*
X1817411Y1004657D01*
X1817792Y1005578D01*
X1817922Y1006567D01*
X1817792Y1007556D01*
X1817411Y1008477D01*
X1817155Y1008810D01*
X1817262Y1009355D01*
X1817277Y1009376D01*
X1817297Y1009392D01*
X1817362Y1009506D01*
X1817435Y1009616D01*
X1817440Y1009641D01*
X1817453Y1009664D01*
X1817470Y1009795D01*
X1817495Y1009924D01*
X1817401Y1028497D01*
X1817392Y1028544D01*
X1817395Y1028591D01*
X1817361Y1028696D01*
X1817339Y1028804D01*
X1817312Y1028843D01*
X1817297Y1028889D01*
X1817225Y1028972D01*
X1817163Y1029064D01*
X1817124Y1029090D01*
X1817093Y1029126D01*
X1813343Y1032051D01*
X1813470Y1032586D01*
X1813768Y1032646D01*
X1814419Y1033081D01*
X1814854Y1033732D01*
X1815007Y1034500D01*
X1814854Y1035268D01*
X1814419Y1035919D01*
X1813768Y1036354D01*
X1813000Y1036507D01*
X1812232Y1036354D01*
X1811581Y1035919D01*
X1811146Y1035268D01*
X1810993Y1034500D01*
X1810998Y1034476D01*
X1810572Y1034214D01*
X1805544Y1038138D01*
X1805659Y1038624D01*
X1805768Y1038646D01*
X1806419Y1039081D01*
X1806854Y1039732D01*
X1807007Y1040500D01*
X1806854Y1041268D01*
X1806419Y1041919D01*
X1805768Y1042354D01*
X1805000Y1042507D01*
X1804232Y1042354D01*
X1803581Y1041919D01*
X1803146Y1041268D01*
X1803038Y1040727D01*
X1802523Y1040495D01*
X1757494Y1075633D01*
X1757397Y1075682D01*
X1757307Y1075742D01*
X1757258Y1075751D01*
X1757214Y1075774D01*
X1757106Y1075782D01*
X1757000Y1075803D01*
X1714539D01*
Y1091007D01*
X1715039Y1091275D01*
X1715232Y1091146D01*
X1716000Y1090993D01*
X1716768Y1091146D01*
X1717204Y1091437D01*
X1717386Y1091446D01*
X1717841Y1091342D01*
D01*
X1717892Y1091315D01*
X1717953Y1091284D01*
X1718045Y1091264D01*
X1718133Y1091230D01*
X1718197Y1091232D01*
X1718197Y1091232D01*
X1718259Y1091219D01*
X1718259Y1091219D01*
X1718288Y1091218D01*
X1720232Y1091194D01*
X1720237Y1091194D01*
X1720237Y1091194D01*
X1720312Y1091208D01*
X1720312Y1091208D01*
X1720387Y1091206D01*
X1720464Y1091236D01*
X1720545Y1091251D01*
X1720616Y1091288D01*
X1720679Y1091320D01*
Y1091320D01*
D01*
X1721081Y1091581D01*
X1721732Y1091146D01*
D02*
G37*
%LPC*%
G36*
X1875500Y943507D02*
X1874732Y943354D01*
X1874081Y942919D01*
X1873646Y942268D01*
X1873493Y941500D01*
X1873646Y940732D01*
X1874081Y940081D01*
X1874732Y939646D01*
X1875500Y939493D01*
X1876268Y939646D01*
X1876919Y940081D01*
X1877354Y940732D01*
X1877507Y941500D01*
X1877354Y942268D01*
X1876919Y942919D01*
X1876268Y943354D01*
X1875500Y943507D01*
D02*
G37*
G36*
X2024000Y944007D02*
X2023232Y943854D01*
X2022581Y943419D01*
X2022146Y942768D01*
X2021993Y942000D01*
X2022146Y941232D01*
X2022581Y940581D01*
X2023232Y940146D01*
X2024000Y939993D01*
X2024768Y940146D01*
X2025419Y940581D01*
X2025854Y941232D01*
X2026007Y942000D01*
X2025854Y942768D01*
X2025419Y943419D01*
X2024768Y943854D01*
X2024000Y944007D01*
D02*
G37*
G36*
X1984000D02*
X1983232Y943854D01*
X1982581Y943419D01*
X1982146Y942768D01*
X1981993Y942000D01*
X1982146Y941232D01*
X1982581Y940581D01*
X1983232Y940146D01*
X1984000Y939993D01*
X1984768Y940146D01*
X1985419Y940581D01*
X1985854Y941232D01*
X1986007Y942000D01*
X1985854Y942768D01*
X1985419Y943419D01*
X1984768Y943854D01*
X1984000Y944007D01*
D02*
G37*
G36*
X1818000Y940507D02*
X1817232Y940354D01*
X1816581Y939919D01*
X1816146Y939268D01*
X1815993Y938500D01*
X1816146Y937732D01*
X1816581Y937081D01*
X1817232Y936646D01*
X1818000Y936493D01*
X1818768Y936646D01*
X1819419Y937081D01*
X1819854Y937732D01*
X1820007Y938500D01*
X1819854Y939268D01*
X1819419Y939919D01*
X1818768Y940354D01*
X1818000Y940507D01*
D02*
G37*
G36*
X1846000Y940007D02*
X1845232Y939854D01*
X1844581Y939419D01*
X1844146Y938768D01*
X1843993Y938000D01*
X1844146Y937232D01*
X1844581Y936581D01*
X1845232Y936146D01*
X1846000Y935993D01*
X1846768Y936146D01*
X1847419Y936581D01*
X1847854Y937232D01*
X1848007Y938000D01*
X1847854Y938768D01*
X1847419Y939419D01*
X1846768Y939854D01*
X1846000Y940007D01*
D02*
G37*
G36*
X1836500Y945320D02*
X1835511Y945190D01*
X1834590Y944808D01*
X1833799Y944201D01*
X1833192Y943410D01*
X1832810Y942489D01*
X1832680Y941500D01*
X1832810Y940511D01*
X1833192Y939590D01*
X1833799Y938799D01*
X1834590Y938192D01*
X1835511Y937810D01*
X1836500Y937680D01*
X1837489Y937810D01*
X1838410Y938192D01*
X1839201Y938799D01*
X1839808Y939590D01*
X1840190Y940511D01*
X1840320Y941500D01*
X1840190Y942489D01*
X1839808Y943410D01*
X1839201Y944201D01*
X1838410Y944808D01*
X1837489Y945190D01*
X1836500Y945320D01*
D02*
G37*
G36*
X2078925Y950639D02*
X2077589Y950463D01*
X2076344Y949947D01*
X2075275Y949127D01*
X2074454Y948057D01*
X2073939Y946813D01*
X2073763Y945476D01*
X2073939Y944140D01*
X2074454Y942895D01*
X2075275Y941826D01*
X2076344Y941006D01*
X2077589Y940490D01*
X2078925Y940314D01*
X2080261Y940490D01*
X2081506Y941006D01*
X2082575Y941826D01*
X2083281Y942745D01*
X2083759Y942547D01*
X2083704Y942130D01*
X2083880Y940794D01*
X2084395Y939549D01*
X2085216Y938480D01*
X2086285Y937659D01*
X2087530Y937144D01*
X2088866Y936968D01*
X2090202Y937144D01*
X2091447Y937659D01*
X2092516Y938480D01*
X2093337Y939549D01*
X2093852Y940794D01*
X2094028Y942130D01*
X2093852Y943466D01*
X2093337Y944711D01*
X2092516Y945780D01*
X2091447Y946601D01*
X2090202Y947116D01*
X2088866Y947292D01*
X2087530Y947116D01*
X2086285Y946601D01*
X2085216Y945780D01*
X2084511Y944861D01*
X2084033Y945059D01*
X2084088Y945476D01*
X2083912Y946813D01*
X2083396Y948057D01*
X2082575Y949127D01*
X2081506Y949947D01*
X2080261Y950463D01*
X2078925Y950639D01*
D02*
G37*
G36*
X1955500Y945007D02*
X1954732Y944854D01*
X1954081Y944419D01*
X1953646Y943768D01*
X1953493Y943000D01*
X1953646Y942232D01*
X1954081Y941581D01*
X1954732Y941146D01*
X1955500Y940993D01*
X1956268Y941146D01*
X1956919Y941581D01*
X1957354Y942232D01*
X1957507Y943000D01*
X1957354Y943768D01*
X1956919Y944419D01*
X1956268Y944854D01*
X1955500Y945007D01*
D02*
G37*
G36*
X1905500Y952007D02*
X1904732Y951854D01*
X1904081Y951419D01*
X1903646Y950768D01*
X1903493Y950000D01*
X1903646Y949232D01*
X1904081Y948581D01*
X1904732Y948146D01*
X1905500Y947993D01*
X1906268Y948146D01*
X1906919Y948581D01*
X1907354Y949232D01*
X1907507Y950000D01*
X1907354Y950768D01*
X1906919Y951419D01*
X1906268Y951854D01*
X1905500Y952007D01*
D02*
G37*
G36*
X1836500Y955320D02*
X1835511Y955190D01*
X1834590Y954808D01*
X1833799Y954201D01*
X1833192Y953410D01*
X1832810Y952489D01*
X1832680Y951500D01*
X1832810Y950511D01*
X1833192Y949590D01*
X1833799Y948799D01*
X1834590Y948192D01*
X1835511Y947810D01*
X1836500Y947680D01*
X1837489Y947810D01*
X1838410Y948192D01*
X1839201Y948799D01*
X1839808Y949590D01*
X1840190Y950511D01*
X1840320Y951500D01*
X1840190Y952489D01*
X1839808Y953410D01*
X1839201Y954201D01*
X1838410Y954808D01*
X1837489Y955190D01*
X1836500Y955320D01*
D02*
G37*
G36*
X1995000Y954507D02*
X1994232Y954354D01*
X1993581Y953919D01*
X1993146Y953268D01*
X1992993Y952500D01*
X1993146Y951732D01*
X1993581Y951081D01*
X1994232Y950646D01*
X1995000Y950493D01*
X1995768Y950646D01*
X1996419Y951081D01*
X1996854Y951732D01*
X1997007Y952500D01*
X1996854Y953268D01*
X1996419Y953919D01*
X1995768Y954354D01*
X1995000Y954507D01*
D02*
G37*
G36*
X1911000Y952007D02*
X1910232Y951854D01*
X1909581Y951419D01*
X1909146Y950768D01*
X1908993Y950000D01*
X1909146Y949232D01*
X1909581Y948581D01*
X1910232Y948146D01*
X1911000Y947993D01*
X1911768Y948146D01*
X1912419Y948581D01*
X1912854Y949232D01*
X1913007Y950000D01*
X1912854Y950768D01*
X1912419Y951419D01*
X1911768Y951854D01*
X1911000Y952007D01*
D02*
G37*
G36*
X1825500Y955320D02*
X1824511Y955190D01*
X1823590Y954808D01*
X1822799Y954201D01*
X1822192Y953410D01*
X1821810Y952489D01*
X1821680Y951500D01*
X1821810Y950511D01*
X1822192Y949590D01*
X1822799Y948799D01*
X1823590Y948192D01*
X1824511Y947810D01*
X1825500Y947680D01*
X1826489Y947810D01*
X1827410Y948192D01*
X1828201Y948799D01*
X1828808Y949590D01*
X1829190Y950511D01*
X1829320Y951500D01*
X1829190Y952489D01*
X1828808Y953410D01*
X1828201Y954201D01*
X1827410Y954808D01*
X1826489Y955190D01*
X1825500Y955320D01*
D02*
G37*
G36*
X1721469Y946656D02*
Y942968D01*
X1725156D01*
X1725056Y943301D01*
X1724500Y944341D01*
X1723752Y945252D01*
X1722841Y946000D01*
X1721801Y946556D01*
X1721469Y946656D01*
D02*
G37*
G36*
X1896000Y946007D02*
X1895232Y945854D01*
X1894581Y945419D01*
X1894146Y944768D01*
X1893993Y944000D01*
X1894146Y943232D01*
X1894581Y942581D01*
X1895232Y942146D01*
X1896000Y941993D01*
X1896768Y942146D01*
X1897419Y942581D01*
X1897854Y943232D01*
X1898007Y944000D01*
X1897854Y944768D01*
X1897419Y945419D01*
X1896768Y945854D01*
X1896000Y946007D01*
D02*
G37*
G36*
X1917000Y951507D02*
X1916232Y951354D01*
X1915581Y950919D01*
X1915146Y950268D01*
X1914993Y949500D01*
X1915146Y948732D01*
X1915581Y948081D01*
X1916232Y947646D01*
X1917000Y947493D01*
X1917768Y947646D01*
X1918419Y948081D01*
X1918854Y948732D01*
X1919007Y949500D01*
X1918854Y950268D01*
X1918419Y950919D01*
X1917768Y951354D01*
X1917000Y951507D01*
D02*
G37*
G36*
X1944000Y948007D02*
X1943232Y947854D01*
X1942581Y947419D01*
X1942146Y946768D01*
X1941993Y946000D01*
X1942146Y945232D01*
X1942581Y944581D01*
X1943232Y944146D01*
X1944000Y943993D01*
X1944768Y944146D01*
X1945419Y944581D01*
X1945854Y945232D01*
X1946007Y946000D01*
X1945854Y946768D01*
X1945419Y947419D01*
X1944768Y947854D01*
X1944000Y948007D01*
D02*
G37*
G36*
X1904500Y939507D02*
X1903732Y939354D01*
X1903081Y938919D01*
X1902646Y938268D01*
X1902493Y937500D01*
X1902646Y936732D01*
X1903081Y936081D01*
X1903732Y935646D01*
X1904500Y935493D01*
X1905268Y935646D01*
X1905919Y936081D01*
X1906354Y936732D01*
X1906507Y937500D01*
X1906354Y938268D01*
X1905919Y938919D01*
X1905268Y939354D01*
X1904500Y939507D01*
D02*
G37*
G36*
X2027000Y933007D02*
X2026232Y932854D01*
X2025581Y932419D01*
X2025146Y931768D01*
X2024993Y931000D01*
X2025146Y930232D01*
X2025581Y929581D01*
X2026232Y929146D01*
X2027000Y928993D01*
X2027768Y929146D01*
X2028419Y929581D01*
X2028854Y930232D01*
X2029007Y931000D01*
X2028854Y931768D01*
X2028419Y932419D01*
X2027768Y932854D01*
X2027000Y933007D01*
D02*
G37*
G36*
X1974248Y930259D02*
X1973480Y930106D01*
X1972829Y929671D01*
X1972394Y929020D01*
X1972241Y928252D01*
X1972394Y927484D01*
X1972829Y926833D01*
X1973480Y926398D01*
X1974248Y926245D01*
X1975016Y926398D01*
X1975667Y926833D01*
X1976102Y927484D01*
X1976255Y928252D01*
X1976102Y929020D01*
X1975667Y929671D01*
X1975016Y930106D01*
X1974248Y930259D01*
D02*
G37*
G36*
X2089000Y933507D02*
X2088232Y933354D01*
X2087581Y932919D01*
X2087146Y932268D01*
X2086993Y931500D01*
X2087146Y930732D01*
X2087581Y930081D01*
X2088232Y929646D01*
X2089000Y929493D01*
X2089768Y929646D01*
X2090419Y930081D01*
X2090854Y930732D01*
X2091007Y931500D01*
X2090854Y932268D01*
X2090419Y932919D01*
X2089768Y933354D01*
X2089000Y933507D01*
D02*
G37*
G36*
X1860500Y934507D02*
X1859732Y934354D01*
X1859081Y933919D01*
X1858646Y933268D01*
X1858493Y932500D01*
X1858646Y931732D01*
X1859081Y931081D01*
X1859732Y930646D01*
X1860500Y930493D01*
X1861268Y930646D01*
X1861919Y931081D01*
X1862354Y931732D01*
X1862507Y932500D01*
X1862354Y933268D01*
X1861919Y933919D01*
X1861268Y934354D01*
X1860500Y934507D01*
D02*
G37*
G36*
X2050000Y935929D02*
X2049178Y935820D01*
X2048412Y935503D01*
X2047754Y934998D01*
X2047249Y934340D01*
X2046931Y933574D01*
X2046823Y932752D01*
X2046931Y931930D01*
X2047249Y931164D01*
X2047754Y930506D01*
X2048412Y930001D01*
X2049178Y929683D01*
X2050000Y929575D01*
X2050822Y929683D01*
X2051588Y930001D01*
X2052246Y930506D01*
X2052751Y931164D01*
X2053069Y931930D01*
X2053177Y932752D01*
X2053069Y933574D01*
X2052751Y934340D01*
X2052246Y934998D01*
X2051588Y935503D01*
X2050822Y935820D01*
X2050000Y935929D01*
D02*
G37*
G36*
X2019500Y932820D02*
X2018511Y932690D01*
X2017590Y932308D01*
X2016799Y931701D01*
X2016192Y930910D01*
X2015810Y929989D01*
X2015680Y929000D01*
X2015810Y928011D01*
X2016192Y927090D01*
X2016799Y926299D01*
X2017590Y925692D01*
X2018511Y925310D01*
X2019500Y925180D01*
X2020489Y925310D01*
X2021410Y925692D01*
X2022201Y926299D01*
X2022808Y927090D01*
X2023190Y928011D01*
X2023320Y929000D01*
X2023190Y929989D01*
X2022808Y930910D01*
X2022201Y931701D01*
X2021410Y932308D01*
X2020489Y932690D01*
X2019500Y932820D01*
D02*
G37*
G36*
X1797000Y932971D02*
X1795972Y932836D01*
X1795015Y932439D01*
X1794192Y931808D01*
X1793561Y930986D01*
X1793164Y930028D01*
X1793029Y929000D01*
X1793164Y927972D01*
X1793561Y927015D01*
X1794192Y926192D01*
X1795015Y925561D01*
X1795972Y925164D01*
X1797000Y925029D01*
X1798028Y925164D01*
X1798985Y925561D01*
X1799808Y926192D01*
X1800439Y927015D01*
X1800836Y927972D01*
X1800971Y929000D01*
X1800836Y930028D01*
X1800439Y930986D01*
X1799808Y931808D01*
X1798985Y932439D01*
X1798028Y932836D01*
X1797000Y932971D01*
D02*
G37*
G36*
X1951232Y929275D02*
X1950464Y929122D01*
X1949813Y928687D01*
X1949378Y928036D01*
X1949225Y927268D01*
X1949378Y926500D01*
X1949813Y925848D01*
X1950464Y925413D01*
X1951232Y925261D01*
X1952000Y925413D01*
X1952651Y925848D01*
X1953087Y926500D01*
X1953239Y927268D01*
X1953087Y928036D01*
X1952651Y928687D01*
X1952000Y929122D01*
X1951232Y929275D01*
D02*
G37*
G36*
X1855000Y930007D02*
X1854232Y929854D01*
X1853581Y929419D01*
X1853146Y928768D01*
X1852993Y928000D01*
X1853146Y927232D01*
X1853581Y926581D01*
X1854232Y926146D01*
X1855000Y925993D01*
X1855768Y926146D01*
X1856419Y926581D01*
X1856854Y927232D01*
X1857007Y928000D01*
X1856854Y928768D01*
X1856419Y929419D01*
X1855768Y929854D01*
X1855000Y930007D01*
D02*
G37*
G36*
X1914000Y929507D02*
X1913232Y929354D01*
X1912581Y928919D01*
X1912146Y928268D01*
X1911993Y927500D01*
X1912146Y926732D01*
X1912581Y926081D01*
X1913232Y925646D01*
X1914000Y925493D01*
X1914768Y925646D01*
X1915419Y926081D01*
X1915854Y926732D01*
X1916007Y927500D01*
X1915854Y928268D01*
X1915419Y928919D01*
X1914768Y929354D01*
X1914000Y929507D01*
D02*
G37*
G36*
X2072134Y940993D02*
X2070798Y940817D01*
X2069553Y940301D01*
X2068484Y939481D01*
X2067663Y938412D01*
X2067147Y937167D01*
X2066972Y935831D01*
X2067147Y934495D01*
X2067663Y933250D01*
X2068484Y932180D01*
X2069553Y931360D01*
X2070798Y930844D01*
X2072134Y930668D01*
X2073470Y930844D01*
X2074715Y931360D01*
X2075784Y932180D01*
X2076604Y933250D01*
X2077120Y934495D01*
X2077296Y935831D01*
X2077120Y937167D01*
X2076604Y938412D01*
X2075784Y939481D01*
X2074715Y940301D01*
X2073470Y940817D01*
X2072134Y940993D01*
D02*
G37*
G36*
X2062000Y938759D02*
X2061232Y938606D01*
X2060581Y938171D01*
X2060146Y937520D01*
X2059993Y936752D01*
X2060146Y935984D01*
X2060581Y935333D01*
X2061232Y934898D01*
X2062000Y934745D01*
X2062768Y934898D01*
X2063419Y935333D01*
X2063854Y935984D01*
X2064007Y936752D01*
X2063854Y937520D01*
X2063419Y938171D01*
X2062768Y938606D01*
X2062000Y938759D01*
D02*
G37*
G36*
X2032500Y937507D02*
X2031732Y937354D01*
X2031081Y936919D01*
X2030646Y936268D01*
X2030493Y935500D01*
X2030646Y934732D01*
X2031081Y934081D01*
X2031732Y933646D01*
X2032500Y933493D01*
X2033268Y933646D01*
X2033919Y934081D01*
X2034354Y934732D01*
X2034507Y935500D01*
X2034354Y936268D01*
X2033919Y936919D01*
X2033268Y937354D01*
X2032500Y937507D01*
D02*
G37*
G36*
X1776500Y942971D02*
X1775472Y942836D01*
X1774515Y942439D01*
X1773692Y941808D01*
X1773061Y940985D01*
X1772664Y940028D01*
X1772529Y939000D01*
X1772664Y937972D01*
X1773061Y937014D01*
X1773692Y936192D01*
X1774515Y935561D01*
X1775472Y935164D01*
X1776500Y935029D01*
X1777528Y935164D01*
X1778485Y935561D01*
X1779308Y936192D01*
X1779939Y937014D01*
X1780336Y937972D01*
X1780471Y939000D01*
X1780336Y940028D01*
X1779939Y940985D01*
X1779308Y941808D01*
X1778485Y942439D01*
X1777528Y942836D01*
X1776500Y942971D01*
D02*
G37*
G36*
X1725156Y939032D02*
X1721469D01*
Y935344D01*
X1721801Y935445D01*
X1722841Y936000D01*
X1723752Y936748D01*
X1724500Y937659D01*
X1725056Y938699D01*
X1725156Y939032D01*
D02*
G37*
G36*
X1797000Y942971D02*
X1795972Y942836D01*
X1795015Y942439D01*
X1794192Y941808D01*
X1793561Y940985D01*
X1793164Y940028D01*
X1793029Y939000D01*
X1793164Y937972D01*
X1793561Y937014D01*
X1794192Y936192D01*
X1795015Y935561D01*
X1795972Y935164D01*
X1797000Y935029D01*
X1798028Y935164D01*
X1798985Y935561D01*
X1799808Y936192D01*
X1800439Y937014D01*
X1800836Y937972D01*
X1800971Y939000D01*
X1800836Y940028D01*
X1800439Y940985D01*
X1799808Y941808D01*
X1798985Y942439D01*
X1798028Y942836D01*
X1797000Y942971D01*
D02*
G37*
G36*
X1840500Y935507D02*
X1839732Y935354D01*
X1839081Y934919D01*
X1838646Y934268D01*
X1838493Y933500D01*
X1838646Y932732D01*
X1839081Y932081D01*
X1839732Y931646D01*
X1840500Y931493D01*
X1841268Y931646D01*
X1841919Y932081D01*
X1842354Y932732D01*
X1842507Y933500D01*
X1842354Y934268D01*
X1841919Y934919D01*
X1841268Y935354D01*
X1840500Y935507D01*
D02*
G37*
G36*
X1899000Y935007D02*
X1898232Y934854D01*
X1897581Y934419D01*
X1897146Y933768D01*
X1896993Y933000D01*
X1897146Y932232D01*
X1897581Y931581D01*
X1898232Y931146D01*
X1899000Y930993D01*
X1899768Y931146D01*
X1900419Y931581D01*
X1900854Y932232D01*
X1901007Y933000D01*
X1900854Y933768D01*
X1900419Y934419D01*
X1899768Y934854D01*
X1899000Y935007D01*
D02*
G37*
G36*
X1959221Y936287D02*
X1958452Y936134D01*
X1957801Y935699D01*
X1957366Y935048D01*
X1957213Y934280D01*
X1957366Y933511D01*
X1957801Y932860D01*
X1958452Y932425D01*
X1959221Y932273D01*
X1959989Y932425D01*
X1960640Y932860D01*
X1961075Y933511D01*
X1961227Y934280D01*
X1961075Y935048D01*
X1960640Y935699D01*
X1959989Y936134D01*
X1959221Y936287D01*
D02*
G37*
G36*
X2081500Y937007D02*
X2080732Y936854D01*
X2080081Y936419D01*
X2079646Y935768D01*
X2079493Y935000D01*
X2079646Y934232D01*
X2080081Y933581D01*
X2080732Y933146D01*
X2081500Y932993D01*
X2082268Y933146D01*
X2082919Y933581D01*
X2083354Y934232D01*
X2083507Y935000D01*
X2083354Y935768D01*
X2082919Y936419D01*
X2082268Y936854D01*
X2081500Y937007D01*
D02*
G37*
G36*
X2012500Y936507D02*
X2011732Y936354D01*
X2011081Y935919D01*
X2010646Y935268D01*
X2010493Y934500D01*
X2010646Y933732D01*
X2011081Y933081D01*
X2011732Y932646D01*
X2012500Y932493D01*
X2013268Y932646D01*
X2013919Y933081D01*
X2014354Y933732D01*
X2014507Y934500D01*
X2014354Y935268D01*
X2013919Y935919D01*
X2013268Y936354D01*
X2012500Y936507D01*
D02*
G37*
G36*
X2023000Y956007D02*
X2022232Y955854D01*
X2021581Y955419D01*
X2021146Y954768D01*
X2020993Y954000D01*
X2021146Y953232D01*
X2021581Y952581D01*
X2022232Y952146D01*
X2023000Y951993D01*
X2023768Y952146D01*
X2024419Y952581D01*
X2024854Y953232D01*
X2025007Y954000D01*
X2024854Y954768D01*
X2024419Y955419D01*
X2023768Y955854D01*
X2023000Y956007D01*
D02*
G37*
G36*
X1786000Y970007D02*
X1785232Y969854D01*
X1784581Y969419D01*
X1784146Y968768D01*
X1783993Y968000D01*
X1784146Y967232D01*
X1784581Y966581D01*
X1785232Y966146D01*
X1786000Y965993D01*
X1786768Y966146D01*
X1787419Y966581D01*
X1787854Y967232D01*
X1788007Y968000D01*
X1787854Y968768D01*
X1787419Y969419D01*
X1786768Y969854D01*
X1786000Y970007D01*
D02*
G37*
G36*
X1753000Y969007D02*
X1752232Y968854D01*
X1751581Y968419D01*
X1751146Y967768D01*
X1750993Y967000D01*
X1751146Y966232D01*
X1751581Y965581D01*
X1752232Y965146D01*
X1753000Y964993D01*
X1753768Y965146D01*
X1754419Y965581D01*
X1754854Y966232D01*
X1755007Y967000D01*
X1754854Y967768D01*
X1754419Y968419D01*
X1753768Y968854D01*
X1753000Y969007D01*
D02*
G37*
G36*
X2086581Y967379D02*
X2085813Y967226D01*
X2085162Y966791D01*
X2084727Y966140D01*
X2084722Y966118D01*
X2084191Y966012D01*
X2083919Y966419D01*
X2083268Y966854D01*
X2082500Y967007D01*
X2081732Y966854D01*
X2081081Y966419D01*
X2080646Y965768D01*
X2080493Y965000D01*
X2080646Y964232D01*
X2081081Y963581D01*
X2081732Y963146D01*
X2082500Y962993D01*
X2083268Y963146D01*
X2083919Y963581D01*
X2084354Y964232D01*
X2084359Y964254D01*
X2084890Y964360D01*
X2085162Y963953D01*
X2085813Y963518D01*
X2086581Y963365D01*
X2087349Y963518D01*
X2088000Y963953D01*
X2088435Y964604D01*
X2088588Y965372D01*
X2088435Y966140D01*
X2088000Y966791D01*
X2087349Y967226D01*
X2086581Y967379D01*
D02*
G37*
G36*
X1824122Y970122D02*
X1821741D01*
X1822006Y969483D01*
X1822647Y968647D01*
X1823483Y968006D01*
X1824122Y967741D01*
Y970122D01*
D02*
G37*
G36*
X1836500Y975320D02*
X1835511Y975190D01*
X1834590Y974808D01*
X1833799Y974201D01*
X1833192Y973410D01*
X1832810Y972489D01*
X1832680Y971500D01*
X1832810Y970511D01*
X1833192Y969590D01*
X1833799Y968799D01*
X1834590Y968192D01*
X1835511Y967810D01*
X1836500Y967680D01*
X1837489Y967810D01*
X1838410Y968192D01*
X1839201Y968799D01*
X1839808Y969590D01*
X1840190Y970511D01*
X1840320Y971500D01*
X1840190Y972489D01*
X1839808Y973410D01*
X1839201Y974201D01*
X1838410Y974808D01*
X1837489Y975190D01*
X1836500Y975320D01*
D02*
G37*
G36*
X1852000Y967007D02*
X1851232Y966854D01*
X1850581Y966419D01*
X1850146Y965768D01*
X1849993Y965000D01*
X1850146Y964232D01*
X1850581Y963581D01*
X1851232Y963146D01*
X1852000Y962993D01*
X1852768Y963146D01*
X1853419Y963581D01*
X1853854Y964232D01*
X1854007Y965000D01*
X1853854Y965768D01*
X1853419Y966419D01*
X1852768Y966854D01*
X1852000Y967007D01*
D02*
G37*
G36*
X1866750Y965757D02*
X1865982Y965604D01*
X1865331Y965169D01*
X1864896Y964518D01*
X1864743Y963750D01*
X1864896Y962982D01*
X1865331Y962331D01*
X1865982Y961896D01*
X1866750Y961743D01*
X1867518Y961896D01*
X1868169Y962331D01*
X1868604Y962982D01*
X1868757Y963750D01*
X1868604Y964518D01*
X1868169Y965169D01*
X1867518Y965604D01*
X1866750Y965757D01*
D02*
G37*
G36*
X1803000Y968007D02*
X1802232Y967854D01*
X1801581Y967419D01*
X1801146Y966768D01*
X1800993Y966000D01*
X1801146Y965232D01*
X1801581Y964581D01*
X1802232Y964146D01*
X1803000Y963993D01*
X1803768Y964146D01*
X1804419Y964581D01*
X1804854Y965232D01*
X1805007Y966000D01*
X1804854Y966768D01*
X1804419Y967419D01*
X1803768Y967854D01*
X1803000Y968007D01*
D02*
G37*
G36*
X1734000Y969007D02*
X1733232Y968854D01*
X1732581Y968419D01*
X1732146Y967768D01*
X1731993Y967000D01*
X1732146Y966232D01*
X1732581Y965581D01*
X1733232Y965146D01*
X1734000Y964993D01*
X1734768Y965146D01*
X1735419Y965581D01*
X1735854Y966232D01*
X1736007Y967000D01*
X1735854Y967768D01*
X1735419Y968419D01*
X1734768Y968854D01*
X1734000Y969007D01*
D02*
G37*
G36*
X1871500Y968007D02*
X1870732Y967854D01*
X1870081Y967419D01*
X1869646Y966768D01*
X1869493Y966000D01*
X1869646Y965232D01*
X1870081Y964581D01*
X1870732Y964146D01*
X1871500Y963993D01*
X1872268Y964146D01*
X1872919Y964581D01*
X1873354Y965232D01*
X1873507Y966000D01*
X1873354Y966768D01*
X1872919Y967419D01*
X1872268Y967854D01*
X1871500Y968007D01*
D02*
G37*
G36*
X1829259Y970122D02*
X1826878D01*
Y967741D01*
X1827517Y968006D01*
X1828353Y968647D01*
X1828994Y969483D01*
X1829259Y970122D01*
D02*
G37*
G36*
X1990500Y975507D02*
X1989732Y975354D01*
X1989081Y974919D01*
X1988646Y974268D01*
X1988493Y973500D01*
X1988646Y972732D01*
X1989081Y972081D01*
X1989732Y971646D01*
X1990500Y971493D01*
X1991268Y971646D01*
X1991919Y972081D01*
X1992354Y972732D01*
X1992507Y973500D01*
X1992354Y974268D01*
X1991919Y974919D01*
X1991268Y975354D01*
X1990500Y975507D01*
D02*
G37*
G36*
X1771000Y974007D02*
X1770232Y973854D01*
X1769581Y973419D01*
X1769146Y972768D01*
X1768993Y972000D01*
X1769146Y971232D01*
X1769581Y970581D01*
X1770232Y970146D01*
X1771000Y969993D01*
X1771768Y970146D01*
X1772419Y970581D01*
X1772854Y971232D01*
X1773007Y972000D01*
X1772854Y972768D01*
X1772419Y973419D01*
X1771768Y973854D01*
X1771000Y974007D01*
D02*
G37*
G36*
X1926000Y976007D02*
X1925232Y975854D01*
X1924581Y975419D01*
X1924146Y974768D01*
X1923993Y974000D01*
X1924146Y973232D01*
X1924180Y973180D01*
X1923820Y972820D01*
X1923768Y972854D01*
X1923000Y973007D01*
X1922232Y972854D01*
X1921581Y972419D01*
X1921146Y971768D01*
X1920993Y971000D01*
X1921146Y970232D01*
X1921581Y969581D01*
X1922232Y969146D01*
X1923000Y968993D01*
X1923768Y969146D01*
X1924419Y969581D01*
X1924854Y970232D01*
X1925007Y971000D01*
X1924854Y971768D01*
X1924820Y971820D01*
X1925180Y972180D01*
X1925232Y972146D01*
X1926000Y971993D01*
X1926768Y972146D01*
X1927419Y972581D01*
X1927854Y973232D01*
X1928007Y974000D01*
X1927854Y974768D01*
X1927419Y975419D01*
X1926768Y975854D01*
X1926000Y976007D01*
D02*
G37*
G36*
X1826878Y975259D02*
Y972878D01*
X1829259D01*
X1828994Y973517D01*
X1828353Y974353D01*
X1827517Y974994D01*
X1826878Y975259D01*
D02*
G37*
G36*
X1824122D02*
X1823483Y974994D01*
X1822647Y974353D01*
X1822006Y973517D01*
X1821741Y972878D01*
X1824122D01*
Y975259D01*
D02*
G37*
G36*
X1947000Y973007D02*
X1946232Y972854D01*
X1945581Y972419D01*
X1945146Y971768D01*
X1944993Y971000D01*
X1945146Y970232D01*
X1945581Y969581D01*
X1946232Y969146D01*
X1947000Y968993D01*
X1947768Y969146D01*
X1948419Y969581D01*
X1948854Y970232D01*
X1949007Y971000D01*
X1948854Y971768D01*
X1948419Y972419D01*
X1947768Y972854D01*
X1947000Y973007D01*
D02*
G37*
G36*
X2004500Y972007D02*
X2003732Y971854D01*
X2003081Y971419D01*
X2002646Y970768D01*
X2002493Y970000D01*
X2002646Y969232D01*
X2003081Y968581D01*
X2003732Y968146D01*
X2004500Y967993D01*
X2005268Y968146D01*
X2005919Y968581D01*
X2006354Y969232D01*
X2006507Y970000D01*
X2006354Y970768D01*
X2005919Y971419D01*
X2005268Y971854D01*
X2004500Y972007D01*
D02*
G37*
G36*
X1852000Y973507D02*
X1851232Y973354D01*
X1850581Y972919D01*
X1850146Y972268D01*
X1849993Y971500D01*
X1850146Y970732D01*
X1850581Y970081D01*
X1851232Y969646D01*
X1852000Y969493D01*
X1852768Y969646D01*
X1853419Y970081D01*
X1853854Y970732D01*
X1854007Y971500D01*
X1853854Y972268D01*
X1853419Y972919D01*
X1852768Y973354D01*
X1852000Y973507D01*
D02*
G37*
G36*
X1728500Y974007D02*
X1727732Y973854D01*
X1727081Y973419D01*
X1726646Y972768D01*
X1726493Y972000D01*
X1726646Y971232D01*
X1727081Y970581D01*
X1727732Y970146D01*
X1728500Y969993D01*
X1729268Y970146D01*
X1729919Y970581D01*
X1730354Y971232D01*
X1730507Y972000D01*
X1730354Y972768D01*
X1729919Y973419D01*
X1729268Y973854D01*
X1728500Y974007D01*
D02*
G37*
G36*
X1967500Y973507D02*
X1966732Y973354D01*
X1966081Y972919D01*
X1965646Y972268D01*
X1965493Y971500D01*
X1965646Y970732D01*
X1966081Y970081D01*
X1966732Y969646D01*
X1967500Y969493D01*
X1968268Y969646D01*
X1968919Y970081D01*
X1969354Y970732D01*
X1969507Y971500D01*
X1969354Y972268D01*
X1968919Y972919D01*
X1968268Y973354D01*
X1967500Y973507D01*
D02*
G37*
G36*
X2078500Y957007D02*
X2077732Y956854D01*
X2077081Y956419D01*
X2076646Y955768D01*
X2076493Y955000D01*
X2076646Y954232D01*
X2077081Y953581D01*
X2077732Y953146D01*
X2078500Y952993D01*
X2079268Y953146D01*
X2079919Y953581D01*
X2080354Y954232D01*
X2080507Y955000D01*
X2080354Y955768D01*
X2079919Y956419D01*
X2079268Y956854D01*
X2078500Y957007D01*
D02*
G37*
G36*
X2043000D02*
X2042232Y956854D01*
X2041581Y956419D01*
X2041146Y955768D01*
X2040993Y955000D01*
X2041146Y954232D01*
X2041581Y953581D01*
X2042232Y953146D01*
X2043000Y952993D01*
X2043768Y953146D01*
X2044419Y953581D01*
X2044854Y954232D01*
X2045007Y955000D01*
X2044854Y955768D01*
X2044419Y956419D01*
X2043768Y956854D01*
X2043000Y957007D01*
D02*
G37*
G36*
X1789000Y957507D02*
X1788232Y957354D01*
X1787581Y956919D01*
X1787146Y956268D01*
X1786993Y955500D01*
X1787146Y954732D01*
X1787581Y954081D01*
X1788232Y953646D01*
X1789000Y953493D01*
X1789768Y953646D01*
X1790419Y954081D01*
X1790854Y954732D01*
X1791007Y955500D01*
X1790854Y956268D01*
X1790419Y956919D01*
X1789768Y957354D01*
X1789000Y957507D01*
D02*
G37*
G36*
X2027500D02*
X2026732Y957354D01*
X2026081Y956919D01*
X2025646Y956268D01*
X2025493Y955500D01*
X2025646Y954732D01*
X2026081Y954081D01*
X2026732Y953646D01*
X2027500Y953493D01*
X2028268Y953646D01*
X2028919Y954081D01*
X2029354Y954732D01*
X2029507Y955500D01*
X2029354Y956268D01*
X2028919Y956919D01*
X2028268Y957354D01*
X2027500Y957507D01*
D02*
G37*
G36*
X1934500D02*
X1933732Y957354D01*
X1933081Y956919D01*
X1932646Y956268D01*
X1932493Y955500D01*
X1932646Y954732D01*
X1933081Y954081D01*
X1933732Y953646D01*
X1934500Y953493D01*
X1935268Y953646D01*
X1935919Y954081D01*
X1936354Y954732D01*
X1936507Y955500D01*
X1936354Y956268D01*
X1935919Y956919D01*
X1935268Y957354D01*
X1934500Y957507D01*
D02*
G37*
G36*
X1760658Y960245D02*
X1759681Y960116D01*
X1758771Y959739D01*
X1757990Y959140D01*
X1757391Y958359D01*
X1757014Y957449D01*
X1756885Y956472D01*
X1757014Y955496D01*
X1757391Y954586D01*
X1757990Y953805D01*
X1758771Y953205D01*
X1759681Y952829D01*
X1760658Y952700D01*
X1761634Y952829D01*
X1762544Y953205D01*
X1763325Y953805D01*
X1763924Y954586D01*
X1764301Y955496D01*
X1764430Y956472D01*
X1764301Y957449D01*
X1763924Y958359D01*
X1763325Y959140D01*
X1762544Y959739D01*
X1761634Y960116D01*
X1760658Y960245D01*
D02*
G37*
G36*
X1943500Y956507D02*
X1942732Y956354D01*
X1942081Y955919D01*
X1941646Y955268D01*
X1941493Y954500D01*
X1941646Y953732D01*
X1942081Y953081D01*
X1942732Y952646D01*
X1943500Y952493D01*
X1944268Y952646D01*
X1944919Y953081D01*
X1945354Y953732D01*
X1945507Y954500D01*
X1945354Y955268D01*
X1944919Y955919D01*
X1944268Y956354D01*
X1943500Y956507D01*
D02*
G37*
G36*
X1770500Y960245D02*
X1769524Y960116D01*
X1768614Y959739D01*
X1767833Y959140D01*
X1767233Y958359D01*
X1766856Y957449D01*
X1766728Y956472D01*
X1766856Y955496D01*
X1767233Y954586D01*
X1767833Y953805D01*
X1768614Y953205D01*
X1769524Y952829D01*
X1770500Y952700D01*
X1771476Y952829D01*
X1772386Y953205D01*
X1773167Y953805D01*
X1773767Y954586D01*
X1774144Y955496D01*
X1774272Y956472D01*
X1774144Y957449D01*
X1773767Y958359D01*
X1773167Y959140D01*
X1772386Y959739D01*
X1771476Y960116D01*
X1770500Y960245D01*
D02*
G37*
G36*
X1960500Y957007D02*
X1959732Y956854D01*
X1959081Y956419D01*
X1958646Y955768D01*
X1958493Y955000D01*
X1958646Y954232D01*
X1959081Y953581D01*
X1959732Y953146D01*
X1960500Y952993D01*
X1961268Y953146D01*
X1961919Y953581D01*
X1962354Y954232D01*
X1962507Y955000D01*
X1962354Y955768D01*
X1961919Y956419D01*
X1961268Y956854D01*
X1960500Y957007D01*
D02*
G37*
G36*
X1780342Y960245D02*
X1779366Y960116D01*
X1778456Y959739D01*
X1777675Y959140D01*
X1777076Y958359D01*
X1776699Y957449D01*
X1776570Y956472D01*
X1776699Y955496D01*
X1777076Y954586D01*
X1777675Y953805D01*
X1778456Y953205D01*
X1779366Y952829D01*
X1780342Y952700D01*
X1781319Y952829D01*
X1782229Y953205D01*
X1783010Y953805D01*
X1783610Y954586D01*
X1783986Y955496D01*
X1784115Y956472D01*
X1783986Y957449D01*
X1783610Y958359D01*
X1783010Y959140D01*
X1782229Y959739D01*
X1781319Y960116D01*
X1780342Y960245D01*
D02*
G37*
G36*
X1865000Y958007D02*
X1864232Y957854D01*
X1863581Y957419D01*
X1863146Y956768D01*
X1862993Y956000D01*
X1863146Y955232D01*
X1863581Y954581D01*
X1864232Y954146D01*
X1865000Y953993D01*
X1865768Y954146D01*
X1866419Y954581D01*
X1866854Y955232D01*
X1867007Y956000D01*
X1866854Y956768D01*
X1866419Y957419D01*
X1865768Y957854D01*
X1865000Y958007D01*
D02*
G37*
G36*
X1728500Y964507D02*
X1727732Y964354D01*
X1727081Y963919D01*
X1726646Y963268D01*
X1726493Y962500D01*
X1726646Y961732D01*
X1727081Y961081D01*
X1727732Y960646D01*
X1728500Y960493D01*
X1729268Y960646D01*
X1729919Y961081D01*
X1730354Y961732D01*
X1730507Y962500D01*
X1730354Y963268D01*
X1729919Y963919D01*
X1729268Y964354D01*
X1728500Y964507D01*
D02*
G37*
G36*
X1956000Y962507D02*
X1955232Y962354D01*
X1954581Y961919D01*
X1954146Y961268D01*
X1953993Y960500D01*
X1954146Y959732D01*
X1954581Y959081D01*
X1955232Y958646D01*
X1956000Y958493D01*
X1956768Y958646D01*
X1957419Y959081D01*
X1957854Y959732D01*
X1958007Y960500D01*
X1957854Y961268D01*
X1957419Y961919D01*
X1956768Y962354D01*
X1956000Y962507D01*
D02*
G37*
G36*
X1995500Y964507D02*
X1994732Y964354D01*
X1994081Y963919D01*
X1993646Y963268D01*
X1993493Y962500D01*
X1993646Y961732D01*
X1994081Y961081D01*
X1994732Y960646D01*
X1995500Y960493D01*
X1996268Y960646D01*
X1996919Y961081D01*
X1997354Y961732D01*
X1997507Y962500D01*
X1997354Y963268D01*
X1996919Y963919D01*
X1996268Y964354D01*
X1995500Y964507D01*
D02*
G37*
G36*
X1859500Y968507D02*
X1858732Y968354D01*
X1858081Y967919D01*
X1857646Y967268D01*
X1857493Y966500D01*
X1857646Y965732D01*
X1857808Y965489D01*
X1857799Y965414D01*
X1857555Y964968D01*
X1856982Y964854D01*
X1856331Y964419D01*
X1855896Y963768D01*
X1855743Y963000D01*
X1855896Y962232D01*
X1856331Y961581D01*
X1856982Y961146D01*
X1857750Y960993D01*
X1858518Y961146D01*
X1859169Y961581D01*
X1859604Y962232D01*
X1859757Y963000D01*
X1859604Y963768D01*
X1859442Y964011D01*
X1859451Y964086D01*
X1859695Y964532D01*
X1860268Y964646D01*
X1860919Y965081D01*
X1861354Y965732D01*
X1861507Y966500D01*
X1861354Y967268D01*
X1860919Y967919D01*
X1860268Y968354D01*
X1859500Y968507D01*
D02*
G37*
G36*
X1797500Y965007D02*
X1796732Y964854D01*
X1796081Y964419D01*
X1795646Y963768D01*
X1795493Y963000D01*
X1795646Y962232D01*
X1796081Y961581D01*
X1796732Y961146D01*
X1797500Y960993D01*
X1798268Y961146D01*
X1798919Y961581D01*
X1799354Y962232D01*
X1799507Y963000D01*
X1799354Y963768D01*
X1798919Y964419D01*
X1798268Y964854D01*
X1797500Y965007D01*
D02*
G37*
G36*
X1734000Y959507D02*
X1733232Y959354D01*
X1732581Y958919D01*
X1732146Y958268D01*
X1731993Y957500D01*
X1732146Y956732D01*
X1732581Y956081D01*
X1733232Y955646D01*
X1734000Y955493D01*
X1734768Y955646D01*
X1735419Y956081D01*
X1735854Y956732D01*
X1736007Y957500D01*
X1735854Y958268D01*
X1735419Y958919D01*
X1734768Y959354D01*
X1734000Y959507D01*
D02*
G37*
G36*
X1842250Y958257D02*
X1841482Y958104D01*
X1840831Y957669D01*
X1840396Y957018D01*
X1840243Y956250D01*
X1840396Y955482D01*
X1840831Y954831D01*
X1841482Y954396D01*
X1842250Y954243D01*
X1843018Y954396D01*
X1843669Y954831D01*
X1844104Y955482D01*
X1844257Y956250D01*
X1844104Y957018D01*
X1843669Y957669D01*
X1843018Y958104D01*
X1842250Y958257D01*
D02*
G37*
G36*
X2082000Y960007D02*
X2081232Y959854D01*
X2080581Y959419D01*
X2080146Y958768D01*
X2079993Y958000D01*
X2080146Y957232D01*
X2080581Y956581D01*
X2081232Y956146D01*
X2082000Y955993D01*
X2082768Y956146D01*
X2083419Y956581D01*
X2083854Y957232D01*
X2084007Y958000D01*
X2083854Y958768D01*
X2083419Y959419D01*
X2082768Y959854D01*
X2082000Y960007D01*
D02*
G37*
G36*
X1836500Y965320D02*
X1835511Y965190D01*
X1834590Y964808D01*
X1833799Y964201D01*
X1833192Y963410D01*
X1832810Y962489D01*
X1832680Y961500D01*
X1832810Y960511D01*
X1833192Y959590D01*
X1833799Y958799D01*
X1834590Y958192D01*
X1835511Y957810D01*
X1836500Y957680D01*
X1837489Y957810D01*
X1838410Y958192D01*
X1839201Y958799D01*
X1839808Y959590D01*
X1840190Y960511D01*
X1840320Y961500D01*
X1840190Y962489D01*
X1839808Y963410D01*
X1839201Y964201D01*
X1838410Y964808D01*
X1837489Y965190D01*
X1836500Y965320D01*
D02*
G37*
G36*
X1825500D02*
X1824511Y965190D01*
X1823590Y964808D01*
X1822799Y964201D01*
X1822192Y963410D01*
X1821810Y962489D01*
X1821680Y961500D01*
X1821810Y960511D01*
X1822192Y959590D01*
X1822799Y958799D01*
X1823590Y958192D01*
X1824511Y957810D01*
X1825500Y957680D01*
X1826489Y957810D01*
X1827410Y958192D01*
X1828201Y958799D01*
X1828808Y959590D01*
X1829190Y960511D01*
X1829320Y961500D01*
X1829190Y962489D01*
X1828808Y963410D01*
X1828201Y964201D01*
X1827410Y964808D01*
X1826489Y965190D01*
X1825500Y965320D01*
D02*
G37*
G36*
X1938500Y830007D02*
X1937732Y829854D01*
X1937081Y829419D01*
X1936646Y828768D01*
X1936493Y828000D01*
X1936646Y827232D01*
X1937081Y826581D01*
X1937732Y826146D01*
X1938500Y825993D01*
X1939268Y826146D01*
X1939919Y826581D01*
X1940354Y827232D01*
X1940507Y828000D01*
X1940354Y828768D01*
X1939919Y829419D01*
X1939268Y829854D01*
X1938500Y830007D01*
D02*
G37*
G36*
X1919000Y824507D02*
X1918232Y824354D01*
X1917581Y823919D01*
X1917146Y823268D01*
X1916993Y822500D01*
X1917146Y821732D01*
X1917581Y821081D01*
X1918232Y820646D01*
X1919000Y820493D01*
X1919768Y820646D01*
X1920419Y821081D01*
X1920854Y821732D01*
X1921007Y822500D01*
X1920854Y823268D01*
X1920419Y823919D01*
X1919768Y824354D01*
X1919000Y824507D01*
D02*
G37*
G36*
X1964000Y831507D02*
X1963232Y831354D01*
X1962581Y830919D01*
X1962146Y830268D01*
X1961993Y829500D01*
X1962146Y828732D01*
X1962581Y828081D01*
X1963232Y827646D01*
X1964000Y827493D01*
X1964768Y827646D01*
X1965419Y828081D01*
X1965854Y828732D01*
X1966007Y829500D01*
X1965854Y830268D01*
X1965419Y830919D01*
X1964768Y831354D01*
X1964000Y831507D01*
D02*
G37*
G36*
X1953500Y835007D02*
X1952732Y834854D01*
X1952081Y834419D01*
X1951646Y833768D01*
X1951493Y833000D01*
X1951646Y832232D01*
X1952081Y831581D01*
X1952732Y831146D01*
X1953500Y830993D01*
X1954268Y831146D01*
X1954919Y831581D01*
X1955354Y832232D01*
X1955507Y833000D01*
X1955354Y833768D01*
X1954919Y834419D01*
X1954268Y834854D01*
X1953500Y835007D01*
D02*
G37*
G36*
X1903500D02*
X1902732Y834854D01*
X1902081Y834419D01*
X1901646Y833768D01*
X1901493Y833000D01*
X1901646Y832232D01*
X1902081Y831581D01*
X1902732Y831146D01*
X1903500Y830993D01*
X1904268Y831146D01*
X1904919Y831581D01*
X1905354Y832232D01*
X1905507Y833000D01*
X1905354Y833768D01*
X1904919Y834419D01*
X1904268Y834854D01*
X1903500Y835007D01*
D02*
G37*
G36*
X1892000Y810007D02*
X1891232Y809854D01*
X1890581Y809419D01*
X1890146Y808768D01*
X1889993Y808000D01*
X1890146Y807232D01*
X1890581Y806581D01*
X1891232Y806146D01*
X1892000Y805993D01*
X1892768Y806146D01*
X1893419Y806581D01*
X1893854Y807232D01*
X1894007Y808000D01*
X1893854Y808768D01*
X1893419Y809419D01*
X1892768Y809854D01*
X1892000Y810007D01*
D02*
G37*
G36*
X1953500Y803507D02*
X1952732Y803354D01*
X1952081Y802919D01*
X1951646Y802268D01*
X1951493Y801500D01*
X1951646Y800732D01*
X1952081Y800081D01*
X1952732Y799646D01*
X1953500Y799493D01*
X1954268Y799646D01*
X1954919Y800081D01*
X1955354Y800732D01*
X1955507Y801500D01*
X1955354Y802268D01*
X1954919Y802919D01*
X1954268Y803354D01*
X1953500Y803507D01*
D02*
G37*
G36*
X1910500Y812007D02*
X1909732Y811854D01*
X1909081Y811419D01*
X1908646Y810768D01*
X1908493Y810000D01*
X1908646Y809232D01*
X1909081Y808581D01*
X1909732Y808146D01*
X1910500Y807993D01*
X1911268Y808146D01*
X1911919Y808581D01*
X1912354Y809232D01*
X1912507Y810000D01*
X1912354Y810768D01*
X1911919Y811419D01*
X1911268Y811854D01*
X1910500Y812007D01*
D02*
G37*
G36*
X1969500Y821007D02*
X1968732Y820854D01*
X1968081Y820419D01*
X1967646Y819768D01*
X1967493Y819000D01*
X1967646Y818232D01*
X1968081Y817581D01*
X1968732Y817146D01*
X1969500Y816993D01*
X1970268Y817146D01*
X1970919Y817581D01*
X1971354Y818232D01*
X1971507Y819000D01*
X1971354Y819768D01*
X1970919Y820419D01*
X1970268Y820854D01*
X1969500Y821007D01*
D02*
G37*
G36*
X1926500Y815007D02*
X1925732Y814854D01*
X1925081Y814419D01*
X1924646Y813768D01*
X1924493Y813000D01*
X1924646Y812232D01*
X1925081Y811581D01*
X1925732Y811146D01*
X1926500Y810993D01*
X1927268Y811146D01*
X1927919Y811581D01*
X1928354Y812232D01*
X1928507Y813000D01*
X1928354Y813768D01*
X1927919Y814419D01*
X1927268Y814854D01*
X1926500Y815007D01*
D02*
G37*
G36*
X2071500Y863507D02*
X2070732Y863354D01*
X2070081Y862919D01*
X2069646Y862268D01*
X2069493Y861500D01*
X2069646Y860732D01*
X2070081Y860081D01*
X2070732Y859646D01*
X2071500Y859493D01*
X2072268Y859646D01*
X2072919Y860081D01*
X2073354Y860732D01*
X2073507Y861500D01*
X2073354Y862268D01*
X2072919Y862919D01*
X2072268Y863354D01*
X2071500Y863507D01*
D02*
G37*
G36*
X1944299Y848511D02*
X1943378Y848328D01*
X1942596Y847805D01*
X1942074Y847024D01*
X1941891Y846102D01*
X1942074Y845181D01*
X1942596Y844399D01*
X1943378Y843877D01*
X1944299Y843694D01*
X1945221Y843877D01*
X1946002Y844399D01*
X1946524Y845181D01*
X1946708Y846102D01*
X1946524Y847024D01*
X1946002Y847805D01*
X1945221Y848328D01*
X1944299Y848511D01*
D02*
G37*
G36*
X2098622Y864311D02*
X2096292D01*
X2096547Y863696D01*
X2097181Y862870D01*
X2098007Y862236D01*
X2098622Y861981D01*
Y864311D01*
D02*
G37*
G36*
X1916500Y867507D02*
X1915732Y867354D01*
X1915081Y866919D01*
X1914646Y866268D01*
X1914493Y865500D01*
X1914646Y864732D01*
X1915081Y864081D01*
X1915732Y863646D01*
X1916500Y863493D01*
X1917268Y863646D01*
X1917919Y864081D01*
X1918354Y864732D01*
X1918507Y865500D01*
X1918354Y866268D01*
X1917919Y866919D01*
X1917268Y867354D01*
X1916500Y867507D01*
D02*
G37*
G36*
X1965500Y867007D02*
X1964732Y866854D01*
X1964081Y866419D01*
X1963646Y865768D01*
X1963493Y865000D01*
X1963646Y864232D01*
X1964081Y863581D01*
X1964732Y863146D01*
X1965500Y862993D01*
X1966268Y863146D01*
X1966919Y863581D01*
X1967354Y864232D01*
X1967507Y865000D01*
X1967354Y865768D01*
X1966919Y866419D01*
X1966268Y866854D01*
X1965500Y867007D01*
D02*
G37*
G36*
X1949500Y840507D02*
X1948732Y840354D01*
X1948081Y839919D01*
X1947646Y839268D01*
X1947493Y838500D01*
X1947646Y837732D01*
X1948081Y837081D01*
X1948732Y836646D01*
X1949500Y836493D01*
X1950268Y836646D01*
X1950919Y837081D01*
X1951354Y837732D01*
X1951507Y838500D01*
X1951354Y839268D01*
X1950919Y839919D01*
X1950268Y840354D01*
X1949500Y840507D01*
D02*
G37*
G36*
X1926000Y838007D02*
X1925232Y837854D01*
X1924581Y837419D01*
X1924146Y836768D01*
X1923993Y836000D01*
X1924146Y835232D01*
X1924581Y834581D01*
X1925232Y834146D01*
X1926000Y833993D01*
X1926768Y834146D01*
X1927419Y834581D01*
X1927854Y835232D01*
X1928007Y836000D01*
X1927854Y836768D01*
X1927419Y837419D01*
X1926768Y837854D01*
X1926000Y838007D01*
D02*
G37*
G36*
X1922232Y848511D02*
X1921311Y848328D01*
X1920529Y847805D01*
X1920007Y847024D01*
X1919824Y846102D01*
X1920007Y845181D01*
X1920529Y844399D01*
X1921311Y843877D01*
X1922232Y843694D01*
X1923154Y843877D01*
X1923935Y844399D01*
X1924458Y845181D01*
X1924641Y846102D01*
X1924458Y847024D01*
X1923935Y847805D01*
X1923154Y848328D01*
X1922232Y848511D01*
D02*
G37*
G36*
X1936944D02*
X1936022Y848328D01*
X1935241Y847805D01*
X1934719Y847024D01*
X1934535Y846102D01*
X1934719Y845181D01*
X1935241Y844399D01*
X1936022Y843877D01*
X1936944Y843694D01*
X1937865Y843877D01*
X1938647Y844399D01*
X1939169Y845181D01*
X1939352Y846102D01*
X1939169Y847024D01*
X1938647Y847805D01*
X1937865Y848328D01*
X1936944Y848511D01*
D02*
G37*
G36*
X1929588D02*
X1928666Y848328D01*
X1927885Y847805D01*
X1927363Y847024D01*
X1927180Y846102D01*
X1927363Y845181D01*
X1927885Y844399D01*
X1928666Y843877D01*
X1929588Y843694D01*
X1930510Y843877D01*
X1931291Y844399D01*
X1931813Y845181D01*
X1931997Y846102D01*
X1931813Y847024D01*
X1931291Y847805D01*
X1930510Y848328D01*
X1929588Y848511D01*
D02*
G37*
G36*
X1933000Y810159D02*
X1931535Y809966D01*
X1930171Y809400D01*
X1928999Y808501D01*
X1928099Y807329D01*
X1927534Y805965D01*
X1927341Y804500D01*
X1927534Y803035D01*
X1928099Y801671D01*
X1928999Y800499D01*
X1930171Y799600D01*
X1931535Y799034D01*
X1933000Y798841D01*
X1934465Y799034D01*
X1935829Y799600D01*
X1937001Y800499D01*
X1937901Y801671D01*
X1938466Y803035D01*
X1938659Y804500D01*
X1938466Y805965D01*
X1937901Y807329D01*
X1937001Y808501D01*
X1935829Y809400D01*
X1934465Y809966D01*
X1933000Y810159D01*
D02*
G37*
G36*
X1921280Y783776D02*
X1918902D01*
Y780020D01*
X1921280D01*
Y783776D01*
D02*
G37*
G36*
X1916571D02*
X1914193D01*
Y780020D01*
X1916571D01*
Y783776D01*
D02*
G37*
G36*
X1926413D02*
X1924035D01*
Y780020D01*
X1926413D01*
Y783776D01*
D02*
G37*
G36*
X1955728Y790075D02*
X1948642D01*
Y780232D01*
X1955728D01*
Y790075D01*
D02*
G37*
G36*
X1945886D02*
X1938799D01*
Y780232D01*
X1945886D01*
Y790075D01*
D02*
G37*
G36*
X1912000Y774507D02*
X1911232Y774354D01*
X1910581Y773919D01*
X1910146Y773268D01*
X1909993Y772500D01*
X1910146Y771732D01*
X1910581Y771081D01*
X1911232Y770646D01*
X1912000Y770493D01*
X1912768Y770646D01*
X1913419Y771081D01*
X1913854Y771732D01*
X1914007Y772500D01*
X1913854Y773268D01*
X1913419Y773919D01*
X1912768Y774354D01*
X1912000Y774507D01*
D02*
G37*
G36*
X1946500Y773007D02*
X1945732Y772854D01*
X1945081Y772419D01*
X1944646Y771768D01*
X1944493Y771000D01*
X1944646Y770232D01*
X1945081Y769581D01*
X1945732Y769146D01*
X1946500Y768993D01*
X1947268Y769146D01*
X1947919Y769581D01*
X1948354Y770232D01*
X1948507Y771000D01*
X1948354Y771768D01*
X1947919Y772419D01*
X1947268Y772854D01*
X1946500Y773007D01*
D02*
G37*
G36*
X1958000Y776007D02*
X1957232Y775854D01*
X1956581Y775419D01*
X1956146Y774768D01*
X1955993Y774000D01*
X1956146Y773232D01*
X1956581Y772581D01*
X1957232Y772146D01*
X1958000Y771993D01*
X1958768Y772146D01*
X1959419Y772581D01*
X1959854Y773232D01*
X1960007Y774000D01*
X1959854Y774768D01*
X1959419Y775419D01*
X1958768Y775854D01*
X1958000Y776007D01*
D02*
G37*
G36*
X1911437Y783776D02*
X1909059D01*
Y780020D01*
X1911437D01*
Y783776D01*
D02*
G37*
G36*
X1932000Y777007D02*
X1931232Y776854D01*
X1930581Y776419D01*
X1930146Y775768D01*
X1929993Y775000D01*
X1930146Y774232D01*
X1930581Y773581D01*
X1931232Y773146D01*
X1932000Y772993D01*
X1932768Y773146D01*
X1933419Y773581D01*
X1933854Y774232D01*
X1934007Y775000D01*
X1933854Y775768D01*
X1933419Y776419D01*
X1932768Y776854D01*
X1932000Y777007D01*
D02*
G37*
G36*
X1963000Y791507D02*
X1962232Y791354D01*
X1961581Y790919D01*
X1961146Y790268D01*
X1960993Y789500D01*
X1961146Y788732D01*
X1961581Y788081D01*
X1962232Y787646D01*
X1963000Y787493D01*
X1963768Y787646D01*
X1964419Y788081D01*
X1964854Y788732D01*
X1965007Y789500D01*
X1964854Y790268D01*
X1964419Y790919D01*
X1963768Y791354D01*
X1963000Y791507D01*
D02*
G37*
G36*
X1926413Y790287D02*
X1924035D01*
Y786531D01*
X1926413D01*
Y790287D01*
D02*
G37*
G36*
X1927500Y795007D02*
X1926732Y794854D01*
X1926081Y794419D01*
X1925646Y793768D01*
X1925493Y793000D01*
X1925646Y792232D01*
X1926081Y791581D01*
X1926732Y791146D01*
X1927500Y790993D01*
X1928268Y791146D01*
X1928919Y791581D01*
X1929354Y792232D01*
X1929507Y793000D01*
X1929354Y793768D01*
X1928919Y794419D01*
X1928268Y794854D01*
X1927500Y795007D01*
D02*
G37*
G36*
X1913000Y797507D02*
X1912232Y797354D01*
X1911581Y796919D01*
X1911146Y796268D01*
X1910993Y795500D01*
X1911146Y794732D01*
X1911581Y794081D01*
X1912232Y793646D01*
X1913000Y793493D01*
X1913768Y793646D01*
X1914419Y794081D01*
X1914854Y794732D01*
X1915007Y795500D01*
X1914854Y796268D01*
X1914419Y796919D01*
X1913768Y797354D01*
X1913000Y797507D01*
D02*
G37*
G36*
X1973000Y796507D02*
X1972232Y796354D01*
X1971581Y795919D01*
X1971146Y795268D01*
X1970993Y794500D01*
X1971146Y793732D01*
X1971581Y793081D01*
X1972232Y792646D01*
X1973000Y792493D01*
X1973768Y792646D01*
X1974419Y793081D01*
X1974854Y793732D01*
X1975007Y794500D01*
X1974854Y795268D01*
X1974419Y795919D01*
X1973768Y796354D01*
X1973000Y796507D01*
D02*
G37*
G36*
X1903000Y787007D02*
X1902232Y786854D01*
X1901581Y786419D01*
X1901146Y785768D01*
X1900993Y785000D01*
X1901146Y784232D01*
X1901581Y783581D01*
X1902232Y783146D01*
X1903000Y782993D01*
X1903768Y783146D01*
X1904419Y783581D01*
X1904854Y784232D01*
X1905007Y785000D01*
X1904854Y785768D01*
X1904419Y786419D01*
X1903768Y786854D01*
X1903000Y787007D01*
D02*
G37*
G36*
X1967493Y784507D02*
X1966725Y784354D01*
X1966074Y783919D01*
X1965639Y783268D01*
X1965486Y782500D01*
X1965639Y781732D01*
X1966074Y781081D01*
X1966725Y780646D01*
X1967493Y780493D01*
X1968261Y780646D01*
X1968912Y781081D01*
X1969347Y781732D01*
X1969500Y782500D01*
X1969347Y783268D01*
X1968912Y783919D01*
X1968261Y784354D01*
X1967493Y784507D01*
D02*
G37*
G36*
X1911437Y790287D02*
X1909059D01*
Y786531D01*
X1911437D01*
Y790287D01*
D02*
G37*
G36*
X1921280D02*
X1918902D01*
Y786531D01*
X1921280D01*
Y790287D01*
D02*
G37*
G36*
X1916571D02*
X1914193D01*
Y786531D01*
X1916571D01*
Y790287D01*
D02*
G37*
G36*
X1937000Y867507D02*
X1936232Y867354D01*
X1935581Y866919D01*
X1935146Y866268D01*
X1934993Y865500D01*
X1935146Y864732D01*
X1935581Y864081D01*
X1936232Y863646D01*
X1937000Y863493D01*
X1937768Y863646D01*
X1938419Y864081D01*
X1938854Y864732D01*
X1939007Y865500D01*
X1938854Y866268D01*
X1938419Y866919D01*
X1937768Y867354D01*
X1937000Y867507D01*
D02*
G37*
G36*
X1800937Y922937D02*
X1793063D01*
Y915063D01*
X1800937D01*
Y922937D01*
D02*
G37*
G36*
X1780437D02*
X1772563D01*
Y915063D01*
X1780437D01*
Y922937D01*
D02*
G37*
G36*
X2021900Y922815D02*
X2017100D01*
X2016559Y922707D01*
X2016100Y922400D01*
X2015793Y921941D01*
X2015685Y921400D01*
Y916600D01*
X2015793Y916059D01*
X2016100Y915600D01*
X2016559Y915293D01*
X2017100Y915185D01*
X2021900D01*
X2022441Y915293D01*
X2022900Y915600D01*
X2023207Y916059D01*
X2023315Y916600D01*
Y921400D01*
X2023207Y921941D01*
X2022900Y922400D01*
X2022441Y922707D01*
X2021900Y922815D01*
D02*
G37*
G36*
X2097500Y921007D02*
X2096732Y920854D01*
X2096081Y920419D01*
X2095646Y919768D01*
X2095493Y919000D01*
X2095646Y918232D01*
X2096081Y917581D01*
X2096732Y917146D01*
X2097500Y916993D01*
X2098268Y917146D01*
X2098919Y917581D01*
X2099354Y918232D01*
X2099507Y919000D01*
X2099354Y919768D01*
X2098919Y920419D01*
X2098268Y920854D01*
X2097500Y921007D01*
D02*
G37*
G36*
X1919500Y920007D02*
X1918732Y919854D01*
X1918081Y919419D01*
X1917646Y918768D01*
X1917493Y918000D01*
X1917646Y917232D01*
X1918081Y916581D01*
X1918732Y916146D01*
X1919500Y915993D01*
X1920268Y916146D01*
X1920919Y916581D01*
X1921354Y917232D01*
X1921507Y918000D01*
X1921354Y918768D01*
X1920919Y919419D01*
X1920268Y919854D01*
X1919500Y920007D01*
D02*
G37*
G36*
X1858000Y917507D02*
X1857232Y917354D01*
X1856581Y916919D01*
X1856146Y916268D01*
X1855993Y915500D01*
X1856146Y914732D01*
X1856581Y914081D01*
X1857232Y913646D01*
X1858000Y913493D01*
X1858768Y913646D01*
X1859419Y914081D01*
X1859854Y914732D01*
X1860007Y915500D01*
X1859854Y916268D01*
X1859419Y916919D01*
X1858768Y917354D01*
X1858000Y917507D01*
D02*
G37*
G36*
X1735000D02*
X1734232Y917354D01*
X1733581Y916919D01*
X1733146Y916268D01*
X1732993Y915500D01*
X1733146Y914732D01*
X1733581Y914081D01*
X1734232Y913646D01*
X1735000Y913493D01*
X1735768Y913646D01*
X1736419Y914081D01*
X1736854Y914732D01*
X1737007Y915500D01*
X1736854Y916268D01*
X1736419Y916919D01*
X1735768Y917354D01*
X1735000Y917507D01*
D02*
G37*
G36*
X1751000Y931703D02*
X1749302Y931536D01*
X1747669Y931041D01*
X1746165Y930237D01*
X1744846Y929154D01*
X1743764Y927835D01*
X1742959Y926331D01*
X1742464Y924698D01*
X1742297Y923000D01*
X1742464Y921302D01*
X1742959Y919669D01*
X1743764Y918165D01*
X1744846Y916846D01*
X1746165Y915763D01*
X1747669Y914959D01*
X1749302Y914464D01*
X1751000Y914297D01*
X1752698Y914464D01*
X1754331Y914959D01*
X1755835Y915763D01*
X1757154Y916846D01*
X1758237Y918165D01*
X1759041Y919669D01*
X1759536Y921302D01*
X1759703Y923000D01*
X1759536Y924698D01*
X1759041Y926331D01*
X1758237Y927835D01*
X1757154Y929154D01*
X1755835Y930237D01*
X1754331Y931041D01*
X1752698Y931536D01*
X1751000Y931703D01*
D02*
G37*
G36*
X2041142Y924525D02*
X2039908Y924363D01*
X2038759Y923887D01*
X2037772Y923129D01*
X2037015Y922142D01*
X2036539Y920993D01*
X2036377Y919760D01*
X2036539Y918526D01*
X2037015Y917377D01*
X2037772Y916390D01*
X2038759Y915633D01*
X2039908Y915157D01*
X2041142Y914995D01*
X2042375Y915157D01*
X2043524Y915633D01*
X2044511Y916390D01*
X2045268Y917377D01*
X2045745Y918526D01*
X2045907Y919760D01*
X2045745Y920993D01*
X2045268Y922142D01*
X2044511Y923129D01*
X2043524Y923887D01*
X2042375Y924363D01*
X2041142Y924525D01*
D02*
G37*
G36*
X1878260Y918507D02*
X1877492Y918354D01*
X1876841Y917919D01*
X1876405Y917268D01*
X1876253Y916500D01*
X1876405Y915732D01*
X1876841Y915081D01*
X1877492Y914646D01*
X1878260Y914493D01*
X1879028Y914646D01*
X1879679Y915081D01*
X1880114Y915732D01*
X1880267Y916500D01*
X1880114Y917268D01*
X1879679Y917919D01*
X1879028Y918354D01*
X1878260Y918507D01*
D02*
G37*
G36*
X1926000Y929007D02*
X1925232Y928854D01*
X1924581Y928419D01*
X1924146Y927768D01*
X1923993Y927000D01*
X1924146Y926232D01*
X1924581Y925581D01*
X1925232Y925146D01*
X1926000Y924993D01*
X1926768Y925146D01*
X1927419Y925581D01*
X1927854Y926232D01*
X1928007Y927000D01*
X1927854Y927768D01*
X1927419Y928419D01*
X1926768Y928854D01*
X1926000Y929007D01*
D02*
G37*
G36*
X1735000Y927007D02*
X1734232Y926854D01*
X1733581Y926419D01*
X1733146Y925768D01*
X1732993Y925000D01*
X1733146Y924232D01*
X1733581Y923581D01*
X1734232Y923146D01*
X1735000Y922993D01*
X1735768Y923146D01*
X1736419Y923581D01*
X1736854Y924232D01*
X1737007Y925000D01*
X1736854Y925768D01*
X1736419Y926419D01*
X1735768Y926854D01*
X1735000Y927007D01*
D02*
G37*
G36*
X1937500Y929007D02*
X1936732Y928854D01*
X1936081Y928419D01*
X1935646Y927768D01*
X1935493Y927000D01*
X1935646Y926232D01*
X1936081Y925581D01*
X1936732Y925146D01*
X1937500Y924993D01*
X1938268Y925146D01*
X1938919Y925581D01*
X1939354Y926232D01*
X1939507Y927000D01*
X1939354Y927768D01*
X1938919Y928419D01*
X1938268Y928854D01*
X1937500Y929007D01*
D02*
G37*
G36*
X1776500Y932971D02*
X1775472Y932836D01*
X1774515Y932439D01*
X1773692Y931808D01*
X1773061Y930986D01*
X1772664Y930028D01*
X1772529Y929000D01*
X1772664Y927972D01*
X1773061Y927015D01*
X1773692Y926192D01*
X1774515Y925561D01*
X1775472Y925164D01*
X1776500Y925029D01*
X1777528Y925164D01*
X1778485Y925561D01*
X1779308Y926192D01*
X1779939Y927015D01*
X1780336Y927972D01*
X1780471Y929000D01*
X1780336Y930028D01*
X1779939Y930986D01*
X1779308Y931808D01*
X1778485Y932439D01*
X1777528Y932836D01*
X1776500Y932971D01*
D02*
G37*
G36*
X1993500Y929007D02*
X1992732Y928854D01*
X1992081Y928419D01*
X1991646Y927768D01*
X1991493Y927000D01*
X1991646Y926232D01*
X1992081Y925581D01*
X1992732Y925146D01*
X1993500Y924993D01*
X1994268Y925146D01*
X1994919Y925581D01*
X1995354Y926232D01*
X1995507Y927000D01*
X1995354Y927768D01*
X1994919Y928419D01*
X1994268Y928854D01*
X1993500Y929007D01*
D02*
G37*
G36*
X1729500Y922507D02*
X1728732Y922354D01*
X1728081Y921919D01*
X1727646Y921268D01*
X1727493Y920500D01*
X1727646Y919732D01*
X1728081Y919081D01*
X1728732Y918646D01*
X1729500Y918493D01*
X1730268Y918646D01*
X1730919Y919081D01*
X1731354Y919732D01*
X1731507Y920500D01*
X1731354Y921268D01*
X1730919Y921919D01*
X1730268Y922354D01*
X1729500Y922507D01*
D02*
G37*
G36*
X1995000Y921507D02*
X1994232Y921354D01*
X1993581Y920919D01*
X1993146Y920268D01*
X1992993Y919500D01*
X1993146Y918732D01*
X1993581Y918081D01*
X1994232Y917646D01*
X1995000Y917493D01*
X1995768Y917646D01*
X1996419Y918081D01*
X1996854Y918732D01*
X1997007Y919500D01*
X1996854Y920268D01*
X1996419Y920919D01*
X1995768Y921354D01*
X1995000Y921507D01*
D02*
G37*
G36*
X1908500Y925007D02*
X1907732Y924854D01*
X1907081Y924419D01*
X1906646Y923768D01*
X1906493Y923000D01*
X1906646Y922232D01*
X1907081Y921581D01*
X1907732Y921146D01*
X1908500Y920993D01*
X1909268Y921146D01*
X1909919Y921581D01*
X1910354Y922232D01*
X1910507Y923000D01*
X1910354Y923768D01*
X1909919Y924419D01*
X1909268Y924854D01*
X1908500Y925007D01*
D02*
G37*
G36*
X2028000Y926507D02*
X2027232Y926354D01*
X2026581Y925919D01*
X2026146Y925268D01*
X2025993Y924500D01*
X2026146Y923732D01*
X2026581Y923081D01*
X2027232Y922646D01*
X2028000Y922493D01*
X2028768Y922646D01*
X2029419Y923081D01*
X2029854Y923732D01*
X2030007Y924500D01*
X2029854Y925268D01*
X2029419Y925919D01*
X2028768Y926354D01*
X2028000Y926507D01*
D02*
G37*
G36*
X2010833Y926174D02*
X2010065Y926022D01*
X2009414Y925587D01*
X2008978Y924935D01*
X2008826Y924167D01*
X2008978Y923399D01*
X2009414Y922748D01*
X2010065Y922313D01*
X2010833Y922160D01*
X2011601Y922313D01*
X2012252Y922748D01*
X2012687Y923399D01*
X2012840Y924167D01*
X2012687Y924935D01*
X2012252Y925587D01*
X2011601Y926022D01*
X2010833Y926174D01*
D02*
G37*
G36*
X1895937Y926721D02*
X1895079Y926608D01*
X1894279Y926277D01*
X1893592Y925750D01*
X1893065Y925063D01*
X1892734Y924264D01*
X1892621Y923405D01*
Y916595D01*
X1892734Y915736D01*
X1893065Y914937D01*
X1893592Y914250D01*
X1894279Y913723D01*
X1895079Y913392D01*
X1895937Y913279D01*
X1896795Y913392D01*
X1897595Y913723D01*
X1898282Y914250D01*
X1898808Y914937D01*
X1899140Y915736D01*
X1899253Y916595D01*
Y923405D01*
X1899140Y924264D01*
X1898808Y925063D01*
X1898282Y925750D01*
X1897595Y926277D01*
X1896795Y926608D01*
X1895937Y926721D01*
D02*
G37*
G36*
X1947500Y880507D02*
X1946732Y880354D01*
X1946081Y879919D01*
X1945646Y879268D01*
X1945493Y878500D01*
X1945646Y877732D01*
X1946081Y877081D01*
X1946732Y876646D01*
X1947500Y876493D01*
X1948268Y876646D01*
X1948919Y877081D01*
X1949354Y877732D01*
X1949507Y878500D01*
X1949354Y879268D01*
X1948919Y879919D01*
X1948268Y880354D01*
X1947500Y880507D01*
D02*
G37*
G36*
X2085000Y878007D02*
X2084232Y877854D01*
X2083581Y877419D01*
X2083146Y876768D01*
X2082993Y876000D01*
X2083146Y875232D01*
X2083581Y874581D01*
X2084232Y874146D01*
X2085000Y873993D01*
X2085768Y874146D01*
X2086419Y874581D01*
X2086854Y875232D01*
X2087007Y876000D01*
X2086854Y876768D01*
X2086419Y877419D01*
X2085768Y877854D01*
X2085000Y878007D01*
D02*
G37*
G36*
X1899500Y887007D02*
X1898732Y886854D01*
X1898081Y886419D01*
X1897646Y885768D01*
X1897493Y885000D01*
X1897646Y884232D01*
X1898081Y883581D01*
X1898732Y883146D01*
X1899500Y882993D01*
X1900268Y883146D01*
X1900919Y883581D01*
X1901354Y884232D01*
X1901507Y885000D01*
X1901354Y885768D01*
X1900919Y886419D01*
X1900268Y886854D01*
X1899500Y887007D01*
D02*
G37*
G36*
X1936500Y889007D02*
X1935732Y888854D01*
X1935081Y888419D01*
X1934646Y887768D01*
X1934493Y887000D01*
X1934646Y886232D01*
X1935081Y885581D01*
X1935732Y885146D01*
X1936500Y884993D01*
X1937268Y885146D01*
X1937919Y885581D01*
X1938354Y886232D01*
X1938507Y887000D01*
X1938354Y887768D01*
X1937919Y888419D01*
X1937268Y888854D01*
X1936500Y889007D01*
D02*
G37*
G36*
X1731500D02*
X1730732Y888854D01*
X1730081Y888419D01*
X1729646Y887768D01*
X1729493Y887000D01*
X1729646Y886232D01*
X1730081Y885581D01*
X1730732Y885146D01*
X1731500Y884993D01*
X1732268Y885146D01*
X1732919Y885581D01*
X1733354Y886232D01*
X1733507Y887000D01*
X1733354Y887768D01*
X1732919Y888419D01*
X1732268Y888854D01*
X1731500Y889007D01*
D02*
G37*
G36*
X2012000Y868007D02*
X2011232Y867854D01*
X2010581Y867419D01*
X2010146Y866768D01*
X2009993Y866000D01*
X2010146Y865232D01*
X2010581Y864581D01*
X2011232Y864146D01*
X2012000Y863993D01*
X2012768Y864146D01*
X2013419Y864581D01*
X2013854Y865232D01*
X2014007Y866000D01*
X2013854Y866768D01*
X2013419Y867419D01*
X2012768Y867854D01*
X2012000Y868007D01*
D02*
G37*
G36*
X1862500Y890641D02*
X1740500D01*
X1740434Y890628D01*
X1739182Y890505D01*
X1737914Y890121D01*
X1736746Y889496D01*
X1735722Y888656D01*
X1734882Y887632D01*
X1734257Y886464D01*
X1733873Y885196D01*
X1733750Y883944D01*
X1733736Y883878D01*
Y870724D01*
X1733750Y870658D01*
X1733873Y869406D01*
X1734257Y868139D01*
X1734882Y866970D01*
X1735722Y865946D01*
X1736746Y865106D01*
X1737914Y864482D01*
X1739182Y864097D01*
X1740434Y863974D01*
X1740500Y863961D01*
X1862500D01*
X1862566Y863974D01*
X1863818Y864097D01*
X1865086Y864482D01*
X1866254Y865106D01*
X1867278Y865946D01*
X1868118Y866970D01*
X1868743Y868139D01*
X1869127Y869406D01*
X1869250Y870658D01*
X1869264Y870724D01*
Y883878D01*
X1869250Y883944D01*
X1869127Y885196D01*
X1868743Y886464D01*
X1868118Y887632D01*
X1867278Y888656D01*
X1866254Y889496D01*
X1865086Y890121D01*
X1863818Y890505D01*
X1862566Y890628D01*
X1862500Y890641D01*
D02*
G37*
G36*
X1881000Y869507D02*
X1880232Y869354D01*
X1879581Y868919D01*
X1879146Y868268D01*
X1878993Y867500D01*
X1879146Y866732D01*
X1879581Y866081D01*
X1880232Y865646D01*
X1881000Y865493D01*
X1881768Y865646D01*
X1882419Y866081D01*
X1882854Y866732D01*
X1883007Y867500D01*
X1882854Y868268D01*
X1882419Y868919D01*
X1881768Y869354D01*
X1881000Y869507D01*
D02*
G37*
G36*
X2060500Y877507D02*
X2059732Y877354D01*
X2059081Y876919D01*
X2058646Y876268D01*
X2058493Y875500D01*
X2058646Y874732D01*
X2059081Y874081D01*
X2059732Y873646D01*
X2060500Y873493D01*
X2061268Y873646D01*
X2061919Y874081D01*
X2062354Y874732D01*
X2062507Y875500D01*
X2062354Y876268D01*
X2061919Y876919D01*
X2061268Y877354D01*
X2060500Y877507D01*
D02*
G37*
G36*
X1731000Y870507D02*
X1730232Y870354D01*
X1729581Y869919D01*
X1729146Y869268D01*
X1728993Y868500D01*
X1729146Y867732D01*
X1729581Y867081D01*
X1730232Y866646D01*
X1731000Y866493D01*
X1731768Y866646D01*
X1732419Y867081D01*
X1732854Y867732D01*
X1733007Y868500D01*
X1732854Y869268D01*
X1732419Y869919D01*
X1731768Y870354D01*
X1731000Y870507D01*
D02*
G37*
G36*
X1943609Y910386D02*
X1942687Y910203D01*
X1941906Y909681D01*
X1941384Y908899D01*
X1941201Y907978D01*
X1941384Y907056D01*
X1941906Y906275D01*
X1942687Y905753D01*
X1943609Y905569D01*
X1944531Y905753D01*
X1945312Y906275D01*
X1945834Y907056D01*
X1946018Y907978D01*
X1945834Y908899D01*
X1945312Y909681D01*
X1944531Y910203D01*
X1943609Y910386D01*
D02*
G37*
G36*
X1936253D02*
X1935332Y910203D01*
X1934550Y909681D01*
X1934028Y908899D01*
X1933845Y907978D01*
X1934028Y907056D01*
X1934550Y906275D01*
X1935332Y905753D01*
X1936253Y905569D01*
X1937175Y905753D01*
X1937956Y906275D01*
X1938479Y907056D01*
X1938662Y907978D01*
X1938479Y908899D01*
X1937956Y909681D01*
X1937175Y910203D01*
X1936253Y910386D01*
D02*
G37*
G36*
X1914000Y915507D02*
X1913232Y915354D01*
X1912581Y914919D01*
X1912146Y914268D01*
X1911993Y913500D01*
X1912146Y912732D01*
X1912581Y912081D01*
X1913232Y911646D01*
X1914000Y911493D01*
X1914768Y911646D01*
X1915419Y912081D01*
X1915854Y912732D01*
X1916007Y913500D01*
X1915854Y914268D01*
X1915419Y914919D01*
X1914768Y915354D01*
X1914000Y915507D01*
D02*
G37*
G36*
X1889313Y926733D02*
X1886813D01*
X1886018Y926575D01*
X1885344Y926124D01*
X1884894Y925451D01*
X1884736Y924656D01*
Y915345D01*
X1884894Y914550D01*
X1885344Y913876D01*
X1886018Y913425D01*
X1886813Y913267D01*
X1889313D01*
X1890108Y913425D01*
X1890782Y913876D01*
X1891232Y914550D01*
X1891390Y915345D01*
Y924656D01*
X1891232Y925451D01*
X1890782Y926124D01*
X1890108Y926575D01*
X1889313Y926733D01*
D02*
G37*
G36*
X2092000Y916507D02*
X2091232Y916354D01*
X2090581Y915919D01*
X2090146Y915268D01*
X2089993Y914500D01*
X2090146Y913732D01*
X2090581Y913081D01*
X2091232Y912646D01*
X2092000Y912493D01*
X2092768Y912646D01*
X2093419Y913081D01*
X2093854Y913732D01*
X2094007Y914500D01*
X2093854Y915268D01*
X2093419Y915919D01*
X2092768Y916354D01*
X2092000Y916507D01*
D02*
G37*
G36*
X2075000Y892507D02*
X2074232Y892354D01*
X2073581Y891919D01*
X2073146Y891268D01*
X2072993Y890500D01*
X2073146Y889732D01*
X2073581Y889081D01*
X2074232Y888646D01*
X2075000Y888493D01*
X2075768Y888646D01*
X2076419Y889081D01*
X2076854Y889732D01*
X2077007Y890500D01*
X2076854Y891268D01*
X2076419Y891919D01*
X2075768Y892354D01*
X2075000Y892507D01*
D02*
G37*
G36*
X1720500Y892007D02*
X1719732Y891854D01*
X1719081Y891419D01*
X1718646Y890768D01*
X1718493Y890000D01*
X1718646Y889232D01*
X1719081Y888581D01*
X1719732Y888146D01*
X1720500Y887993D01*
X1721268Y888146D01*
X1721919Y888581D01*
X1722354Y889232D01*
X1722507Y890000D01*
X1722354Y890768D01*
X1721919Y891419D01*
X1721268Y891854D01*
X1720500Y892007D01*
D02*
G37*
G36*
X1973500Y893007D02*
X1972732Y892854D01*
X1972081Y892419D01*
X1971646Y891768D01*
X1971493Y891000D01*
X1971646Y890232D01*
X1972081Y889581D01*
X1972732Y889146D01*
X1973500Y888993D01*
X1974268Y889146D01*
X1974919Y889581D01*
X1975354Y890232D01*
X1975507Y891000D01*
X1975354Y891768D01*
X1974919Y892419D01*
X1974268Y892854D01*
X1973500Y893007D01*
D02*
G37*
G36*
X1928898Y910386D02*
X1927976Y910203D01*
X1927195Y909681D01*
X1926673Y908899D01*
X1926489Y907978D01*
X1926673Y907056D01*
X1927195Y906275D01*
X1927976Y905753D01*
X1928898Y905569D01*
X1929819Y905753D01*
X1930601Y906275D01*
X1931123Y907056D01*
X1931306Y907978D01*
X1931123Y908899D01*
X1930601Y909681D01*
X1929819Y910203D01*
X1928898Y910386D01*
D02*
G37*
G36*
X2033000Y893507D02*
X2032232Y893354D01*
X2031581Y892919D01*
X2031146Y892268D01*
X2030993Y891500D01*
X2031146Y890732D01*
X2031581Y890081D01*
X2032232Y889646D01*
X2033000Y889493D01*
X2033768Y889646D01*
X2034419Y890081D01*
X2034854Y890732D01*
X2035007Y891500D01*
X2034854Y892268D01*
X2034419Y892919D01*
X2033768Y893354D01*
X2033000Y893507D01*
D02*
G37*
G36*
X2016079Y1053507D02*
X2015311Y1053354D01*
X2014659Y1052919D01*
X2014224Y1052268D01*
X2014071Y1051500D01*
X2014224Y1050732D01*
X2014659Y1050081D01*
X2015311Y1049646D01*
X2016079Y1049493D01*
X2016847Y1049646D01*
X2017498Y1050081D01*
X2017933Y1050732D01*
X2018086Y1051500D01*
X2017933Y1052268D01*
X2017498Y1052919D01*
X2016847Y1053354D01*
X2016079Y1053507D01*
D02*
G37*
G36*
X1970000D02*
X1969232Y1053354D01*
X1968581Y1052919D01*
X1968146Y1052268D01*
X1967993Y1051500D01*
X1968146Y1050732D01*
X1968581Y1050081D01*
X1969232Y1049646D01*
X1970000Y1049493D01*
X1970768Y1049646D01*
X1971419Y1050081D01*
X1971854Y1050732D01*
X1972007Y1051500D01*
X1971854Y1052268D01*
X1971419Y1052919D01*
X1970768Y1053354D01*
X1970000Y1053507D01*
D02*
G37*
G36*
X2047500D02*
X2046732Y1053354D01*
X2046081Y1052919D01*
X2045646Y1052268D01*
X2045493Y1051500D01*
X2045646Y1050732D01*
X2046081Y1050081D01*
X2046732Y1049646D01*
X2047500Y1049493D01*
X2048268Y1049646D01*
X2048919Y1050081D01*
X2049354Y1050732D01*
X2049507Y1051500D01*
X2049354Y1052268D01*
X2048919Y1052919D01*
X2048268Y1053354D01*
X2047500Y1053507D01*
D02*
G37*
G36*
X2021000Y1054507D02*
X2020232Y1054354D01*
X2019581Y1053919D01*
X2019146Y1053268D01*
X2018993Y1052500D01*
X2019146Y1051732D01*
X2019581Y1051081D01*
X2020232Y1050646D01*
X2021000Y1050493D01*
X2021768Y1050646D01*
X2022419Y1051081D01*
X2022854Y1051732D01*
X2023007Y1052500D01*
X2022854Y1053268D01*
X2022419Y1053919D01*
X2021768Y1054354D01*
X2021000Y1054507D01*
D02*
G37*
G36*
X2061500Y1053507D02*
X2060732Y1053354D01*
X2060081Y1052919D01*
X2059646Y1052268D01*
X2059493Y1051500D01*
X2059646Y1050732D01*
X2060081Y1050081D01*
X2060732Y1049646D01*
X2061500Y1049493D01*
X2062268Y1049646D01*
X2062919Y1050081D01*
X2063354Y1050732D01*
X2063507Y1051500D01*
X2063354Y1052268D01*
X2062919Y1052919D01*
X2062268Y1053354D01*
X2061500Y1053507D01*
D02*
G37*
G36*
X1748500Y1055471D02*
X1747472Y1055336D01*
X1746515Y1054939D01*
X1745692Y1054308D01*
X1745061Y1053485D01*
X1744664Y1052528D01*
X1744529Y1051500D01*
X1744664Y1050472D01*
X1745061Y1049514D01*
X1745692Y1048692D01*
X1746515Y1048061D01*
X1747472Y1047664D01*
X1748500Y1047529D01*
X1749528Y1047664D01*
X1750485Y1048061D01*
X1751308Y1048692D01*
X1751939Y1049514D01*
X1752336Y1050472D01*
X1752471Y1051500D01*
X1752336Y1052528D01*
X1751939Y1053485D01*
X1751308Y1054308D01*
X1750485Y1054939D01*
X1749528Y1055336D01*
X1748500Y1055471D01*
D02*
G37*
G36*
X1805000Y1049507D02*
X1804232Y1049354D01*
X1803581Y1048919D01*
X1803146Y1048268D01*
X1802993Y1047500D01*
X1803146Y1046732D01*
X1803581Y1046081D01*
X1804232Y1045646D01*
X1805000Y1045493D01*
X1805768Y1045646D01*
X1806419Y1046081D01*
X1806854Y1046732D01*
X1807007Y1047500D01*
X1806854Y1048268D01*
X1806419Y1048919D01*
X1805768Y1049354D01*
X1805000Y1049507D01*
D02*
G37*
G36*
X1772000Y1055471D02*
X1770972Y1055336D01*
X1770015Y1054939D01*
X1769192Y1054308D01*
X1768561Y1053485D01*
X1768164Y1052528D01*
X1768029Y1051500D01*
X1768164Y1050472D01*
X1768561Y1049514D01*
X1769192Y1048692D01*
X1770015Y1048061D01*
X1770972Y1047664D01*
X1772000Y1047529D01*
X1773028Y1047664D01*
X1773985Y1048061D01*
X1774808Y1048692D01*
X1775439Y1049514D01*
X1775836Y1050472D01*
X1775971Y1051500D01*
X1775836Y1052528D01*
X1775439Y1053485D01*
X1774808Y1054308D01*
X1773985Y1054939D01*
X1773028Y1055336D01*
X1772000Y1055471D01*
D02*
G37*
G36*
X1946000Y1053507D02*
X1945232Y1053354D01*
X1944581Y1052919D01*
X1944146Y1052268D01*
X1943993Y1051500D01*
X1944146Y1050732D01*
X1944581Y1050081D01*
X1945232Y1049646D01*
X1946000Y1049493D01*
X1946768Y1049646D01*
X1947419Y1050081D01*
X1947854Y1050732D01*
X1948007Y1051500D01*
X1947854Y1052268D01*
X1947419Y1052919D01*
X1946768Y1053354D01*
X1946000Y1053507D01*
D02*
G37*
G36*
X1801000Y1052007D02*
X1800232Y1051854D01*
X1799581Y1051419D01*
X1799146Y1050768D01*
X1798993Y1050000D01*
X1799146Y1049232D01*
X1799581Y1048581D01*
X1800232Y1048146D01*
X1801000Y1047993D01*
X1801768Y1048146D01*
X1802419Y1048581D01*
X1802854Y1049232D01*
X1803007Y1050000D01*
X1802854Y1050768D01*
X1802419Y1051419D01*
X1801768Y1051854D01*
X1801000Y1052007D01*
D02*
G37*
G36*
X2026000Y1060507D02*
X2025232Y1060354D01*
X2024581Y1059919D01*
X2024146Y1059268D01*
X2023993Y1058500D01*
X2024146Y1057732D01*
X2024581Y1057081D01*
X2025232Y1056646D01*
X2026000Y1056493D01*
X2026768Y1056646D01*
X2027419Y1057081D01*
X2027854Y1057732D01*
X2028007Y1058500D01*
X2027854Y1059268D01*
X2027419Y1059919D01*
X2026768Y1060354D01*
X2026000Y1060507D01*
D02*
G37*
G36*
X1725156Y1059031D02*
X1721469D01*
Y1055344D01*
X1721801Y1055445D01*
X1722841Y1056000D01*
X1723752Y1056748D01*
X1724500Y1057659D01*
X1725056Y1058699D01*
X1725156Y1059031D01*
D02*
G37*
G36*
X1971000Y1061007D02*
X1970232Y1060854D01*
X1969581Y1060419D01*
X1969146Y1059768D01*
X1968993Y1059000D01*
X1969146Y1058232D01*
X1969581Y1057581D01*
X1970232Y1057146D01*
X1971000Y1056993D01*
X1971768Y1057146D01*
X1972419Y1057581D01*
X1972854Y1058232D01*
X1973007Y1059000D01*
X1972854Y1059768D01*
X1972419Y1060419D01*
X1971768Y1060854D01*
X1971000Y1061007D01*
D02*
G37*
G36*
X1800100Y1062507D02*
X1799332Y1062354D01*
X1798681Y1061919D01*
X1798246Y1061268D01*
X1798093Y1060500D01*
X1798246Y1059732D01*
X1798681Y1059081D01*
X1799332Y1058646D01*
X1800100Y1058493D01*
X1800868Y1058646D01*
X1801519Y1059081D01*
X1801954Y1059732D01*
X1802107Y1060500D01*
X1801954Y1061268D01*
X1801519Y1061919D01*
X1800868Y1062354D01*
X1800100Y1062507D01*
D02*
G37*
G36*
X2098622Y1060550D02*
X2097983Y1060285D01*
X2097147Y1059644D01*
X2096506Y1058809D01*
X2096241Y1058169D01*
X2098622D01*
Y1060550D01*
D02*
G37*
G36*
X2003000Y1053507D02*
X2002232Y1053354D01*
X2001581Y1052919D01*
X2001284Y1052475D01*
X2000716D01*
X2000419Y1052919D01*
X1999768Y1053354D01*
X1999000Y1053507D01*
X1998232Y1053354D01*
X1997581Y1052919D01*
X1997284Y1052475D01*
X1996716D01*
X1996419Y1052919D01*
X1995768Y1053354D01*
X1995000Y1053507D01*
X1994232Y1053354D01*
X1993581Y1052919D01*
X1993284Y1052475D01*
X1992716D01*
X1992419Y1052919D01*
X1991768Y1053354D01*
X1991000Y1053507D01*
X1990232Y1053354D01*
X1989581Y1052919D01*
X1989284Y1052475D01*
X1988716D01*
X1988419Y1052919D01*
X1987768Y1053354D01*
X1987000Y1053507D01*
X1986232Y1053354D01*
X1985581Y1052919D01*
X1985284Y1052475D01*
X1984716D01*
X1984419Y1052919D01*
X1983768Y1053354D01*
X1983000Y1053507D01*
X1982232Y1053354D01*
X1981581Y1052919D01*
X1981284Y1052475D01*
X1980716D01*
X1980419Y1052919D01*
X1979768Y1053354D01*
X1979000Y1053507D01*
X1978232Y1053354D01*
X1977581Y1052919D01*
X1977146Y1052268D01*
X1976993Y1051500D01*
X1977146Y1050732D01*
X1977581Y1050081D01*
X1978232Y1049646D01*
X1979000Y1049493D01*
X1979768Y1049646D01*
X1980419Y1050081D01*
X1980716Y1050525D01*
X1981284D01*
X1981581Y1050081D01*
X1982232Y1049646D01*
X1983000Y1049493D01*
X1983768Y1049646D01*
X1984419Y1050081D01*
X1984716Y1050525D01*
X1985284D01*
X1985581Y1050081D01*
X1986232Y1049646D01*
X1987000Y1049493D01*
X1987768Y1049646D01*
X1988419Y1050081D01*
X1988716Y1050525D01*
X1989284D01*
X1989581Y1050081D01*
X1990232Y1049646D01*
X1991000Y1049493D01*
X1991768Y1049646D01*
X1992419Y1050081D01*
X1992716Y1050525D01*
X1993284D01*
X1993581Y1050081D01*
X1994232Y1049646D01*
X1995000Y1049493D01*
X1995768Y1049646D01*
X1996419Y1050081D01*
X1996716Y1050525D01*
X1997284D01*
X1997581Y1050081D01*
X1998232Y1049646D01*
X1999000Y1049493D01*
X1999768Y1049646D01*
X2000419Y1050081D01*
X2000716Y1050525D01*
X2001284D01*
X2001581Y1050081D01*
X2002232Y1049646D01*
X2003000Y1049493D01*
X2003768Y1049646D01*
X2004419Y1050081D01*
X2004854Y1050732D01*
X2005007Y1051500D01*
X2004854Y1052268D01*
X2004419Y1052919D01*
X2003768Y1053354D01*
X2003000Y1053507D01*
D02*
G37*
G36*
X1780500Y1055507D02*
X1779732Y1055354D01*
X1779081Y1054919D01*
X1778646Y1054268D01*
X1778493Y1053500D01*
X1778646Y1052732D01*
X1779081Y1052081D01*
X1779732Y1051646D01*
X1780500Y1051493D01*
X1781268Y1051646D01*
X1781919Y1052081D01*
X1782354Y1052732D01*
X1782507Y1053500D01*
X1782354Y1054268D01*
X1781919Y1054919D01*
X1781268Y1055354D01*
X1780500Y1055507D01*
D02*
G37*
G36*
X2098622Y1055413D02*
X2096241D01*
X2096506Y1054774D01*
X2097147Y1053938D01*
X2097983Y1053297D01*
X2098622Y1053032D01*
Y1055413D01*
D02*
G37*
G36*
X1766000Y1058507D02*
X1765232Y1058354D01*
X1764581Y1057919D01*
X1764146Y1057268D01*
X1763993Y1056500D01*
X1764146Y1055732D01*
X1764581Y1055081D01*
X1765232Y1054646D01*
X1766000Y1054493D01*
X1766768Y1054646D01*
X1767419Y1055081D01*
X1767854Y1055732D01*
X1768007Y1056500D01*
X1767854Y1057268D01*
X1767419Y1057919D01*
X1766768Y1058354D01*
X1766000Y1058507D01*
D02*
G37*
G36*
X1805000Y1058007D02*
X1804232Y1057854D01*
X1803581Y1057419D01*
X1803146Y1056768D01*
X1802993Y1056000D01*
X1803146Y1055232D01*
X1803581Y1054581D01*
X1804232Y1054146D01*
X1805000Y1053993D01*
X1805768Y1054146D01*
X1806419Y1054581D01*
X1806854Y1055232D01*
X1807007Y1056000D01*
X1806854Y1056768D01*
X1806419Y1057419D01*
X1805768Y1057854D01*
X1805000Y1058007D01*
D02*
G37*
G36*
X2061500Y1046507D02*
X2060732Y1046354D01*
X2060081Y1045919D01*
X2059646Y1045268D01*
X2059493Y1044500D01*
X2059646Y1043732D01*
X2060081Y1043081D01*
X2060732Y1042646D01*
X2061500Y1042493D01*
X2062268Y1042646D01*
X2062919Y1043081D01*
X2063354Y1043732D01*
X2063507Y1044500D01*
X2063354Y1045268D01*
X2062919Y1045919D01*
X2062268Y1046354D01*
X2061500Y1046507D01*
D02*
G37*
G36*
X1853000Y1033007D02*
X1852232Y1032854D01*
X1851581Y1032419D01*
X1851146Y1031768D01*
X1850993Y1031000D01*
X1851146Y1030232D01*
X1851581Y1029581D01*
X1852232Y1029146D01*
X1853000Y1028993D01*
X1853768Y1029146D01*
X1854262Y1029475D01*
X1854419Y1029581D01*
X1854884Y1029376D01*
X1855081Y1029081D01*
X1855732Y1028646D01*
X1856500Y1028493D01*
X1857268Y1028646D01*
X1857919Y1029081D01*
X1858354Y1029732D01*
X1858507Y1030500D01*
X1858354Y1031268D01*
X1857919Y1031919D01*
X1857268Y1032354D01*
X1856500Y1032507D01*
X1855732Y1032354D01*
X1855239Y1032025D01*
X1855081Y1031919D01*
X1854616Y1032124D01*
X1854419Y1032419D01*
X1853768Y1032854D01*
X1853000Y1033007D01*
D02*
G37*
G36*
X2083000Y1054083D02*
X2082024Y1053955D01*
X2081114Y1053578D01*
X2080333Y1052979D01*
X2079733Y1052197D01*
X2079356Y1051287D01*
X2079228Y1050311D01*
X2079356Y1049335D01*
X2079733Y1048425D01*
X2080333Y1047643D01*
X2081114Y1047044D01*
X2082024Y1046667D01*
X2082335Y1046626D01*
Y1046122D01*
X2082024Y1046081D01*
X2081114Y1045704D01*
X2080333Y1045105D01*
X2079733Y1044323D01*
X2079356Y1043413D01*
X2079228Y1042437D01*
X2079356Y1041461D01*
X2079733Y1040551D01*
X2080333Y1039769D01*
X2081114Y1039170D01*
X2082024Y1038793D01*
X2082335Y1038752D01*
Y1038248D01*
X2082024Y1038207D01*
X2081114Y1037830D01*
X2080333Y1037230D01*
X2079733Y1036449D01*
X2079356Y1035539D01*
X2079228Y1034563D01*
X2079356Y1033587D01*
X2079733Y1032677D01*
X2080333Y1031896D01*
X2081114Y1031296D01*
X2081486Y1031142D01*
X2081387Y1030642D01*
X2079047D01*
Y1028067D01*
X2086953D01*
Y1030642D01*
X2084613D01*
X2084514Y1031142D01*
X2084886Y1031296D01*
X2085667Y1031896D01*
X2086267Y1032677D01*
X2086644Y1033587D01*
X2086772Y1034563D01*
X2086644Y1035539D01*
X2086267Y1036449D01*
X2085667Y1037230D01*
X2084886Y1037830D01*
X2083976Y1038207D01*
X2083665Y1038248D01*
Y1038752D01*
X2083976Y1038793D01*
X2084886Y1039170D01*
X2085667Y1039769D01*
X2086267Y1040551D01*
X2086644Y1041461D01*
X2086772Y1042437D01*
X2086644Y1043413D01*
X2086267Y1044323D01*
X2085667Y1045105D01*
X2084886Y1045704D01*
X2083976Y1046081D01*
X2083665Y1046122D01*
Y1046626D01*
X2083976Y1046667D01*
X2084886Y1047044D01*
X2085667Y1047643D01*
X2086267Y1048425D01*
X2086644Y1049335D01*
X2086772Y1050311D01*
X2086644Y1051287D01*
X2086267Y1052197D01*
X2085667Y1052979D01*
X2084886Y1053578D01*
X2083976Y1053955D01*
X2083000Y1054083D01*
D02*
G37*
G36*
X1984555Y1037177D02*
X1965067D01*
Y1028712D01*
X1984555D01*
Y1037177D01*
D02*
G37*
G36*
X1825000Y1033007D02*
X1824232Y1032854D01*
X1823581Y1032419D01*
X1823146Y1031768D01*
X1822993Y1031000D01*
X1823146Y1030232D01*
X1823581Y1029581D01*
X1824232Y1029146D01*
X1825000Y1028993D01*
X1825768Y1029146D01*
X1826419Y1029581D01*
X1826854Y1030232D01*
X1827007Y1031000D01*
X1826854Y1031768D01*
X1826419Y1032419D01*
X1825768Y1032854D01*
X1825000Y1033007D01*
D02*
G37*
G36*
X1734000D02*
X1733232Y1032854D01*
X1732581Y1032419D01*
X1732146Y1031768D01*
X1731993Y1031000D01*
X1732146Y1030232D01*
X1732581Y1029581D01*
X1733232Y1029146D01*
X1734000Y1028993D01*
X1734768Y1029146D01*
X1735419Y1029581D01*
X1735854Y1030232D01*
X1736007Y1031000D01*
X1735854Y1031768D01*
X1735419Y1032419D01*
X1734768Y1032854D01*
X1734000Y1033007D01*
D02*
G37*
G36*
X1728500Y1028507D02*
X1727732Y1028354D01*
X1727081Y1027919D01*
X1726646Y1027268D01*
X1726493Y1026500D01*
X1726646Y1025732D01*
X1727081Y1025081D01*
X1727732Y1024646D01*
X1728500Y1024493D01*
X1729268Y1024646D01*
X1729919Y1025081D01*
X1730354Y1025732D01*
X1730507Y1026500D01*
X1730354Y1027268D01*
X1729919Y1027919D01*
X1729268Y1028354D01*
X1728500Y1028507D01*
D02*
G37*
G36*
X1721469Y1026656D02*
Y1022968D01*
X1725156D01*
X1725056Y1023301D01*
X1724500Y1024341D01*
X1723752Y1025252D01*
X1722841Y1026000D01*
X1721801Y1026556D01*
X1721469Y1026656D01*
D02*
G37*
G36*
X1780500Y1031507D02*
X1779732Y1031354D01*
X1779081Y1030919D01*
X1778646Y1030268D01*
X1778493Y1029500D01*
X1778646Y1028732D01*
X1779081Y1028081D01*
X1779732Y1027646D01*
X1780500Y1027493D01*
X1781268Y1027646D01*
X1781919Y1028081D01*
X1782354Y1028732D01*
X1782507Y1029500D01*
X1782354Y1030268D01*
X1781919Y1030919D01*
X1781268Y1031354D01*
X1780500Y1031507D01*
D02*
G37*
G36*
X1775937Y1035437D02*
X1768063D01*
Y1027563D01*
X1775937D01*
Y1035437D01*
D02*
G37*
G36*
X1752437D02*
X1744563D01*
Y1027563D01*
X1752437D01*
Y1035437D01*
D02*
G37*
G36*
X1748500Y1045471D02*
X1747472Y1045336D01*
X1746515Y1044939D01*
X1745692Y1044308D01*
X1745061Y1043486D01*
X1744664Y1042528D01*
X1744529Y1041500D01*
X1744664Y1040472D01*
X1745061Y1039515D01*
X1745692Y1038692D01*
X1746515Y1038061D01*
X1747472Y1037664D01*
X1748500Y1037529D01*
X1749528Y1037664D01*
X1750485Y1038061D01*
X1751308Y1038692D01*
X1751939Y1039515D01*
X1752336Y1040472D01*
X1752471Y1041500D01*
X1752336Y1042528D01*
X1751939Y1043486D01*
X1751308Y1044308D01*
X1750485Y1044939D01*
X1749528Y1045336D01*
X1748500Y1045471D01*
D02*
G37*
G36*
X1846500Y1041007D02*
X1845732Y1040854D01*
X1845081Y1040419D01*
X1844646Y1039768D01*
X1844493Y1039000D01*
X1844646Y1038232D01*
X1845081Y1037581D01*
X1845732Y1037146D01*
X1846500Y1036993D01*
X1847268Y1037146D01*
X1847919Y1037581D01*
X1848354Y1038232D01*
X1848507Y1039000D01*
X1848354Y1039768D01*
X1847919Y1040419D01*
X1847268Y1040854D01*
X1846500Y1041007D01*
D02*
G37*
G36*
X1772000Y1045471D02*
X1770972Y1045336D01*
X1770015Y1044939D01*
X1769192Y1044308D01*
X1768561Y1043486D01*
X1768164Y1042528D01*
X1768029Y1041500D01*
X1768164Y1040472D01*
X1768561Y1039515D01*
X1769192Y1038692D01*
X1770015Y1038061D01*
X1770972Y1037664D01*
X1772000Y1037529D01*
X1773028Y1037664D01*
X1773985Y1038061D01*
X1774808Y1038692D01*
X1775439Y1039515D01*
X1775836Y1040472D01*
X1775971Y1041500D01*
X1775836Y1042528D01*
X1775439Y1043486D01*
X1774808Y1044308D01*
X1773985Y1044939D01*
X1773028Y1045336D01*
X1772000Y1045471D01*
D02*
G37*
G36*
X1852000Y1045007D02*
X1851232Y1044854D01*
X1850581Y1044419D01*
X1850146Y1043768D01*
X1849993Y1043000D01*
X1850146Y1042232D01*
X1850581Y1041581D01*
X1851232Y1041146D01*
X1852000Y1040993D01*
X1852768Y1041146D01*
X1853419Y1041581D01*
X1853854Y1042232D01*
X1854007Y1043000D01*
X1853854Y1043768D01*
X1853419Y1044419D01*
X1852768Y1044854D01*
X1852000Y1045007D01*
D02*
G37*
G36*
X1780000Y1043007D02*
X1779232Y1042854D01*
X1778581Y1042419D01*
X1778146Y1041768D01*
X1777993Y1041000D01*
X1778146Y1040232D01*
X1778581Y1039581D01*
X1779232Y1039146D01*
X1780000Y1038993D01*
X1780768Y1039146D01*
X1781419Y1039581D01*
X1781854Y1040232D01*
X1782007Y1041000D01*
X1781854Y1041768D01*
X1781419Y1042419D01*
X1780768Y1042854D01*
X1780000Y1043007D01*
D02*
G37*
G36*
X1995500Y1033507D02*
X1994732Y1033354D01*
X1994081Y1032919D01*
X1993646Y1032268D01*
X1993493Y1031500D01*
X1993646Y1030732D01*
X1994081Y1030081D01*
X1994732Y1029646D01*
X1995500Y1029493D01*
X1996268Y1029646D01*
X1996919Y1030081D01*
X1997354Y1030732D01*
X1997507Y1031500D01*
X1997354Y1032268D01*
X1996919Y1032919D01*
X1996268Y1033354D01*
X1995500Y1033507D01*
D02*
G37*
G36*
X2057000Y1033007D02*
X2056232Y1032854D01*
X2055581Y1032419D01*
X2055146Y1031768D01*
X2054993Y1031000D01*
X2055146Y1030232D01*
X2055581Y1029581D01*
X2056232Y1029146D01*
X2057000Y1028993D01*
X2057768Y1029146D01*
X2058419Y1029581D01*
X2058854Y1030232D01*
X2059007Y1031000D01*
X2058854Y1031768D01*
X2058419Y1032419D01*
X2057768Y1032854D01*
X2057000Y1033007D01*
D02*
G37*
G36*
X2014000Y1033507D02*
X2013232Y1033354D01*
X2012581Y1032919D01*
X2012146Y1032268D01*
X2011993Y1031500D01*
X2012146Y1030732D01*
X2012581Y1030081D01*
X2013232Y1029646D01*
X2014000Y1029493D01*
X2014768Y1029646D01*
X2015419Y1030081D01*
X2015854Y1030732D01*
X2016007Y1031500D01*
X2015854Y1032268D01*
X2015419Y1032919D01*
X2014768Y1033354D01*
X2014000Y1033507D01*
D02*
G37*
G36*
X1858500Y1038007D02*
X1857732Y1037854D01*
X1857081Y1037419D01*
X1856646Y1036768D01*
X1856493Y1036000D01*
X1856646Y1035232D01*
X1857081Y1034581D01*
X1857732Y1034146D01*
X1858500Y1033993D01*
X1859268Y1034146D01*
X1859919Y1034581D01*
X1860354Y1035232D01*
X1860507Y1036000D01*
X1860354Y1036768D01*
X1859919Y1037419D01*
X1859268Y1037854D01*
X1858500Y1038007D01*
D02*
G37*
G36*
X2039500Y1035507D02*
X2038732Y1035354D01*
X2038081Y1034919D01*
X2037646Y1034268D01*
X2037493Y1033500D01*
X2037646Y1032732D01*
X2038081Y1032081D01*
X2038732Y1031646D01*
X2039500Y1031493D01*
X2040268Y1031646D01*
X2040919Y1032081D01*
X2041354Y1032732D01*
X2041507Y1033500D01*
X2041354Y1034268D01*
X2040919Y1034919D01*
X2040268Y1035354D01*
X2039500Y1035507D01*
D02*
G37*
G36*
X2028000Y1065007D02*
X2027232Y1064854D01*
X2026581Y1064419D01*
X2026146Y1063768D01*
X2025993Y1063000D01*
X2026146Y1062232D01*
X2026581Y1061581D01*
X2027232Y1061146D01*
X2028000Y1060993D01*
X2028768Y1061146D01*
X2029419Y1061581D01*
X2029854Y1062232D01*
X2030007Y1063000D01*
X2029854Y1063768D01*
X2029419Y1064419D01*
X2028768Y1064854D01*
X2028000Y1065007D01*
D02*
G37*
G36*
X1728622Y1123921D02*
X1724079D01*
Y1119378D01*
X1728622D01*
Y1123921D01*
D02*
G37*
G36*
X1780500Y1126892D02*
X1779316Y1126736D01*
X1778212Y1126278D01*
X1777264Y1125551D01*
X1776537Y1124603D01*
X1776079Y1123499D01*
X1775923Y1122315D01*
X1776079Y1121130D01*
X1776537Y1120027D01*
X1777264Y1119079D01*
X1778212Y1118351D01*
X1779316Y1117894D01*
X1780500Y1117738D01*
X1781684Y1117894D01*
X1782788Y1118351D01*
X1783736Y1119079D01*
X1784463Y1120027D01*
X1784921Y1121130D01*
X1785077Y1122315D01*
X1784921Y1123499D01*
X1784463Y1124603D01*
X1783736Y1125551D01*
X1782788Y1126278D01*
X1781684Y1126736D01*
X1780500Y1126892D01*
D02*
G37*
G36*
X1735921Y1123921D02*
X1731378D01*
Y1119378D01*
X1735921D01*
Y1123921D01*
D02*
G37*
G36*
X1794000Y1126007D02*
X1793232Y1125854D01*
X1792581Y1125419D01*
X1792146Y1124768D01*
X1791993Y1124000D01*
X1792146Y1123232D01*
X1792581Y1122581D01*
X1793232Y1122146D01*
X1794000Y1121993D01*
X1794768Y1122146D01*
X1795419Y1122581D01*
X1795854Y1123232D01*
X1796007Y1124000D01*
X1795854Y1124768D01*
X1795419Y1125419D01*
X1794768Y1125854D01*
X1794000Y1126007D01*
D02*
G37*
G36*
X1803000Y1124507D02*
X1802232Y1124354D01*
X1801581Y1123919D01*
X1801146Y1123268D01*
X1800993Y1122500D01*
X1801146Y1121732D01*
X1801581Y1121081D01*
X1802232Y1120646D01*
X1803000Y1120493D01*
X1803768Y1120646D01*
X1804419Y1121081D01*
X1804854Y1121732D01*
X1805007Y1122500D01*
X1804854Y1123268D01*
X1804419Y1123919D01*
X1803768Y1124354D01*
X1803000Y1124507D01*
D02*
G37*
G36*
Y1117007D02*
X1802232Y1116854D01*
X1801581Y1116419D01*
X1801146Y1115768D01*
X1800993Y1115000D01*
X1801146Y1114232D01*
X1801581Y1113581D01*
X1802232Y1113146D01*
X1803000Y1112993D01*
X1803768Y1113146D01*
X1804419Y1113581D01*
X1804854Y1114232D01*
X1805007Y1115000D01*
X1804854Y1115768D01*
X1804419Y1116419D01*
X1803768Y1116854D01*
X1803000Y1117007D01*
D02*
G37*
G36*
X1793500D02*
X1792732Y1116854D01*
X1792081Y1116419D01*
X1791646Y1115768D01*
X1791493Y1115000D01*
X1791646Y1114232D01*
X1792081Y1113581D01*
X1792732Y1113146D01*
X1793500Y1112993D01*
X1794268Y1113146D01*
X1794919Y1113581D01*
X1795354Y1114232D01*
X1795507Y1115000D01*
X1795354Y1115768D01*
X1794919Y1116419D01*
X1794268Y1116854D01*
X1793500Y1117007D01*
D02*
G37*
G36*
X1786000Y1117507D02*
X1785232Y1117354D01*
X1784581Y1116919D01*
X1784146Y1116268D01*
X1783993Y1115500D01*
X1784146Y1114732D01*
X1784581Y1114081D01*
X1785232Y1113646D01*
X1786000Y1113493D01*
X1786768Y1113646D01*
X1787419Y1114081D01*
X1787854Y1114732D01*
X1788007Y1115500D01*
X1787854Y1116268D01*
X1787419Y1116919D01*
X1786768Y1117354D01*
X1786000Y1117507D01*
D02*
G37*
G36*
X1766500Y1121507D02*
X1765732Y1121354D01*
X1765081Y1120919D01*
X1764646Y1120268D01*
X1764493Y1119500D01*
X1764646Y1118732D01*
X1765081Y1118081D01*
X1765732Y1117646D01*
X1766500Y1117493D01*
X1767268Y1117646D01*
X1767919Y1118081D01*
X1768354Y1118732D01*
X1768507Y1119500D01*
X1768354Y1120268D01*
X1767919Y1120919D01*
X1767268Y1121354D01*
X1766500Y1121507D01*
D02*
G37*
G36*
X1759500Y1120507D02*
X1758732Y1120354D01*
X1758081Y1119919D01*
X1757646Y1119268D01*
X1757493Y1118500D01*
X1757646Y1117732D01*
X1758081Y1117081D01*
X1758732Y1116646D01*
X1759500Y1116493D01*
X1760268Y1116646D01*
X1760919Y1117081D01*
X1761354Y1117732D01*
X1761507Y1118500D01*
X1761354Y1119268D01*
X1760919Y1119919D01*
X1760268Y1120354D01*
X1759500Y1120507D01*
D02*
G37*
G36*
X1785037Y1146537D02*
X1775963D01*
Y1137463D01*
X1785037D01*
Y1146537D01*
D02*
G37*
G36*
X1730000Y1142829D02*
X1728750Y1142664D01*
X1727586Y1142182D01*
X1726586Y1141414D01*
X1725818Y1140414D01*
X1725336Y1139250D01*
X1725171Y1138000D01*
X1725336Y1136750D01*
X1725818Y1135586D01*
X1726586Y1134586D01*
X1727586Y1133818D01*
X1728750Y1133336D01*
X1730000Y1133171D01*
X1731250Y1133336D01*
X1732414Y1133818D01*
X1733414Y1134586D01*
X1734182Y1135586D01*
X1734664Y1136750D01*
X1734829Y1138000D01*
X1734664Y1139250D01*
X1734182Y1140414D01*
X1733414Y1141414D01*
X1732414Y1142182D01*
X1731250Y1142664D01*
X1730000Y1142829D01*
D02*
G37*
G36*
X1772500Y1147007D02*
X1771732Y1146854D01*
X1771081Y1146419D01*
X1770646Y1145768D01*
X1770493Y1145000D01*
X1770646Y1144232D01*
X1771081Y1143581D01*
X1771098Y1143569D01*
Y1143069D01*
X1770874Y1142919D01*
X1770439Y1142268D01*
X1770286Y1141500D01*
X1770439Y1140732D01*
X1770874Y1140081D01*
X1771525Y1139646D01*
X1772293Y1139493D01*
X1773061Y1139646D01*
X1773712Y1140081D01*
X1774147Y1140732D01*
X1774300Y1141500D01*
X1774147Y1142268D01*
X1773712Y1142919D01*
X1773695Y1142931D01*
Y1143431D01*
X1773919Y1143581D01*
X1774354Y1144232D01*
X1774507Y1145000D01*
X1774354Y1145768D01*
X1773919Y1146419D01*
X1773268Y1146854D01*
X1772500Y1147007D01*
D02*
G37*
G36*
X1794500Y1146507D02*
X1793732Y1146354D01*
X1793081Y1145919D01*
X1792646Y1145268D01*
X1792493Y1144500D01*
X1792646Y1143732D01*
X1793081Y1143081D01*
X1793732Y1142646D01*
X1794500Y1142493D01*
X1795268Y1142646D01*
X1795919Y1143081D01*
X1796354Y1143732D01*
X1796507Y1144500D01*
X1796354Y1145268D01*
X1795919Y1145919D01*
X1795268Y1146354D01*
X1794500Y1146507D01*
D02*
G37*
G36*
X1809500Y1145507D02*
X1808732Y1145354D01*
X1808081Y1144919D01*
X1807646Y1144268D01*
X1807493Y1143500D01*
X1807646Y1142732D01*
X1808081Y1142081D01*
X1808732Y1141646D01*
X1809500Y1141493D01*
X1810268Y1141646D01*
X1810919Y1142081D01*
X1811354Y1142732D01*
X1811507Y1143500D01*
X1811354Y1144268D01*
X1810919Y1144919D01*
X1810268Y1145354D01*
X1809500Y1145507D01*
D02*
G37*
G36*
X1835795Y1132018D02*
X1834885Y1131898D01*
X1834036Y1131546D01*
X1833308Y1130987D01*
X1832749Y1130259D01*
X1832398Y1129410D01*
X1832278Y1128500D01*
X1832398Y1127590D01*
X1832749Y1126741D01*
X1833308Y1126013D01*
X1834036Y1125454D01*
X1834885Y1125102D01*
X1835795Y1124982D01*
X1836706Y1125102D01*
X1837554Y1125454D01*
X1838283Y1126013D01*
X1838841Y1126741D01*
X1839193Y1127590D01*
X1839313Y1128500D01*
X1839193Y1129410D01*
X1838841Y1130259D01*
X1838283Y1130987D01*
X1837554Y1131546D01*
X1836706Y1131898D01*
X1835795Y1132018D01*
D02*
G37*
G36*
X1810200D02*
X1809290Y1131898D01*
X1808441Y1131546D01*
X1807713Y1130987D01*
X1807154Y1130259D01*
X1806802Y1129410D01*
X1806683Y1128500D01*
X1806802Y1127590D01*
X1807154Y1126741D01*
X1807713Y1126013D01*
X1808441Y1125454D01*
X1809290Y1125102D01*
X1810200Y1124982D01*
X1811110Y1125102D01*
X1811959Y1125454D01*
X1812687Y1126013D01*
X1813246Y1126741D01*
X1813598Y1127590D01*
X1813717Y1128500D01*
X1813598Y1129410D01*
X1813246Y1130259D01*
X1812687Y1130987D01*
X1811959Y1131546D01*
X1811110Y1131898D01*
X1810200Y1132018D01*
D02*
G37*
G36*
X1780500Y1136734D02*
X1779316Y1136578D01*
X1778212Y1136121D01*
X1777264Y1135394D01*
X1776537Y1134446D01*
X1776079Y1133342D01*
X1775923Y1132158D01*
X1776079Y1130973D01*
X1776537Y1129869D01*
X1777264Y1128921D01*
X1778212Y1128194D01*
X1779316Y1127737D01*
X1780500Y1127581D01*
X1781684Y1127737D01*
X1782788Y1128194D01*
X1783736Y1128921D01*
X1784463Y1129869D01*
X1784921Y1130973D01*
X1785077Y1132158D01*
X1784921Y1133342D01*
X1784463Y1134446D01*
X1783736Y1135394D01*
X1782788Y1136121D01*
X1781684Y1136578D01*
X1780500Y1136734D01*
D02*
G37*
G36*
X1832000Y1137007D02*
X1831232Y1136854D01*
X1830581Y1136419D01*
X1830146Y1135768D01*
X1829993Y1135000D01*
X1830146Y1134232D01*
X1830581Y1133581D01*
X1831232Y1133146D01*
X1832000Y1132993D01*
X1832768Y1133146D01*
X1833419Y1133581D01*
X1833854Y1134232D01*
X1834007Y1135000D01*
X1833854Y1135768D01*
X1833419Y1136419D01*
X1832768Y1136854D01*
X1832000Y1137007D01*
D02*
G37*
G36*
X1809500D02*
X1808732Y1136854D01*
X1808081Y1136419D01*
X1807646Y1135768D01*
X1807493Y1135000D01*
X1807646Y1134232D01*
X1808081Y1133581D01*
X1808732Y1133146D01*
X1809500Y1132993D01*
X1810268Y1133146D01*
X1810919Y1133581D01*
X1811354Y1134232D01*
X1811507Y1135000D01*
X1811354Y1135768D01*
X1810919Y1136419D01*
X1810268Y1136854D01*
X1809500Y1137007D01*
D02*
G37*
G36*
X1766000Y1116507D02*
X1765232Y1116354D01*
X1764581Y1115919D01*
X1764146Y1115268D01*
X1763993Y1114500D01*
X1764146Y1113732D01*
X1764581Y1113081D01*
X1765232Y1112646D01*
X1766000Y1112493D01*
X1766768Y1112646D01*
X1767419Y1113081D01*
X1767854Y1113732D01*
X1768007Y1114500D01*
X1767854Y1115268D01*
X1767419Y1115919D01*
X1766768Y1116354D01*
X1766000Y1116507D01*
D02*
G37*
G36*
X1854000Y1085007D02*
X1853232Y1084854D01*
X1852581Y1084419D01*
X1852146Y1083768D01*
X1851993Y1083000D01*
X1852146Y1082232D01*
X1852581Y1081581D01*
X1853232Y1081146D01*
X1854000Y1080993D01*
X1854768Y1081146D01*
X1855419Y1081581D01*
X1855854Y1082232D01*
X1856007Y1083000D01*
X1855854Y1083768D01*
X1855419Y1084419D01*
X1854768Y1084854D01*
X1854000Y1085007D01*
D02*
G37*
G36*
X1859000Y1084507D02*
X1858232Y1084354D01*
X1857581Y1083919D01*
X1857146Y1083268D01*
X1856993Y1082500D01*
X1857146Y1081732D01*
X1857581Y1081081D01*
X1858232Y1080646D01*
X1859000Y1080493D01*
X1859768Y1080646D01*
X1860419Y1081081D01*
X1860854Y1081732D01*
X1861007Y1082500D01*
X1860854Y1083268D01*
X1860419Y1083919D01*
X1859768Y1084354D01*
X1859000Y1084507D01*
D02*
G37*
G36*
X1864500Y1086007D02*
X1863732Y1085854D01*
X1863081Y1085419D01*
X1862646Y1084768D01*
X1862493Y1084000D01*
X1862646Y1083232D01*
X1863081Y1082581D01*
X1863732Y1082146D01*
X1864500Y1081993D01*
X1865268Y1082146D01*
X1865919Y1082581D01*
X1866354Y1083232D01*
X1866507Y1084000D01*
X1866354Y1084768D01*
X1865919Y1085419D01*
X1865268Y1085854D01*
X1864500Y1086007D01*
D02*
G37*
G36*
X1719250Y1100007D02*
X1718482Y1099854D01*
X1717831Y1099419D01*
X1717396Y1098768D01*
X1717243Y1098000D01*
X1717396Y1097232D01*
X1717831Y1096581D01*
X1718482Y1096146D01*
X1719250Y1095993D01*
X1720018Y1096146D01*
X1720669Y1096581D01*
X1721104Y1097232D01*
X1721257Y1098000D01*
X1721104Y1098768D01*
X1720669Y1099419D01*
X1720018Y1099854D01*
X1719250Y1100007D01*
D02*
G37*
G36*
X1843000Y1109007D02*
X1842232Y1108854D01*
X1841581Y1108419D01*
X1841146Y1107768D01*
X1840993Y1107000D01*
X1841146Y1106232D01*
X1841581Y1105581D01*
X1842025Y1105284D01*
Y1104716D01*
X1841581Y1104419D01*
X1841146Y1103768D01*
X1840993Y1103000D01*
X1841146Y1102232D01*
X1841581Y1101581D01*
X1842025Y1101284D01*
Y1100716D01*
X1841581Y1100419D01*
X1841146Y1099768D01*
X1840993Y1099000D01*
X1841146Y1098232D01*
X1841581Y1097581D01*
X1842025Y1097284D01*
Y1096716D01*
X1841581Y1096419D01*
X1841146Y1095768D01*
X1840993Y1095000D01*
X1841146Y1094232D01*
X1841581Y1093581D01*
X1842232Y1093146D01*
X1843000Y1092993D01*
X1843768Y1093146D01*
X1844419Y1093581D01*
X1844854Y1094232D01*
X1845007Y1095000D01*
X1844854Y1095768D01*
X1844419Y1096419D01*
X1843975Y1096716D01*
Y1097284D01*
X1844419Y1097581D01*
X1844854Y1098232D01*
X1845007Y1099000D01*
X1844854Y1099768D01*
X1844419Y1100419D01*
X1843975Y1100716D01*
Y1101284D01*
X1844419Y1101581D01*
X1844854Y1102232D01*
X1845007Y1103000D01*
X1844854Y1103768D01*
X1844419Y1104419D01*
X1843975Y1104716D01*
Y1105284D01*
X1844419Y1105581D01*
X1844854Y1106232D01*
X1845007Y1107000D01*
X1844854Y1107768D01*
X1844419Y1108419D01*
X1843768Y1108854D01*
X1843000Y1109007D01*
D02*
G37*
G36*
X1840000Y1066507D02*
X1839232Y1066354D01*
X1838581Y1065919D01*
X1838146Y1065268D01*
X1837993Y1064500D01*
X1838146Y1063732D01*
X1838581Y1063081D01*
X1839232Y1062646D01*
X1840000Y1062493D01*
X1840768Y1062646D01*
X1841419Y1063081D01*
X1841854Y1063732D01*
X1842007Y1064500D01*
X1841854Y1065268D01*
X1841419Y1065919D01*
X1840768Y1066354D01*
X1840000Y1066507D01*
D02*
G37*
G36*
X2017500Y1065507D02*
X2016732Y1065354D01*
X2016081Y1064919D01*
X2015646Y1064268D01*
X2015493Y1063500D01*
X2015646Y1062732D01*
X2016081Y1062081D01*
X2016732Y1061646D01*
X2017500Y1061493D01*
X2018268Y1061646D01*
X2018919Y1062081D01*
X2019354Y1062732D01*
X2019507Y1063500D01*
X2019354Y1064268D01*
X2018919Y1064919D01*
X2018268Y1065354D01*
X2017500Y1065507D01*
D02*
G37*
G36*
X1721469Y1066656D02*
Y1062969D01*
X1725156D01*
X1725056Y1063301D01*
X1724500Y1064341D01*
X1723752Y1065252D01*
X1722841Y1066000D01*
X1721801Y1066556D01*
X1721469Y1066656D01*
D02*
G37*
G36*
X1798571Y1074188D02*
X1797803Y1074035D01*
X1797152Y1073600D01*
X1796717Y1072949D01*
X1796564Y1072181D01*
X1796717Y1071413D01*
X1797152Y1070762D01*
X1797803Y1070327D01*
X1798571Y1070174D01*
X1799339Y1070327D01*
X1799990Y1070762D01*
X1800426Y1071413D01*
X1800578Y1072181D01*
X1800426Y1072949D01*
X1799990Y1073600D01*
X1799339Y1074035D01*
X1798571Y1074188D01*
D02*
G37*
G36*
X1996000Y1066507D02*
X1995232Y1066354D01*
X1994581Y1065919D01*
X1994284Y1065475D01*
X1993716D01*
X1993419Y1065919D01*
X1992768Y1066354D01*
X1992000Y1066507D01*
X1991232Y1066354D01*
X1990581Y1065919D01*
X1990284Y1065475D01*
X1989716D01*
X1989419Y1065919D01*
X1988768Y1066354D01*
X1988000Y1066507D01*
X1987232Y1066354D01*
X1986581Y1065919D01*
X1986284Y1065475D01*
X1985716D01*
X1985419Y1065919D01*
X1984768Y1066354D01*
X1984000Y1066507D01*
X1983232Y1066354D01*
X1982581Y1065919D01*
X1982146Y1065268D01*
X1981993Y1064500D01*
X1982146Y1063732D01*
X1982581Y1063081D01*
X1983232Y1062646D01*
X1984000Y1062493D01*
X1984768Y1062646D01*
X1985419Y1063081D01*
X1985716Y1063525D01*
X1986284D01*
X1986581Y1063081D01*
X1987232Y1062646D01*
X1988000Y1062493D01*
X1988768Y1062646D01*
X1989419Y1063081D01*
X1989716Y1063525D01*
X1990284D01*
X1990581Y1063081D01*
X1991232Y1062646D01*
X1992000Y1062493D01*
X1992768Y1062646D01*
X1993419Y1063081D01*
X1993716Y1063525D01*
X1994284D01*
X1994581Y1063081D01*
X1995232Y1062646D01*
X1996000Y1062493D01*
X1996768Y1062646D01*
X1997419Y1063081D01*
X1997854Y1063732D01*
X1998007Y1064500D01*
X1997854Y1065268D01*
X1997419Y1065919D01*
X1996768Y1066354D01*
X1996000Y1066507D01*
D02*
G37*
G36*
X1719250Y1110007D02*
X1718482Y1109854D01*
X1717831Y1109419D01*
X1717396Y1108768D01*
X1717243Y1108000D01*
X1717396Y1107232D01*
X1717831Y1106581D01*
X1718482Y1106146D01*
X1719250Y1105993D01*
X1720018Y1106146D01*
X1720669Y1106581D01*
X1721104Y1107232D01*
X1721257Y1108000D01*
X1721104Y1108768D01*
X1720669Y1109419D01*
X1720018Y1109854D01*
X1719250Y1110007D01*
D02*
G37*
G36*
X1803000Y1109507D02*
X1802232Y1109354D01*
X1801581Y1108919D01*
X1801146Y1108268D01*
X1800993Y1107500D01*
X1801146Y1106732D01*
X1801581Y1106081D01*
X1802232Y1105646D01*
X1803000Y1105493D01*
X1803768Y1105646D01*
X1804419Y1106081D01*
X1804854Y1106732D01*
X1805007Y1107500D01*
X1804854Y1108268D01*
X1804419Y1108919D01*
X1803768Y1109354D01*
X1803000Y1109507D01*
D02*
G37*
G36*
X1735750Y1110007D02*
X1734982Y1109854D01*
X1734331Y1109419D01*
X1733896Y1108768D01*
X1733743Y1108000D01*
X1733896Y1107232D01*
X1734331Y1106581D01*
X1734982Y1106146D01*
X1735750Y1105993D01*
X1736518Y1106146D01*
X1737169Y1106581D01*
X1737604Y1107232D01*
X1737757Y1108000D01*
X1737604Y1108768D01*
X1737169Y1109419D01*
X1736518Y1109854D01*
X1735750Y1110007D01*
D02*
G37*
G36*
X1735921Y1116622D02*
X1731378D01*
Y1112079D01*
X1735921D01*
Y1116622D01*
D02*
G37*
G36*
X1728622D02*
X1724079D01*
Y1112079D01*
X1728622D01*
Y1116622D01*
D02*
G37*
G36*
X1804000Y1104007D02*
X1803232Y1103854D01*
X1802581Y1103419D01*
X1802146Y1102768D01*
X1801993Y1102000D01*
X1802146Y1101232D01*
X1802581Y1100581D01*
X1803232Y1100146D01*
X1804000Y1099993D01*
X1804768Y1100146D01*
X1805419Y1100581D01*
X1805854Y1101232D01*
X1806007Y1102000D01*
X1805854Y1102768D01*
X1805419Y1103419D01*
X1804768Y1103854D01*
X1804000Y1104007D01*
D02*
G37*
G36*
X1735750Y1100007D02*
X1734982Y1099854D01*
X1734331Y1099419D01*
X1733896Y1098768D01*
X1733743Y1098000D01*
X1733896Y1097232D01*
X1734331Y1096581D01*
X1734982Y1096146D01*
X1735750Y1095993D01*
X1736518Y1096146D01*
X1737169Y1096581D01*
X1737604Y1097232D01*
X1737757Y1098000D01*
X1737604Y1098768D01*
X1737169Y1099419D01*
X1736518Y1099854D01*
X1735750Y1100007D01*
D02*
G37*
G36*
X1722500Y1105007D02*
X1721732Y1104854D01*
X1721081Y1104419D01*
X1720646Y1103768D01*
X1720493Y1103000D01*
X1720646Y1102232D01*
X1721081Y1101581D01*
X1721732Y1101146D01*
X1722500Y1100993D01*
X1723268Y1101146D01*
X1723919Y1101581D01*
X1724354Y1102232D01*
X1724507Y1103000D01*
X1724354Y1103768D01*
X1723919Y1104419D01*
X1723268Y1104854D01*
X1722500Y1105007D01*
D02*
G37*
G36*
X1739000D02*
X1738232Y1104854D01*
X1737581Y1104419D01*
X1737146Y1103768D01*
X1736993Y1103000D01*
X1737146Y1102232D01*
X1737581Y1101581D01*
X1738232Y1101146D01*
X1739000Y1100993D01*
X1739768Y1101146D01*
X1740419Y1101581D01*
X1740854Y1102232D01*
X1741007Y1103000D01*
X1740854Y1103768D01*
X1740419Y1104419D01*
X1739768Y1104854D01*
X1739000Y1105007D01*
D02*
G37*
G36*
X1732500D02*
X1731732Y1104854D01*
X1731081Y1104419D01*
X1730646Y1103768D01*
X1730493Y1103000D01*
X1730646Y1102232D01*
X1731081Y1101581D01*
X1731732Y1101146D01*
X1732500Y1100993D01*
X1733268Y1101146D01*
X1733919Y1101581D01*
X1734354Y1102232D01*
X1734507Y1103000D01*
X1734354Y1103768D01*
X1733919Y1104419D01*
X1733268Y1104854D01*
X1732500Y1105007D01*
D02*
G37*
G36*
X1873000Y998507D02*
X1872232Y998354D01*
X1871581Y997919D01*
X1871146Y997268D01*
X1870993Y996500D01*
X1871146Y995732D01*
X1871475Y995238D01*
X1871581Y995081D01*
X1871376Y994616D01*
X1871081Y994419D01*
X1870646Y993768D01*
X1870493Y993000D01*
X1870646Y992232D01*
X1871081Y991581D01*
X1871732Y991146D01*
X1872500Y990993D01*
X1873268Y991146D01*
X1873919Y991581D01*
X1874354Y992232D01*
X1874507Y993000D01*
X1874354Y993768D01*
X1874025Y994261D01*
X1873919Y994419D01*
X1874124Y994884D01*
X1874419Y995081D01*
X1874854Y995732D01*
X1875007Y996500D01*
X1874854Y997268D01*
X1874419Y997919D01*
X1873768Y998354D01*
X1873000Y998507D01*
D02*
G37*
G36*
X2009500Y994507D02*
X2008732Y994354D01*
X2008081Y993919D01*
X2007646Y993268D01*
X2007493Y992500D01*
X2007646Y991732D01*
X2008081Y991081D01*
X2008732Y990646D01*
X2009500Y990493D01*
X2010268Y990646D01*
X2010919Y991081D01*
X2011354Y991732D01*
X2011507Y992500D01*
X2011354Y993268D01*
X2010919Y993919D01*
X2010268Y994354D01*
X2009500Y994507D01*
D02*
G37*
G36*
X1845500Y996507D02*
X1844732Y996354D01*
X1844081Y995919D01*
X1843646Y995268D01*
X1843493Y994500D01*
X1843646Y993732D01*
X1844081Y993081D01*
X1844732Y992646D01*
X1845500Y992493D01*
X1846268Y992646D01*
X1846919Y993081D01*
X1847354Y993732D01*
X1847507Y994500D01*
X1847354Y995268D01*
X1846919Y995919D01*
X1846268Y996354D01*
X1845500Y996507D01*
D02*
G37*
G36*
X2034500Y997507D02*
X2033732Y997354D01*
X2033081Y996919D01*
X2032646Y996268D01*
X2032493Y995500D01*
X2032646Y994732D01*
X2033081Y994081D01*
X2033732Y993646D01*
X2034500Y993493D01*
X2035268Y993646D01*
X2035919Y994081D01*
X2036354Y994732D01*
X2036507Y995500D01*
X2036354Y996268D01*
X2035919Y996919D01*
X2035268Y997354D01*
X2034500Y997507D01*
D02*
G37*
G36*
X1734000D02*
X1733232Y997354D01*
X1732581Y996919D01*
X1732146Y996268D01*
X1731993Y995500D01*
X1732146Y994732D01*
X1732581Y994081D01*
X1733232Y993646D01*
X1734000Y993493D01*
X1734768Y993646D01*
X1735419Y994081D01*
X1735854Y994732D01*
X1736007Y995500D01*
X1735854Y996268D01*
X1735419Y996919D01*
X1734768Y997354D01*
X1734000Y997507D01*
D02*
G37*
G36*
X2077000Y991507D02*
X2076232Y991354D01*
X2075581Y990919D01*
X2075146Y990268D01*
X2074993Y989500D01*
X2075146Y988732D01*
X2075581Y988081D01*
X2076232Y987646D01*
X2077000Y987493D01*
X2077768Y987646D01*
X2078419Y988081D01*
X2078854Y988732D01*
X2079007Y989500D01*
X2078854Y990268D01*
X2078419Y990919D01*
X2077768Y991354D01*
X2077000Y991507D01*
D02*
G37*
G36*
X2027500Y989507D02*
X2026732Y989354D01*
X2026081Y988919D01*
X2025646Y988268D01*
X2025493Y987500D01*
X2025646Y986732D01*
X2026081Y986081D01*
X2026732Y985646D01*
X2027500Y985493D01*
X2028268Y985646D01*
X2028919Y986081D01*
X2029354Y986732D01*
X2029507Y987500D01*
X2029354Y988268D01*
X2028919Y988919D01*
X2028268Y989354D01*
X2027500Y989507D01*
D02*
G37*
G36*
X2054500Y992507D02*
X2053732Y992354D01*
X2053081Y991919D01*
X2052646Y991268D01*
X2052493Y990500D01*
X2052646Y989732D01*
X2053081Y989081D01*
X2053732Y988646D01*
X2054500Y988493D01*
X2055268Y988646D01*
X2055919Y989081D01*
X2056354Y989732D01*
X2056507Y990500D01*
X2056354Y991268D01*
X2055919Y991919D01*
X2055268Y992354D01*
X2054500Y992507D01*
D02*
G37*
G36*
X2091000Y993007D02*
X2090232Y992854D01*
X2089581Y992419D01*
X2089146Y991768D01*
X2088993Y991000D01*
X2089146Y990232D01*
X2089581Y989581D01*
X2090232Y989146D01*
X2091000Y988993D01*
X2091768Y989146D01*
X2092419Y989581D01*
X2092854Y990232D01*
X2093007Y991000D01*
X2092854Y991768D01*
X2092419Y992419D01*
X2091768Y992854D01*
X2091000Y993007D01*
D02*
G37*
G36*
X1728500D02*
X1727732Y992854D01*
X1727081Y992419D01*
X1726646Y991768D01*
X1726493Y991000D01*
X1726646Y990232D01*
X1727081Y989581D01*
X1727732Y989146D01*
X1728500Y988993D01*
X1729268Y989146D01*
X1729919Y989581D01*
X1730354Y990232D01*
X1730507Y991000D01*
X1730354Y991768D01*
X1729919Y992419D01*
X1729268Y992854D01*
X1728500Y993007D01*
D02*
G37*
G36*
X1828000Y1000507D02*
X1827232Y1000354D01*
X1826581Y999919D01*
X1826146Y999268D01*
X1825993Y998500D01*
X1826146Y997732D01*
X1826581Y997081D01*
X1827232Y996646D01*
X1828000Y996493D01*
X1828768Y996646D01*
X1829419Y997081D01*
X1829854Y997732D01*
X1830007Y998500D01*
X1829854Y999268D01*
X1829419Y999919D01*
X1828768Y1000354D01*
X1828000Y1000507D01*
D02*
G37*
G36*
X1820500Y1000007D02*
X1819732Y999854D01*
X1819081Y999419D01*
X1818646Y998768D01*
X1818493Y998000D01*
X1818646Y997232D01*
X1819081Y996581D01*
X1819732Y996146D01*
X1820500Y995993D01*
X1821268Y996146D01*
X1821919Y996581D01*
X1822354Y997232D01*
X1822507Y998000D01*
X1822354Y998768D01*
X1821919Y999419D01*
X1821268Y999854D01*
X1820500Y1000007D01*
D02*
G37*
G36*
X2091984Y1000991D02*
X2091216Y1000838D01*
X2090565Y1000403D01*
X2090130Y999752D01*
X2089977Y998984D01*
X2090130Y998216D01*
X2090565Y997565D01*
X2091216Y997130D01*
X2091984Y996977D01*
X2092752Y997130D01*
X2093403Y997565D01*
X2093839Y998216D01*
X2093991Y998984D01*
X2093839Y999752D01*
X2093403Y1000403D01*
X2092752Y1000838D01*
X2091984Y1000991D01*
D02*
G37*
G36*
X1925000Y1001507D02*
X1924232Y1001354D01*
X1923581Y1000919D01*
X1923146Y1000268D01*
X1922993Y999500D01*
X1923146Y998732D01*
X1923581Y998081D01*
X1924232Y997646D01*
X1925000Y997493D01*
X1925768Y997646D01*
X1926419Y998081D01*
X1926854Y998732D01*
X1927007Y999500D01*
X1926854Y1000268D01*
X1926419Y1000919D01*
X1925768Y1001354D01*
X1925000Y1001507D01*
D02*
G37*
G36*
X1861500Y1001007D02*
X1860732Y1000854D01*
X1860081Y1000419D01*
X1859646Y999768D01*
X1859493Y999000D01*
X1859646Y998232D01*
X1860081Y997581D01*
X1860732Y997146D01*
X1861500Y996993D01*
X1862268Y997146D01*
X1862919Y997581D01*
X1863354Y998232D01*
X1863507Y999000D01*
X1863354Y999768D01*
X1862919Y1000419D01*
X1862268Y1000854D01*
X1861500Y1001007D01*
D02*
G37*
G36*
X2072500Y997507D02*
X2071732Y997354D01*
X2071081Y996919D01*
X2070646Y996268D01*
X2070493Y995500D01*
X2070646Y994732D01*
X2071081Y994081D01*
X2071732Y993646D01*
X2072500Y993493D01*
X2073268Y993646D01*
X2073919Y994081D01*
X2074354Y994732D01*
X2074507Y995500D01*
X2074354Y996268D01*
X2073919Y996919D01*
X2073268Y997354D01*
X2072500Y997507D01*
D02*
G37*
G36*
X2042500D02*
X2041732Y997354D01*
X2041081Y996919D01*
X2040646Y996268D01*
X2040493Y995500D01*
X2040646Y994732D01*
X2041081Y994081D01*
X2041732Y993646D01*
X2042500Y993493D01*
X2043268Y993646D01*
X2043919Y994081D01*
X2044354Y994732D01*
X2044507Y995500D01*
X2044354Y996268D01*
X2043919Y996919D01*
X2043268Y997354D01*
X2042500Y997507D01*
D02*
G37*
G36*
X1969500Y998007D02*
X1968732Y997854D01*
X1968081Y997419D01*
X1967646Y996768D01*
X1967493Y996000D01*
X1967646Y995232D01*
X1968081Y994581D01*
X1968732Y994146D01*
X1969500Y993993D01*
X1970268Y994146D01*
X1970919Y994581D01*
X1971354Y995232D01*
X1971507Y996000D01*
X1971354Y996768D01*
X1970919Y997419D01*
X1970268Y997854D01*
X1969500Y998007D01*
D02*
G37*
G36*
X1854000Y998507D02*
X1853232Y998354D01*
X1852581Y997919D01*
X1852146Y997268D01*
X1851993Y996500D01*
X1852146Y995732D01*
X1852581Y995081D01*
X1853232Y994646D01*
X1854000Y994493D01*
X1854768Y994646D01*
X1855419Y995081D01*
X1855854Y995732D01*
X1856007Y996500D01*
X1855854Y997268D01*
X1855419Y997919D01*
X1854768Y998354D01*
X1854000Y998507D01*
D02*
G37*
G36*
X1770500D02*
X1769732Y998354D01*
X1769081Y997919D01*
X1768646Y997268D01*
X1768493Y996500D01*
X1768646Y995732D01*
X1769081Y995081D01*
X1769732Y994646D01*
X1770500Y994493D01*
X1771268Y994646D01*
X1771919Y995081D01*
X1772354Y995732D01*
X1772507Y996500D01*
X1772354Y997268D01*
X1771919Y997919D01*
X1771268Y998354D01*
X1770500Y998507D01*
D02*
G37*
G36*
X1763000Y989007D02*
X1762232Y988854D01*
X1761581Y988419D01*
X1761146Y987768D01*
X1760993Y987000D01*
X1761146Y986232D01*
X1761581Y985581D01*
X1762232Y985146D01*
X1763000Y984993D01*
X1763768Y985146D01*
X1764419Y985581D01*
X1764854Y986232D01*
X1765007Y987000D01*
X1764854Y987768D01*
X1764419Y988419D01*
X1763768Y988854D01*
X1763000Y989007D01*
D02*
G37*
G36*
X1792941Y993912D02*
X1791397Y993760D01*
X1789913Y993310D01*
X1788545Y992579D01*
X1787346Y991595D01*
X1786362Y990396D01*
X1785631Y989028D01*
X1785181Y987544D01*
X1785029Y986000D01*
X1785181Y984456D01*
X1785631Y982972D01*
X1786362Y981604D01*
X1787346Y980405D01*
X1788545Y979421D01*
X1789913Y978690D01*
X1791397Y978240D01*
X1792941Y978088D01*
X1794485Y978240D01*
X1795969Y978690D01*
X1797337Y979421D01*
X1798536Y980405D01*
X1799520Y981604D01*
X1800251Y982972D01*
X1800701Y984456D01*
X1800853Y986000D01*
X1800701Y987544D01*
X1800251Y989028D01*
X1799520Y990396D01*
X1798536Y991595D01*
X1797337Y992579D01*
X1795969Y993310D01*
X1794485Y993760D01*
X1792941Y993912D01*
D02*
G37*
G36*
X1748059D02*
X1746515Y993760D01*
X1745031Y993310D01*
X1743663Y992579D01*
X1742464Y991595D01*
X1741480Y990396D01*
X1740749Y989028D01*
X1740299Y987544D01*
X1740147Y986000D01*
X1740299Y984456D01*
X1740749Y982972D01*
X1741480Y981604D01*
X1742464Y980405D01*
X1743663Y979421D01*
X1745031Y978690D01*
X1746515Y978240D01*
X1748059Y978088D01*
X1749603Y978240D01*
X1751087Y978690D01*
X1752455Y979421D01*
X1753654Y980405D01*
X1754638Y981604D01*
X1755369Y982972D01*
X1755819Y984456D01*
X1755971Y986000D01*
X1755819Y987544D01*
X1755369Y989028D01*
X1754638Y990396D01*
X1753654Y991595D01*
X1752455Y992579D01*
X1751087Y993310D01*
X1749603Y993760D01*
X1748059Y993912D01*
D02*
G37*
G36*
X1885000Y982507D02*
X1884232Y982354D01*
X1883581Y981919D01*
X1883146Y981268D01*
X1882993Y980500D01*
X1883146Y979732D01*
X1883581Y979081D01*
X1884232Y978646D01*
X1885000Y978493D01*
X1885768Y978646D01*
X1886419Y979081D01*
X1886854Y979732D01*
X1887007Y980500D01*
X1886854Y981268D01*
X1886419Y981919D01*
X1885768Y982354D01*
X1885000Y982507D01*
D02*
G37*
G36*
X1728500Y983507D02*
X1727732Y983354D01*
X1727081Y982919D01*
X1726646Y982268D01*
X1726493Y981500D01*
X1726646Y980732D01*
X1727081Y980081D01*
X1727732Y979646D01*
X1728500Y979493D01*
X1729268Y979646D01*
X1729919Y980081D01*
X1730354Y980732D01*
X1730507Y981500D01*
X1730354Y982268D01*
X1729919Y982919D01*
X1729268Y983354D01*
X1728500Y983507D01*
D02*
G37*
G36*
X1956000Y983007D02*
X1955232Y982854D01*
X1954581Y982419D01*
X1954146Y981768D01*
X1953993Y981000D01*
X1954146Y980232D01*
X1954581Y979581D01*
X1955232Y979146D01*
X1956000Y978993D01*
X1956768Y979146D01*
X1957419Y979581D01*
X1957854Y980232D01*
X1958007Y981000D01*
X1957854Y981768D01*
X1957419Y982419D01*
X1956768Y982854D01*
X1956000Y983007D01*
D02*
G37*
G36*
X2074000Y978007D02*
X2073232Y977854D01*
X2072581Y977419D01*
X2072146Y976768D01*
X2071993Y976000D01*
X2072146Y975232D01*
X2072581Y974581D01*
X2073232Y974146D01*
X2074000Y973993D01*
X2074768Y974146D01*
X2075419Y974581D01*
X2075854Y975232D01*
X2076007Y976000D01*
X2075854Y976768D01*
X2075419Y977419D01*
X2074768Y977854D01*
X2074000Y978007D01*
D02*
G37*
G36*
X2024500D02*
X2023732Y977854D01*
X2023081Y977419D01*
X2022646Y976768D01*
X2022493Y976000D01*
X2022646Y975232D01*
X2023081Y974581D01*
X2023732Y974146D01*
X2024500Y973993D01*
X2025268Y974146D01*
X2025919Y974581D01*
X2026354Y975232D01*
X2026507Y976000D01*
X2026354Y976768D01*
X2025919Y977419D01*
X2025268Y977854D01*
X2024500Y978007D01*
D02*
G37*
G36*
X1734000Y978507D02*
X1733232Y978354D01*
X1732581Y977919D01*
X1732146Y977268D01*
X1731993Y976500D01*
X1732146Y975732D01*
X1732581Y975081D01*
X1733232Y974646D01*
X1734000Y974493D01*
X1734768Y974646D01*
X1735419Y975081D01*
X1735854Y975732D01*
X1736007Y976500D01*
X1735854Y977268D01*
X1735419Y977919D01*
X1734768Y978354D01*
X1734000Y978507D01*
D02*
G37*
G36*
X2088500Y980731D02*
X2087732Y980579D01*
X2087081Y980144D01*
X2086646Y979492D01*
X2086493Y978724D01*
X2086646Y977956D01*
X2087081Y977305D01*
X2087732Y976870D01*
X2088500Y976717D01*
X2089268Y976870D01*
X2089919Y977305D01*
X2090354Y977956D01*
X2090507Y978724D01*
X2090354Y979492D01*
X2089919Y980144D01*
X2089268Y980579D01*
X2088500Y980731D01*
D02*
G37*
G36*
X1725156Y979031D02*
X1721469D01*
Y975344D01*
X1721801Y975445D01*
X1722841Y976000D01*
X1723752Y976748D01*
X1724500Y977659D01*
X1725056Y978699D01*
X1725156Y979031D01*
D02*
G37*
G36*
X1779500Y987507D02*
X1778732Y987354D01*
X1778081Y986919D01*
X1777646Y986268D01*
X1777493Y985500D01*
X1777646Y984732D01*
X1778081Y984081D01*
X1778732Y983646D01*
X1779500Y983493D01*
X1780268Y983646D01*
X1780919Y984081D01*
X1781354Y984732D01*
X1781507Y985500D01*
X1781354Y986268D01*
X1780919Y986919D01*
X1780268Y987354D01*
X1779500Y987507D01*
D02*
G37*
G36*
X1721469Y986656D02*
Y982969D01*
X1725156D01*
X1725056Y983301D01*
X1724500Y984341D01*
X1723752Y985252D01*
X1722841Y986000D01*
X1721801Y986555D01*
X1721469Y986656D01*
D02*
G37*
G36*
X1734000Y988007D02*
X1733232Y987854D01*
X1732581Y987419D01*
X1732146Y986768D01*
X1731993Y986000D01*
X1732146Y985232D01*
X1732581Y984581D01*
X1733232Y984146D01*
X1734000Y983993D01*
X1734768Y984146D01*
X1735419Y984581D01*
X1735854Y985232D01*
X1736007Y986000D01*
X1735854Y986768D01*
X1735419Y987419D01*
X1734768Y987854D01*
X1734000Y988007D01*
D02*
G37*
G36*
X1987000Y990007D02*
X1986232Y989854D01*
X1985581Y989419D01*
X1985146Y988768D01*
X1984993Y988000D01*
X1985146Y987232D01*
X1985581Y986581D01*
X1986232Y986146D01*
X1987000Y985993D01*
X1987768Y986146D01*
X1988090Y986012D01*
X1988146Y985732D01*
X1988581Y985081D01*
X1989232Y984646D01*
X1990000Y984493D01*
X1990768Y984646D01*
X1991419Y985081D01*
X1991854Y985732D01*
X1992007Y986500D01*
X1991854Y987268D01*
X1991419Y987919D01*
X1990768Y988354D01*
X1990000Y988507D01*
X1989232Y988354D01*
X1988910Y988488D01*
X1988854Y988768D01*
X1988419Y989419D01*
X1987768Y989854D01*
X1987000Y990007D01*
D02*
G37*
G36*
X1862764Y988507D02*
X1861996Y988354D01*
X1861345Y987919D01*
X1860909Y987268D01*
X1860757Y986500D01*
X1860909Y985732D01*
X1861345Y985081D01*
X1861996Y984646D01*
X1862764Y984493D01*
X1863532Y984646D01*
X1864183Y985081D01*
X1864618Y985732D01*
X1864771Y986500D01*
X1864618Y987268D01*
X1864183Y987919D01*
X1863532Y988354D01*
X1862764Y988507D01*
D02*
G37*
G36*
X2090000Y985007D02*
X2089232Y984854D01*
X2088581Y984419D01*
X2088146Y983768D01*
X2087993Y983000D01*
X2088146Y982232D01*
X2088581Y981581D01*
X2089232Y981146D01*
X2090000Y980993D01*
X2090768Y981146D01*
X2091419Y981581D01*
X2091854Y982232D01*
X2092007Y983000D01*
X2091854Y983768D01*
X2091419Y984419D01*
X2090768Y984854D01*
X2090000Y985007D01*
D02*
G37*
G36*
X1932000Y984007D02*
X1931232Y983854D01*
X1930581Y983419D01*
X1930146Y982768D01*
X1929993Y982000D01*
X1930146Y981232D01*
X1930581Y980581D01*
X1931232Y980146D01*
X1932000Y979993D01*
X1932768Y980146D01*
X1933419Y980581D01*
X1933854Y981232D01*
X1934007Y982000D01*
X1933854Y982768D01*
X1933419Y983419D01*
X1932768Y983854D01*
X1932000Y984007D01*
D02*
G37*
G36*
X1922500Y986007D02*
X1921732Y985854D01*
X1921081Y985419D01*
X1920646Y984768D01*
X1920493Y984000D01*
X1920646Y983232D01*
X1921081Y982581D01*
X1921732Y982146D01*
X1922500Y981993D01*
X1923268Y982146D01*
X1923919Y982581D01*
X1924354Y983232D01*
X1924507Y984000D01*
X1924354Y984768D01*
X1923919Y985419D01*
X1923268Y985854D01*
X1922500Y986007D01*
D02*
G37*
G36*
X1962000Y986507D02*
X1961232Y986354D01*
X1960581Y985919D01*
X1960146Y985268D01*
X1959993Y984500D01*
X1960146Y983732D01*
X1960581Y983081D01*
X1961232Y982646D01*
X1962000Y982493D01*
X1962768Y982646D01*
X1963419Y983081D01*
X1963854Y983732D01*
X1964007Y984500D01*
X1963854Y985268D01*
X1963419Y985919D01*
X1962768Y986354D01*
X1962000Y986507D01*
D02*
G37*
G36*
X1887500D02*
X1886732Y986354D01*
X1886081Y985919D01*
X1885646Y985268D01*
X1885493Y984500D01*
X1885646Y983732D01*
X1886081Y983081D01*
X1886732Y982646D01*
X1887500Y982493D01*
X1888268Y982646D01*
X1888919Y983081D01*
X1889354Y983732D01*
X1889507Y984500D01*
X1889354Y985268D01*
X1888919Y985919D01*
X1888268Y986354D01*
X1887500Y986507D01*
D02*
G37*
G36*
X1975000Y1002507D02*
X1974232Y1002354D01*
X1973581Y1001919D01*
X1973146Y1001268D01*
X1972993Y1000500D01*
X1973146Y999732D01*
X1973581Y999081D01*
X1974232Y998646D01*
X1975000Y998493D01*
X1975768Y998646D01*
X1976419Y999081D01*
X1976854Y999732D01*
X1977007Y1000500D01*
X1976854Y1001268D01*
X1976419Y1001919D01*
X1975768Y1002354D01*
X1975000Y1002507D01*
D02*
G37*
G36*
X1872000Y1018007D02*
X1871232Y1017854D01*
X1870581Y1017419D01*
X1870146Y1016768D01*
X1869993Y1016000D01*
X1870146Y1015232D01*
X1870581Y1014581D01*
X1871232Y1014146D01*
X1872000Y1013993D01*
X1872768Y1014146D01*
X1873419Y1014581D01*
X1873854Y1015232D01*
X1874007Y1016000D01*
X1873854Y1016768D01*
X1873419Y1017419D01*
X1872768Y1017854D01*
X1872000Y1018007D01*
D02*
G37*
G36*
X1865500Y1016507D02*
X1864732Y1016354D01*
X1864081Y1015919D01*
X1863646Y1015268D01*
X1863493Y1014500D01*
X1863646Y1013732D01*
X1864081Y1013081D01*
X1864732Y1012646D01*
X1865500Y1012493D01*
X1866268Y1012646D01*
X1866919Y1013081D01*
X1867354Y1013732D01*
X1867507Y1014500D01*
X1867354Y1015268D01*
X1866919Y1015919D01*
X1866268Y1016354D01*
X1865500Y1016507D01*
D02*
G37*
G36*
X2055500Y1018507D02*
X2054732Y1018354D01*
X2054081Y1017919D01*
X2053646Y1017268D01*
X2053493Y1016500D01*
X2053646Y1015732D01*
X2054081Y1015081D01*
X2054732Y1014646D01*
X2055500Y1014493D01*
X2056268Y1014646D01*
X2056919Y1015081D01*
X2057354Y1015732D01*
X2057507Y1016500D01*
X2057354Y1017268D01*
X2056919Y1017919D01*
X2056268Y1018354D01*
X2055500Y1018507D01*
D02*
G37*
G36*
X1725156Y1019032D02*
X1721469D01*
Y1015344D01*
X1721801Y1015444D01*
X1722841Y1016000D01*
X1723752Y1016748D01*
X1724500Y1017659D01*
X1725056Y1018699D01*
X1725156Y1019032D01*
D02*
G37*
G36*
X1728500Y1019007D02*
X1727732Y1018854D01*
X1727081Y1018419D01*
X1726646Y1017768D01*
X1726493Y1017000D01*
X1726646Y1016232D01*
X1727081Y1015581D01*
X1727732Y1015146D01*
X1728500Y1014993D01*
X1729268Y1015146D01*
X1729919Y1015581D01*
X1730354Y1016232D01*
X1730507Y1017000D01*
X1730354Y1017768D01*
X1729919Y1018419D01*
X1729268Y1018854D01*
X1728500Y1019007D01*
D02*
G37*
G36*
X2079000Y1016007D02*
X2078232Y1015854D01*
X2077581Y1015419D01*
X2077146Y1014768D01*
X2076993Y1014000D01*
X2077146Y1013232D01*
X2077581Y1012581D01*
X2078232Y1012146D01*
X2079000Y1011993D01*
X2079768Y1012146D01*
X2080020Y1012314D01*
X2080576Y1012084D01*
X2080646Y1011732D01*
X2081081Y1011081D01*
X2081732Y1010646D01*
X2082500Y1010493D01*
X2083268Y1010646D01*
X2083919Y1011081D01*
X2084354Y1011732D01*
X2084507Y1012500D01*
X2084354Y1013268D01*
X2083919Y1013919D01*
X2083268Y1014354D01*
X2082500Y1014507D01*
X2081732Y1014354D01*
X2081480Y1014186D01*
X2080924Y1014416D01*
X2080854Y1014768D01*
X2080419Y1015419D01*
X2079768Y1015854D01*
X2079000Y1016007D01*
D02*
G37*
G36*
X1932500Y1014507D02*
X1931732Y1014354D01*
X1931081Y1013919D01*
X1930646Y1013268D01*
X1930493Y1012500D01*
X1930646Y1011732D01*
X1931081Y1011081D01*
X1931732Y1010646D01*
X1932500Y1010493D01*
X1933268Y1010646D01*
X1933919Y1011081D01*
X1934354Y1011732D01*
X1934507Y1012500D01*
X1934354Y1013268D01*
X1933919Y1013919D01*
X1933268Y1014354D01*
X1932500Y1014507D01*
D02*
G37*
G36*
X2004500Y1015007D02*
X2003732Y1014854D01*
X2003081Y1014419D01*
X2002646Y1013768D01*
X2002493Y1013000D01*
X2002646Y1012232D01*
X2003081Y1011581D01*
X2003732Y1011146D01*
X2004500Y1010993D01*
X2005268Y1011146D01*
X2005919Y1011581D01*
X2006354Y1012232D01*
X2006507Y1013000D01*
X2006354Y1013768D01*
X2005919Y1014419D01*
X2005268Y1014854D01*
X2004500Y1015007D01*
D02*
G37*
G36*
X1857500Y1016287D02*
X1856732Y1016134D01*
X1856081Y1015699D01*
X1855646Y1015048D01*
X1855493Y1014279D01*
X1855646Y1013511D01*
X1856081Y1012860D01*
X1856732Y1012425D01*
X1857500Y1012272D01*
X1858268Y1012425D01*
X1858919Y1012860D01*
X1859354Y1013511D01*
X1859507Y1014279D01*
X1859354Y1015048D01*
X1858919Y1015699D01*
X1858268Y1016134D01*
X1857500Y1016287D01*
D02*
G37*
G36*
X2065500Y1015007D02*
X2064732Y1014854D01*
X2064081Y1014419D01*
X2063646Y1013768D01*
X2063493Y1013000D01*
X2063646Y1012232D01*
X2064081Y1011581D01*
X2064732Y1011146D01*
X2065500Y1010993D01*
X2066268Y1011146D01*
X2066919Y1011581D01*
X2067354Y1012232D01*
X2067507Y1013000D01*
X2067354Y1013768D01*
X2066919Y1014419D01*
X2066268Y1014854D01*
X2065500Y1015007D01*
D02*
G37*
G36*
X1893500Y1026007D02*
X1892732Y1025854D01*
X1892081Y1025419D01*
X1891646Y1024768D01*
X1891493Y1024000D01*
X1891646Y1023232D01*
X1892081Y1022581D01*
X1892732Y1022146D01*
X1893500Y1021993D01*
X1894268Y1022146D01*
X1894919Y1022581D01*
X1895354Y1023232D01*
X1895507Y1024000D01*
X1895354Y1024768D01*
X1894919Y1025419D01*
X1894268Y1025854D01*
X1893500Y1026007D01*
D02*
G37*
G36*
X1833000Y1024507D02*
X1832232Y1024354D01*
X1831581Y1023919D01*
X1831146Y1023268D01*
X1830993Y1022500D01*
X1831146Y1021732D01*
X1831581Y1021081D01*
X1832232Y1020646D01*
X1833000Y1020493D01*
X1833768Y1020646D01*
X1834419Y1021081D01*
X1834854Y1021732D01*
X1835007Y1022500D01*
X1834854Y1023268D01*
X1834419Y1023919D01*
X1833768Y1024354D01*
X1833000Y1024507D01*
D02*
G37*
G36*
X1987000Y1026007D02*
X1986232Y1025854D01*
X1985581Y1025419D01*
X1985146Y1024768D01*
X1984993Y1024000D01*
X1985146Y1023232D01*
X1985581Y1022581D01*
X1986232Y1022146D01*
X1987000Y1021993D01*
X1987768Y1022146D01*
X1988419Y1022581D01*
X1988854Y1023232D01*
X1989007Y1024000D01*
X1988854Y1024768D01*
X1988419Y1025419D01*
X1987768Y1025854D01*
X1987000Y1026007D01*
D02*
G37*
G36*
X2086953Y1025311D02*
X2084378D01*
Y1022736D01*
X2086953D01*
Y1025311D01*
D02*
G37*
G36*
X2081622D02*
X2079047D01*
Y1022736D01*
X2081622D01*
Y1025311D01*
D02*
G37*
G36*
X1809000Y1021007D02*
X1808232Y1020854D01*
X1807581Y1020419D01*
X1807146Y1019768D01*
X1806993Y1019000D01*
X1807146Y1018232D01*
X1807581Y1017581D01*
X1808232Y1017146D01*
X1809000Y1016993D01*
X1809768Y1017146D01*
X1810419Y1017581D01*
X1810854Y1018232D01*
X1811007Y1019000D01*
X1810854Y1019768D01*
X1810419Y1020419D01*
X1809768Y1020854D01*
X1809000Y1021007D01*
D02*
G37*
G36*
X2010000Y1019507D02*
X2009232Y1019354D01*
X2008581Y1018919D01*
X2008146Y1018268D01*
X2007993Y1017500D01*
X2008146Y1016732D01*
X2008581Y1016081D01*
X2009232Y1015646D01*
X2010000Y1015493D01*
X2010768Y1015646D01*
X2011419Y1016081D01*
X2011854Y1016732D01*
X2012007Y1017500D01*
X2011854Y1018268D01*
X2011419Y1018919D01*
X2010768Y1019354D01*
X2010000Y1019507D01*
D02*
G37*
G36*
X1969500Y1022007D02*
X1968732Y1021854D01*
X1968081Y1021419D01*
X1967646Y1020768D01*
X1967493Y1020000D01*
X1967646Y1019232D01*
X1968081Y1018581D01*
X1968732Y1018146D01*
X1969500Y1017993D01*
X1970268Y1018146D01*
X1970919Y1018581D01*
X1971354Y1019232D01*
X1971507Y1020000D01*
X1971354Y1020768D01*
X1970919Y1021419D01*
X1970268Y1021854D01*
X1969500Y1022007D01*
D02*
G37*
G36*
X1734000Y1023507D02*
X1733232Y1023354D01*
X1732581Y1022919D01*
X1732146Y1022268D01*
X1731993Y1021500D01*
X1732146Y1020732D01*
X1732581Y1020081D01*
X1733232Y1019646D01*
X1734000Y1019493D01*
X1734768Y1019646D01*
X1735419Y1020081D01*
X1735854Y1020732D01*
X1736007Y1021500D01*
X1735854Y1022268D01*
X1735419Y1022919D01*
X1734768Y1023354D01*
X1734000Y1023507D01*
D02*
G37*
G36*
X2061000Y1022007D02*
X2060232Y1021854D01*
X2059581Y1021419D01*
X2059146Y1020768D01*
X2058993Y1020000D01*
X2059146Y1019232D01*
X2059581Y1018581D01*
X2060232Y1018146D01*
X2061000Y1017993D01*
X2061768Y1018146D01*
X2062419Y1018581D01*
X2062854Y1019232D01*
X2063007Y1020000D01*
X2062854Y1020768D01*
X2062419Y1021419D01*
X2061768Y1021854D01*
X2061000Y1022007D01*
D02*
G37*
G36*
X1921500Y1014507D02*
X1920732Y1014354D01*
X1920081Y1013919D01*
X1919646Y1013268D01*
X1919493Y1012500D01*
X1919646Y1011732D01*
X1920081Y1011081D01*
X1920732Y1010646D01*
X1921500Y1010493D01*
X1922268Y1010646D01*
X1922919Y1011081D01*
X1923354Y1011732D01*
X1923507Y1012500D01*
X1923354Y1013268D01*
X1922919Y1013919D01*
X1922268Y1014354D01*
X1921500Y1014507D01*
D02*
G37*
G36*
X1804500Y1006507D02*
X1803732Y1006354D01*
X1803081Y1005919D01*
X1802646Y1005268D01*
X1802493Y1004500D01*
X1802646Y1003732D01*
X1803081Y1003081D01*
X1803732Y1002646D01*
X1804500Y1002493D01*
X1805268Y1002646D01*
X1805919Y1003081D01*
X1806354Y1003732D01*
X1806507Y1004500D01*
X1806354Y1005268D01*
X1805919Y1005919D01*
X1805268Y1006354D01*
X1804500Y1006507D01*
D02*
G37*
G36*
X2020500Y1004507D02*
X2019732Y1004354D01*
X2019081Y1003919D01*
X2018646Y1003268D01*
X2018493Y1002500D01*
X2018646Y1001732D01*
X2019081Y1001081D01*
X2019732Y1000646D01*
X2020500Y1000493D01*
X2021268Y1000646D01*
X2021919Y1001081D01*
X2022354Y1001732D01*
X2022507Y1002500D01*
X2022354Y1003268D01*
X2021919Y1003919D01*
X2021268Y1004354D01*
X2020500Y1004507D01*
D02*
G37*
G36*
X1969500Y1007507D02*
X1968732Y1007354D01*
X1968081Y1006919D01*
X1967646Y1006268D01*
X1967493Y1005500D01*
X1967646Y1004732D01*
X1968081Y1004081D01*
X1968732Y1003646D01*
X1969500Y1003493D01*
X1970268Y1003646D01*
X1970919Y1004081D01*
X1971354Y1004732D01*
X1971507Y1005500D01*
X1971354Y1006268D01*
X1970919Y1006919D01*
X1970268Y1007354D01*
X1969500Y1007507D01*
D02*
G37*
G36*
X1995000Y1008507D02*
X1994232Y1008354D01*
X1993581Y1007919D01*
X1993146Y1007268D01*
X1992993Y1006500D01*
X1993146Y1005732D01*
X1993581Y1005081D01*
X1994232Y1004646D01*
X1995000Y1004493D01*
X1995768Y1004646D01*
X1996419Y1005081D01*
X1996854Y1005732D01*
X1997007Y1006500D01*
X1996854Y1007268D01*
X1996419Y1007919D01*
X1995768Y1008354D01*
X1995000Y1008507D01*
D02*
G37*
G36*
X1781000D02*
X1780232Y1008354D01*
X1779581Y1007919D01*
X1779146Y1007268D01*
X1778993Y1006500D01*
X1779146Y1005732D01*
X1779581Y1005081D01*
X1780232Y1004646D01*
X1781000Y1004493D01*
X1781768Y1004646D01*
X1782419Y1005081D01*
X1782854Y1005732D01*
X1783007Y1006500D01*
X1782854Y1007268D01*
X1782419Y1007919D01*
X1781768Y1008354D01*
X1781000Y1008507D01*
D02*
G37*
G36*
X1844250Y1003507D02*
X1843482Y1003354D01*
X1842831Y1002919D01*
X1842396Y1002268D01*
X1842243Y1001500D01*
X1842396Y1000732D01*
X1842831Y1000081D01*
X1843482Y999646D01*
X1844250Y999493D01*
X1845018Y999646D01*
X1845669Y1000081D01*
X1846104Y1000732D01*
X1846257Y1001500D01*
X1846104Y1002268D01*
X1845669Y1002919D01*
X1845018Y1003354D01*
X1844250Y1003507D01*
D02*
G37*
G36*
X1824000Y1003007D02*
X1823232Y1002854D01*
X1822581Y1002419D01*
X1822146Y1001768D01*
X1821993Y1001000D01*
X1822146Y1000232D01*
X1822581Y999581D01*
X1823232Y999146D01*
X1824000Y998993D01*
X1824768Y999146D01*
X1825419Y999581D01*
X1825854Y1000232D01*
X1826007Y1001000D01*
X1825854Y1001768D01*
X1825419Y1002419D01*
X1824768Y1002854D01*
X1824000Y1003007D01*
D02*
G37*
G36*
X1870000Y1003991D02*
X1869232Y1003839D01*
X1868581Y1003403D01*
X1868146Y1002752D01*
X1867993Y1001984D01*
X1868146Y1001216D01*
X1868581Y1000565D01*
X1869232Y1000130D01*
X1870000Y999977D01*
X1870768Y1000130D01*
X1871419Y1000565D01*
X1871854Y1001216D01*
X1872007Y1001984D01*
X1871854Y1002752D01*
X1871419Y1003403D01*
X1870768Y1003839D01*
X1870000Y1003991D01*
D02*
G37*
G36*
X1756000Y1004507D02*
X1755232Y1004354D01*
X1754581Y1003919D01*
X1754146Y1003268D01*
X1753993Y1002500D01*
X1754146Y1001732D01*
X1754581Y1001081D01*
X1755232Y1000646D01*
X1756000Y1000493D01*
X1756768Y1000646D01*
X1757419Y1001081D01*
X1757854Y1001732D01*
X1758007Y1002500D01*
X1757854Y1003268D01*
X1757419Y1003919D01*
X1756768Y1004354D01*
X1756000Y1004507D01*
D02*
G37*
G36*
X1849000Y1004007D02*
X1848232Y1003854D01*
X1847581Y1003419D01*
X1847146Y1002768D01*
X1846993Y1002000D01*
X1847146Y1001232D01*
X1847581Y1000581D01*
X1848232Y1000146D01*
X1849000Y999993D01*
X1849768Y1000146D01*
X1850419Y1000581D01*
X1850854Y1001232D01*
X1851007Y1002000D01*
X1850854Y1002768D01*
X1850419Y1003419D01*
X1849768Y1003854D01*
X1849000Y1004007D01*
D02*
G37*
G36*
X1784083Y1017299D02*
X1776602D01*
Y1009819D01*
X1784083D01*
Y1017299D01*
D02*
G37*
G36*
X1760658Y1017332D02*
X1759681Y1017203D01*
X1758771Y1016826D01*
X1757990Y1016227D01*
X1757391Y1015445D01*
X1757014Y1014535D01*
X1756885Y1013559D01*
X1757014Y1012583D01*
X1757391Y1011673D01*
X1757990Y1010892D01*
X1758771Y1010292D01*
X1759681Y1009915D01*
X1760658Y1009787D01*
X1761634Y1009915D01*
X1762544Y1010292D01*
X1763325Y1010892D01*
X1763924Y1011673D01*
X1764301Y1012583D01*
X1764430Y1013559D01*
X1764301Y1014535D01*
X1763924Y1015445D01*
X1763325Y1016227D01*
X1762544Y1016826D01*
X1761634Y1017203D01*
X1760658Y1017332D01*
D02*
G37*
G36*
X1734000Y1014007D02*
X1733232Y1013854D01*
X1732581Y1013419D01*
X1732146Y1012768D01*
X1731993Y1012000D01*
X1732146Y1011232D01*
X1732581Y1010581D01*
X1733232Y1010146D01*
X1734000Y1009993D01*
X1734768Y1010146D01*
X1735419Y1010581D01*
X1735854Y1011232D01*
X1736007Y1012000D01*
X1735854Y1012768D01*
X1735419Y1013419D01*
X1734768Y1013854D01*
X1734000Y1014007D01*
D02*
G37*
G36*
X2048472Y1014231D02*
X2047704Y1014079D01*
X2047053Y1013644D01*
X2046618Y1012992D01*
X2046465Y1012224D01*
X2046618Y1011456D01*
X2047053Y1010805D01*
X2047704Y1010370D01*
X2048472Y1010217D01*
X2049240Y1010370D01*
X2049892Y1010805D01*
X2050327Y1011456D01*
X2050480Y1012224D01*
X2050327Y1012992D01*
X2049892Y1013644D01*
X2049240Y1014079D01*
X2048472Y1014231D01*
D02*
G37*
G36*
X2072500Y1014007D02*
X2071732Y1013854D01*
X2071081Y1013419D01*
X2070646Y1012768D01*
X2070493Y1012000D01*
X2070646Y1011232D01*
X2071081Y1010581D01*
X2071732Y1010146D01*
X2072500Y1009993D01*
X2073268Y1010146D01*
X2073919Y1010581D01*
X2074354Y1011232D01*
X2074507Y1012000D01*
X2074354Y1012768D01*
X2073919Y1013419D01*
X2073268Y1013854D01*
X2072500Y1014007D01*
D02*
G37*
G36*
X1845000Y1010007D02*
X1844232Y1009854D01*
X1843581Y1009419D01*
X1843146Y1008768D01*
X1842993Y1008000D01*
X1843146Y1007232D01*
X1843581Y1006581D01*
X1844232Y1006146D01*
X1845000Y1005993D01*
X1845768Y1006146D01*
X1846419Y1006581D01*
X1846854Y1007232D01*
X1847007Y1008000D01*
X1846854Y1008768D01*
X1846419Y1009419D01*
X1845768Y1009854D01*
X1845000Y1010007D01*
D02*
G37*
G36*
X1728500Y1009507D02*
X1727732Y1009354D01*
X1727081Y1008919D01*
X1726646Y1008268D01*
X1726493Y1007500D01*
X1726646Y1006732D01*
X1727081Y1006081D01*
X1727732Y1005646D01*
X1728500Y1005493D01*
X1729268Y1005646D01*
X1729919Y1006081D01*
X1730354Y1006732D01*
X1730507Y1007500D01*
X1730354Y1008268D01*
X1729919Y1008919D01*
X1729268Y1009354D01*
X1728500Y1009507D01*
D02*
G37*
G36*
X2091500Y1010298D02*
X2090732Y1010146D01*
X2090081Y1009711D01*
X2089646Y1009059D01*
X2089493Y1008291D01*
X2089646Y1007523D01*
X2090081Y1006872D01*
X2090732Y1006437D01*
X2091500Y1006284D01*
X2092268Y1006437D01*
X2092919Y1006872D01*
X2093354Y1007523D01*
X2093507Y1008291D01*
X2093354Y1009059D01*
X2092919Y1009711D01*
X2092268Y1010146D01*
X2091500Y1010298D01*
D02*
G37*
G36*
X1824500Y1013507D02*
X1823732Y1013354D01*
X1823081Y1012919D01*
X1822646Y1012268D01*
X1822493Y1011500D01*
X1822646Y1010732D01*
X1823081Y1010081D01*
X1823732Y1009646D01*
X1824500Y1009493D01*
X1825268Y1009646D01*
X1825919Y1010081D01*
X1826354Y1010732D01*
X1826507Y1011500D01*
X1826354Y1012268D01*
X1825919Y1012919D01*
X1825268Y1013354D01*
X1824500Y1013507D01*
D02*
G37*
G36*
X1829000Y1010507D02*
X1828232Y1010354D01*
X1827581Y1009919D01*
X1827146Y1009268D01*
X1826993Y1008500D01*
X1827146Y1007732D01*
X1827581Y1007081D01*
X1828232Y1006646D01*
X1829000Y1006493D01*
X1829768Y1006646D01*
X1830419Y1007081D01*
X1830854Y1007732D01*
X1831007Y1008500D01*
X1830854Y1009268D01*
X1830419Y1009919D01*
X1829768Y1010354D01*
X1829000Y1010507D01*
D02*
G37*
%LPD*%
D60*
X2083000Y1026689D02*
D03*
D61*
X2100000Y865689D02*
D03*
D62*
X1719500Y941000D02*
D03*
Y981000D02*
D03*
Y1021000D02*
D03*
Y1061000D02*
D03*
D63*
X1825500Y971500D02*
D03*
X2100000Y1056791D02*
D03*
D69*
X1922658Y785153D02*
D03*
X1912815D02*
D03*
D71*
X1730000Y1118000D02*
D03*
D76*
X1907500Y1024000D02*
D03*
X1911500Y1027500D02*
D03*
X1903500D02*
D03*
X1876500Y1078500D02*
D03*
X1866000D02*
D03*
X1871000Y1072500D02*
D03*
X1866000Y1066000D02*
D03*
X1876500D02*
D03*
X1717500Y868500D02*
D03*
X1926000Y817500D02*
D03*
X1957500Y825839D02*
D03*
X1961000Y814500D02*
D03*
X1810500Y1088000D02*
D03*
Y1077000D02*
D03*
X1804500Y1082500D02*
D03*
X1815891Y1082506D02*
D03*
X1904500Y1065500D02*
D03*
X1894500Y1065000D02*
D03*
X1885000Y1065500D02*
D03*
X1940000Y1028500D02*
D03*
X1924500Y1032500D02*
D03*
X1936500Y1024500D02*
D03*
X1892000Y1012500D02*
D03*
X1808500Y916500D02*
D03*
Y923000D02*
D03*
Y929000D02*
D03*
Y934000D02*
D03*
X1736000Y1066500D02*
D03*
X1746000D02*
D03*
X1741000Y1069750D02*
D03*
X1751000D02*
D03*
X1741000Y1063250D02*
D03*
X1751000D02*
D03*
X1838000Y1055500D02*
D03*
X1822000Y983000D02*
D03*
X1840500Y1035500D02*
D03*
X1869000Y1034815D02*
D03*
X1889500Y1037500D02*
D03*
X1895000D02*
D03*
X1894500Y1044000D02*
D03*
X2078000Y876500D02*
D03*
X1875000Y965500D02*
D03*
X1936500Y1033000D02*
D03*
X1882252Y959248D02*
D03*
X2050437Y939563D02*
D03*
X2035500Y955000D02*
D03*
X2012000Y948000D02*
D03*
X1958500Y950500D02*
D03*
X1972000Y919500D02*
D03*
X2001000Y920500D02*
D03*
M02*
