G04 Layer_Physical_Order=2*
G04 Layer_Color=16765976*
%FSLAX25Y25*%
%MOIN*%
G70*
G01*
G75*
%ADD51C,0.00800*%
%ADD58C,0.06299*%
%ADD60R,0.05906X0.05906*%
%ADD61C,0.05906*%
%ADD63C,0.06000*%
%ADD65O,0.05000X0.11811*%
%ADD66C,0.08661*%
%ADD67C,0.07874*%
%ADD70R,0.08268X0.05512*%
%ADD75C,0.07500*%
%ADD76C,0.02362*%
%ADD77C,0.14173*%
%ADD78R,0.05906X0.05906*%
G36*
X1774956Y1121305D02*
X1776461Y1120210D01*
X1776537Y1120027D01*
X1777264Y1119079D01*
X1778212Y1118351D01*
X1779316Y1117894D01*
X1779717Y1117842D01*
X1784291Y1114515D01*
X1784581Y1114081D01*
X1785232Y1113646D01*
X1785581Y1113576D01*
X1802077Y1101577D01*
X1802146Y1101232D01*
X1802581Y1100581D01*
X1803232Y1100146D01*
X1804000Y1099993D01*
X1804201Y1100033D01*
X1888083Y1039019D01*
X1888081Y1038919D01*
X1887646Y1038268D01*
X1887493Y1037500D01*
X1887646Y1036732D01*
X1888081Y1036081D01*
X1888732Y1035646D01*
X1889500Y1035493D01*
X1890268Y1035646D01*
X1890919Y1036081D01*
X1891112Y1036370D01*
X1891604Y1036457D01*
X1902044Y1028864D01*
X1901646Y1028268D01*
X1901493Y1027500D01*
X1901646Y1026732D01*
X1902081Y1026081D01*
X1902732Y1025646D01*
X1903500Y1025493D01*
X1904268Y1025646D01*
X1904919Y1026081D01*
X1905030Y1026246D01*
X1905522Y1026334D01*
X1906092Y1025920D01*
X1906082Y1025420D01*
X1906081Y1025419D01*
X1905646Y1024768D01*
X1905493Y1024000D01*
X1905646Y1023232D01*
X1906081Y1022581D01*
X1906732Y1022146D01*
X1907500Y1021993D01*
X1908268Y1022146D01*
X1908919Y1022581D01*
X1909218Y1023028D01*
X1909820Y1023207D01*
X1910803Y1022493D01*
X1910000Y982727D01*
X1918639Y974874D01*
X1918375Y974536D01*
X1918354Y974510D01*
X1918335Y974486D01*
X1918330Y974479D01*
X1918080Y974646D01*
X1918080D01*
X1917768Y974854D01*
X1917000Y975007D01*
X1916232Y974854D01*
X1915581Y974419D01*
X1915146Y973768D01*
X1914993Y973000D01*
X1915146Y972232D01*
X1915581Y971581D01*
X1916232Y971146D01*
X1917000Y970993D01*
X1917768Y971146D01*
X1918419Y971581D01*
X1918854Y972232D01*
X1919007Y973000D01*
X1918854Y973768D01*
X1918623Y974114D01*
Y974114D01*
X1918456Y974364D01*
X1918460Y974368D01*
X1918475Y974380D01*
X1918483Y974388D01*
X1918518Y974418D01*
X1918838Y974693D01*
X1921489Y972282D01*
X1921146Y971768D01*
X1920993Y971000D01*
X1921146Y970232D01*
X1921581Y969581D01*
X1922232Y969146D01*
X1923000Y968993D01*
X1923768Y969146D01*
X1924419Y969581D01*
X1924456Y969585D01*
X1941591Y954008D01*
X1941646Y953732D01*
X1942081Y953081D01*
X1942732Y952646D01*
X1943190Y952555D01*
X1946000Y950000D01*
X1956592D01*
X1956646Y949732D01*
X1957081Y949081D01*
X1957732Y948646D01*
X1958500Y948493D01*
X1959268Y948646D01*
X1959919Y949081D01*
X1960354Y949732D01*
X1960408Y950000D01*
X1998000D01*
X2010550D01*
X2010702Y949500D01*
X2010581Y949419D01*
X2010146Y948768D01*
X2009993Y948000D01*
X2010146Y947232D01*
X2010581Y946581D01*
X2011232Y946146D01*
X2012000Y945993D01*
X2012768Y946146D01*
X2013419Y946581D01*
X2013854Y947232D01*
X2014007Y948000D01*
X2013854Y948768D01*
X2013419Y949419D01*
X2013298Y949500D01*
X2013450Y950000D01*
X2075592Y950000D01*
X2075761Y949500D01*
X2075275Y949127D01*
X2074454Y948057D01*
X2073939Y946813D01*
X2073763Y945476D01*
X2073939Y944140D01*
X2074454Y942895D01*
X2075275Y941826D01*
X2076344Y941006D01*
X2077589Y940490D01*
X2078925Y940314D01*
X2080008Y940457D01*
X2081000Y938025D01*
X2081000Y936908D01*
X2080732Y936854D01*
X2080081Y936419D01*
X2079646Y935768D01*
X2079493Y935000D01*
X2079646Y934232D01*
X2080081Y933581D01*
X2080732Y933146D01*
X2081000Y933092D01*
X2081000Y919395D01*
X2080739Y919360D01*
X2079494Y918845D01*
X2078424Y918024D01*
X2077782Y917187D01*
X2077402Y917296D01*
X2077291Y917368D01*
X2077120Y918663D01*
X2076604Y919908D01*
X2075784Y920977D01*
X2074715Y921797D01*
X2073470Y922313D01*
X2072134Y922489D01*
X2070798Y922313D01*
X2069553Y921797D01*
X2068484Y920977D01*
X2067663Y919908D01*
X2067147Y918663D01*
X2066972Y917327D01*
X2067147Y915991D01*
X2067663Y914746D01*
X2068484Y913676D01*
X2069553Y912856D01*
X2070798Y912340D01*
X2072134Y912164D01*
X2073470Y912340D01*
X2074715Y912856D01*
X2075784Y913676D01*
X2076427Y914514D01*
X2076806Y914405D01*
X2076918Y914333D01*
X2077088Y913038D01*
X2077604Y911793D01*
X2078424Y910724D01*
X2079317Y910039D01*
X2079147Y909539D01*
X2052284D01*
X2052184Y910039D01*
X2052383Y910121D01*
X2053370Y910878D01*
X2054127Y911866D01*
X2054603Y913015D01*
X2054765Y914248D01*
X2054603Y915481D01*
X2054127Y916631D01*
X2053370Y917618D01*
X2052383Y918375D01*
X2051233Y918851D01*
X2050000Y919013D01*
X2048767Y918851D01*
X2047617Y918375D01*
X2046630Y917618D01*
X2045873Y916631D01*
X2045397Y915481D01*
X2045235Y914248D01*
X2045397Y913015D01*
X2045873Y911866D01*
X2046630Y910878D01*
X2047617Y910121D01*
X2047816Y910039D01*
X2047716Y909539D01*
X2030009D01*
X2029857Y910039D01*
X2029919Y910081D01*
X2030354Y910732D01*
X2030507Y911500D01*
X2030354Y912268D01*
X2029919Y912919D01*
X2029268Y913354D01*
X2028500Y913507D01*
X2027732Y913354D01*
X2027081Y912919D01*
X2026646Y912268D01*
X2026493Y911500D01*
X2026646Y910732D01*
X2027081Y910081D01*
X2027143Y910039D01*
X2026991Y909539D01*
X2012256D01*
X1953500Y910000D01*
X1946873Y917047D01*
X1947118Y917516D01*
X1947768Y917646D01*
X1948419Y918081D01*
X1948854Y918732D01*
X1949007Y919500D01*
X1948854Y920268D01*
X1948419Y920919D01*
X1947768Y921354D01*
X1947000Y921507D01*
X1946232Y921354D01*
X1945581Y920919D01*
X1945146Y920268D01*
X1945038Y919728D01*
X1944510Y919560D01*
X1938911Y925513D01*
X1938919Y925581D01*
X1939354Y926232D01*
X1939507Y927000D01*
X1939354Y927768D01*
X1938919Y928419D01*
X1938268Y928854D01*
X1937500Y929007D01*
X1936732Y928854D01*
X1936141Y928459D01*
X1918236Y947499D01*
X1918292Y947996D01*
X1918419Y948081D01*
X1918854Y948732D01*
X1919007Y949500D01*
X1918854Y950268D01*
X1918419Y950919D01*
X1917768Y951354D01*
X1917000Y951507D01*
X1916232Y951354D01*
X1915581Y950919D01*
X1915571Y950904D01*
X1915073Y950863D01*
X1886955Y980763D01*
X1886854Y981268D01*
X1886419Y981919D01*
X1885768Y982354D01*
X1885387Y982430D01*
X1882500Y985500D01*
X1883000Y1022500D01*
X1870174Y1032747D01*
X1870195Y1033246D01*
X1870419Y1033396D01*
X1870854Y1034047D01*
X1871007Y1034815D01*
X1870854Y1035583D01*
X1870419Y1036234D01*
X1869768Y1036669D01*
X1869000Y1036822D01*
X1868232Y1036669D01*
X1867581Y1036234D01*
X1867243Y1035728D01*
X1866668Y1035548D01*
X1768500Y1113971D01*
Y1119464D01*
X1768507Y1119500D01*
X1768500Y1119536D01*
Y1146500D01*
X1774342D01*
X1774956Y1121305D01*
D02*
G37*
G36*
X1717000Y1149555D02*
X1845146D01*
X1845500Y1149202D01*
X1845500Y1091000D01*
X1850050D01*
X1850764Y1089665D01*
X1851846Y1088346D01*
X1853165Y1087263D01*
X1854669Y1086459D01*
X1856302Y1085964D01*
X1858000Y1085797D01*
X1859698Y1085964D01*
X1861331Y1086459D01*
X1862835Y1087263D01*
X1864154Y1088346D01*
X1865236Y1089665D01*
X1865950Y1091000D01*
X2103461Y1091000D01*
Y1059324D01*
X2102961Y1059154D01*
X2102701Y1059492D01*
X2101910Y1060100D01*
X2100989Y1060481D01*
X2100000Y1060611D01*
X2099011Y1060481D01*
X2098090Y1060100D01*
X2097299Y1059492D01*
X2096692Y1058701D01*
X2096310Y1057780D01*
X2096180Y1056791D01*
X2096310Y1055803D01*
X2096692Y1054881D01*
X2097299Y1054090D01*
X2098090Y1053483D01*
X2099011Y1053101D01*
X2100000Y1052971D01*
X2100989Y1053101D01*
X2101910Y1053483D01*
X2102701Y1054090D01*
X2102961Y1054428D01*
X2103461Y1054259D01*
Y1049630D01*
X2102987Y1049469D01*
X2102853Y1049644D01*
X2102017Y1050285D01*
X2101378Y1050550D01*
Y1046791D01*
Y1043032D01*
X2102017Y1043297D01*
X2102853Y1043939D01*
X2102987Y1044114D01*
X2103461Y1043953D01*
Y1039324D01*
X2102961Y1039154D01*
X2102701Y1039493D01*
X2101910Y1040100D01*
X2100989Y1040481D01*
X2100000Y1040611D01*
X2099011Y1040481D01*
X2098090Y1040100D01*
X2097299Y1039493D01*
X2096692Y1038701D01*
X2096310Y1037780D01*
X2096180Y1036791D01*
X2096310Y1035803D01*
X2096692Y1034881D01*
X2097299Y1034090D01*
X2098090Y1033483D01*
X2099011Y1033101D01*
X2100000Y1032971D01*
X2100989Y1033101D01*
X2101910Y1033483D01*
X2102701Y1034090D01*
X2102961Y1034429D01*
X2103461Y1034259D01*
Y1029324D01*
X2102961Y1029154D01*
X2102701Y1029492D01*
X2101910Y1030100D01*
X2100989Y1030481D01*
X2100000Y1030611D01*
X2099011Y1030481D01*
X2098090Y1030100D01*
X2097299Y1029492D01*
X2096692Y1028701D01*
X2096310Y1027780D01*
X2096180Y1026791D01*
X2096310Y1025803D01*
X2096692Y1024881D01*
X2097299Y1024090D01*
X2098090Y1023483D01*
X2099011Y1023101D01*
X2100000Y1022971D01*
X2100989Y1023101D01*
X2101910Y1023483D01*
X2102701Y1024090D01*
X2102961Y1024428D01*
X2103461Y1024259D01*
Y1019324D01*
X2102961Y1019154D01*
X2102701Y1019493D01*
X2101910Y1020100D01*
X2100989Y1020481D01*
X2100000Y1020611D01*
X2099011Y1020481D01*
X2098090Y1020100D01*
X2097299Y1019493D01*
X2096692Y1018701D01*
X2096310Y1017780D01*
X2096180Y1016791D01*
X2096310Y1015803D01*
X2096692Y1014881D01*
X2097299Y1014090D01*
X2098090Y1013483D01*
X2099011Y1013101D01*
X2100000Y1012971D01*
X2100989Y1013101D01*
X2101910Y1013483D01*
X2102701Y1014090D01*
X2102961Y1014429D01*
X2103461Y1014259D01*
Y1009324D01*
X2102961Y1009154D01*
X2102701Y1009492D01*
X2101910Y1010100D01*
X2100989Y1010481D01*
X2100000Y1010611D01*
X2099011Y1010481D01*
X2098090Y1010100D01*
X2097299Y1009492D01*
X2096692Y1008701D01*
X2096310Y1007780D01*
X2096180Y1006791D01*
X2096310Y1005803D01*
X2096692Y1004881D01*
X2097299Y1004090D01*
X2098090Y1003483D01*
X2099011Y1003101D01*
X2100000Y1002971D01*
X2100989Y1003101D01*
X2101910Y1003483D01*
X2102701Y1004090D01*
X2102961Y1004428D01*
X2103461Y1004259D01*
Y999324D01*
X2102961Y999154D01*
X2102701Y999492D01*
X2101910Y1000100D01*
X2100989Y1000481D01*
X2100000Y1000611D01*
X2099011Y1000481D01*
X2098090Y1000100D01*
X2097299Y999492D01*
X2096692Y998701D01*
X2096310Y997780D01*
X2096180Y996791D01*
X2096310Y995803D01*
X2096692Y994881D01*
X2097299Y994090D01*
X2098090Y993483D01*
X2099011Y993101D01*
X2100000Y992971D01*
X2100989Y993101D01*
X2101910Y993483D01*
X2102701Y994090D01*
X2102961Y994429D01*
X2103461Y994259D01*
Y989324D01*
X2102961Y989154D01*
X2102701Y989493D01*
X2101910Y990100D01*
X2100989Y990481D01*
X2100000Y990611D01*
X2099011Y990481D01*
X2098090Y990100D01*
X2097299Y989493D01*
X2096692Y988701D01*
X2096310Y987780D01*
X2096180Y986791D01*
X2096310Y985803D01*
X2096692Y984881D01*
X2097299Y984090D01*
X2098090Y983483D01*
X2099011Y983101D01*
X2100000Y982971D01*
X2100989Y983101D01*
X2101910Y983483D01*
X2102701Y984090D01*
X2102961Y984429D01*
X2103461Y984259D01*
Y979324D01*
X2102961Y979154D01*
X2102701Y979492D01*
X2101910Y980100D01*
X2100989Y980481D01*
X2100000Y980611D01*
X2099011Y980481D01*
X2098090Y980100D01*
X2097299Y979492D01*
X2096692Y978701D01*
X2096310Y977780D01*
X2096180Y976791D01*
X2096310Y975803D01*
X2096692Y974881D01*
X2097299Y974090D01*
X2098090Y973483D01*
X2099011Y973101D01*
X2100000Y972971D01*
X2100989Y973101D01*
X2101910Y973483D01*
X2102701Y974090D01*
X2102961Y974428D01*
X2103461Y974259D01*
Y969324D01*
X2102961Y969154D01*
X2102701Y969493D01*
X2101910Y970100D01*
X2100989Y970481D01*
X2100000Y970611D01*
X2099011Y970481D01*
X2098090Y970100D01*
X2097299Y969493D01*
X2096692Y968701D01*
X2096310Y967780D01*
X2096180Y966791D01*
X2096310Y965803D01*
X2096692Y964881D01*
X2097299Y964090D01*
X2098090Y963483D01*
X2099011Y963101D01*
X2100000Y962971D01*
X2100989Y963101D01*
X2101910Y963483D01*
X2102701Y964090D01*
X2102961Y964429D01*
X2103461Y964259D01*
Y959324D01*
X2102961Y959154D01*
X2102701Y959492D01*
X2101910Y960100D01*
X2100989Y960481D01*
X2100000Y960611D01*
X2099011Y960481D01*
X2098090Y960100D01*
X2097299Y959492D01*
X2096692Y958701D01*
X2096310Y957780D01*
X2096180Y956791D01*
X2096310Y955803D01*
X2096692Y954881D01*
X2097299Y954090D01*
X2098090Y953483D01*
X2099011Y953101D01*
X2100000Y952971D01*
X2100989Y953101D01*
X2101910Y953483D01*
X2102701Y954090D01*
X2102961Y954428D01*
X2103461Y954259D01*
Y949324D01*
X2102961Y949154D01*
X2102701Y949492D01*
X2101910Y950100D01*
X2100989Y950481D01*
X2100000Y950611D01*
X2099011Y950481D01*
X2098090Y950100D01*
X2097299Y949492D01*
X2096692Y948701D01*
X2096310Y947780D01*
X2096180Y946791D01*
X2096310Y945803D01*
X2096692Y944881D01*
X2097299Y944090D01*
X2098090Y943483D01*
X2099011Y943101D01*
X2100000Y942971D01*
X2100989Y943101D01*
X2101910Y943483D01*
X2102701Y944090D01*
X2102961Y944429D01*
X2103461Y944259D01*
Y939324D01*
X2102961Y939154D01*
X2102701Y939493D01*
X2101910Y940100D01*
X2100989Y940481D01*
X2100000Y940611D01*
X2099011Y940481D01*
X2098090Y940100D01*
X2097299Y939493D01*
X2096692Y938701D01*
X2096310Y937780D01*
X2096180Y936791D01*
X2096310Y935803D01*
X2096692Y934881D01*
X2097299Y934090D01*
X2098090Y933483D01*
X2099011Y933101D01*
X2100000Y932971D01*
X2100989Y933101D01*
X2101910Y933483D01*
X2102701Y934090D01*
X2102961Y934429D01*
X2103461Y934259D01*
Y929324D01*
X2102961Y929154D01*
X2102701Y929492D01*
X2101910Y930100D01*
X2100989Y930481D01*
X2100000Y930611D01*
X2099011Y930481D01*
X2098090Y930100D01*
X2097299Y929492D01*
X2096692Y928701D01*
X2096310Y927780D01*
X2096180Y926791D01*
X2096310Y925803D01*
X2096692Y924881D01*
X2097299Y924090D01*
X2098090Y923483D01*
X2099011Y923101D01*
X2100000Y922971D01*
X2100989Y923101D01*
X2101910Y923483D01*
X2102701Y924090D01*
X2102961Y924428D01*
X2103461Y924259D01*
Y912000D01*
X2103479Y911907D01*
X2103308Y911044D01*
X2102766Y910234D01*
X2101956Y909692D01*
X2101093Y909521D01*
X2101000Y909539D01*
X2085003D01*
X2084833Y910039D01*
X2085725Y910724D01*
X2086546Y911793D01*
X2087061Y913038D01*
X2087237Y914374D01*
X2087061Y915710D01*
X2086546Y916955D01*
X2085725Y918024D01*
X2084656Y918845D01*
X2083411Y919360D01*
X2082075Y919536D01*
X2081803Y919775D01*
X2081803Y933092D01*
X2081787Y933170D01*
Y933249D01*
X2081757Y933322D01*
X2081742Y933400D01*
X2081698Y933465D01*
X2081668Y933538D01*
X2081612Y933594D01*
X2081568Y933660D01*
X2081502Y933704D01*
X2081446Y933760D01*
X2081373Y933790D01*
X2081307Y933834D01*
X2081230Y933850D01*
X2081157Y933880D01*
X2081045Y933902D01*
X2080660Y934160D01*
X2080402Y934545D01*
X2080312Y935000D01*
X2080402Y935455D01*
X2080660Y935840D01*
X2081045Y936098D01*
X2081157Y936120D01*
X2081230Y936150D01*
X2081307Y936166D01*
X2081373Y936210D01*
X2081446Y936240D01*
X2081502Y936296D01*
X2081568Y936340D01*
X2081612Y936406D01*
X2081668Y936462D01*
X2081698Y936535D01*
X2081742Y936600D01*
X2081757Y936678D01*
X2081787Y936751D01*
Y936830D01*
X2081803Y936908D01*
X2081803Y938025D01*
X2081773Y938177D01*
X2081743Y938328D01*
X2080774Y940703D01*
X2081506Y941006D01*
X2082575Y941826D01*
X2083281Y942745D01*
X2083759Y942547D01*
X2083704Y942130D01*
X2083880Y940794D01*
X2084395Y939549D01*
X2085216Y938480D01*
X2086285Y937659D01*
X2087530Y937144D01*
X2088866Y936968D01*
X2090202Y937144D01*
X2091447Y937659D01*
X2092516Y938480D01*
X2093337Y939549D01*
X2093852Y940794D01*
X2094028Y942130D01*
X2093852Y943466D01*
X2093337Y944711D01*
X2092516Y945780D01*
X2091447Y946601D01*
X2090202Y947116D01*
X2088866Y947292D01*
X2087530Y947116D01*
X2086285Y946601D01*
X2085216Y945780D01*
X2084511Y944861D01*
X2084033Y945059D01*
X2084088Y945476D01*
X2083912Y946813D01*
X2083396Y948057D01*
X2082575Y949127D01*
X2081506Y949947D01*
X2080261Y950463D01*
X2078925Y950639D01*
X2077589Y950463D01*
X2076779Y950127D01*
X2076333Y950307D01*
X2076261Y950416D01*
X2076195Y950529D01*
X2076174Y950546D01*
X2076159Y950568D01*
X2076051Y950640D01*
X2075947Y950720D01*
X2075921Y950727D01*
X2075899Y950742D01*
X2075771Y950767D01*
X2075644Y950801D01*
X2075618Y950798D01*
X2075592Y950803D01*
X2013450Y950803D01*
X2013411Y950795D01*
X2013371Y950799D01*
X2013258Y950765D01*
X2013143Y950742D01*
X2013110Y950720D01*
X2013071Y950708D01*
X2012980Y950633D01*
X2012882Y950568D01*
X2012860Y950535D01*
X2012829Y950509D01*
X2012774Y950405D01*
X2012708Y950307D01*
X2012370Y949934D01*
X2012000Y950007D01*
X2011630Y949934D01*
X2011292Y950307D01*
X2011226Y950405D01*
X2011171Y950509D01*
X2011140Y950535D01*
X2011118Y950568D01*
X2011020Y950633D01*
X2010929Y950708D01*
X2010890Y950720D01*
X2010857Y950742D01*
X2010742Y950765D01*
X2010629Y950799D01*
X2010589Y950795D01*
X2010550Y950803D01*
X1996835D01*
X1996568Y951303D01*
X1996854Y951732D01*
X1997007Y952500D01*
X1996854Y953268D01*
X1996419Y953919D01*
X1995768Y954354D01*
X1995000Y954507D01*
X1994232Y954354D01*
X1993581Y953919D01*
X1993146Y953268D01*
X1992993Y952500D01*
X1993146Y951732D01*
X1993432Y951303D01*
X1993165Y950803D01*
X1960447D01*
X1960354Y951268D01*
X1959919Y951919D01*
X1959268Y952354D01*
X1958500Y952507D01*
X1957732Y952354D01*
X1957081Y951919D01*
X1956646Y951268D01*
X1956553Y950803D01*
X1946310D01*
X1943730Y953149D01*
X1943678Y953180D01*
X1943636Y953222D01*
X1943546Y953260D01*
X1943461Y953310D01*
X1943402Y953319D01*
X1943346Y953342D01*
X1943045Y953402D01*
X1942660Y953660D01*
X1942402Y954045D01*
X1942378Y954165D01*
X1942341Y954256D01*
X1942317Y954351D01*
X1942281Y954399D01*
X1942258Y954455D01*
X1942189Y954524D01*
X1942131Y954603D01*
X1924996Y970179D01*
X1924970Y970195D01*
X1924950Y970218D01*
X1924837Y970275D01*
X1924728Y970341D01*
X1924698Y970345D01*
X1924671Y970359D01*
X1924582Y970366D01*
X1924576Y970368D01*
X1924546D01*
X1924544Y970368D01*
X1924418Y970387D01*
X1924389Y970380D01*
X1924359Y970382D01*
X1924322Y970378D01*
X1924293Y970368D01*
X1924263D01*
X1924145Y970319D01*
X1924143Y970319D01*
X1924114Y970312D01*
X1924108Y970307D01*
X1924024Y970280D01*
X1924001Y970260D01*
X1923973Y970248D01*
X1923455Y969902D01*
X1923000Y969812D01*
X1922545Y969902D01*
X1922160Y970160D01*
X1921902Y970545D01*
X1921811Y971000D01*
X1921902Y971455D01*
X1922157Y971836D01*
X1922194Y971927D01*
X1922245Y972011D01*
X1922254Y972070D01*
X1922277Y972126D01*
Y972224D01*
X1922291Y972321D01*
X1922277Y972379D01*
Y972439D01*
X1922239Y972530D01*
X1922216Y972625D01*
X1922180Y972673D01*
X1922157Y972728D01*
X1922088Y972798D01*
X1922029Y972876D01*
X1919378Y975287D01*
X1919284Y975343D01*
X1919253Y975368D01*
X1919179Y975468D01*
X1910810Y983076D01*
X1911605Y1022477D01*
X1911593Y1022547D01*
X1911596Y1022618D01*
X1911566Y1022700D01*
X1911551Y1022785D01*
X1911512Y1022845D01*
X1911488Y1022912D01*
X1911429Y1022976D01*
X1911382Y1023049D01*
X1911323Y1023090D01*
X1911275Y1023142D01*
X1910331Y1023829D01*
X1910293Y1023857D01*
X1910292Y1023857D01*
X1910244Y1023879D01*
X1910244Y1023879D01*
X1910202Y1023914D01*
X1910103Y1023944D01*
X1910008Y1023988D01*
X1909954Y1023997D01*
X1909903Y1024006D01*
X1909903D01*
X1909506Y1024287D01*
X1909440Y1024387D01*
X1909418Y1024447D01*
X1909354Y1024768D01*
X1908919Y1025419D01*
X1908268Y1025854D01*
X1907500Y1026007D01*
X1907385Y1025984D01*
X1907380Y1025984D01*
X1907223Y1026003D01*
X1906839Y1026212D01*
X1906801Y1026272D01*
X1906776Y1026339D01*
X1906717Y1026403D01*
X1906671Y1026476D01*
X1906612Y1026517D01*
X1906564Y1026569D01*
X1905994Y1026983D01*
X1905987Y1026987D01*
X1905981Y1026993D01*
X1905845Y1027052D01*
X1905710Y1027115D01*
X1905507Y1027500D01*
X1905354Y1028268D01*
X1904919Y1028919D01*
X1904268Y1029354D01*
X1903500Y1029507D01*
X1902732Y1029354D01*
X1902693Y1029328D01*
X1902612Y1029410D01*
X1902516Y1029513D01*
X1894955Y1035013D01*
X1894968Y1035155D01*
X1895114Y1035516D01*
X1895768Y1035646D01*
X1896419Y1036081D01*
X1896854Y1036732D01*
X1897007Y1037500D01*
X1896854Y1038268D01*
X1896419Y1038919D01*
X1895768Y1039354D01*
X1895000Y1039507D01*
X1894232Y1039354D01*
X1893581Y1038919D01*
X1893146Y1038268D01*
X1892993Y1037500D01*
X1893096Y1036984D01*
X1892643Y1036694D01*
X1892077Y1037107D01*
X1892069Y1037110D01*
X1892064Y1037116D01*
X1891927Y1037175D01*
X1891792Y1037238D01*
X1891707Y1037316D01*
X1891465Y1037713D01*
X1891465Y1037713D01*
X1891465Y1037713D01*
X1891354Y1038268D01*
X1890919Y1038919D01*
X1890268Y1039354D01*
X1889500Y1039507D01*
X1888795Y1039367D01*
X1888792Y1039371D01*
X1888767Y1039438D01*
X1888708Y1039502D01*
X1888662Y1039575D01*
X1888603Y1039616D01*
X1888555Y1039668D01*
X1804673Y1100682D01*
X1804658Y1100689D01*
X1804646Y1100700D01*
X1804516Y1100754D01*
X1804388Y1100813D01*
X1804372Y1100814D01*
X1804357Y1100820D01*
X1804216D01*
X1804075Y1100826D01*
X1804060Y1100820D01*
X1804044D01*
X1804000Y1100811D01*
X1803545Y1100902D01*
X1803160Y1101160D01*
X1802902Y1101545D01*
X1802864Y1101734D01*
X1802810Y1101864D01*
X1802762Y1101997D01*
X1802751Y1102009D01*
X1802744Y1102023D01*
X1802645Y1102123D01*
X1802549Y1102227D01*
X1786053Y1114225D01*
X1786038Y1114232D01*
X1786027Y1114244D01*
X1785897Y1114298D01*
X1785769Y1114357D01*
X1785752Y1114357D01*
X1785737Y1114364D01*
X1785545Y1114402D01*
X1785160Y1114660D01*
X1784958Y1114961D01*
X1784859Y1115060D01*
X1784763Y1115164D01*
X1781929Y1117225D01*
X1781997Y1117794D01*
X1782895Y1118166D01*
X1783888Y1118927D01*
X1784649Y1119919D01*
X1785071Y1120937D01*
X1780500D01*
Y1123693D01*
X1785071D01*
X1784649Y1124710D01*
X1783888Y1125703D01*
X1782895Y1126464D01*
X1781740Y1126943D01*
X1780611Y1127091D01*
Y1127596D01*
X1781684Y1127737D01*
X1782788Y1128194D01*
X1783736Y1128921D01*
X1784463Y1129869D01*
X1784921Y1130973D01*
X1785077Y1132158D01*
X1784921Y1133342D01*
X1784463Y1134446D01*
X1783736Y1135394D01*
X1782788Y1136121D01*
X1781684Y1136578D01*
X1780500Y1136734D01*
X1779316Y1136578D01*
X1778212Y1136121D01*
X1777264Y1135394D01*
X1776537Y1134446D01*
X1776079Y1133342D01*
X1775983Y1132613D01*
X1775483Y1132639D01*
X1775144Y1146520D01*
X1775112Y1146663D01*
X1775083Y1146807D01*
X1775078Y1146815D01*
X1775076Y1146825D01*
X1774991Y1146945D01*
X1774909Y1147068D01*
X1774901Y1147073D01*
X1774895Y1147081D01*
X1774771Y1147160D01*
X1774649Y1147242D01*
X1774639Y1147244D01*
X1774631Y1147249D01*
X1774486Y1147274D01*
X1774342Y1147303D01*
X1768500D01*
X1768193Y1147242D01*
X1767932Y1147068D01*
X1767758Y1146807D01*
X1767697Y1146500D01*
Y1119536D01*
X1767704Y1119500D01*
X1767697Y1119464D01*
Y1113971D01*
X1767706Y1113927D01*
X1767702Y1113882D01*
X1767736Y1113775D01*
X1767758Y1113664D01*
X1767783Y1113626D01*
X1767797Y1113584D01*
X1767870Y1113497D01*
X1767932Y1113404D01*
X1767970Y1113379D01*
X1767999Y1113344D01*
X1803704Y1084820D01*
X1803598Y1084265D01*
X1803081Y1083919D01*
X1802646Y1083268D01*
X1802493Y1082500D01*
X1802646Y1081732D01*
X1803081Y1081081D01*
X1803732Y1080646D01*
X1804500Y1080493D01*
X1805268Y1080646D01*
X1805919Y1081081D01*
X1806354Y1081732D01*
X1806411Y1082018D01*
X1806961Y1082218D01*
X1810374Y1079492D01*
X1810243Y1078956D01*
X1809732Y1078854D01*
X1809081Y1078419D01*
X1808646Y1077768D01*
X1808493Y1077000D01*
X1808646Y1076232D01*
X1809081Y1075581D01*
X1809732Y1075146D01*
X1810500Y1074993D01*
X1811268Y1075146D01*
X1811919Y1075581D01*
X1812354Y1076232D01*
X1812507Y1077000D01*
X1812472Y1077176D01*
X1812927Y1077452D01*
X1837451Y1057860D01*
X1837333Y1057374D01*
X1837232Y1057354D01*
X1836581Y1056919D01*
X1836146Y1056268D01*
X1835993Y1055500D01*
X1836146Y1054732D01*
X1836581Y1054081D01*
X1837232Y1053646D01*
X1838000Y1053493D01*
X1838768Y1053646D01*
X1839419Y1054081D01*
X1839854Y1054732D01*
X1839952Y1055223D01*
X1840492Y1055431D01*
X1866167Y1034920D01*
X1866236Y1034884D01*
X1866296Y1034836D01*
X1866373Y1034813D01*
X1866445Y1034776D01*
X1866522Y1034770D01*
X1866597Y1034748D01*
X1866677Y1034756D01*
X1866757Y1034750D01*
X1867080Y1034379D01*
X1867146Y1034047D01*
X1867581Y1033396D01*
X1868232Y1032961D01*
X1869000Y1032808D01*
X1869420Y1032471D01*
X1869452Y1032418D01*
X1869471Y1032359D01*
X1869533Y1032285D01*
X1869583Y1032203D01*
X1869633Y1032167D01*
X1869673Y1032119D01*
X1882192Y1022118D01*
X1881697Y985511D01*
X1881725Y985364D01*
X1881749Y985216D01*
X1881753Y985210D01*
X1881754Y985203D01*
X1881836Y985077D01*
X1881915Y984950D01*
X1884802Y981880D01*
X1884876Y981827D01*
X1884941Y981763D01*
X1885003Y981737D01*
X1885057Y981698D01*
X1885146Y981678D01*
X1885230Y981643D01*
X1885455Y981598D01*
X1885840Y981340D01*
X1886098Y980955D01*
X1886167Y980606D01*
X1886193Y980544D01*
X1886204Y980479D01*
X1886252Y980401D01*
X1886287Y980317D01*
X1886334Y980270D01*
X1886370Y980213D01*
X1914488Y950313D01*
X1914525Y950286D01*
X1914554Y950250D01*
X1914652Y950196D01*
X1914743Y950131D01*
X1914787Y950121D01*
X1914828Y950098D01*
X1915015Y949636D01*
X1915012Y949595D01*
X1914993Y949500D01*
X1915146Y948732D01*
X1915581Y948081D01*
X1916232Y947646D01*
X1917000Y947493D01*
X1917252Y947376D01*
X1917485Y947215D01*
X1917551Y947110D01*
X1917607Y947000D01*
X1917633Y946978D01*
X1917651Y946949D01*
X1935556Y927909D01*
X1935630Y927856D01*
X1935695Y927792D01*
X1935757Y927766D01*
X1935811Y927727D01*
X1935900Y927707D01*
X1935984Y927672D01*
X1936051D01*
X1936116Y927657D01*
X1936206Y927672D01*
X1936297D01*
X1936359Y927697D01*
X1936425Y927709D01*
X1936503Y927757D01*
X1936587Y927792D01*
X1937045Y928098D01*
X1937500Y928189D01*
X1937955Y928098D01*
X1938340Y927840D01*
X1938598Y927455D01*
X1938688Y927000D01*
X1938598Y926545D01*
X1938252Y926027D01*
X1938239Y925996D01*
X1938217Y925970D01*
X1938179Y925852D01*
X1938132Y925737D01*
Y925704D01*
X1938122Y925672D01*
X1938114Y925604D01*
X1938117Y925570D01*
X1938109Y925538D01*
X1938129Y925416D01*
X1938140Y925292D01*
X1938155Y925262D01*
X1938161Y925229D01*
X1938226Y925124D01*
X1938283Y925013D01*
X1938309Y924992D01*
X1938327Y924963D01*
X1943925Y919010D01*
X1944035Y918931D01*
X1944141Y918847D01*
X1944162Y918841D01*
X1944180Y918828D01*
X1944312Y918797D01*
X1944442Y918760D01*
X1944464Y918762D01*
X1944485Y918757D01*
X1944619Y918780D01*
X1944754Y918795D01*
X1945282Y918963D01*
X1945380Y919017D01*
X1945484Y919060D01*
X1945516Y919092D01*
X1945556Y919114D01*
X1945626Y919202D01*
X1945706Y919282D01*
X1945723Y919324D01*
X1945751Y919359D01*
X1945783Y919467D01*
X1945826Y919571D01*
X1945902Y919955D01*
X1946160Y920340D01*
X1946545Y920598D01*
X1947000Y920689D01*
X1947455Y920598D01*
X1947840Y920340D01*
X1948098Y919955D01*
X1948189Y919500D01*
X1948098Y919045D01*
X1947840Y918660D01*
X1947455Y918402D01*
X1946961Y918304D01*
X1946921Y918287D01*
X1946878Y918283D01*
X1946778Y918228D01*
X1946672Y918184D01*
X1946641Y918153D01*
X1946603Y918132D01*
X1946531Y918043D01*
X1946450Y917962D01*
X1946434Y917922D01*
X1946406Y917888D01*
X1946161Y917419D01*
X1946155Y917396D01*
X1946141Y917377D01*
X1946111Y917247D01*
X1946073Y917118D01*
X1946076Y917095D01*
X1946070Y917072D01*
X1946092Y916940D01*
X1946107Y916807D01*
X1946118Y916786D01*
X1946122Y916763D01*
X1946193Y916650D01*
X1946257Y916532D01*
X1946275Y916517D01*
X1946288Y916497D01*
X1952400Y909998D01*
X1952201Y909539D01*
X1952000D01*
X1951934Y909526D01*
X1950682Y909403D01*
X1949414Y909018D01*
X1948246Y908394D01*
X1947222Y907553D01*
X1946382Y906530D01*
X1945757Y905361D01*
X1945373Y904094D01*
X1945250Y902842D01*
X1945236Y902776D01*
X1945250Y902709D01*
X1945373Y901457D01*
X1945757Y900190D01*
X1946382Y899022D01*
X1947222Y897998D01*
X1948246Y897157D01*
X1949414Y896533D01*
X1950682Y896148D01*
X1951934Y896025D01*
X1952000Y896012D01*
X2101000D01*
X2101093Y896031D01*
X2101956Y895859D01*
X2102766Y895317D01*
X2103308Y894507D01*
X2103456Y893764D01*
X2103178Y893264D01*
X2101378D01*
Y889311D01*
X2100000D01*
Y887933D01*
X2096047D01*
Y885358D01*
X2098387D01*
X2098486Y884858D01*
X2098114Y884704D01*
X2097333Y884105D01*
X2096733Y883323D01*
X2096356Y882413D01*
X2096228Y881437D01*
X2096356Y880461D01*
X2096733Y879551D01*
X2097333Y878769D01*
X2098114Y878170D01*
X2099024Y877793D01*
X2099335Y877752D01*
Y877248D01*
X2099024Y877207D01*
X2098114Y876830D01*
X2097333Y876231D01*
X2096733Y875449D01*
X2096356Y874539D01*
X2096228Y873563D01*
X2096356Y872587D01*
X2096733Y871677D01*
X2097333Y870895D01*
X2098114Y870296D01*
X2099024Y869919D01*
X2099335Y869878D01*
Y869374D01*
X2099024Y869333D01*
X2098114Y868956D01*
X2097333Y868357D01*
X2096733Y867575D01*
X2096356Y866665D01*
X2096228Y865689D01*
X2096356Y864713D01*
X2096733Y863803D01*
X2097333Y863021D01*
X2098114Y862422D01*
X2099024Y862045D01*
X2100000Y861917D01*
X2100976Y862045D01*
X2101886Y862422D01*
X2102667Y863021D01*
X2102961Y863404D01*
X2103461Y863234D01*
Y861146D01*
X2103479Y861052D01*
X2103308Y860190D01*
X2102766Y859379D01*
X2101956Y858838D01*
X2101093Y858666D01*
X2101000Y858685D01*
X1952000D01*
X1951934Y858672D01*
X1950682Y858548D01*
X1949414Y858164D01*
X1948246Y857539D01*
X1947222Y856699D01*
X1946382Y855675D01*
X1945757Y854507D01*
X1945500Y853660D01*
X1945404Y853508D01*
X1945077Y853353D01*
X1944991Y853324D01*
X1944500Y853303D01*
X1944500Y853303D01*
X1944500Y853303D01*
Y853303D01*
X1921382Y853303D01*
X1920954Y853303D01*
X1920954D01*
X1920805Y853354D01*
X1920478Y853508D01*
X1920382Y853660D01*
X1920124Y854507D01*
X1919500Y855675D01*
X1918660Y856699D01*
X1917636Y857539D01*
X1916468Y858164D01*
X1915200Y858548D01*
X1913948Y858672D01*
X1913882Y858685D01*
X1717000D01*
X1716907Y858666D01*
X1716044Y858838D01*
X1715234Y859379D01*
X1714692Y860190D01*
X1714521Y861052D01*
X1714539Y861146D01*
Y893551D01*
X1714521Y893645D01*
X1714692Y894507D01*
X1715234Y895317D01*
X1716044Y895859D01*
X1716907Y896031D01*
X1717000Y896012D01*
X1913882D01*
X1913948Y896025D01*
X1915200Y896148D01*
X1916468Y896533D01*
X1917636Y897157D01*
X1918660Y897998D01*
X1919500Y899022D01*
X1920124Y900190D01*
X1920509Y901457D01*
X1920632Y902709D01*
X1920646Y902776D01*
X1920632Y902842D01*
X1920509Y904094D01*
X1920124Y905361D01*
X1920024Y905550D01*
X1920406Y905896D01*
X1920620Y905753D01*
X1921542Y905569D01*
X1922464Y905753D01*
X1923245Y906275D01*
X1923767Y907056D01*
X1923951Y907978D01*
X1923767Y908899D01*
X1923245Y909681D01*
X1922464Y910203D01*
X1921542Y910386D01*
X1920620Y910203D01*
X1919839Y909681D01*
X1919317Y908899D01*
X1919134Y907978D01*
X1919190Y907696D01*
X1918724Y907476D01*
X1918660Y907553D01*
X1917636Y908394D01*
X1916468Y909018D01*
X1915200Y909403D01*
X1913948Y909526D01*
X1913882Y909539D01*
X1717000D01*
X1716907Y909521D01*
X1716044Y909692D01*
X1715234Y910234D01*
X1714692Y911044D01*
X1714521Y911907D01*
X1714539Y912000D01*
Y917181D01*
X1715013Y917341D01*
X1715372Y916872D01*
X1716581Y915945D01*
X1717989Y915362D01*
X1719500Y915163D01*
X1721011Y915362D01*
X1722419Y915945D01*
X1723628Y916872D01*
X1724555Y918081D01*
X1725138Y919489D01*
X1725337Y921000D01*
X1725138Y922511D01*
X1724555Y923919D01*
X1723628Y925128D01*
X1722419Y926055D01*
X1721011Y926638D01*
X1719500Y926837D01*
X1717989Y926638D01*
X1716581Y926055D01*
X1715372Y925128D01*
X1715013Y924659D01*
X1714539Y924819D01*
Y937181D01*
X1715013Y937341D01*
X1715372Y936872D01*
X1716581Y935945D01*
X1717989Y935362D01*
X1719500Y935163D01*
X1721011Y935362D01*
X1722419Y935945D01*
X1723628Y936872D01*
X1724555Y938081D01*
X1725138Y939489D01*
X1725337Y941000D01*
X1725138Y942511D01*
X1724555Y943919D01*
X1723628Y945128D01*
X1722419Y946055D01*
X1721011Y946638D01*
X1719500Y946837D01*
X1717989Y946638D01*
X1716581Y946055D01*
X1715372Y945128D01*
X1715013Y944659D01*
X1714539Y944820D01*
Y957181D01*
X1715013Y957341D01*
X1715372Y956872D01*
X1716581Y955945D01*
X1717989Y955362D01*
X1719500Y955163D01*
X1721011Y955362D01*
X1722419Y955945D01*
X1723628Y956872D01*
X1724555Y958081D01*
X1725138Y959489D01*
X1725337Y961000D01*
X1725138Y962511D01*
X1724555Y963919D01*
X1723628Y965128D01*
X1722419Y966055D01*
X1721011Y966638D01*
X1719500Y966837D01*
X1717989Y966638D01*
X1716581Y966055D01*
X1715372Y965128D01*
X1715013Y964659D01*
X1714539Y964820D01*
Y977180D01*
X1715013Y977341D01*
X1715372Y976872D01*
X1716581Y975945D01*
X1717989Y975362D01*
X1719500Y975163D01*
X1721011Y975362D01*
X1722419Y975945D01*
X1723628Y976872D01*
X1724555Y978081D01*
X1725138Y979489D01*
X1725337Y981000D01*
X1725138Y982511D01*
X1724555Y983919D01*
X1723628Y985128D01*
X1722419Y986055D01*
X1721011Y986638D01*
X1719500Y986837D01*
X1717989Y986638D01*
X1716581Y986055D01*
X1715372Y985128D01*
X1715013Y984659D01*
X1714539Y984820D01*
Y997180D01*
X1715013Y997341D01*
X1715372Y996872D01*
X1716581Y995945D01*
X1717989Y995362D01*
X1719500Y995163D01*
X1721011Y995362D01*
X1722419Y995945D01*
X1723628Y996872D01*
X1724555Y998081D01*
X1725138Y999489D01*
X1725337Y1001000D01*
X1725138Y1002511D01*
X1724555Y1003919D01*
X1723628Y1005128D01*
X1722419Y1006055D01*
X1721011Y1006638D01*
X1719500Y1006837D01*
X1717989Y1006638D01*
X1716581Y1006055D01*
X1715372Y1005128D01*
X1715013Y1004659D01*
X1714539Y1004819D01*
Y1017181D01*
X1715013Y1017341D01*
X1715372Y1016872D01*
X1716581Y1015945D01*
X1717989Y1015362D01*
X1719500Y1015163D01*
X1721011Y1015362D01*
X1722419Y1015945D01*
X1723628Y1016872D01*
X1724555Y1018081D01*
X1725138Y1019489D01*
X1725337Y1021000D01*
X1725138Y1022511D01*
X1724555Y1023919D01*
X1723628Y1025128D01*
X1722419Y1026055D01*
X1721011Y1026638D01*
X1719500Y1026837D01*
X1717989Y1026638D01*
X1716581Y1026055D01*
X1715372Y1025128D01*
X1715013Y1024659D01*
X1714539Y1024819D01*
Y1037181D01*
X1715013Y1037341D01*
X1715372Y1036872D01*
X1716581Y1035945D01*
X1717989Y1035362D01*
X1719500Y1035163D01*
X1721011Y1035362D01*
X1722419Y1035945D01*
X1723628Y1036872D01*
X1724555Y1038081D01*
X1725138Y1039489D01*
X1725337Y1041000D01*
X1725138Y1042511D01*
X1724555Y1043919D01*
X1723628Y1045128D01*
X1722419Y1046055D01*
X1721011Y1046638D01*
X1719500Y1046837D01*
X1717989Y1046638D01*
X1716581Y1046055D01*
X1715372Y1045128D01*
X1715013Y1044659D01*
X1714539Y1044820D01*
Y1057181D01*
X1715013Y1057341D01*
X1715372Y1056872D01*
X1716581Y1055945D01*
X1717989Y1055362D01*
X1719500Y1055163D01*
X1721011Y1055362D01*
X1722419Y1055945D01*
X1723628Y1056872D01*
X1724555Y1058081D01*
X1725138Y1059489D01*
X1725337Y1061000D01*
X1725138Y1062511D01*
X1724555Y1063919D01*
X1723628Y1065128D01*
X1722419Y1066055D01*
X1721011Y1066638D01*
X1719500Y1066837D01*
X1717989Y1066638D01*
X1716581Y1066055D01*
X1715372Y1065128D01*
X1715013Y1064659D01*
X1714539Y1064820D01*
Y1147095D01*
X1714521Y1147188D01*
X1714692Y1148050D01*
X1715234Y1148861D01*
X1716044Y1149402D01*
X1716907Y1149574D01*
X1717000Y1149555D01*
D02*
G37*
G36*
X1945264Y852129D02*
X1945250Y851987D01*
X1945236Y851921D01*
X1945250Y851855D01*
X1945373Y850603D01*
X1945757Y849335D01*
X1946382Y848167D01*
X1947222Y847143D01*
X1948246Y846303D01*
X1949414Y845679D01*
X1950682Y845294D01*
X1951256Y845238D01*
X1951471Y845149D01*
X1954880Y843374D01*
X1958121Y841309D01*
X1961170Y838970D01*
X1964004Y836373D01*
X1966600Y833539D01*
X1968940Y830490D01*
X1971005Y827249D01*
X1972779Y823840D01*
X1974250Y820289D01*
X1975406Y816624D01*
X1976238Y812872D01*
X1976739Y809061D01*
X1976907Y805221D01*
X1976739Y801382D01*
X1976238Y797572D01*
X1975406Y793819D01*
X1974250Y790154D01*
X1972779Y786603D01*
X1971005Y783194D01*
X1968940Y779953D01*
X1966600Y776903D01*
X1964004Y774070D01*
X1961170Y771474D01*
X1958121Y769134D01*
X1954880Y767069D01*
X1951471Y765294D01*
X1947920Y763823D01*
X1944254Y762668D01*
X1940502Y761836D01*
X1938051Y761513D01*
X1937634Y761963D01*
Y764090D01*
X1927366D01*
Y762055D01*
X1926908Y761611D01*
X1925202Y761836D01*
X1921450Y762668D01*
X1917784Y763823D01*
X1914234Y765294D01*
X1910825Y767069D01*
X1907583Y769134D01*
X1904534Y771474D01*
X1901701Y774070D01*
X1899104Y776903D01*
X1896764Y779953D01*
X1894699Y783194D01*
X1892925Y786603D01*
X1891454Y790154D01*
X1890298Y793819D01*
X1889466Y797572D01*
X1888965Y801382D01*
X1888797Y805221D01*
X1888965Y809061D01*
X1889466Y812872D01*
X1890298Y816624D01*
X1891454Y820289D01*
X1892925Y823840D01*
X1894699Y827249D01*
X1896764Y830490D01*
X1899104Y833539D01*
X1901701Y836373D01*
X1904534Y838970D01*
X1907583Y841309D01*
X1910825Y843374D01*
X1914234Y845149D01*
X1914392Y845215D01*
X1915200Y845294D01*
X1916468Y845679D01*
X1917636Y846303D01*
X1918660Y847143D01*
X1919500Y848167D01*
X1920124Y849335D01*
X1920509Y850603D01*
X1920632Y851855D01*
X1920646Y851921D01*
X1920632Y851987D01*
X1920618Y852129D01*
X1920954Y852500D01*
X1944928Y852500D01*
X1945264Y852129D01*
D02*
G37*
%LPC*%
G36*
X2024000Y944007D02*
X2023232Y943854D01*
X2022581Y943419D01*
X2022146Y942768D01*
X2021993Y942000D01*
X2022146Y941232D01*
X2022581Y940581D01*
X2023232Y940146D01*
X2024000Y939993D01*
X2024768Y940146D01*
X2025419Y940581D01*
X2025854Y941232D01*
X2026007Y942000D01*
X2025854Y942768D01*
X2025419Y943419D01*
X2024768Y943854D01*
X2024000Y944007D01*
D02*
G37*
G36*
X1775122Y942921D02*
X1774407Y942625D01*
X1773540Y941959D01*
X1772875Y941093D01*
X1772579Y940378D01*
X1775122D01*
Y942921D01*
D02*
G37*
G36*
X1984000Y944007D02*
X1983232Y943854D01*
X1982581Y943419D01*
X1982146Y942768D01*
X1981993Y942000D01*
X1982146Y941232D01*
X1982581Y940581D01*
X1983232Y940146D01*
X1984000Y939993D01*
X1984768Y940146D01*
X1985419Y940581D01*
X1985854Y941232D01*
X1986007Y942000D01*
X1985854Y942768D01*
X1985419Y943419D01*
X1984768Y943854D01*
X1984000Y944007D01*
D02*
G37*
G36*
X1937080Y942829D02*
X1936312Y942676D01*
X1935661Y942241D01*
X1935226Y941590D01*
X1935073Y940822D01*
X1935226Y940054D01*
X1935661Y939403D01*
X1936312Y938968D01*
X1937080Y938815D01*
X1937848Y938968D01*
X1938499Y939403D01*
X1938934Y940054D01*
X1939087Y940822D01*
X1938934Y941590D01*
X1938499Y942241D01*
X1937848Y942676D01*
X1937080Y942829D01*
D02*
G37*
G36*
X1875500Y943507D02*
X1874732Y943354D01*
X1874081Y942919D01*
X1873646Y942268D01*
X1873493Y941500D01*
X1873646Y940732D01*
X1874081Y940081D01*
X1874732Y939646D01*
X1875500Y939493D01*
X1876268Y939646D01*
X1876919Y940081D01*
X1877354Y940732D01*
X1877507Y941500D01*
X1877354Y942268D01*
X1876919Y942919D01*
X1876268Y943354D01*
X1875500Y943507D01*
D02*
G37*
G36*
X1840259Y940122D02*
X1837878D01*
Y937741D01*
X1838517Y938006D01*
X1839353Y938647D01*
X1839994Y939483D01*
X1840259Y940122D01*
D02*
G37*
G36*
X1777878Y942921D02*
Y940378D01*
X1780421D01*
X1780125Y941093D01*
X1779460Y941959D01*
X1778593Y942625D01*
X1777878Y942921D01*
D02*
G37*
G36*
X1826878Y945259D02*
Y942878D01*
X1829259D01*
X1828994Y943517D01*
X1828353Y944353D01*
X1827517Y944994D01*
X1826878Y945259D01*
D02*
G37*
G36*
X1835122D02*
X1834483Y944994D01*
X1833647Y944353D01*
X1833006Y943517D01*
X1832741Y942878D01*
X1835122D01*
Y945259D01*
D02*
G37*
G36*
X1837878D02*
Y942878D01*
X1840259D01*
X1839994Y943517D01*
X1839353Y944353D01*
X1838517Y944994D01*
X1837878Y945259D01*
D02*
G37*
G36*
X1824122D02*
X1823483Y944994D01*
X1822647Y944353D01*
X1822006Y943517D01*
X1821741Y942878D01*
X1824122D01*
Y945259D01*
D02*
G37*
G36*
X1795622Y942921D02*
X1794907Y942625D01*
X1794040Y941959D01*
X1793375Y941093D01*
X1793079Y940378D01*
X1795622D01*
Y942921D01*
D02*
G37*
G36*
X1798378D02*
Y940378D01*
X1800921D01*
X1800625Y941093D01*
X1799960Y941959D01*
X1799093Y942625D01*
X1798378Y942921D01*
D02*
G37*
G36*
X1896000Y946007D02*
X1895232Y945854D01*
X1894581Y945419D01*
X1894146Y944768D01*
X1893993Y944000D01*
X1894146Y943232D01*
X1894581Y942581D01*
X1895232Y942146D01*
X1896000Y941993D01*
X1896768Y942146D01*
X1897419Y942581D01*
X1897854Y943232D01*
X1898007Y944000D01*
X1897854Y944768D01*
X1897419Y945419D01*
X1896768Y945854D01*
X1896000Y946007D01*
D02*
G37*
G36*
X1780421Y937622D02*
X1777878D01*
Y935079D01*
X1778593Y935375D01*
X1779460Y936040D01*
X1780125Y936907D01*
X1780421Y937622D01*
D02*
G37*
G36*
X1795622D02*
X1793079D01*
X1793375Y936907D01*
X1794040Y936040D01*
X1794907Y935375D01*
X1795622Y935079D01*
Y937622D01*
D02*
G37*
G36*
X1800921D02*
X1798378D01*
Y935079D01*
X1799093Y935375D01*
X1799960Y936040D01*
X1800625Y936907D01*
X1800921Y937622D01*
D02*
G37*
G36*
X1775122D02*
X1772579D01*
X1772875Y936907D01*
X1773540Y936040D01*
X1774407Y935375D01*
X1775122Y935079D01*
Y937622D01*
D02*
G37*
G36*
X2012500Y936507D02*
X2011732Y936354D01*
X2011081Y935919D01*
X2010646Y935268D01*
X2010493Y934500D01*
X2010646Y933732D01*
X2011081Y933081D01*
X2011732Y932646D01*
X2012500Y932493D01*
X2013268Y932646D01*
X2013919Y933081D01*
X2014354Y933732D01*
X2014507Y934500D01*
X2014354Y935268D01*
X2013919Y935919D01*
X2013268Y936354D01*
X2012500Y936507D01*
D02*
G37*
G36*
X2032500Y937507D02*
X2031732Y937354D01*
X2031081Y936919D01*
X2030646Y936268D01*
X2030493Y935500D01*
X2030646Y934732D01*
X2031081Y934081D01*
X2031732Y933646D01*
X2032500Y933493D01*
X2033268Y933646D01*
X2033919Y934081D01*
X2034354Y934732D01*
X2034507Y935500D01*
X2034354Y936268D01*
X2033919Y936919D01*
X2033268Y937354D01*
X2032500Y937507D01*
D02*
G37*
G36*
X2062000Y938759D02*
X2061232Y938606D01*
X2060581Y938171D01*
X2060146Y937520D01*
X2059993Y936752D01*
X2060146Y935984D01*
X2060581Y935333D01*
X2061232Y934898D01*
X2062000Y934745D01*
X2062768Y934898D01*
X2063419Y935333D01*
X2063854Y935984D01*
X2064007Y936752D01*
X2063854Y937520D01*
X2063419Y938171D01*
X2062768Y938606D01*
X2062000Y938759D01*
D02*
G37*
G36*
X1846000Y940007D02*
X1845232Y939854D01*
X1844581Y939419D01*
X1844146Y938768D01*
X1843993Y938000D01*
X1844146Y937232D01*
X1844581Y936581D01*
X1845232Y936146D01*
X1846000Y935993D01*
X1846768Y936146D01*
X1847419Y936581D01*
X1847854Y937232D01*
X1848007Y938000D01*
X1847854Y938768D01*
X1847419Y939419D01*
X1846768Y939854D01*
X1846000Y940007D01*
D02*
G37*
G36*
X1824122Y940122D02*
X1821741D01*
X1822006Y939483D01*
X1822647Y938647D01*
X1823483Y938006D01*
X1824122Y937741D01*
Y940122D01*
D02*
G37*
G36*
X1829259D02*
X1826878D01*
Y937741D01*
X1827517Y938006D01*
X1828353Y938647D01*
X1828994Y939483D01*
X1829259Y940122D01*
D02*
G37*
G36*
X1835122D02*
X1832741D01*
X1833006Y939483D01*
X1833647Y938647D01*
X1834483Y938006D01*
X1835122Y937741D01*
Y940122D01*
D02*
G37*
G36*
X2050437Y941570D02*
X2049669Y941417D01*
X2049018Y940982D01*
X2048583Y940331D01*
X2048430Y939563D01*
X2048583Y938795D01*
X2049018Y938144D01*
X2049669Y937709D01*
X2050437Y937556D01*
X2051205Y937709D01*
X2051856Y938144D01*
X2052291Y938795D01*
X2052444Y939563D01*
X2052291Y940331D01*
X2051856Y940982D01*
X2051205Y941417D01*
X2050437Y941570D01*
D02*
G37*
G36*
X1818000Y940507D02*
X1817232Y940354D01*
X1816581Y939919D01*
X1816146Y939268D01*
X1815993Y938500D01*
X1816146Y937732D01*
X1816581Y937081D01*
X1817232Y936646D01*
X1818000Y936493D01*
X1818768Y936646D01*
X1819419Y937081D01*
X1819854Y937732D01*
X1820007Y938500D01*
X1819854Y939268D01*
X1819419Y939919D01*
X1818768Y940354D01*
X1818000Y940507D01*
D02*
G37*
G36*
X2070756Y941026D02*
X2070742Y941024D01*
X2069445Y940487D01*
X2068332Y939633D01*
X2067477Y938519D01*
X2066940Y937222D01*
X2066939Y937209D01*
X2070756D01*
Y941026D01*
D02*
G37*
G36*
X2073512D02*
Y937209D01*
X2077329D01*
X2077327Y937222D01*
X2076790Y938519D01*
X2075936Y939633D01*
X2074822Y940487D01*
X2073525Y941024D01*
X2073512Y941026D01*
D02*
G37*
G36*
X1944000Y948007D02*
X1943232Y947854D01*
X1942581Y947419D01*
X1942146Y946768D01*
X1941993Y946000D01*
X1942146Y945232D01*
X1942581Y944581D01*
X1943232Y944146D01*
X1944000Y943993D01*
X1944768Y944146D01*
X1945419Y944581D01*
X1945854Y945232D01*
X1946007Y946000D01*
X1945854Y946768D01*
X1945419Y947419D01*
X1944768Y947854D01*
X1944000Y948007D01*
D02*
G37*
G36*
X1836500Y965320D02*
X1835511Y965190D01*
X1834590Y964808D01*
X1833799Y964201D01*
X1833192Y963410D01*
X1832810Y962489D01*
X1832680Y961500D01*
X1832810Y960511D01*
X1833192Y959590D01*
X1833799Y958799D01*
X1834590Y958192D01*
X1835511Y957810D01*
X1836500Y957680D01*
X1837489Y957810D01*
X1838410Y958192D01*
X1839201Y958799D01*
X1839808Y959590D01*
X1840190Y960511D01*
X1840320Y961500D01*
X1840190Y962489D01*
X1839808Y963410D01*
X1839201Y964201D01*
X1838410Y964808D01*
X1837489Y965190D01*
X1836500Y965320D01*
D02*
G37*
G36*
X1769122Y960180D02*
X1768507Y959925D01*
X1767681Y959292D01*
X1767047Y958466D01*
X1766792Y957850D01*
X1769122D01*
Y960180D01*
D02*
G37*
G36*
X1771878D02*
Y957850D01*
X1774208D01*
X1773953Y958466D01*
X1773319Y959292D01*
X1772493Y959925D01*
X1771878Y960180D01*
D02*
G37*
G36*
X1825500Y965320D02*
X1824511Y965190D01*
X1823590Y964808D01*
X1822799Y964201D01*
X1822192Y963410D01*
X1821810Y962489D01*
X1821680Y961500D01*
X1821810Y960511D01*
X1822192Y959590D01*
X1822799Y958799D01*
X1823590Y958192D01*
X1824511Y957810D01*
X1825500Y957680D01*
X1826489Y957810D01*
X1827410Y958192D01*
X1828201Y958799D01*
X1828808Y959590D01*
X1829190Y960511D01*
X1829320Y961500D01*
X1829190Y962489D01*
X1828808Y963410D01*
X1828201Y964201D01*
X1827410Y964808D01*
X1826489Y965190D01*
X1825500Y965320D01*
D02*
G37*
G36*
X1842250Y958257D02*
X1841482Y958104D01*
X1840831Y957669D01*
X1840396Y957018D01*
X1840243Y956250D01*
X1840396Y955482D01*
X1840831Y954831D01*
X1841482Y954396D01*
X1842250Y954243D01*
X1843018Y954396D01*
X1843669Y954831D01*
X1844104Y955482D01*
X1844257Y956250D01*
X1844104Y957018D01*
X1843669Y957669D01*
X1843018Y958104D01*
X1842250Y958257D01*
D02*
G37*
G36*
X2082000Y960007D02*
X2081232Y959854D01*
X2080581Y959419D01*
X2080146Y958768D01*
X2079993Y958000D01*
X2080146Y957232D01*
X2080581Y956581D01*
X2081232Y956146D01*
X2082000Y955993D01*
X2082768Y956146D01*
X2083419Y956581D01*
X2083854Y957232D01*
X2084007Y958000D01*
X2083854Y958768D01*
X2083419Y959419D01*
X2082768Y959854D01*
X2082000Y960007D01*
D02*
G37*
G36*
X1882252Y961255D02*
X1881484Y961102D01*
X1880833Y960667D01*
X1880398Y960016D01*
X1880245Y959248D01*
X1880398Y958480D01*
X1880833Y957829D01*
X1881484Y957394D01*
X1882252Y957241D01*
X1883020Y957394D01*
X1883671Y957829D01*
X1884106Y958480D01*
X1884259Y959248D01*
X1884106Y960016D01*
X1883671Y960667D01*
X1883020Y961102D01*
X1882252Y961255D01*
D02*
G37*
G36*
X1957500Y967007D02*
X1956732Y966854D01*
X1956081Y966419D01*
X1955646Y965768D01*
X1955493Y965000D01*
X1955646Y964232D01*
X1956081Y963581D01*
X1956732Y963146D01*
X1957500Y962993D01*
X1958268Y963146D01*
X1958919Y963581D01*
X1959354Y964232D01*
X1959507Y965000D01*
X1959354Y965768D01*
X1958919Y966419D01*
X1958268Y966854D01*
X1957500Y967007D01*
D02*
G37*
G36*
X2086581Y967379D02*
X2085813Y967226D01*
X2085162Y966791D01*
X2084727Y966140D01*
X2084574Y965372D01*
X2084727Y964604D01*
X2085162Y963953D01*
X2085813Y963518D01*
X2086581Y963365D01*
X2087349Y963518D01*
X2088000Y963953D01*
X2088435Y964604D01*
X2088588Y965372D01*
X2088435Y966140D01*
X2088000Y966791D01*
X2087349Y967226D01*
X2086581Y967379D01*
D02*
G37*
G36*
X1871500Y968007D02*
X1870732Y967854D01*
X1870081Y967419D01*
X1869646Y966768D01*
X1869493Y966000D01*
X1869646Y965232D01*
X1870081Y964581D01*
X1870732Y964146D01*
X1871500Y963993D01*
X1872268Y964146D01*
X1872762Y964475D01*
X1872919Y964581D01*
X1873384Y964376D01*
X1873581Y964081D01*
X1874232Y963646D01*
X1875000Y963493D01*
X1875768Y963646D01*
X1876419Y964081D01*
X1876854Y964732D01*
X1877007Y965500D01*
X1876854Y966268D01*
X1876419Y966919D01*
X1875768Y967354D01*
X1875000Y967507D01*
X1874232Y967354D01*
X1873738Y967025D01*
X1873581Y966919D01*
X1873116Y967124D01*
X1872919Y967419D01*
X1872268Y967854D01*
X1871500Y968007D01*
D02*
G37*
G36*
X1866750Y965757D02*
X1865982Y965604D01*
X1865331Y965169D01*
X1864896Y964518D01*
X1864743Y963750D01*
X1864896Y962982D01*
X1865331Y962331D01*
X1865982Y961896D01*
X1866750Y961743D01*
X1867518Y961896D01*
X1868169Y962331D01*
X1868604Y962982D01*
X1868757Y963750D01*
X1868604Y964518D01*
X1868169Y965169D01*
X1867518Y965604D01*
X1866750Y965757D01*
D02*
G37*
G36*
X1797500Y965007D02*
X1796732Y964854D01*
X1796081Y964419D01*
X1795646Y963768D01*
X1795493Y963000D01*
X1795646Y962232D01*
X1796081Y961581D01*
X1796732Y961146D01*
X1797500Y960993D01*
X1798268Y961146D01*
X1798919Y961581D01*
X1799354Y962232D01*
X1799507Y963000D01*
X1799354Y963768D01*
X1798919Y964419D01*
X1798268Y964854D01*
X1797500Y965007D01*
D02*
G37*
G36*
X1859500Y968507D02*
X1858732Y968354D01*
X1858081Y967919D01*
X1857646Y967268D01*
X1857493Y966500D01*
X1857646Y965732D01*
X1857808Y965489D01*
X1857799Y965414D01*
X1857555Y964968D01*
X1856982Y964854D01*
X1856331Y964419D01*
X1855896Y963768D01*
X1855743Y963000D01*
X1855896Y962232D01*
X1856331Y961581D01*
X1856982Y961146D01*
X1857750Y960993D01*
X1858518Y961146D01*
X1859169Y961581D01*
X1859604Y962232D01*
X1859757Y963000D01*
X1859604Y963768D01*
X1859442Y964011D01*
X1859451Y964086D01*
X1859695Y964532D01*
X1860268Y964646D01*
X1860919Y965081D01*
X1861354Y965732D01*
X1861507Y966500D01*
X1861354Y967268D01*
X1860919Y967919D01*
X1860268Y968354D01*
X1859500Y968507D01*
D02*
G37*
G36*
X2017500Y965507D02*
X2016732Y965354D01*
X2016081Y964919D01*
X2015646Y964268D01*
X2015493Y963500D01*
X2015646Y962732D01*
X2016081Y962081D01*
X2016732Y961646D01*
X2017500Y961493D01*
X2018268Y961646D01*
X2018919Y962081D01*
X2019354Y962732D01*
X2019507Y963500D01*
X2019354Y964268D01*
X2018919Y964919D01*
X2018268Y965354D01*
X2017500Y965507D01*
D02*
G37*
G36*
X1865000Y958007D02*
X1864232Y957854D01*
X1863581Y957419D01*
X1863146Y956768D01*
X1862993Y956000D01*
X1863146Y955232D01*
X1863581Y954581D01*
X1864232Y954146D01*
X1865000Y953993D01*
X1865768Y954146D01*
X1866419Y954581D01*
X1866854Y955232D01*
X1867007Y956000D01*
X1866854Y956768D01*
X1866419Y957419D01*
X1865768Y957854D01*
X1865000Y958007D01*
D02*
G37*
G36*
X1819500Y955759D02*
X1818732Y955606D01*
X1818081Y955171D01*
X1817646Y954520D01*
X1817493Y953752D01*
X1817646Y952984D01*
X1818081Y952333D01*
X1818732Y951898D01*
X1819500Y951745D01*
X1820268Y951898D01*
X1820919Y952333D01*
X1821354Y952984D01*
X1821507Y953752D01*
X1821354Y954520D01*
X1820919Y955171D01*
X1820268Y955606D01*
X1819500Y955759D01*
D02*
G37*
G36*
X1760658Y960245D02*
X1759681Y960116D01*
X1758771Y959739D01*
X1757990Y959140D01*
X1757391Y958359D01*
X1757014Y957449D01*
X1756885Y956472D01*
X1757014Y955496D01*
X1757391Y954586D01*
X1757990Y953805D01*
X1758771Y953205D01*
X1759681Y952829D01*
X1760658Y952700D01*
X1761634Y952829D01*
X1762544Y953205D01*
X1763325Y953805D01*
X1763924Y954586D01*
X1764301Y955496D01*
X1764430Y956472D01*
X1764301Y957449D01*
X1763924Y958359D01*
X1763325Y959140D01*
X1762544Y959739D01*
X1761634Y960116D01*
X1760658Y960245D01*
D02*
G37*
G36*
X1780342D02*
X1779366Y960116D01*
X1778456Y959739D01*
X1777675Y959140D01*
X1777076Y958359D01*
X1776699Y957449D01*
X1776570Y956472D01*
X1776699Y955496D01*
X1777076Y954586D01*
X1777675Y953805D01*
X1778456Y953205D01*
X1779366Y952829D01*
X1780342Y952700D01*
X1781319Y952829D01*
X1782229Y953205D01*
X1783010Y953805D01*
X1783610Y954586D01*
X1783986Y955496D01*
X1784115Y956472D01*
X1783986Y957449D01*
X1783610Y958359D01*
X1783010Y959140D01*
X1782229Y959739D01*
X1781319Y960116D01*
X1780342Y960245D01*
D02*
G37*
G36*
X1931000Y952507D02*
X1930232Y952354D01*
X1929581Y951919D01*
X1929146Y951268D01*
X1928993Y950500D01*
X1929146Y949732D01*
X1929581Y949081D01*
X1930232Y948646D01*
X1931000Y948493D01*
X1931768Y948646D01*
X1932419Y949081D01*
X1932854Y949732D01*
X1933007Y950500D01*
X1932854Y951268D01*
X1932419Y951919D01*
X1931768Y952354D01*
X1931000Y952507D01*
D02*
G37*
G36*
X1825500Y955320D02*
X1824511Y955190D01*
X1823590Y954808D01*
X1822799Y954201D01*
X1822192Y953410D01*
X1821810Y952489D01*
X1821680Y951500D01*
X1821810Y950511D01*
X1822192Y949590D01*
X1822799Y948799D01*
X1823590Y948192D01*
X1824511Y947810D01*
X1825500Y947680D01*
X1826489Y947810D01*
X1827410Y948192D01*
X1828201Y948799D01*
X1828808Y949590D01*
X1829190Y950511D01*
X1829320Y951500D01*
X1829190Y952489D01*
X1828808Y953410D01*
X1828201Y954201D01*
X1827410Y954808D01*
X1826489Y955190D01*
X1825500Y955320D01*
D02*
G37*
G36*
X1836500D02*
X1835511Y955190D01*
X1834590Y954808D01*
X1833799Y954201D01*
X1833192Y953410D01*
X1832810Y952489D01*
X1832680Y951500D01*
X1832810Y950511D01*
X1833192Y949590D01*
X1833799Y948799D01*
X1834590Y948192D01*
X1835511Y947810D01*
X1836500Y947680D01*
X1837489Y947810D01*
X1838410Y948192D01*
X1839201Y948799D01*
X1839808Y949590D01*
X1840190Y950511D01*
X1840320Y951500D01*
X1840190Y952489D01*
X1839808Y953410D01*
X1839201Y954201D01*
X1838410Y954808D01*
X1837489Y955190D01*
X1836500Y955320D01*
D02*
G37*
G36*
X1911000Y952007D02*
X1910232Y951854D01*
X1909581Y951419D01*
X1909146Y950768D01*
X1908993Y950000D01*
X1909146Y949232D01*
X1909581Y948581D01*
X1910232Y948146D01*
X1911000Y947993D01*
X1911768Y948146D01*
X1912419Y948581D01*
X1912854Y949232D01*
X1913007Y950000D01*
X1912854Y950768D01*
X1912419Y951419D01*
X1911768Y951854D01*
X1911000Y952007D01*
D02*
G37*
G36*
X2043000Y957007D02*
X2042232Y956854D01*
X2041581Y956419D01*
X2041146Y955768D01*
X2040993Y955000D01*
X2041146Y954232D01*
X2041581Y953581D01*
X2042232Y953146D01*
X2043000Y952993D01*
X2043768Y953146D01*
X2044419Y953581D01*
X2044854Y954232D01*
X2045007Y955000D01*
X2044854Y955768D01*
X2044419Y956419D01*
X2043768Y956854D01*
X2043000Y957007D01*
D02*
G37*
G36*
X1934500Y957507D02*
X1933732Y957354D01*
X1933081Y956919D01*
X1932646Y956268D01*
X1932493Y955500D01*
X1932646Y954732D01*
X1933081Y954081D01*
X1933732Y953646D01*
X1934500Y953493D01*
X1935268Y953646D01*
X1935919Y954081D01*
X1936354Y954732D01*
X1936507Y955500D01*
X1936354Y956268D01*
X1935919Y956919D01*
X1935268Y957354D01*
X1934500Y957507D01*
D02*
G37*
G36*
X2027500D02*
X2026732Y957354D01*
X2026081Y956919D01*
X2025646Y956268D01*
X2025493Y955500D01*
X2025646Y954732D01*
X2026081Y954081D01*
X2026732Y953646D01*
X2027500Y953493D01*
X2028268Y953646D01*
X2028919Y954081D01*
X2029354Y954732D01*
X2029507Y955500D01*
X2029354Y956268D01*
X2028919Y956919D01*
X2028268Y957354D01*
X2027500Y957507D01*
D02*
G37*
G36*
X2035500Y957007D02*
X2034732Y956854D01*
X2034081Y956419D01*
X2033646Y955768D01*
X2033493Y955000D01*
X2033646Y954232D01*
X2034081Y953581D01*
X2034732Y953146D01*
X2035500Y952993D01*
X2036268Y953146D01*
X2036919Y953581D01*
X2037354Y954232D01*
X2037507Y955000D01*
X2037354Y955768D01*
X2036919Y956419D01*
X2036268Y956854D01*
X2035500Y957007D01*
D02*
G37*
G36*
X1769122Y955095D02*
X1766792D01*
X1767047Y954479D01*
X1767681Y953653D01*
X1768507Y953020D01*
X1769122Y952765D01*
Y955095D01*
D02*
G37*
G36*
X1774208D02*
X1771878D01*
Y952765D01*
X1772493Y953020D01*
X1773319Y953653D01*
X1773953Y954479D01*
X1774208Y955095D01*
D02*
G37*
G36*
X1960500Y957007D02*
X1959732Y956854D01*
X1959081Y956419D01*
X1958646Y955768D01*
X1958493Y955000D01*
X1958646Y954232D01*
X1959081Y953581D01*
X1959732Y953146D01*
X1960500Y952993D01*
X1961268Y953146D01*
X1961919Y953581D01*
X1962354Y954232D01*
X1962507Y955000D01*
X1962354Y955768D01*
X1961919Y956419D01*
X1961268Y956854D01*
X1960500Y957007D01*
D02*
G37*
G36*
X2098622Y893264D02*
X2096047D01*
Y890689D01*
X2098622D01*
Y893264D01*
D02*
G37*
G36*
X1928898Y910386D02*
X1927976Y910203D01*
X1927195Y909681D01*
X1926673Y908899D01*
X1926489Y907978D01*
X1926673Y907056D01*
X1927195Y906275D01*
X1927976Y905753D01*
X1928898Y905569D01*
X1929819Y905753D01*
X1930601Y906275D01*
X1931123Y907056D01*
X1931306Y907978D01*
X1931123Y908899D01*
X1930601Y909681D01*
X1929819Y910203D01*
X1928898Y910386D01*
D02*
G37*
G36*
X1936253D02*
X1935332Y910203D01*
X1934550Y909681D01*
X1934028Y908899D01*
X1933845Y907978D01*
X1934028Y907056D01*
X1934550Y906275D01*
X1935332Y905753D01*
X1936253Y905569D01*
X1937175Y905753D01*
X1937956Y906275D01*
X1938479Y907056D01*
X1938662Y907978D01*
X1938479Y908899D01*
X1937956Y909681D01*
X1937175Y910203D01*
X1936253Y910386D01*
D02*
G37*
G36*
X2078000Y878507D02*
X2077232Y878354D01*
X2076581Y877919D01*
X2076146Y877268D01*
X2075993Y876500D01*
X2076146Y875732D01*
X2076581Y875081D01*
X2077232Y874646D01*
X2078000Y874493D01*
X2078768Y874646D01*
X2079419Y875081D01*
X2079854Y875732D01*
X2080007Y876500D01*
X2079854Y877268D01*
X2079419Y877919D01*
X2078768Y878354D01*
X2078000Y878507D01*
D02*
G37*
G36*
X1944299Y848511D02*
X1943378Y848328D01*
X1942596Y847805D01*
X1942074Y847024D01*
X1941891Y846102D01*
X1942074Y845181D01*
X1942596Y844399D01*
X1943378Y843877D01*
X1944299Y843694D01*
X1945221Y843877D01*
X1946002Y844399D01*
X1946524Y845181D01*
X1946708Y846102D01*
X1946524Y847024D01*
X1946002Y847805D01*
X1945221Y848328D01*
X1944299Y848511D01*
D02*
G37*
G36*
X1862500Y890641D02*
X1740500D01*
X1740434Y890628D01*
X1739182Y890505D01*
X1737914Y890121D01*
X1736746Y889496D01*
X1735722Y888656D01*
X1734882Y887632D01*
X1734257Y886464D01*
X1733873Y885196D01*
X1733750Y883944D01*
X1733736Y883878D01*
Y870724D01*
X1733750Y870658D01*
X1733873Y869406D01*
X1734257Y868139D01*
X1734882Y866970D01*
X1735722Y865946D01*
X1736746Y865106D01*
X1737914Y864482D01*
X1739182Y864097D01*
X1740434Y863974D01*
X1740500Y863961D01*
X1862500D01*
X1862566Y863974D01*
X1863818Y864097D01*
X1865086Y864482D01*
X1866254Y865106D01*
X1867278Y865946D01*
X1868118Y866970D01*
X1868743Y868139D01*
X1869127Y869406D01*
X1869250Y870658D01*
X1869264Y870724D01*
Y883878D01*
X1869250Y883944D01*
X1869127Y885196D01*
X1868743Y886464D01*
X1868118Y887632D01*
X1867278Y888656D01*
X1866254Y889496D01*
X1865086Y890121D01*
X1863818Y890505D01*
X1862566Y890628D01*
X1862500Y890641D01*
D02*
G37*
G36*
X1717500Y870507D02*
X1716732Y870354D01*
X1716081Y869919D01*
X1715646Y869268D01*
X1715493Y868500D01*
X1715646Y867732D01*
X1716081Y867081D01*
X1716732Y866646D01*
X1717500Y866493D01*
X1718268Y866646D01*
X1718919Y867081D01*
X1719354Y867732D01*
X1719507Y868500D01*
X1719354Y869268D01*
X1718919Y869919D01*
X1718268Y870354D01*
X1717500Y870507D01*
D02*
G37*
G36*
X1943609Y910386D02*
X1942687Y910203D01*
X1941906Y909681D01*
X1941384Y908899D01*
X1941201Y907978D01*
X1941384Y907056D01*
X1941906Y906275D01*
X1942687Y905753D01*
X1943609Y905569D01*
X1944531Y905753D01*
X1945312Y906275D01*
X1945834Y907056D01*
X1946018Y907978D01*
X1945834Y908899D01*
X1945312Y909681D01*
X1944531Y910203D01*
X1943609Y910386D01*
D02*
G37*
G36*
X1808500Y918507D02*
X1807732Y918354D01*
X1807081Y917919D01*
X1806646Y917268D01*
X1806493Y916500D01*
X1806646Y915732D01*
X1807081Y915081D01*
X1807732Y914646D01*
X1808500Y914493D01*
X1809268Y914646D01*
X1809919Y915081D01*
X1810354Y915732D01*
X1810507Y916500D01*
X1810354Y917268D01*
X1809919Y917919D01*
X1809268Y918354D01*
X1808500Y918507D01*
D02*
G37*
G36*
X1878260D02*
X1877492Y918354D01*
X1876841Y917919D01*
X1876405Y917268D01*
X1876253Y916500D01*
X1876405Y915732D01*
X1876841Y915081D01*
X1877492Y914646D01*
X1878260Y914493D01*
X1879028Y914646D01*
X1879679Y915081D01*
X1880114Y915732D01*
X1880267Y916500D01*
X1880114Y917268D01*
X1879679Y917919D01*
X1879028Y918354D01*
X1878260Y918507D01*
D02*
G37*
G36*
X2039764Y918382D02*
X2036369D01*
X2036829Y917270D01*
X2037621Y916239D01*
X2038652Y915447D01*
X2039764Y914987D01*
Y918382D01*
D02*
G37*
G36*
X1751000Y931703D02*
X1749302Y931536D01*
X1747669Y931041D01*
X1746165Y930237D01*
X1744846Y929154D01*
X1743764Y927835D01*
X1742959Y926331D01*
X1742464Y924698D01*
X1742297Y923000D01*
X1742464Y921302D01*
X1742959Y919669D01*
X1743764Y918165D01*
X1744846Y916846D01*
X1746165Y915763D01*
X1747669Y914959D01*
X1749302Y914464D01*
X1751000Y914297D01*
X1752698Y914464D01*
X1754331Y914959D01*
X1755835Y915763D01*
X1757154Y916846D01*
X1758237Y918165D01*
X1759041Y919669D01*
X1759536Y921302D01*
X1759703Y923000D01*
X1759536Y924698D01*
X1759041Y926331D01*
X1758237Y927835D01*
X1757154Y929154D01*
X1755835Y930237D01*
X1754331Y931041D01*
X1752698Y931536D01*
X1751000Y931703D01*
D02*
G37*
G36*
X1889313Y926733D02*
X1886813D01*
X1886018Y926575D01*
X1885344Y926124D01*
X1884894Y925451D01*
X1884736Y924656D01*
Y915345D01*
X1884894Y914550D01*
X1885344Y913876D01*
X1886018Y913425D01*
X1886813Y913267D01*
X1889313D01*
X1890108Y913425D01*
X1890782Y913876D01*
X1891232Y914550D01*
X1891390Y915345D01*
Y924656D01*
X1891232Y925451D01*
X1890782Y926124D01*
X1890108Y926575D01*
X1889313Y926733D01*
D02*
G37*
G36*
X1894559Y918622D02*
X1892407D01*
Y916595D01*
X1892527Y915681D01*
X1892880Y914829D01*
X1893441Y914098D01*
X1894172Y913537D01*
X1894559Y913377D01*
Y918622D01*
D02*
G37*
G36*
X1899467D02*
X1897315D01*
Y913377D01*
X1897702Y913537D01*
X1898433Y914098D01*
X1898994Y914829D01*
X1899347Y915681D01*
X1899467Y916595D01*
Y918622D01*
D02*
G37*
G36*
X1945886Y790075D02*
X1938799D01*
Y780232D01*
X1945886D01*
Y790075D01*
D02*
G37*
G36*
X1955728D02*
X1948642D01*
Y780232D01*
X1955728D01*
Y790075D01*
D02*
G37*
G36*
X1933000Y810159D02*
X1931535Y809966D01*
X1930171Y809400D01*
X1928999Y808501D01*
X1928099Y807329D01*
X1927534Y805965D01*
X1927341Y804500D01*
X1927534Y803035D01*
X1928099Y801671D01*
X1928999Y800499D01*
X1930171Y799600D01*
X1931535Y799034D01*
X1933000Y798841D01*
X1934465Y799034D01*
X1935829Y799600D01*
X1937001Y800499D01*
X1937901Y801671D01*
X1938466Y803035D01*
X1938659Y804500D01*
X1938466Y805965D01*
X1937901Y807329D01*
X1937001Y808501D01*
X1935829Y809400D01*
X1934465Y809966D01*
X1933000Y810159D01*
D02*
G37*
G36*
X1926201Y790075D02*
X1919114D01*
Y780232D01*
X1926201D01*
Y790075D01*
D02*
G37*
G36*
X1931122Y769224D02*
X1927366D01*
Y766847D01*
X1931122D01*
Y769224D01*
D02*
G37*
G36*
X1937634D02*
X1933878D01*
Y766847D01*
X1937634D01*
Y769224D01*
D02*
G37*
G36*
X1916358Y790075D02*
X1909272D01*
Y780232D01*
X1916358D01*
Y790075D01*
D02*
G37*
G36*
X1926500Y815007D02*
X1925732Y814854D01*
X1925081Y814419D01*
X1924646Y813768D01*
X1924493Y813000D01*
X1924646Y812232D01*
X1925081Y811581D01*
X1925732Y811146D01*
X1926500Y810993D01*
X1927268Y811146D01*
X1927919Y811581D01*
X1928354Y812232D01*
X1928507Y813000D01*
X1928354Y813768D01*
X1927919Y814419D01*
X1927268Y814854D01*
X1926500Y815007D01*
D02*
G37*
G36*
X1922232Y848511D02*
X1921311Y848328D01*
X1920529Y847805D01*
X1920007Y847024D01*
X1919824Y846102D01*
X1920007Y845181D01*
X1920529Y844399D01*
X1921311Y843877D01*
X1922232Y843694D01*
X1923154Y843877D01*
X1923935Y844399D01*
X1924458Y845181D01*
X1924641Y846102D01*
X1924458Y847024D01*
X1923935Y847805D01*
X1923154Y848328D01*
X1922232Y848511D01*
D02*
G37*
G36*
X1929588D02*
X1928666Y848328D01*
X1927885Y847805D01*
X1927363Y847024D01*
X1927180Y846102D01*
X1927363Y845181D01*
X1927885Y844399D01*
X1928666Y843877D01*
X1929588Y843694D01*
X1930510Y843877D01*
X1931291Y844399D01*
X1931813Y845181D01*
X1931997Y846102D01*
X1931813Y847024D01*
X1931291Y847805D01*
X1930510Y848328D01*
X1929588Y848511D01*
D02*
G37*
G36*
X1936944D02*
X1936022Y848328D01*
X1935241Y847805D01*
X1934719Y847024D01*
X1934535Y846102D01*
X1934719Y845181D01*
X1935241Y844399D01*
X1936022Y843877D01*
X1936944Y843694D01*
X1937865Y843877D01*
X1938647Y844399D01*
X1939169Y845181D01*
X1939352Y846102D01*
X1939169Y847024D01*
X1938647Y847805D01*
X1937865Y848328D01*
X1936944Y848511D01*
D02*
G37*
G36*
X1949500Y840507D02*
X1948732Y840354D01*
X1948081Y839919D01*
X1947646Y839268D01*
X1947493Y838500D01*
X1947646Y837732D01*
X1948081Y837081D01*
X1948732Y836646D01*
X1949500Y836493D01*
X1950268Y836646D01*
X1950919Y837081D01*
X1951354Y837732D01*
X1951507Y838500D01*
X1951354Y839268D01*
X1950919Y839919D01*
X1950268Y840354D01*
X1949500Y840507D01*
D02*
G37*
G36*
X1961000Y816507D02*
X1960232Y816354D01*
X1959581Y815919D01*
X1959146Y815268D01*
X1958993Y814500D01*
X1959146Y813732D01*
X1959581Y813081D01*
X1960232Y812646D01*
X1961000Y812493D01*
X1961768Y812646D01*
X1962419Y813081D01*
X1962854Y813732D01*
X1963007Y814500D01*
X1962854Y815268D01*
X1962419Y815919D01*
X1961768Y816354D01*
X1961000Y816507D01*
D02*
G37*
G36*
X1926000Y819507D02*
X1925232Y819354D01*
X1924581Y818919D01*
X1924146Y818268D01*
X1923993Y817500D01*
X1924146Y816732D01*
X1924581Y816081D01*
X1925232Y815646D01*
X1926000Y815493D01*
X1926768Y815646D01*
X1927419Y816081D01*
X1927854Y816732D01*
X1928007Y817500D01*
X1927854Y818268D01*
X1927419Y818919D01*
X1926768Y819354D01*
X1926000Y819507D01*
D02*
G37*
G36*
X1957500Y827846D02*
X1956732Y827693D01*
X1956081Y827258D01*
X1955646Y826607D01*
X1955493Y825839D01*
X1955646Y825070D01*
X1956081Y824419D01*
X1956732Y823984D01*
X1957500Y823831D01*
X1958268Y823984D01*
X1958919Y824419D01*
X1959354Y825070D01*
X1959507Y825839D01*
X1959354Y826607D01*
X1958919Y827258D01*
X1958268Y827693D01*
X1957500Y827846D01*
D02*
G37*
G36*
X2023259Y927622D02*
X2020878D01*
Y925241D01*
X2021517Y925506D01*
X2022353Y926147D01*
X2022994Y926983D01*
X2023259Y927622D01*
D02*
G37*
G36*
X1808500Y931007D02*
X1807732Y930854D01*
X1807081Y930419D01*
X1806646Y929768D01*
X1806493Y929000D01*
X1806646Y928232D01*
X1807081Y927581D01*
X1807732Y927146D01*
X1808500Y926993D01*
X1809268Y927146D01*
X1809919Y927581D01*
X1810354Y928232D01*
X1810507Y929000D01*
X1810354Y929768D01*
X1809919Y930419D01*
X1809268Y930854D01*
X1808500Y931007D01*
D02*
G37*
G36*
X2027000Y933007D02*
X2026232Y932854D01*
X2025581Y932419D01*
X2025146Y931768D01*
X2024993Y931000D01*
X2025146Y930232D01*
X2025581Y929581D01*
X2026232Y929146D01*
X2027000Y928993D01*
X2027768Y929146D01*
X2028419Y929581D01*
X2028854Y930232D01*
X2029007Y931000D01*
X2028854Y931768D01*
X2028419Y932419D01*
X2027768Y932854D01*
X2027000Y933007D01*
D02*
G37*
G36*
X2018122Y927622D02*
X2015741D01*
X2016006Y926983D01*
X2016647Y926147D01*
X2017483Y925506D01*
X2018122Y925241D01*
Y927622D01*
D02*
G37*
G36*
X1993500Y929007D02*
X1992732Y928854D01*
X1992081Y928419D01*
X1991646Y927768D01*
X1991493Y927000D01*
X1991646Y926232D01*
X1992081Y925581D01*
X1992732Y925146D01*
X1993500Y924993D01*
X1994268Y925146D01*
X1994919Y925581D01*
X1995354Y926232D01*
X1995507Y927000D01*
X1995354Y927768D01*
X1994919Y928419D01*
X1994268Y928854D01*
X1993500Y929007D01*
D02*
G37*
G36*
X1776500Y932971D02*
X1775472Y932836D01*
X1774515Y932439D01*
X1773692Y931808D01*
X1773061Y930986D01*
X1772664Y930028D01*
X1772529Y929000D01*
X1772664Y927972D01*
X1773061Y927015D01*
X1773692Y926192D01*
X1774515Y925561D01*
X1775472Y925164D01*
X1776500Y925029D01*
X1777528Y925164D01*
X1778485Y925561D01*
X1779308Y926192D01*
X1779939Y927015D01*
X1780336Y927972D01*
X1780471Y929000D01*
X1780336Y930028D01*
X1779939Y930986D01*
X1779308Y931808D01*
X1778485Y932439D01*
X1777528Y932836D01*
X1776500Y932971D01*
D02*
G37*
G36*
X1797000D02*
X1795972Y932836D01*
X1795015Y932439D01*
X1794192Y931808D01*
X1793561Y930986D01*
X1793164Y930028D01*
X1793029Y929000D01*
X1793164Y927972D01*
X1793561Y927015D01*
X1794192Y926192D01*
X1795015Y925561D01*
X1795972Y925164D01*
X1797000Y925029D01*
X1798028Y925164D01*
X1798985Y925561D01*
X1799808Y926192D01*
X1800439Y927015D01*
X1800836Y927972D01*
X1800971Y929000D01*
X1800836Y930028D01*
X1800439Y930986D01*
X1799808Y931808D01*
X1798985Y932439D01*
X1798028Y932836D01*
X1797000Y932971D01*
D02*
G37*
G36*
X2050000Y935929D02*
X2049178Y935820D01*
X2048412Y935503D01*
X2047754Y934998D01*
X2047249Y934340D01*
X2046931Y933574D01*
X2046823Y932752D01*
X2046931Y931930D01*
X2047249Y931164D01*
X2047754Y930506D01*
X2048412Y930001D01*
X2049178Y929683D01*
X2050000Y929575D01*
X2050822Y929683D01*
X2051588Y930001D01*
X2052246Y930506D01*
X2052751Y931164D01*
X2053069Y931930D01*
X2053177Y932752D01*
X2053069Y933574D01*
X2052751Y934340D01*
X2052246Y934998D01*
X2051588Y935503D01*
X2050822Y935820D01*
X2050000Y935929D01*
D02*
G37*
G36*
X2077329Y934453D02*
X2073512D01*
Y930635D01*
X2073525Y930637D01*
X2074822Y931174D01*
X2075936Y932029D01*
X2076790Y933142D01*
X2077327Y934439D01*
X2077329Y934453D01*
D02*
G37*
G36*
X1808500Y936007D02*
X1807732Y935854D01*
X1807081Y935419D01*
X1806646Y934768D01*
X1806493Y934000D01*
X1806646Y933232D01*
X1807081Y932581D01*
X1807732Y932146D01*
X1808500Y931993D01*
X1809268Y932146D01*
X1809919Y932581D01*
X1810354Y933232D01*
X1810507Y934000D01*
X1810354Y934768D01*
X1809919Y935419D01*
X1809268Y935854D01*
X1808500Y936007D01*
D02*
G37*
G36*
X1959221Y936287D02*
X1958452Y936134D01*
X1957801Y935699D01*
X1957366Y935048D01*
X1957213Y934280D01*
X1957366Y933511D01*
X1957801Y932860D01*
X1958452Y932425D01*
X1959221Y932273D01*
X1959989Y932425D01*
X1960640Y932860D01*
X1961075Y933511D01*
X1961227Y934280D01*
X1961075Y935048D01*
X1960640Y935699D01*
X1959989Y936134D01*
X1959221Y936287D01*
D02*
G37*
G36*
X2070756Y934453D02*
X2066939D01*
X2066940Y934439D01*
X2067477Y933142D01*
X2068332Y932029D01*
X2069445Y931174D01*
X2070742Y930637D01*
X2070756Y930635D01*
Y934453D01*
D02*
G37*
G36*
X2056500Y934259D02*
X2055732Y934106D01*
X2055081Y933671D01*
X2054646Y933020D01*
X2054493Y932252D01*
X2054646Y931484D01*
X2055081Y930833D01*
X2055732Y930398D01*
X2056500Y930245D01*
X2057268Y930398D01*
X2057919Y930833D01*
X2058354Y931484D01*
X2058507Y932252D01*
X2058354Y933020D01*
X2057919Y933671D01*
X2057268Y934106D01*
X2056500Y934259D01*
D02*
G37*
G36*
X2018122Y932759D02*
X2017483Y932494D01*
X2016647Y931853D01*
X2016006Y931017D01*
X2015741Y930378D01*
X2018122D01*
Y932759D01*
D02*
G37*
G36*
X2020878D02*
Y930378D01*
X2023259D01*
X2022994Y931017D01*
X2022353Y931853D01*
X2021517Y932494D01*
X2020878Y932759D01*
D02*
G37*
G36*
X2021900Y922815D02*
X2017100D01*
X2016559Y922707D01*
X2016100Y922400D01*
X2015793Y921941D01*
X2015685Y921400D01*
Y916600D01*
X2015793Y916059D01*
X2016100Y915600D01*
X2016559Y915293D01*
X2017100Y915185D01*
X2021900D01*
X2022441Y915293D01*
X2022900Y915600D01*
X2023207Y916059D01*
X2023315Y916600D01*
Y921400D01*
X2023207Y921941D01*
X2022900Y922400D01*
X2022441Y922707D01*
X2021900Y922815D01*
D02*
G37*
G36*
X1972000Y921507D02*
X1971232Y921354D01*
X1970581Y920919D01*
X1970146Y920268D01*
X1969993Y919500D01*
X1970146Y918732D01*
X1970581Y918081D01*
X1971232Y917646D01*
X1972000Y917493D01*
X1972768Y917646D01*
X1973419Y918081D01*
X1973854Y918732D01*
X1974007Y919500D01*
X1973854Y920268D01*
X1973419Y920919D01*
X1972768Y921354D01*
X1972000Y921507D01*
D02*
G37*
G36*
X2001000Y922507D02*
X2000232Y922354D01*
X1999581Y921919D01*
X1999146Y921268D01*
X1998993Y920500D01*
X1999146Y919732D01*
X1999581Y919081D01*
X2000232Y918646D01*
X2001000Y918493D01*
X2001768Y918646D01*
X2002419Y919081D01*
X2002854Y919732D01*
X2003007Y920500D01*
X2002854Y921268D01*
X2002419Y921919D01*
X2001768Y922354D01*
X2001000Y922507D01*
D02*
G37*
G36*
X1800937Y922937D02*
X1793063D01*
Y915063D01*
X1800937D01*
Y922937D01*
D02*
G37*
G36*
X2045915Y918382D02*
X2042520D01*
Y914987D01*
X2043632Y915447D01*
X2044663Y916239D01*
X2045454Y917270D01*
X2045915Y918382D01*
D02*
G37*
G36*
X2058858Y924525D02*
X2057625Y924363D01*
X2056476Y923887D01*
X2055489Y923129D01*
X2054732Y922142D01*
X2054255Y920993D01*
X2054093Y919760D01*
X2054255Y918526D01*
X2054732Y917377D01*
X2055489Y916390D01*
X2056476Y915633D01*
X2057625Y915157D01*
X2058858Y914995D01*
X2060092Y915157D01*
X2061241Y915633D01*
X2062228Y916390D01*
X2062985Y917377D01*
X2063461Y918526D01*
X2063623Y919760D01*
X2063461Y920993D01*
X2062985Y922142D01*
X2062228Y923129D01*
X2061241Y923887D01*
X2060092Y924363D01*
X2058858Y924525D01*
D02*
G37*
G36*
X1780437Y922937D02*
X1772563D01*
Y915063D01*
X1780437D01*
Y922937D01*
D02*
G37*
G36*
X1808500Y925007D02*
X1807732Y924854D01*
X1807081Y924419D01*
X1806646Y923768D01*
X1806493Y923000D01*
X1806646Y922232D01*
X1807081Y921581D01*
X1807732Y921146D01*
X1808500Y920993D01*
X1809268Y921146D01*
X1809919Y921581D01*
X1810354Y922232D01*
X1810507Y923000D01*
X1810354Y923768D01*
X1809919Y924419D01*
X1809268Y924854D01*
X1808500Y925007D01*
D02*
G37*
G36*
X2010833Y926174D02*
X2010065Y926022D01*
X2009414Y925587D01*
X2008978Y924935D01*
X2008826Y924167D01*
X2008978Y923399D01*
X2009414Y922748D01*
X2010065Y922313D01*
X2010833Y922160D01*
X2011601Y922313D01*
X2012252Y922748D01*
X2012687Y923399D01*
X2012840Y924167D01*
X2012687Y924935D01*
X2012252Y925587D01*
X2011601Y926022D01*
X2010833Y926174D01*
D02*
G37*
G36*
X2028000Y926507D02*
X2027232Y926354D01*
X2026581Y925919D01*
X2026146Y925268D01*
X2025993Y924500D01*
X2026146Y923732D01*
X2026581Y923081D01*
X2027232Y922646D01*
X2028000Y922493D01*
X2028768Y922646D01*
X2029419Y923081D01*
X2029854Y923732D01*
X2030007Y924500D01*
X2029854Y925268D01*
X2029419Y925919D01*
X2028768Y926354D01*
X2028000Y926507D01*
D02*
G37*
G36*
X1926000Y929007D02*
X1925232Y928854D01*
X1924581Y928419D01*
X1924146Y927768D01*
X1923993Y927000D01*
X1924146Y926232D01*
X1924581Y925581D01*
X1925232Y925146D01*
X1926000Y924993D01*
X1926768Y925146D01*
X1927419Y925581D01*
X1927854Y926232D01*
X1928007Y927000D01*
X1927854Y927768D01*
X1927419Y928419D01*
X1926768Y928854D01*
X1926000Y929007D01*
D02*
G37*
G36*
X1897315Y926623D02*
Y921378D01*
X1899467D01*
Y923405D01*
X1899347Y924319D01*
X1898994Y925171D01*
X1898433Y925902D01*
X1897702Y926463D01*
X1897315Y926623D01*
D02*
G37*
G36*
X2039764Y924533D02*
X2038652Y924072D01*
X2037621Y923281D01*
X2036829Y922250D01*
X2036369Y921138D01*
X2039764D01*
Y924533D01*
D02*
G37*
G36*
X2042520D02*
Y921138D01*
X2045915D01*
X2045454Y922250D01*
X2044663Y923281D01*
X2043632Y924072D01*
X2042520Y924533D01*
D02*
G37*
G36*
X1894559Y926623D02*
X1894172Y926463D01*
X1893441Y925902D01*
X1892880Y925171D01*
X1892527Y924319D01*
X1892407Y923405D01*
Y921378D01*
X1894559D01*
Y926623D01*
D02*
G37*
G36*
X2098622Y1045413D02*
X2096241D01*
X2096506Y1044774D01*
X2097147Y1043939D01*
X2097983Y1043297D01*
X2098622Y1043032D01*
Y1045413D01*
D02*
G37*
G36*
X2081622Y1048933D02*
X2079292D01*
X2079547Y1048318D01*
X2080181Y1047492D01*
X2081007Y1046858D01*
X2081622Y1046603D01*
Y1048933D01*
D02*
G37*
G36*
X2086708D02*
X2084378D01*
Y1046603D01*
X2084993Y1046858D01*
X2085819Y1047492D01*
X2086453Y1048318D01*
X2086708Y1048933D01*
D02*
G37*
G36*
X2061500Y1046507D02*
X2060732Y1046354D01*
X2060081Y1045919D01*
X2059646Y1045268D01*
X2059493Y1044500D01*
X2059646Y1043732D01*
X2060081Y1043081D01*
X2060732Y1042646D01*
X2061500Y1042493D01*
X2062268Y1042646D01*
X2062919Y1043081D01*
X2063354Y1043732D01*
X2063507Y1044500D01*
X2063354Y1045268D01*
X2062919Y1045919D01*
X2062268Y1046354D01*
X2061500Y1046507D01*
D02*
G37*
G36*
X1772000Y1045471D02*
X1770972Y1045336D01*
X1770015Y1044939D01*
X1769192Y1044308D01*
X1768561Y1043486D01*
X1768164Y1042528D01*
X1768029Y1041500D01*
X1768164Y1040472D01*
X1768561Y1039515D01*
X1769192Y1038692D01*
X1770015Y1038061D01*
X1770972Y1037664D01*
X1772000Y1037529D01*
X1773028Y1037664D01*
X1773985Y1038061D01*
X1774808Y1038692D01*
X1775439Y1039515D01*
X1775836Y1040472D01*
X1775971Y1041500D01*
X1775836Y1042528D01*
X1775439Y1043486D01*
X1774808Y1044308D01*
X1773985Y1044939D01*
X1773028Y1045336D01*
X1772000Y1045471D01*
D02*
G37*
G36*
X1852000Y1045007D02*
X1851232Y1044854D01*
X1850581Y1044419D01*
X1850146Y1043768D01*
X1849993Y1043000D01*
X1850146Y1042232D01*
X1850581Y1041581D01*
X1851232Y1041146D01*
X1852000Y1040993D01*
X1852768Y1041146D01*
X1853419Y1041581D01*
X1853854Y1042232D01*
X1854007Y1043000D01*
X1853854Y1043768D01*
X1853419Y1044419D01*
X1852768Y1044854D01*
X1852000Y1045007D01*
D02*
G37*
G36*
X1894500Y1046007D02*
X1893732Y1045854D01*
X1893081Y1045419D01*
X1892646Y1044768D01*
X1892493Y1044000D01*
X1892646Y1043232D01*
X1893081Y1042581D01*
X1893732Y1042146D01*
X1894500Y1041993D01*
X1895268Y1042146D01*
X1895919Y1042581D01*
X1896354Y1043232D01*
X1896507Y1044000D01*
X1896354Y1044768D01*
X1895919Y1045419D01*
X1895268Y1045854D01*
X1894500Y1046007D01*
D02*
G37*
G36*
X1747122Y1050122D02*
X1744579D01*
X1744875Y1049407D01*
X1745540Y1048540D01*
X1746407Y1047875D01*
X1747122Y1047579D01*
Y1050122D01*
D02*
G37*
G36*
X2098622Y1050550D02*
X2097983Y1050285D01*
X2097147Y1049644D01*
X2096506Y1048809D01*
X2096241Y1048169D01*
X2098622D01*
Y1050550D01*
D02*
G37*
G36*
X2081622Y1054019D02*
X2081007Y1053764D01*
X2080181Y1053130D01*
X2079547Y1052304D01*
X2079292Y1051689D01*
X2081622D01*
Y1054019D01*
D02*
G37*
G36*
X2084378D02*
Y1051689D01*
X2086708D01*
X2086453Y1052304D01*
X2085819Y1053130D01*
X2084993Y1053764D01*
X2084378Y1054019D01*
D02*
G37*
G36*
X1801000Y1052007D02*
X1800232Y1051854D01*
X1799581Y1051419D01*
X1799146Y1050768D01*
X1798993Y1050000D01*
X1799146Y1049232D01*
X1799581Y1048581D01*
X1800232Y1048146D01*
X1801000Y1047993D01*
X1801768Y1048146D01*
X1802419Y1048581D01*
X1802854Y1049232D01*
X1803007Y1050000D01*
X1802854Y1050768D01*
X1802419Y1051419D01*
X1801768Y1051854D01*
X1801000Y1052007D01*
D02*
G37*
G36*
X1752421Y1050122D02*
X1749878D01*
Y1047579D01*
X1750593Y1047875D01*
X1751460Y1048540D01*
X1752125Y1049407D01*
X1752421Y1050122D01*
D02*
G37*
G36*
X1770622D02*
X1768079D01*
X1768375Y1049407D01*
X1769040Y1048540D01*
X1769907Y1047875D01*
X1770622Y1047579D01*
Y1050122D01*
D02*
G37*
G36*
X1775921D02*
X1773378D01*
Y1047579D01*
X1774093Y1047875D01*
X1774960Y1048540D01*
X1775625Y1049407D01*
X1775921Y1050122D01*
D02*
G37*
G36*
X1940000Y1030507D02*
X1939232Y1030354D01*
X1938581Y1029919D01*
X1938146Y1029268D01*
X1937993Y1028500D01*
X1938146Y1027732D01*
X1938581Y1027081D01*
X1939232Y1026646D01*
X1940000Y1026493D01*
X1940768Y1026646D01*
X1941419Y1027081D01*
X1941854Y1027732D01*
X1942007Y1028500D01*
X1941854Y1029268D01*
X1941419Y1029919D01*
X1940768Y1030354D01*
X1940000Y1030507D01*
D02*
G37*
G36*
X1752437Y1035437D02*
X1744563D01*
Y1027563D01*
X1752437D01*
Y1035437D01*
D02*
G37*
G36*
X1775937D02*
X1768063D01*
Y1027563D01*
X1775937D01*
Y1035437D01*
D02*
G37*
G36*
X1911500Y1029507D02*
X1910732Y1029354D01*
X1910081Y1028919D01*
X1909646Y1028268D01*
X1909493Y1027500D01*
X1909646Y1026732D01*
X1910081Y1026081D01*
X1910732Y1025646D01*
X1911500Y1025493D01*
X1912268Y1025646D01*
X1912919Y1026081D01*
X1913354Y1026732D01*
X1913507Y1027500D01*
X1913354Y1028268D01*
X1912919Y1028919D01*
X1912268Y1029354D01*
X1911500Y1029507D01*
D02*
G37*
G36*
X1987000Y1026007D02*
X1986232Y1025854D01*
X1985581Y1025419D01*
X1985146Y1024768D01*
X1984993Y1024000D01*
X1985146Y1023232D01*
X1985581Y1022581D01*
X1986232Y1022146D01*
X1987000Y1021993D01*
X1987768Y1022146D01*
X1988419Y1022581D01*
X1988854Y1023232D01*
X1989007Y1024000D01*
X1988854Y1024768D01*
X1988419Y1025419D01*
X1987768Y1025854D01*
X1987000Y1026007D01*
D02*
G37*
G36*
X1936500Y1026507D02*
X1935732Y1026354D01*
X1935081Y1025919D01*
X1934646Y1025268D01*
X1934493Y1024500D01*
X1934646Y1023732D01*
X1935081Y1023081D01*
X1935732Y1022646D01*
X1936500Y1022493D01*
X1937268Y1022646D01*
X1937919Y1023081D01*
X1938354Y1023732D01*
X1938507Y1024500D01*
X1938354Y1025268D01*
X1937919Y1025919D01*
X1937268Y1026354D01*
X1936500Y1026507D01*
D02*
G37*
G36*
X2083000Y1046210D02*
X2082024Y1046081D01*
X2081824Y1045998D01*
X2081824Y1045998D01*
X2081114Y1045704D01*
X2080333Y1045105D01*
X2079733Y1044323D01*
X2079356Y1043413D01*
X2079228Y1042437D01*
X2079356Y1041461D01*
X2079733Y1040551D01*
X2080333Y1039769D01*
X2081114Y1039170D01*
X2082024Y1038793D01*
X2082335Y1038752D01*
Y1038248D01*
X2082024Y1038207D01*
X2081114Y1037830D01*
X2080333Y1037230D01*
X2079733Y1036449D01*
X2079356Y1035539D01*
X2079228Y1034563D01*
X2079356Y1033587D01*
X2079733Y1032677D01*
X2080333Y1031896D01*
X2081114Y1031296D01*
X2082024Y1030919D01*
X2081948Y1030429D01*
X2079260D01*
Y1022949D01*
X2086740D01*
Y1030429D01*
X2084052D01*
X2083976Y1030919D01*
X2084886Y1031296D01*
X2085667Y1031896D01*
X2086267Y1032677D01*
X2086644Y1033587D01*
X2086772Y1034563D01*
X2086644Y1035539D01*
X2086267Y1036449D01*
X2085667Y1037230D01*
X2084886Y1037830D01*
X2083976Y1038207D01*
X2083665Y1038248D01*
Y1038752D01*
X2083976Y1038793D01*
X2084886Y1039170D01*
X2085667Y1039769D01*
X2086267Y1040551D01*
X2086644Y1041461D01*
X2086772Y1042437D01*
X2086644Y1043413D01*
X2086267Y1044323D01*
X2085667Y1045105D01*
X2084886Y1045704D01*
X2084176Y1045998D01*
X2084176Y1045998D01*
X2083976Y1046081D01*
X2083000Y1046210D01*
D02*
G37*
G36*
X1853000Y1033007D02*
X1852232Y1032854D01*
X1851581Y1032419D01*
X1851146Y1031768D01*
X1850993Y1031000D01*
X1851146Y1030232D01*
X1851581Y1029581D01*
X1852232Y1029146D01*
X1853000Y1028993D01*
X1853768Y1029146D01*
X1854262Y1029475D01*
X1854419Y1029581D01*
X1854884Y1029376D01*
X1855081Y1029081D01*
X1855732Y1028646D01*
X1856500Y1028493D01*
X1857268Y1028646D01*
X1857919Y1029081D01*
X1858354Y1029732D01*
X1858507Y1030500D01*
X1858354Y1031268D01*
X1857919Y1031919D01*
X1857268Y1032354D01*
X1856500Y1032507D01*
X1855732Y1032354D01*
X1855239Y1032025D01*
X1855081Y1031919D01*
X1854616Y1032124D01*
X1854419Y1032419D01*
X1853768Y1032854D01*
X1853000Y1033007D01*
D02*
G37*
G36*
X1858500Y1038007D02*
X1857732Y1037854D01*
X1857081Y1037419D01*
X1856646Y1036768D01*
X1856493Y1036000D01*
X1856646Y1035232D01*
X1857081Y1034581D01*
X1857732Y1034146D01*
X1858500Y1033993D01*
X1859268Y1034146D01*
X1859919Y1034581D01*
X1860354Y1035232D01*
X1860507Y1036000D01*
X1860354Y1036768D01*
X1859919Y1037419D01*
X1859268Y1037854D01*
X1858500Y1038007D01*
D02*
G37*
G36*
X1846500Y1041007D02*
X1845732Y1040854D01*
X1845081Y1040419D01*
X1844646Y1039768D01*
X1844493Y1039000D01*
X1844646Y1038232D01*
X1845081Y1037581D01*
X1845732Y1037146D01*
X1846500Y1036993D01*
X1847268Y1037146D01*
X1847919Y1037581D01*
X1848354Y1038232D01*
X1848507Y1039000D01*
X1848354Y1039768D01*
X1847919Y1040419D01*
X1847268Y1040854D01*
X1846500Y1041007D01*
D02*
G37*
G36*
X1748500Y1045471D02*
X1747472Y1045336D01*
X1746515Y1044939D01*
X1745692Y1044308D01*
X1745061Y1043486D01*
X1744664Y1042528D01*
X1744529Y1041500D01*
X1744664Y1040472D01*
X1745061Y1039515D01*
X1745692Y1038692D01*
X1746515Y1038061D01*
X1747472Y1037664D01*
X1748500Y1037529D01*
X1749528Y1037664D01*
X1750485Y1038061D01*
X1751308Y1038692D01*
X1751939Y1039515D01*
X1752336Y1040472D01*
X1752471Y1041500D01*
X1752336Y1042528D01*
X1751939Y1043486D01*
X1751308Y1044308D01*
X1750485Y1044939D01*
X1749528Y1045336D01*
X1748500Y1045471D01*
D02*
G37*
G36*
X1840500Y1037507D02*
X1839732Y1037354D01*
X1839081Y1036919D01*
X1838646Y1036268D01*
X1838493Y1035500D01*
X1838646Y1034732D01*
X1839081Y1034081D01*
X1839732Y1033646D01*
X1840500Y1033493D01*
X1841268Y1033646D01*
X1841919Y1034081D01*
X1842354Y1034732D01*
X1842507Y1035500D01*
X1842354Y1036268D01*
X1841919Y1036919D01*
X1841268Y1037354D01*
X1840500Y1037507D01*
D02*
G37*
G36*
X1984555Y1037177D02*
X1965067D01*
Y1028712D01*
X1984555D01*
Y1037177D01*
D02*
G37*
G36*
X1924500Y1034507D02*
X1923732Y1034354D01*
X1923081Y1033919D01*
X1922646Y1033268D01*
X1922493Y1032500D01*
X1922646Y1031732D01*
X1923081Y1031081D01*
X1923732Y1030646D01*
X1924500Y1030493D01*
X1925268Y1030646D01*
X1925919Y1031081D01*
X1926354Y1031732D01*
X1926507Y1032500D01*
X1926354Y1033268D01*
X1925919Y1033919D01*
X1925268Y1034354D01*
X1924500Y1034507D01*
D02*
G37*
G36*
X1936500Y1035007D02*
X1935732Y1034854D01*
X1935081Y1034419D01*
X1934646Y1033768D01*
X1934493Y1033000D01*
X1934646Y1032232D01*
X1935081Y1031581D01*
X1935732Y1031146D01*
X1936500Y1030993D01*
X1937268Y1031146D01*
X1937919Y1031581D01*
X1938354Y1032232D01*
X1938507Y1033000D01*
X1938354Y1033768D01*
X1937919Y1034419D01*
X1937268Y1034854D01*
X1936500Y1035007D01*
D02*
G37*
G36*
X1815891Y1084513D02*
X1815123Y1084360D01*
X1814472Y1083925D01*
X1814037Y1083274D01*
X1813884Y1082506D01*
X1814037Y1081738D01*
X1814472Y1081087D01*
X1815123Y1080651D01*
X1815891Y1080499D01*
X1816659Y1080651D01*
X1817310Y1081087D01*
X1817745Y1081738D01*
X1817898Y1082506D01*
X1817745Y1083274D01*
X1817310Y1083925D01*
X1816659Y1084360D01*
X1815891Y1084513D01*
D02*
G37*
G36*
X1810500Y1090007D02*
X1809732Y1089854D01*
X1809081Y1089419D01*
X1808646Y1088768D01*
X1808493Y1088000D01*
X1808646Y1087232D01*
X1809081Y1086581D01*
X1809732Y1086146D01*
X1810500Y1085993D01*
X1811268Y1086146D01*
X1811919Y1086581D01*
X1812354Y1087232D01*
X1812507Y1088000D01*
X1812354Y1088768D01*
X1811919Y1089419D01*
X1811268Y1089854D01*
X1810500Y1090007D01*
D02*
G37*
G36*
X1803000Y1095007D02*
X1802232Y1094854D01*
X1801581Y1094419D01*
X1801146Y1093768D01*
X1800993Y1093000D01*
X1801146Y1092232D01*
X1801581Y1091581D01*
X1802232Y1091146D01*
X1803000Y1090993D01*
X1803768Y1091146D01*
X1804419Y1091581D01*
X1804854Y1092232D01*
X1805007Y1093000D01*
X1804854Y1093768D01*
X1804419Y1094419D01*
X1803768Y1094854D01*
X1803000Y1095007D01*
D02*
G37*
G36*
X1876500Y1080507D02*
X1875732Y1080354D01*
X1875081Y1079919D01*
X1874646Y1079268D01*
X1874493Y1078500D01*
X1874646Y1077732D01*
X1875081Y1077081D01*
X1875732Y1076646D01*
X1876500Y1076493D01*
X1877268Y1076646D01*
X1877919Y1077081D01*
X1878354Y1077732D01*
X1878507Y1078500D01*
X1878354Y1079268D01*
X1877919Y1079919D01*
X1877268Y1080354D01*
X1876500Y1080507D01*
D02*
G37*
G36*
X1751000Y1071757D02*
X1750232Y1071604D01*
X1749581Y1071169D01*
X1749146Y1070518D01*
X1748993Y1069750D01*
X1749146Y1068982D01*
X1749581Y1068331D01*
X1750232Y1067896D01*
X1751000Y1067743D01*
X1751768Y1067896D01*
X1752419Y1068331D01*
X1752854Y1068982D01*
X1753007Y1069750D01*
X1752854Y1070518D01*
X1752419Y1071169D01*
X1751768Y1071604D01*
X1751000Y1071757D01*
D02*
G37*
G36*
X1871000Y1074507D02*
X1870232Y1074354D01*
X1869581Y1073919D01*
X1869146Y1073268D01*
X1868993Y1072500D01*
X1869146Y1071732D01*
X1869581Y1071081D01*
X1870232Y1070646D01*
X1871000Y1070493D01*
X1871768Y1070646D01*
X1872419Y1071081D01*
X1872854Y1071732D01*
X1873007Y1072500D01*
X1872854Y1073268D01*
X1872419Y1073919D01*
X1871768Y1074354D01*
X1871000Y1074507D01*
D02*
G37*
G36*
X1866000Y1080507D02*
X1865232Y1080354D01*
X1864581Y1079919D01*
X1864146Y1079268D01*
X1863993Y1078500D01*
X1864146Y1077732D01*
X1864581Y1077081D01*
X1865232Y1076646D01*
X1866000Y1076493D01*
X1866768Y1076646D01*
X1867419Y1077081D01*
X1867854Y1077732D01*
X1868007Y1078500D01*
X1867854Y1079268D01*
X1867419Y1079919D01*
X1866768Y1080354D01*
X1866000Y1080507D01*
D02*
G37*
G36*
X1735709Y1123709D02*
X1724291D01*
Y1112291D01*
X1735709D01*
Y1123709D01*
D02*
G37*
G36*
X1730000Y1142829D02*
X1728750Y1142664D01*
X1727586Y1142182D01*
X1726586Y1141414D01*
X1725818Y1140414D01*
X1725336Y1139250D01*
X1725171Y1138000D01*
X1725336Y1136750D01*
X1725818Y1135586D01*
X1726586Y1134586D01*
X1727586Y1133818D01*
X1728750Y1133336D01*
X1730000Y1133171D01*
X1731250Y1133336D01*
X1732414Y1133818D01*
X1733414Y1134586D01*
X1734182Y1135586D01*
X1734664Y1136750D01*
X1734829Y1138000D01*
X1734664Y1139250D01*
X1734182Y1140414D01*
X1733414Y1141414D01*
X1732414Y1142182D01*
X1731250Y1142664D01*
X1730000Y1142829D01*
D02*
G37*
G36*
X1785037Y1146537D02*
X1775963D01*
Y1137463D01*
X1785037D01*
Y1146537D01*
D02*
G37*
G36*
X1794500Y1146507D02*
X1793732Y1146354D01*
X1793081Y1145919D01*
X1792646Y1145268D01*
X1792493Y1144500D01*
X1792646Y1143732D01*
X1793081Y1143081D01*
X1793732Y1142646D01*
X1794500Y1142493D01*
X1795268Y1142646D01*
X1795919Y1143081D01*
X1796354Y1143732D01*
X1796507Y1144500D01*
X1796354Y1145268D01*
X1795919Y1145919D01*
X1795268Y1146354D01*
X1794500Y1146507D01*
D02*
G37*
G36*
X1832000Y1137007D02*
X1831232Y1136854D01*
X1830581Y1136419D01*
X1830146Y1135768D01*
X1829993Y1135000D01*
X1830146Y1134232D01*
X1830581Y1133581D01*
X1831232Y1133146D01*
X1832000Y1132993D01*
X1832768Y1133146D01*
X1833419Y1133581D01*
X1833854Y1134232D01*
X1834007Y1135000D01*
X1833854Y1135768D01*
X1833419Y1136419D01*
X1832768Y1136854D01*
X1832000Y1137007D01*
D02*
G37*
G36*
X1794000Y1126007D02*
X1793232Y1125854D01*
X1792581Y1125419D01*
X1792146Y1124768D01*
X1791993Y1124000D01*
X1792146Y1123232D01*
X1792581Y1122581D01*
X1793232Y1122146D01*
X1794000Y1121993D01*
X1794768Y1122146D01*
X1795419Y1122581D01*
X1795854Y1123232D01*
X1796007Y1124000D01*
X1795854Y1124768D01*
X1795419Y1125419D01*
X1794768Y1125854D01*
X1794000Y1126007D01*
D02*
G37*
G36*
X1810200Y1132018D02*
X1809290Y1131898D01*
X1808441Y1131546D01*
X1807713Y1130987D01*
X1807154Y1130259D01*
X1806802Y1129410D01*
X1806683Y1128500D01*
X1806802Y1127590D01*
X1807154Y1126741D01*
X1807713Y1126013D01*
X1808441Y1125454D01*
X1809290Y1125102D01*
X1810200Y1124982D01*
X1811110Y1125102D01*
X1811959Y1125454D01*
X1812687Y1126013D01*
X1813246Y1126741D01*
X1813598Y1127590D01*
X1813717Y1128500D01*
X1813598Y1129410D01*
X1813246Y1130259D01*
X1812687Y1130987D01*
X1811959Y1131546D01*
X1811110Y1131898D01*
X1810200Y1132018D01*
D02*
G37*
G36*
X1835795D02*
X1834885Y1131898D01*
X1834036Y1131546D01*
X1833308Y1130987D01*
X1832749Y1130259D01*
X1832398Y1129410D01*
X1832278Y1128500D01*
X1832398Y1127590D01*
X1832749Y1126741D01*
X1833308Y1126013D01*
X1834036Y1125454D01*
X1834885Y1125102D01*
X1835795Y1124982D01*
X1836706Y1125102D01*
X1837554Y1125454D01*
X1838283Y1126013D01*
X1838841Y1126741D01*
X1839193Y1127590D01*
X1839313Y1128500D01*
X1839193Y1129410D01*
X1838841Y1130259D01*
X1838283Y1130987D01*
X1837554Y1131546D01*
X1836706Y1131898D01*
X1835795Y1132018D01*
D02*
G37*
G36*
X1741000Y1065257D02*
X1740232Y1065104D01*
X1739581Y1064669D01*
X1739146Y1064018D01*
X1738993Y1063250D01*
X1739146Y1062482D01*
X1739581Y1061831D01*
X1740232Y1061396D01*
X1741000Y1061243D01*
X1741768Y1061396D01*
X1742419Y1061831D01*
X1742854Y1062482D01*
X1743007Y1063250D01*
X1742854Y1064018D01*
X1742419Y1064669D01*
X1741768Y1065104D01*
X1741000Y1065257D01*
D02*
G37*
G36*
X1751000D02*
X1750232Y1065104D01*
X1749581Y1064669D01*
X1749146Y1064018D01*
X1748993Y1063250D01*
X1749146Y1062482D01*
X1749581Y1061831D01*
X1750232Y1061396D01*
X1751000Y1061243D01*
X1751768Y1061396D01*
X1752419Y1061831D01*
X1752854Y1062482D01*
X1753007Y1063250D01*
X1752854Y1064018D01*
X1752419Y1064669D01*
X1751768Y1065104D01*
X1751000Y1065257D01*
D02*
G37*
G36*
X1840000Y1066507D02*
X1839232Y1066354D01*
X1838581Y1065919D01*
X1838146Y1065268D01*
X1837993Y1064500D01*
X1838146Y1063732D01*
X1838581Y1063081D01*
X1839232Y1062646D01*
X1840000Y1062493D01*
X1840768Y1062646D01*
X1841419Y1063081D01*
X1841854Y1063732D01*
X1842007Y1064500D01*
X1841854Y1065268D01*
X1841419Y1065919D01*
X1840768Y1066354D01*
X1840000Y1066507D01*
D02*
G37*
G36*
X1773378Y1055421D02*
Y1052878D01*
X1775921D01*
X1775625Y1053593D01*
X1774960Y1054459D01*
X1774093Y1055125D01*
X1773378Y1055421D01*
D02*
G37*
G36*
X1747122D02*
X1746407Y1055125D01*
X1745540Y1054459D01*
X1744875Y1053593D01*
X1744579Y1052878D01*
X1747122D01*
Y1055421D01*
D02*
G37*
G36*
X1749878D02*
Y1052878D01*
X1752421D01*
X1752125Y1053593D01*
X1751460Y1054459D01*
X1750593Y1055125D01*
X1749878Y1055421D01*
D02*
G37*
G36*
X1770622D02*
X1769907Y1055125D01*
X1769040Y1054459D01*
X1768375Y1053593D01*
X1768079Y1052878D01*
X1770622D01*
Y1055421D01*
D02*
G37*
G36*
X1894500Y1067007D02*
X1893732Y1066854D01*
X1893081Y1066419D01*
X1892646Y1065768D01*
X1892493Y1065000D01*
X1892646Y1064232D01*
X1893081Y1063581D01*
X1893732Y1063146D01*
X1894500Y1062993D01*
X1895268Y1063146D01*
X1895919Y1063581D01*
X1896354Y1064232D01*
X1896507Y1065000D01*
X1896354Y1065768D01*
X1895919Y1066419D01*
X1895268Y1066854D01*
X1894500Y1067007D01*
D02*
G37*
G36*
X1736000Y1068507D02*
X1735232Y1068354D01*
X1734581Y1067919D01*
X1734146Y1067268D01*
X1733993Y1066500D01*
X1734146Y1065732D01*
X1734581Y1065081D01*
X1735232Y1064646D01*
X1736000Y1064493D01*
X1736768Y1064646D01*
X1737419Y1065081D01*
X1737854Y1065732D01*
X1738007Y1066500D01*
X1737854Y1067268D01*
X1737419Y1067919D01*
X1736768Y1068354D01*
X1736000Y1068507D01*
D02*
G37*
G36*
X1746000D02*
X1745232Y1068354D01*
X1744581Y1067919D01*
X1744146Y1067268D01*
X1743993Y1066500D01*
X1744146Y1065732D01*
X1744581Y1065081D01*
X1745232Y1064646D01*
X1746000Y1064493D01*
X1746768Y1064646D01*
X1747419Y1065081D01*
X1747854Y1065732D01*
X1748007Y1066500D01*
X1747854Y1067268D01*
X1747419Y1067919D01*
X1746768Y1068354D01*
X1746000Y1068507D01*
D02*
G37*
G36*
X1741000Y1071757D02*
X1740232Y1071604D01*
X1739581Y1071169D01*
X1739146Y1070518D01*
X1738993Y1069750D01*
X1739146Y1068982D01*
X1739581Y1068331D01*
X1740232Y1067896D01*
X1741000Y1067743D01*
X1741768Y1067896D01*
X1742419Y1068331D01*
X1742854Y1068982D01*
X1743007Y1069750D01*
X1742854Y1070518D01*
X1742419Y1071169D01*
X1741768Y1071604D01*
X1741000Y1071757D01*
D02*
G37*
G36*
X1876500Y1068007D02*
X1875732Y1067854D01*
X1875081Y1067419D01*
X1874646Y1066768D01*
X1874493Y1066000D01*
X1874646Y1065232D01*
X1875081Y1064581D01*
X1875732Y1064146D01*
X1876500Y1063993D01*
X1877268Y1064146D01*
X1877919Y1064581D01*
X1878354Y1065232D01*
X1878507Y1066000D01*
X1878354Y1066768D01*
X1877919Y1067419D01*
X1877268Y1067854D01*
X1876500Y1068007D01*
D02*
G37*
G36*
X1885000Y1067507D02*
X1884232Y1067354D01*
X1883581Y1066919D01*
X1883146Y1066268D01*
X1882993Y1065500D01*
X1883146Y1064732D01*
X1883581Y1064081D01*
X1884232Y1063646D01*
X1885000Y1063493D01*
X1885768Y1063646D01*
X1886419Y1064081D01*
X1886854Y1064732D01*
X1887007Y1065500D01*
X1886854Y1066268D01*
X1886419Y1066919D01*
X1885768Y1067354D01*
X1885000Y1067507D01*
D02*
G37*
G36*
X1904500D02*
X1903732Y1067354D01*
X1903081Y1066919D01*
X1902646Y1066268D01*
X1902493Y1065500D01*
X1902646Y1064732D01*
X1903081Y1064081D01*
X1903732Y1063646D01*
X1904500Y1063493D01*
X1905268Y1063646D01*
X1905919Y1064081D01*
X1906354Y1064732D01*
X1906507Y1065500D01*
X1906354Y1066268D01*
X1905919Y1066919D01*
X1905268Y1067354D01*
X1904500Y1067507D01*
D02*
G37*
G36*
X1866000Y1068007D02*
X1865232Y1067854D01*
X1864581Y1067419D01*
X1864146Y1066768D01*
X1863993Y1066000D01*
X1864146Y1065232D01*
X1864581Y1064581D01*
X1865232Y1064146D01*
X1866000Y1063993D01*
X1866768Y1064146D01*
X1867419Y1064581D01*
X1867854Y1065232D01*
X1868007Y1066000D01*
X1867854Y1066768D01*
X1867419Y1067419D01*
X1866768Y1067854D01*
X1866000Y1068007D01*
D02*
G37*
G36*
X1862764Y988507D02*
X1861996Y988354D01*
X1861345Y987919D01*
X1860909Y987268D01*
X1860757Y986500D01*
X1860909Y985732D01*
X1861345Y985081D01*
X1861996Y984646D01*
X1862764Y984493D01*
X1863532Y984646D01*
X1864183Y985081D01*
X1864618Y985732D01*
X1864771Y986500D01*
X1864618Y987268D01*
X1864183Y987919D01*
X1863532Y988354D01*
X1862764Y988507D01*
D02*
G37*
G36*
X2027500Y989507D02*
X2026732Y989354D01*
X2026081Y988919D01*
X2025646Y988268D01*
X2025493Y987500D01*
X2025646Y986732D01*
X2026081Y986081D01*
X2026732Y985646D01*
X2027500Y985493D01*
X2028268Y985646D01*
X2028919Y986081D01*
X2029354Y986732D01*
X2029507Y987500D01*
X2029354Y988268D01*
X2028919Y988919D01*
X2028268Y989354D01*
X2027500Y989507D01*
D02*
G37*
G36*
X1987000Y990007D02*
X1986232Y989854D01*
X1985581Y989419D01*
X1985146Y988768D01*
X1984993Y988000D01*
X1985146Y987232D01*
X1985581Y986581D01*
X1986232Y986146D01*
X1987000Y985993D01*
X1987768Y986146D01*
X1988419Y986581D01*
X1988854Y987232D01*
X1989007Y988000D01*
X1988854Y988768D01*
X1988419Y989419D01*
X1987768Y989854D01*
X1987000Y990007D01*
D02*
G37*
G36*
X1887500Y986507D02*
X1886732Y986354D01*
X1886081Y985919D01*
X1885646Y985268D01*
X1885493Y984500D01*
X1885646Y983732D01*
X1886081Y983081D01*
X1886732Y982646D01*
X1887500Y982493D01*
X1888268Y982646D01*
X1888919Y983081D01*
X1889354Y983732D01*
X1889507Y984500D01*
X1889354Y985268D01*
X1888919Y985919D01*
X1888268Y986354D01*
X1887500Y986507D01*
D02*
G37*
G36*
X1791563Y984622D02*
X1784951D01*
X1784971Y984415D01*
X1785434Y982890D01*
X1786185Y981486D01*
X1787195Y980254D01*
X1788427Y979244D01*
X1789831Y978493D01*
X1791356Y978030D01*
X1791563Y978010D01*
Y984622D01*
D02*
G37*
G36*
X1800931D02*
X1794319D01*
Y978010D01*
X1794526Y978030D01*
X1796050Y978493D01*
X1797455Y979244D01*
X1798687Y980254D01*
X1799697Y981486D01*
X1800448Y982890D01*
X1800911Y984415D01*
X1800931Y984622D01*
D02*
G37*
G36*
X1932000Y984007D02*
X1931232Y983854D01*
X1930581Y983419D01*
X1930146Y982768D01*
X1929993Y982000D01*
X1930146Y981232D01*
X1930581Y980581D01*
X1931232Y980146D01*
X1932000Y979993D01*
X1932768Y980146D01*
X1933419Y980581D01*
X1933854Y981232D01*
X1934007Y982000D01*
X1933854Y982768D01*
X1933419Y983419D01*
X1932768Y983854D01*
X1932000Y984007D01*
D02*
G37*
G36*
X1746681Y993990D02*
X1746474Y993970D01*
X1744950Y993507D01*
X1743545Y992756D01*
X1742313Y991746D01*
X1741303Y990514D01*
X1740552Y989110D01*
X1740089Y987585D01*
X1740069Y987378D01*
X1746681D01*
Y993990D01*
D02*
G37*
G36*
X1873000Y998507D02*
X1872232Y998354D01*
X1871581Y997919D01*
X1871146Y997268D01*
X1870993Y996500D01*
X1871146Y995732D01*
X1871475Y995238D01*
X1871581Y995081D01*
X1871376Y994616D01*
X1871081Y994419D01*
X1870646Y993768D01*
X1870493Y993000D01*
X1870646Y992232D01*
X1871081Y991581D01*
X1871732Y991146D01*
X1872500Y990993D01*
X1873268Y991146D01*
X1873919Y991581D01*
X1874354Y992232D01*
X1874507Y993000D01*
X1874354Y993768D01*
X1874025Y994261D01*
X1873919Y994419D01*
X1874124Y994884D01*
X1874419Y995081D01*
X1874854Y995732D01*
X1875007Y996500D01*
X1874854Y997268D01*
X1874419Y997919D01*
X1873768Y998354D01*
X1873000Y998507D01*
D02*
G37*
G36*
X2034500Y997507D02*
X2033732Y997354D01*
X2033081Y996919D01*
X2032646Y996268D01*
X2032493Y995500D01*
X2032646Y994732D01*
X2033081Y994081D01*
X2033732Y993646D01*
X2034500Y993493D01*
X2035268Y993646D01*
X2035919Y994081D01*
X2036354Y994732D01*
X2036507Y995500D01*
X2036354Y996268D01*
X2035919Y996919D01*
X2035268Y997354D01*
X2034500Y997507D01*
D02*
G37*
G36*
X1770500Y998507D02*
X1769732Y998354D01*
X1769081Y997919D01*
X1768646Y997268D01*
X1768493Y996500D01*
X1768646Y995732D01*
X1769081Y995081D01*
X1769732Y994646D01*
X1770500Y994493D01*
X1771268Y994646D01*
X1771919Y995081D01*
X1772354Y995732D01*
X1772507Y996500D01*
X1772354Y997268D01*
X1771919Y997919D01*
X1771268Y998354D01*
X1770500Y998507D01*
D02*
G37*
G36*
X2091000Y993007D02*
X2090232Y992854D01*
X2089581Y992419D01*
X2089146Y991768D01*
X2088993Y991000D01*
X2089146Y990232D01*
X2089581Y989581D01*
X2090232Y989146D01*
X2091000Y988993D01*
X2091768Y989146D01*
X2092419Y989581D01*
X2092854Y990232D01*
X2093007Y991000D01*
X2092854Y991768D01*
X2092419Y992419D01*
X2091768Y992854D01*
X2091000Y993007D01*
D02*
G37*
G36*
X1749437Y993990D02*
Y987378D01*
X1756049D01*
X1756029Y987585D01*
X1755566Y989110D01*
X1754815Y990514D01*
X1753805Y991746D01*
X1752574Y992756D01*
X1751169Y993507D01*
X1749644Y993970D01*
X1749437Y993990D01*
D02*
G37*
G36*
X1791563D02*
X1791356Y993970D01*
X1789831Y993507D01*
X1788427Y992756D01*
X1787195Y991746D01*
X1786185Y990514D01*
X1785434Y989110D01*
X1784971Y987585D01*
X1784951Y987378D01*
X1791563D01*
Y993990D01*
D02*
G37*
G36*
X1794319D02*
Y987378D01*
X1800931D01*
X1800911Y987585D01*
X1800448Y989110D01*
X1799697Y990514D01*
X1798687Y991746D01*
X1797455Y992756D01*
X1796050Y993507D01*
X1794526Y993970D01*
X1794319Y993990D01*
D02*
G37*
G36*
X2004500Y972007D02*
X2003732Y971854D01*
X2003081Y971419D01*
X2002646Y970768D01*
X2002493Y970000D01*
X2002646Y969232D01*
X2003081Y968581D01*
X2003732Y968146D01*
X2004500Y967993D01*
X2005268Y968146D01*
X2005919Y968581D01*
X2006354Y969232D01*
X2006507Y970000D01*
X2006354Y970768D01*
X2005919Y971419D01*
X2005268Y971854D01*
X2004500Y972007D01*
D02*
G37*
G36*
X1852000Y973507D02*
X1851232Y973354D01*
X1850581Y972919D01*
X1850146Y972268D01*
X1849993Y971500D01*
X1850146Y970732D01*
X1850581Y970081D01*
X1851232Y969646D01*
X1852000Y969493D01*
X1852768Y969646D01*
X1853419Y970081D01*
X1853854Y970732D01*
X1854007Y971500D01*
X1853854Y972268D01*
X1853419Y972919D01*
X1852768Y973354D01*
X1852000Y973507D01*
D02*
G37*
G36*
X1967500D02*
X1966732Y973354D01*
X1966081Y972919D01*
X1965646Y972268D01*
X1965493Y971500D01*
X1965646Y970732D01*
X1966081Y970081D01*
X1966732Y969646D01*
X1967500Y969493D01*
X1968268Y969646D01*
X1968919Y970081D01*
X1969354Y970732D01*
X1969507Y971500D01*
X1969354Y972268D01*
X1968919Y972919D01*
X1968268Y973354D01*
X1967500Y973507D01*
D02*
G37*
G36*
X1836500Y975320D02*
X1835511Y975190D01*
X1834590Y974808D01*
X1833799Y974201D01*
X1833192Y973410D01*
X1832810Y972489D01*
X1832680Y971500D01*
X1832810Y970511D01*
X1833192Y969590D01*
X1833799Y968799D01*
X1834590Y968192D01*
X1835511Y967810D01*
X1836500Y967680D01*
X1837489Y967810D01*
X1838410Y968192D01*
X1839201Y968799D01*
X1839808Y969590D01*
X1840190Y970511D01*
X1840320Y971500D01*
X1840190Y972489D01*
X1839808Y973410D01*
X1839201Y974201D01*
X1838410Y974808D01*
X1837489Y975190D01*
X1836500Y975320D01*
D02*
G37*
G36*
X2007000Y967507D02*
X2006232Y967354D01*
X2005581Y966919D01*
X2005146Y966268D01*
X2004993Y965500D01*
X2005146Y964732D01*
X2005581Y964081D01*
X2006232Y963646D01*
X2007000Y963493D01*
X2007768Y963646D01*
X2008419Y964081D01*
X2008854Y964732D01*
X2009007Y965500D01*
X2008854Y966268D01*
X2008419Y966919D01*
X2007768Y967354D01*
X2007000Y967507D01*
D02*
G37*
G36*
X1803000Y968007D02*
X1802232Y967854D01*
X1801581Y967419D01*
X1801146Y966768D01*
X1800993Y966000D01*
X1801146Y965232D01*
X1801581Y964581D01*
X1802232Y964146D01*
X1803000Y963993D01*
X1803768Y964146D01*
X1804419Y964581D01*
X1804854Y965232D01*
X1805007Y966000D01*
X1804854Y966768D01*
X1804419Y967419D01*
X1803768Y967854D01*
X1803000Y968007D01*
D02*
G37*
G36*
X1786000Y970007D02*
X1785232Y969854D01*
X1784581Y969419D01*
X1784146Y968768D01*
X1783993Y968000D01*
X1784146Y967232D01*
X1784581Y966581D01*
X1785232Y966146D01*
X1786000Y965993D01*
X1786768Y966146D01*
X1787419Y966581D01*
X1787854Y967232D01*
X1788007Y968000D01*
X1787854Y968768D01*
X1787419Y969419D01*
X1786768Y969854D01*
X1786000Y970007D01*
D02*
G37*
G36*
X1771000Y974007D02*
X1770232Y973854D01*
X1769581Y973419D01*
X1769146Y972768D01*
X1768993Y972000D01*
X1769146Y971232D01*
X1769581Y970581D01*
X1770232Y970146D01*
X1771000Y969993D01*
X1771768Y970146D01*
X1772419Y970581D01*
X1772854Y971232D01*
X1773007Y972000D01*
X1772854Y972768D01*
X1772419Y973419D01*
X1771768Y973854D01*
X1771000Y974007D01*
D02*
G37*
G36*
X2088500Y980731D02*
X2087732Y980579D01*
X2087081Y980144D01*
X2086646Y979492D01*
X2086493Y978724D01*
X2086646Y977956D01*
X2087081Y977305D01*
X2087732Y976870D01*
X2088500Y976717D01*
X2089268Y976870D01*
X2089919Y977305D01*
X2090354Y977956D01*
X2090507Y978724D01*
X2090354Y979492D01*
X2089919Y980144D01*
X2089268Y980579D01*
X2088500Y980731D01*
D02*
G37*
G36*
X1746681Y984622D02*
X1740069D01*
X1740089Y984415D01*
X1740552Y982890D01*
X1741303Y981486D01*
X1742313Y980254D01*
X1743545Y979244D01*
X1744950Y978493D01*
X1746474Y978030D01*
X1746681Y978010D01*
Y984622D01*
D02*
G37*
G36*
X1756049D02*
X1749437D01*
Y978010D01*
X1749644Y978030D01*
X1751169Y978493D01*
X1752574Y979244D01*
X1753805Y980254D01*
X1754815Y981486D01*
X1755566Y982890D01*
X1756029Y984415D01*
X1756049Y984622D01*
D02*
G37*
G36*
X2074000Y978007D02*
X2073232Y977854D01*
X2072581Y977419D01*
X2072146Y976768D01*
X2071993Y976000D01*
X2072146Y975232D01*
X2072581Y974581D01*
X2073232Y974146D01*
X2074000Y973993D01*
X2074768Y974146D01*
X2075419Y974581D01*
X2075854Y975232D01*
X2076007Y976000D01*
X2075854Y976768D01*
X2075419Y977419D01*
X2074768Y977854D01*
X2074000Y978007D01*
D02*
G37*
G36*
X1926000Y976007D02*
X1925232Y975854D01*
X1924581Y975419D01*
X1924146Y974768D01*
X1923993Y974000D01*
X1924146Y973232D01*
X1924581Y972581D01*
X1925232Y972146D01*
X1926000Y971993D01*
X1926768Y972146D01*
X1927419Y972581D01*
X1927854Y973232D01*
X1928007Y974000D01*
X1927854Y974768D01*
X1927419Y975419D01*
X1926768Y975854D01*
X1926000Y976007D01*
D02*
G37*
G36*
X1911000Y977007D02*
X1910232Y976854D01*
X1909581Y976419D01*
X1909146Y975768D01*
X1908993Y975000D01*
X1909146Y974232D01*
X1909581Y973581D01*
X1910232Y973146D01*
X1911000Y972993D01*
X1911768Y973146D01*
X1912419Y973581D01*
X1912854Y974232D01*
X1913007Y975000D01*
X1912854Y975768D01*
X1912419Y976419D01*
X1911768Y976854D01*
X1911000Y977007D01*
D02*
G37*
G36*
X2024500Y978007D02*
X2023732Y977854D01*
X2023081Y977419D01*
X2022646Y976768D01*
X2022493Y976000D01*
X2022646Y975232D01*
X2023081Y974581D01*
X2023732Y974146D01*
X2024500Y973993D01*
X2025268Y974146D01*
X2025919Y974581D01*
X2026354Y975232D01*
X2026507Y976000D01*
X2026354Y976768D01*
X2025919Y977419D01*
X2025268Y977854D01*
X2024500Y978007D01*
D02*
G37*
G36*
X1892000Y1014507D02*
X1891232Y1014354D01*
X1890581Y1013919D01*
X1890146Y1013268D01*
X1889993Y1012500D01*
X1890146Y1011732D01*
X1890581Y1011081D01*
X1891232Y1010646D01*
X1892000Y1010493D01*
X1892768Y1010646D01*
X1893419Y1011081D01*
X1893854Y1011732D01*
X1894007Y1012500D01*
X1893854Y1013268D01*
X1893419Y1013919D01*
X1892768Y1014354D01*
X1892000Y1014507D01*
D02*
G37*
G36*
X2079000Y1016007D02*
X2078232Y1015854D01*
X2077581Y1015419D01*
X2077146Y1014768D01*
X2076993Y1014000D01*
X2077146Y1013232D01*
X2077581Y1012581D01*
X2078232Y1012146D01*
X2079000Y1011993D01*
X2079768Y1012146D01*
X2080020Y1012314D01*
X2080576Y1012084D01*
X2080646Y1011732D01*
X2081081Y1011081D01*
X2081732Y1010646D01*
X2082500Y1010493D01*
X2083268Y1010646D01*
X2083919Y1011081D01*
X2084354Y1011732D01*
X2084507Y1012500D01*
X2084354Y1013268D01*
X2083919Y1013919D01*
X2083268Y1014354D01*
X2082500Y1014507D01*
X2081732Y1014354D01*
X2081480Y1014186D01*
X2080924Y1014416D01*
X2080854Y1014768D01*
X2080419Y1015419D01*
X2079768Y1015854D01*
X2079000Y1016007D01*
D02*
G37*
G36*
X2065500Y1015007D02*
X2064732Y1014854D01*
X2064081Y1014419D01*
X2063646Y1013768D01*
X2063493Y1013000D01*
X2063646Y1012232D01*
X2064081Y1011581D01*
X2064732Y1011146D01*
X2065500Y1010993D01*
X2066268Y1011146D01*
X2066919Y1011581D01*
X2067354Y1012232D01*
X2067507Y1013000D01*
X2067354Y1013768D01*
X2066919Y1014419D01*
X2066268Y1014854D01*
X2065500Y1015007D01*
D02*
G37*
G36*
X2048472Y1014231D02*
X2047704Y1014079D01*
X2047053Y1013644D01*
X2046618Y1012992D01*
X2046465Y1012224D01*
X2046618Y1011456D01*
X2047053Y1010805D01*
X2047704Y1010370D01*
X2048472Y1010217D01*
X2049240Y1010370D01*
X2049892Y1010805D01*
X2050327Y1011456D01*
X2050480Y1012224D01*
X2050327Y1012992D01*
X2049892Y1013644D01*
X2049240Y1014079D01*
X2048472Y1014231D01*
D02*
G37*
G36*
X1778965Y1012181D02*
X1776390D01*
Y1009606D01*
X1778965D01*
Y1012181D01*
D02*
G37*
G36*
X1784295D02*
X1781721D01*
Y1009606D01*
X1784295D01*
Y1012181D01*
D02*
G37*
G36*
X1760658Y1017332D02*
X1759681Y1017203D01*
X1758771Y1016826D01*
X1757990Y1016227D01*
X1757391Y1015445D01*
X1757014Y1014535D01*
X1756885Y1013559D01*
X1757014Y1012583D01*
X1757391Y1011673D01*
X1757990Y1010892D01*
X1758771Y1010292D01*
X1759681Y1009915D01*
X1760658Y1009787D01*
X1761634Y1009915D01*
X1762544Y1010292D01*
X1763325Y1010892D01*
X1763924Y1011673D01*
X1764301Y1012583D01*
X1764430Y1013559D01*
X1764301Y1014535D01*
X1763924Y1015445D01*
X1763325Y1016227D01*
X1762544Y1016826D01*
X1761634Y1017203D01*
X1760658Y1017332D01*
D02*
G37*
G36*
X1857500Y1016287D02*
X1856732Y1016134D01*
X1856081Y1015699D01*
X1855646Y1015048D01*
X1855493Y1014279D01*
X1855646Y1013511D01*
X1856081Y1012860D01*
X1856732Y1012425D01*
X1857500Y1012272D01*
X1858268Y1012425D01*
X1858919Y1012860D01*
X1859354Y1013511D01*
X1859507Y1014279D01*
X1859354Y1015048D01*
X1858919Y1015699D01*
X1858268Y1016134D01*
X1857500Y1016287D01*
D02*
G37*
G36*
X1784295Y1017512D02*
X1781721D01*
Y1014937D01*
X1784295D01*
Y1017512D01*
D02*
G37*
G36*
X1969500Y1022007D02*
X1968732Y1021854D01*
X1968081Y1021419D01*
X1967646Y1020768D01*
X1967493Y1020000D01*
X1967646Y1019232D01*
X1968081Y1018581D01*
X1968732Y1018146D01*
X1969500Y1017993D01*
X1970268Y1018146D01*
X1970919Y1018581D01*
X1971354Y1019232D01*
X1971507Y1020000D01*
X1971354Y1020768D01*
X1970919Y1021419D01*
X1970268Y1021854D01*
X1969500Y1022007D01*
D02*
G37*
G36*
X1833000Y1024507D02*
X1832232Y1024354D01*
X1831581Y1023919D01*
X1831146Y1023268D01*
X1830993Y1022500D01*
X1831146Y1021732D01*
X1831581Y1021081D01*
X1832232Y1020646D01*
X1833000Y1020493D01*
X1833768Y1020646D01*
X1834419Y1021081D01*
X1834854Y1021732D01*
X1835007Y1022500D01*
X1834854Y1023268D01*
X1834419Y1023919D01*
X1833768Y1024354D01*
X1833000Y1024507D01*
D02*
G37*
G36*
X1778965Y1017512D02*
X1776390D01*
Y1014937D01*
X1778965D01*
Y1017512D01*
D02*
G37*
G36*
X1865500Y1016507D02*
X1864732Y1016354D01*
X1864081Y1015919D01*
X1863646Y1015268D01*
X1863493Y1014500D01*
X1863646Y1013732D01*
X1864081Y1013081D01*
X1864732Y1012646D01*
X1865500Y1012493D01*
X1866268Y1012646D01*
X1866919Y1013081D01*
X1867354Y1013732D01*
X1867507Y1014500D01*
X1867354Y1015268D01*
X1866919Y1015919D01*
X1866268Y1016354D01*
X1865500Y1016507D01*
D02*
G37*
G36*
X1872000Y1018007D02*
X1871232Y1017854D01*
X1870581Y1017419D01*
X1870146Y1016768D01*
X1869993Y1016000D01*
X1870146Y1015232D01*
X1870581Y1014581D01*
X1871232Y1014146D01*
X1872000Y1013993D01*
X1872768Y1014146D01*
X1873419Y1014581D01*
X1873854Y1015232D01*
X1874007Y1016000D01*
X1873854Y1016768D01*
X1873419Y1017419D01*
X1872768Y1017854D01*
X1872000Y1018007D01*
D02*
G37*
G36*
X2055500Y1018507D02*
X2054732Y1018354D01*
X2054081Y1017919D01*
X2053646Y1017268D01*
X2053493Y1016500D01*
X2053646Y1015732D01*
X2054081Y1015081D01*
X2054732Y1014646D01*
X2055500Y1014493D01*
X2056268Y1014646D01*
X2056919Y1015081D01*
X2057354Y1015732D01*
X2057507Y1016500D01*
X2057354Y1017268D01*
X2056919Y1017919D01*
X2056268Y1018354D01*
X2055500Y1018507D01*
D02*
G37*
G36*
X1870000Y1003991D02*
X1869232Y1003839D01*
X1868581Y1003403D01*
X1868146Y1002752D01*
X1867993Y1001984D01*
X1868146Y1001216D01*
X1868581Y1000565D01*
X1869232Y1000130D01*
X1870000Y999977D01*
X1870768Y1000130D01*
X1871419Y1000565D01*
X1871854Y1001216D01*
X1872007Y1001984D01*
X1871854Y1002752D01*
X1871419Y1003403D01*
X1870768Y1003839D01*
X1870000Y1003991D01*
D02*
G37*
G36*
X2020500Y1004507D02*
X2019732Y1004354D01*
X2019081Y1003919D01*
X2018646Y1003268D01*
X2018493Y1002500D01*
X2018646Y1001732D01*
X2019081Y1001081D01*
X2019732Y1000646D01*
X2020500Y1000493D01*
X2021268Y1000646D01*
X2021919Y1001081D01*
X2022354Y1001732D01*
X2022507Y1002500D01*
X2022354Y1003268D01*
X2021919Y1003919D01*
X2021268Y1004354D01*
X2020500Y1004507D01*
D02*
G37*
G36*
X1849000Y1004007D02*
X1848232Y1003854D01*
X1847581Y1003419D01*
X1847146Y1002768D01*
X1846993Y1002000D01*
X1847042Y1001754D01*
X1846713Y1001425D01*
X1846228Y1001647D01*
X1846104Y1002268D01*
X1845669Y1002919D01*
X1845018Y1003354D01*
X1844250Y1003507D01*
X1843482Y1003354D01*
X1842831Y1002919D01*
X1842396Y1002268D01*
X1842243Y1001500D01*
X1842396Y1000732D01*
X1842831Y1000081D01*
X1843482Y999646D01*
X1844103Y999522D01*
X1844325Y999037D01*
X1833065Y987778D01*
X1817700D01*
X1817411Y988477D01*
X1816804Y989268D01*
X1816012Y989875D01*
X1815091Y990257D01*
X1814102Y990387D01*
X1813114Y990257D01*
X1812192Y989875D01*
X1811401Y989268D01*
X1810794Y988477D01*
X1810412Y987556D01*
X1810282Y986567D01*
X1810412Y985578D01*
X1810794Y984657D01*
X1811401Y983866D01*
X1812192Y983259D01*
X1813114Y982877D01*
X1814102Y982747D01*
X1815091Y982877D01*
X1816012Y983259D01*
X1816804Y983866D01*
X1817411Y984657D01*
X1817700Y985356D01*
X1821193D01*
X1821242Y984856D01*
X1821232Y984854D01*
X1820581Y984419D01*
X1820146Y983768D01*
X1819993Y983000D01*
X1820146Y982232D01*
X1820581Y981581D01*
X1821232Y981146D01*
X1822000Y980993D01*
X1822768Y981146D01*
X1823419Y981581D01*
X1823854Y982232D01*
X1824007Y983000D01*
X1823854Y983768D01*
X1823419Y984419D01*
X1822768Y984854D01*
X1822758Y984856D01*
X1822807Y985356D01*
X1833567D01*
X1833567Y985356D01*
X1834030Y985448D01*
X1834423Y985711D01*
X1843021Y994309D01*
X1843564Y994144D01*
X1843646Y993732D01*
X1844081Y993081D01*
X1844732Y992646D01*
X1845500Y992493D01*
X1846268Y992646D01*
X1846919Y993081D01*
X1847354Y993732D01*
X1847507Y994500D01*
X1847354Y995268D01*
X1846919Y995919D01*
X1846268Y996354D01*
X1845856Y996436D01*
X1845691Y996979D01*
X1848754Y1000042D01*
X1849000Y999993D01*
X1849768Y1000146D01*
X1850419Y1000581D01*
X1850854Y1001232D01*
X1851007Y1002000D01*
X1850854Y1002768D01*
X1850419Y1003419D01*
X1849768Y1003854D01*
X1849000Y1004007D01*
D02*
G37*
G36*
X1824000Y1003007D02*
X1823232Y1002854D01*
X1822581Y1002419D01*
X1822146Y1001768D01*
X1821993Y1001000D01*
X1822146Y1000232D01*
X1822581Y999581D01*
X1823232Y999146D01*
X1824000Y998993D01*
X1824768Y999146D01*
X1825419Y999581D01*
X1825854Y1000232D01*
X1826007Y1001000D01*
X1825854Y1001768D01*
X1825419Y1002419D01*
X1824768Y1002854D01*
X1824000Y1003007D01*
D02*
G37*
G36*
X1854000Y998507D02*
X1853232Y998354D01*
X1852581Y997919D01*
X1852146Y997268D01*
X1851993Y996500D01*
X1852042Y996254D01*
X1833566Y977778D01*
X1817700D01*
X1817411Y978477D01*
X1816804Y979268D01*
X1816012Y979875D01*
X1815091Y980257D01*
X1814102Y980387D01*
X1813114Y980257D01*
X1812192Y979875D01*
X1811401Y979268D01*
X1810794Y978477D01*
X1810412Y977556D01*
X1810282Y976567D01*
X1810412Y975578D01*
X1810794Y974657D01*
X1811401Y973866D01*
X1812192Y973259D01*
X1813114Y972877D01*
X1814102Y972747D01*
X1815091Y972877D01*
X1816012Y973259D01*
X1816804Y973866D01*
X1817411Y974657D01*
X1817700Y975356D01*
X1823606D01*
X1823706Y974856D01*
X1823590Y974808D01*
X1822799Y974201D01*
X1822192Y973410D01*
X1821810Y972489D01*
X1821680Y971500D01*
X1821810Y970511D01*
X1822192Y969590D01*
X1822799Y968799D01*
X1823590Y968192D01*
X1824511Y967810D01*
X1825500Y967680D01*
X1826489Y967810D01*
X1827410Y968192D01*
X1828201Y968799D01*
X1828808Y969590D01*
X1829190Y970511D01*
X1829320Y971500D01*
X1829190Y972489D01*
X1828808Y973410D01*
X1828201Y974201D01*
X1827410Y974808D01*
X1827294Y974856D01*
X1827394Y975356D01*
X1834067D01*
X1834067Y975356D01*
X1834530Y975448D01*
X1834923Y975711D01*
X1853754Y994542D01*
X1854000Y994493D01*
X1854768Y994646D01*
X1855419Y995081D01*
X1855854Y995732D01*
X1856007Y996500D01*
X1855854Y997268D01*
X1855419Y997919D01*
X1854768Y998354D01*
X1854000Y998507D01*
D02*
G37*
G36*
X2091984Y1000991D02*
X2091216Y1000838D01*
X2090565Y1000403D01*
X2090130Y999752D01*
X2089977Y998984D01*
X2090130Y998216D01*
X2090565Y997565D01*
X2091216Y997130D01*
X2091984Y996977D01*
X2092752Y997130D01*
X2093403Y997565D01*
X2093839Y998216D01*
X2093991Y998984D01*
X2093839Y999752D01*
X2093403Y1000403D01*
X2092752Y1000838D01*
X2091984Y1000991D01*
D02*
G37*
G36*
X1861500Y1001007D02*
X1860732Y1000854D01*
X1860081Y1000419D01*
X1859646Y999768D01*
X1859493Y999000D01*
X1859646Y998232D01*
X1860081Y997581D01*
X1860732Y997146D01*
X1861500Y996993D01*
X1862268Y997146D01*
X1862919Y997581D01*
X1863354Y998232D01*
X1863507Y999000D01*
X1863354Y999768D01*
X1862919Y1000419D01*
X1862268Y1000854D01*
X1861500Y1001007D01*
D02*
G37*
G36*
X1804500Y1006507D02*
X1803732Y1006354D01*
X1803081Y1005919D01*
X1802646Y1005268D01*
X1802493Y1004500D01*
X1802646Y1003732D01*
X1803081Y1003081D01*
X1803732Y1002646D01*
X1804500Y1002493D01*
X1805268Y1002646D01*
X1805919Y1003081D01*
X1806354Y1003732D01*
X1806507Y1004500D01*
X1806354Y1005268D01*
X1805919Y1005919D01*
X1805268Y1006354D01*
X1804500Y1006507D01*
D02*
G37*
G36*
X2091500Y1010298D02*
X2090732Y1010146D01*
X2090081Y1009711D01*
X2089646Y1009059D01*
X2089493Y1008291D01*
X2089646Y1007523D01*
X2090081Y1006872D01*
X2090732Y1006437D01*
X2091500Y1006284D01*
X2092268Y1006437D01*
X2092919Y1006872D01*
X2093354Y1007523D01*
X2093507Y1008291D01*
X2093354Y1009059D01*
X2092919Y1009711D01*
X2092268Y1010146D01*
X2091500Y1010298D01*
D02*
G37*
G36*
X1829000Y1010507D02*
X1828232Y1010354D01*
X1827581Y1009919D01*
X1827146Y1009268D01*
X1826993Y1008500D01*
X1827146Y1007732D01*
X1827581Y1007081D01*
X1828232Y1006646D01*
X1829000Y1006493D01*
X1829768Y1006646D01*
X1830419Y1007081D01*
X1830854Y1007732D01*
X1831007Y1008500D01*
X1830854Y1009268D01*
X1830419Y1009919D01*
X1829768Y1010354D01*
X1829000Y1010507D01*
D02*
G37*
G36*
X1824500Y1013507D02*
X1823732Y1013354D01*
X1823081Y1012919D01*
X1822646Y1012268D01*
X1822493Y1011500D01*
X1822646Y1010732D01*
X1823081Y1010081D01*
X1823732Y1009646D01*
X1824500Y1009493D01*
X1825268Y1009646D01*
X1825919Y1010081D01*
X1826354Y1010732D01*
X1826507Y1011500D01*
X1826354Y1012268D01*
X1825919Y1012919D01*
X1825268Y1013354D01*
X1824500Y1013507D01*
D02*
G37*
G36*
X1845000Y1010007D02*
X1844232Y1009854D01*
X1843581Y1009419D01*
X1843146Y1008768D01*
X1842993Y1008000D01*
X1843042Y1007754D01*
X1831917Y996630D01*
X1829644D01*
X1829508Y996903D01*
X1829452Y997130D01*
X1829854Y997732D01*
X1830007Y998500D01*
X1829854Y999268D01*
X1829419Y999919D01*
X1828768Y1000354D01*
X1828000Y1000507D01*
X1827232Y1000354D01*
X1826581Y999919D01*
X1826146Y999268D01*
X1825993Y998500D01*
X1826146Y997732D01*
X1826548Y997130D01*
X1826492Y996903D01*
X1826356Y996630D01*
X1822482D01*
X1822246Y997071D01*
X1822354Y997232D01*
X1822507Y998000D01*
X1822354Y998768D01*
X1821919Y999419D01*
X1821268Y999854D01*
X1820500Y1000007D01*
X1819732Y999854D01*
X1819081Y999419D01*
X1818646Y998768D01*
X1818540Y998236D01*
X1818376Y997944D01*
X1818162Y997842D01*
X1817607Y998002D01*
X1817411Y998477D01*
X1816804Y999268D01*
X1816012Y999875D01*
X1815091Y1000257D01*
X1814102Y1000387D01*
X1813114Y1000257D01*
X1812192Y999875D01*
X1811401Y999268D01*
X1810794Y998477D01*
X1810412Y997556D01*
X1810282Y996567D01*
X1810412Y995578D01*
X1810794Y994657D01*
X1811401Y993866D01*
X1812192Y993259D01*
X1813114Y992877D01*
X1814102Y992747D01*
X1815091Y992877D01*
X1816012Y993259D01*
X1816804Y993866D01*
X1817411Y994657D01*
X1817517Y994914D01*
X1818107Y995031D01*
X1818575Y994563D01*
X1818968Y994300D01*
X1819431Y994208D01*
X1819431Y994208D01*
X1832419D01*
X1832419Y994208D01*
X1832882Y994300D01*
X1833275Y994563D01*
X1844754Y1006042D01*
X1845000Y1005993D01*
X1845768Y1006146D01*
X1846419Y1006581D01*
X1846854Y1007232D01*
X1847007Y1008000D01*
X1846854Y1008768D01*
X1846419Y1009419D01*
X1845768Y1009854D01*
X1845000Y1010007D01*
D02*
G37*
G36*
X1814102Y1010387D02*
X1813114Y1010257D01*
X1812192Y1009875D01*
X1811401Y1009268D01*
X1810794Y1008477D01*
X1810412Y1007556D01*
X1810282Y1006567D01*
X1810412Y1005578D01*
X1810794Y1004657D01*
X1811401Y1003866D01*
X1812192Y1003259D01*
X1813114Y1002877D01*
X1814102Y1002747D01*
X1815091Y1002877D01*
X1816012Y1003259D01*
X1816804Y1003866D01*
X1817411Y1004657D01*
X1817792Y1005578D01*
X1817922Y1006567D01*
X1817792Y1007556D01*
X1817411Y1008477D01*
X1816804Y1009268D01*
X1816012Y1009875D01*
X1815091Y1010257D01*
X1814102Y1010387D01*
D02*
G37*
G36*
X1969500Y1007507D02*
X1968732Y1007354D01*
X1968081Y1006919D01*
X1967646Y1006268D01*
X1967493Y1005500D01*
X1967646Y1004732D01*
X1968081Y1004081D01*
X1968732Y1003646D01*
X1969500Y1003493D01*
X1970268Y1003646D01*
X1970919Y1004081D01*
X1971354Y1004732D01*
X1971507Y1005500D01*
X1971354Y1006268D01*
X1970919Y1006919D01*
X1970268Y1007354D01*
X1969500Y1007507D01*
D02*
G37*
G36*
X1781000Y1008507D02*
X1780232Y1008354D01*
X1779581Y1007919D01*
X1779146Y1007268D01*
X1778993Y1006500D01*
X1779146Y1005732D01*
X1779581Y1005081D01*
X1780232Y1004646D01*
X1781000Y1004493D01*
X1781768Y1004646D01*
X1782419Y1005081D01*
X1782854Y1005732D01*
X1783007Y1006500D01*
X1782854Y1007268D01*
X1782419Y1007919D01*
X1781768Y1008354D01*
X1781000Y1008507D01*
D02*
G37*
%LPD*%
D51*
X1814102Y976567D02*
X1834067D01*
X1854000Y996500D01*
X1814102Y986567D02*
X1833567D01*
X1849000Y1002000D01*
X1814102Y996567D02*
X1818283D01*
X1819431Y995419D01*
X1832419D01*
X1845000Y1008000D01*
D58*
X1776500Y939000D02*
D03*
X1748500Y1051500D02*
D03*
X1772000D02*
D03*
X1797000Y939000D02*
D03*
D60*
X2100000Y889311D02*
D03*
D61*
X2083000Y1050311D02*
D03*
X1770500Y956472D02*
D03*
D63*
X1825500Y941500D02*
D03*
X2019500Y929000D02*
D03*
X1836500Y941500D02*
D03*
X2100000Y1046791D02*
D03*
X1814102Y976567D02*
D03*
Y996567D02*
D03*
Y986567D02*
D03*
D65*
X1895937Y920000D02*
D03*
D66*
X2072134Y935831D02*
D03*
D67*
X2041142Y919760D02*
D03*
D70*
X1932500Y765469D02*
D03*
D75*
X1780500Y1122315D02*
D03*
D76*
X1772500Y1145000D02*
D03*
X1772293Y1141500D02*
D03*
X1798571Y1072181D02*
D03*
X1800100Y1060500D02*
D03*
X1805000Y1056000D02*
D03*
Y1047500D02*
D03*
Y1040500D02*
D03*
X2101000Y1087500D02*
D03*
X2097000D02*
D03*
X1731500Y887000D02*
D03*
X1731000Y868500D02*
D03*
X1720500Y890000D02*
D03*
X1721000Y861000D02*
D03*
X2012000Y866000D02*
D03*
X2060500Y875500D02*
D03*
X2033000Y891500D02*
D03*
X2071500Y861500D02*
D03*
X2075000Y890500D02*
D03*
X2085000Y876000D02*
D03*
X1973500Y891000D02*
D03*
X1936500Y887000D02*
D03*
X1937000Y865500D02*
D03*
X1965500Y865000D02*
D03*
X1947500Y878500D02*
D03*
X1916500Y865500D02*
D03*
X1899500Y885000D02*
D03*
X1881000Y867500D02*
D03*
X1854000Y996500D02*
D03*
X1849000Y1002000D02*
D03*
X1951232Y927268D02*
D03*
X1995000Y919500D02*
D03*
X1892000Y1004000D02*
D03*
X1892500Y1030500D02*
D03*
X1898000Y1028000D02*
D03*
X1893500Y1024000D02*
D03*
X1716000Y1093000D02*
D03*
Y1103000D02*
D03*
X1722500Y1093000D02*
D03*
Y1103000D02*
D03*
X1719250Y1098000D02*
D03*
Y1108000D02*
D03*
X1735750D02*
D03*
Y1098000D02*
D03*
X1732500Y1103000D02*
D03*
Y1093000D02*
D03*
X1739000Y1103000D02*
D03*
Y1093000D02*
D03*
X1938500Y828000D02*
D03*
X1919000Y822500D02*
D03*
X2042500Y995500D02*
D03*
X2054500Y990500D02*
D03*
X2056500Y966000D02*
D03*
X2082500Y965000D02*
D03*
X1955500Y943000D02*
D03*
X1970000Y1051500D02*
D03*
X1971000Y1059000D02*
D03*
X1984000Y1064500D02*
D03*
X1988000D02*
D03*
X1992000D02*
D03*
X1996000D02*
D03*
X1999000Y1051500D02*
D03*
X1995000D02*
D03*
X1991000D02*
D03*
X1987000D02*
D03*
X2003000D02*
D03*
X1983000D02*
D03*
X1979000D02*
D03*
X2016079D02*
D03*
X2021000Y1052500D02*
D03*
X2026000Y1058500D02*
D03*
X2028000Y1063000D02*
D03*
X2029000Y1067500D02*
D03*
Y1071500D02*
D03*
Y1075500D02*
D03*
Y1079500D02*
D03*
Y1083500D02*
D03*
Y1087500D02*
D03*
X2020000D02*
D03*
Y1083500D02*
D03*
Y1079500D02*
D03*
Y1075500D02*
D03*
Y1071500D02*
D03*
Y1067500D02*
D03*
X2017500Y1063500D02*
D03*
X2033000Y1087500D02*
D03*
X2037000D02*
D03*
X2041000D02*
D03*
X2045000D02*
D03*
X2049000D02*
D03*
X2053000D02*
D03*
X2057000D02*
D03*
X2061000D02*
D03*
X2065000D02*
D03*
X2069000D02*
D03*
X2073000D02*
D03*
X2077000D02*
D03*
X2081000D02*
D03*
X2085000D02*
D03*
X2089000D02*
D03*
X2093000D02*
D03*
X1960000D02*
D03*
X1964000D02*
D03*
X1968000D02*
D03*
X1972000D02*
D03*
X1976000D02*
D03*
X1980000D02*
D03*
X1984000D02*
D03*
X1988000D02*
D03*
X1992000D02*
D03*
X1996000D02*
D03*
X2000000D02*
D03*
X2004000D02*
D03*
X2008000D02*
D03*
X2012000D02*
D03*
X2016000D02*
D03*
X1900000D02*
D03*
X1904000D02*
D03*
X1908000D02*
D03*
X1912000D02*
D03*
X1916000D02*
D03*
X1920000D02*
D03*
X1924000D02*
D03*
X1928000D02*
D03*
X1932000D02*
D03*
X1936000D02*
D03*
X1940000D02*
D03*
X1944000D02*
D03*
X1948000D02*
D03*
X1952000D02*
D03*
X1956000D02*
D03*
X1896000D02*
D03*
X1892000D02*
D03*
X1888000D02*
D03*
X1884000D02*
D03*
X1880000D02*
D03*
X1876000D02*
D03*
X1872000D02*
D03*
X1868000D02*
D03*
X1864500Y1084000D02*
D03*
X1859000Y1082500D02*
D03*
X1854000Y1083000D02*
D03*
X1850000Y1085000D02*
D03*
X1846500Y1087500D02*
D03*
X1843500Y1090500D02*
D03*
X1843000Y1095000D02*
D03*
Y1103000D02*
D03*
Y1099000D02*
D03*
Y1107000D02*
D03*
Y1123500D02*
D03*
Y1119500D02*
D03*
Y1127500D02*
D03*
Y1131500D02*
D03*
Y1135500D02*
D03*
Y1139500D02*
D03*
Y1143500D02*
D03*
Y1147500D02*
D03*
X1734000Y957500D02*
D03*
Y967000D02*
D03*
X1728500Y962500D02*
D03*
Y972000D02*
D03*
X1734000Y976500D02*
D03*
X1728500Y981500D02*
D03*
X1734000Y986000D02*
D03*
X1728500Y991000D02*
D03*
X1734000Y995500D02*
D03*
X1728500Y1007500D02*
D03*
X1734000Y1012000D02*
D03*
X1728500Y1017000D02*
D03*
X1734000Y1021500D02*
D03*
X1728500Y1026500D02*
D03*
X1734000Y1031000D02*
D03*
X1729500Y920500D02*
D03*
X1735000Y925000D02*
D03*
Y915500D02*
D03*
X1729500Y911000D02*
D03*
X1840500Y933500D02*
D03*
X1860500Y932500D02*
D03*
X1855000Y928000D02*
D03*
X1919500Y918000D02*
D03*
X1914000Y913500D02*
D03*
Y927500D02*
D03*
X1908500Y923000D02*
D03*
X1904500Y937500D02*
D03*
X1899000Y933000D02*
D03*
X2010000Y1017500D02*
D03*
X2004500Y1013000D02*
D03*
X1975000Y1000500D02*
D03*
X1969500Y996000D02*
D03*
X1962000Y984500D02*
D03*
X1956000Y981000D02*
D03*
X1947000Y919500D02*
D03*
X1937500Y927000D02*
D03*
X2097500Y919000D02*
D03*
X2092000Y914500D02*
D03*
X2023000Y954000D02*
D03*
X1990500Y973500D02*
D03*
X1990000Y986500D02*
D03*
X1995500Y962500D02*
D03*
X1956000Y960500D02*
D03*
X1925000Y999500D02*
D03*
X1921500Y1012500D02*
D03*
X1923000Y971000D02*
D03*
X1922500Y984000D02*
D03*
X1885000Y980500D02*
D03*
X1947000Y971000D02*
D03*
X1932500Y1012500D02*
D03*
X1995500Y1031500D02*
D03*
X2014000D02*
D03*
X2039500Y1033500D02*
D03*
X2057000Y1031000D02*
D03*
X2047500Y1051500D02*
D03*
X1946000D02*
D03*
X2061500D02*
D03*
X2072500Y1012000D02*
D03*
X2061000Y1020000D02*
D03*
X2072500Y995500D02*
D03*
X2077000Y989500D02*
D03*
X2030500Y967000D02*
D03*
X2009500Y992500D02*
D03*
X1995000Y1006500D02*
D03*
X1858000Y915500D02*
D03*
X1779500Y985500D02*
D03*
X1763000Y987000D02*
D03*
X1756000Y1002500D02*
D03*
X1753000Y967000D02*
D03*
X1789000Y955500D02*
D03*
X1809000Y1019000D02*
D03*
X1825000Y1031000D02*
D03*
X1813000Y1034500D02*
D03*
X1780500Y1029500D02*
D03*
X1780000Y1041000D02*
D03*
X1766000Y1056500D02*
D03*
X1780500Y1053500D02*
D03*
X1766500Y1119500D02*
D03*
X1759500Y1118500D02*
D03*
X1786000Y1115500D02*
D03*
X1793500Y1115000D02*
D03*
X1803000D02*
D03*
X1804000Y1102000D02*
D03*
X1803000Y1107500D02*
D03*
Y1122500D02*
D03*
X1809500Y1135000D02*
D03*
Y1143500D02*
D03*
X1788000Y1148000D02*
D03*
X1801500Y1147500D02*
D03*
X1766000Y1114500D02*
D03*
X1912000Y772500D02*
D03*
X1913000Y795500D02*
D03*
X1903000Y785000D02*
D03*
X1932000Y775000D02*
D03*
X1946500Y771000D02*
D03*
X1958000Y774000D02*
D03*
X1967493Y782500D02*
D03*
X1973000Y794500D02*
D03*
X1963000Y789500D02*
D03*
X1975500Y806500D02*
D03*
X1969500Y819000D02*
D03*
X1964000Y829500D02*
D03*
X1903500Y833000D02*
D03*
X1910500Y810000D02*
D03*
X1953500Y833000D02*
D03*
X1926000Y836000D02*
D03*
X1927500Y793000D02*
D03*
X1953500Y801500D02*
D03*
X1892000Y808000D02*
D03*
X1943500Y954500D02*
D03*
X1974248Y928252D02*
D03*
X1845000Y1008000D02*
D03*
X2090000Y983000D02*
D03*
X2081500Y935000D02*
D03*
X2089000Y931500D02*
D03*
X2078500Y955000D02*
D03*
X2096500Y961500D02*
D03*
X2097000Y991500D02*
D03*
X1852000Y965000D02*
D03*
X1905500Y950000D02*
D03*
D77*
X1792941Y986000D02*
D03*
X1748059D02*
D03*
D78*
X1780342Y1013559D02*
D03*
M02*
