G04 Layer_Color=16720538*
%FSLAX25Y25*%
%MOIN*%
G70*
G01*
G75*
%ADD54C,0.01000*%
D54*
X1717000Y1151595D02*
G03*
X1712500Y1147095I0J-4500D01*
G01*
Y912000D02*
G03*
X1717000Y907500I4500J0D01*
G01*
X2101000D02*
G03*
X2105500Y912000I0J4500D01*
G01*
Y1147095D02*
G03*
X2101000Y1151595I-4500J0D01*
G01*
X1712500Y861146D02*
G03*
X1717000Y856646I4500J0D01*
G01*
Y898051D02*
G03*
X1712500Y893551I0J-4500D01*
G01*
X1952000Y907500D02*
G03*
X1947276Y902776I0J-4724D01*
G01*
D02*
G03*
X1952000Y898051I4724J0D01*
G01*
X2105500Y893551D02*
G03*
X2101000Y898051I-4500J0D01*
G01*
Y856646D02*
G03*
X2105500Y861146I0J4500D01*
G01*
X1913882Y898051D02*
G03*
X1918606Y902776I0J4724D01*
G01*
D02*
G03*
X1913882Y907500I-4724J0D01*
G01*
X1952000Y856646D02*
G03*
X1947276Y851921I0J-4724D01*
G01*
D02*
G03*
X1952000Y847197I4724J0D01*
G01*
X1913882D02*
G03*
X1918606Y851921I0J4724D01*
G01*
D02*
G03*
X1913882Y856646I-4724J0D01*
G01*
Y847197D02*
G03*
X1951970Y847130I18970J-41975D01*
G01*
X1735776Y870724D02*
G03*
X1740500Y866000I4724J0D01*
G01*
Y888602D02*
G03*
X1735776Y883878I0J-4724D01*
G01*
X1867224D02*
G03*
X1862500Y888602I-4724J0D01*
G01*
Y866000D02*
G03*
X1867224Y870724I0J4724D01*
G01*
X1712500Y912000D02*
Y1147095D01*
X2105500Y912000D02*
Y1147095D01*
X1712500Y861146D02*
Y893551D01*
X1717000Y856646D02*
X1913882D01*
X2105500Y861146D02*
Y879146D01*
X1952000Y898051D02*
X2101000D01*
X2105500Y879146D02*
Y893551D01*
X1717000Y907500D02*
X1913882D01*
X1717000Y898051D02*
X1913882D01*
X1952000Y907500D02*
X2101000D01*
X1717000Y1151595D02*
X2101000D01*
X1952000Y856646D02*
X2101000D01*
X1740500Y888602D02*
X1862500D01*
X1735776Y870724D02*
Y883878D01*
X1867224Y870724D02*
Y883878D01*
X1740500Y866000D02*
X1862500D01*
M02*
