G04 Layer_Color=25308*
%FSLAX25Y25*%
%MOIN*%
G70*
G01*
G75*
%ADD32C,0.06000*%
%ADD61C,0.08000*%
%ADD62R,0.09843X0.09843*%
%ADD63C,0.11811*%
%ADD64R,0.07500X0.07500*%
%ADD65C,0.07500*%
%ADD66R,0.07500X0.07500*%
%ADD67C,0.08858*%
%ADD68C,0.08661*%
%ADD69R,0.06299X0.06299*%
%ADD70C,0.06299*%
%ADD71C,0.05512*%
%ADD72R,0.06000X0.06000*%
%ADD73C,0.14173*%
%ADD74C,0.05906*%
%ADD75R,0.05906X0.05906*%
%ADD76R,0.06299X0.06299*%
%ADD77C,0.15748*%
D32*
X1829000Y990500D02*
D03*
Y960500D02*
D03*
Y980500D02*
D03*
Y970500D02*
D03*
X1775000Y1117000D02*
D03*
X1785000D02*
D03*
X1775000Y1127000D02*
D03*
X1785000D02*
D03*
X1775000Y1137000D02*
D03*
X1965532Y981209D02*
D03*
Y1001209D02*
D03*
Y971209D02*
D03*
X1717500Y1076209D02*
D03*
Y1066209D02*
D03*
Y1056209D02*
D03*
Y1046209D02*
D03*
Y1036209D02*
D03*
Y946209D02*
D03*
Y956209D02*
D03*
Y966209D02*
D03*
Y976209D02*
D03*
Y986209D02*
D03*
Y996209D02*
D03*
Y1006209D02*
D03*
Y1016209D02*
D03*
Y1026209D02*
D03*
X1965532Y991209D02*
D03*
X2003398Y996433D02*
D03*
Y1026433D02*
D03*
Y1006433D02*
D03*
Y1016433D02*
D03*
X1799000Y924236D02*
D03*
Y934079D02*
D03*
Y943921D02*
D03*
Y953764D02*
D03*
X1955500Y1000000D02*
D03*
Y970000D02*
D03*
Y990000D02*
D03*
Y980000D02*
D03*
X1814500Y990500D02*
D03*
Y960500D02*
D03*
Y980500D02*
D03*
Y970500D02*
D03*
D61*
X2097000Y973890D02*
D03*
Y987669D02*
D03*
Y1001449D02*
D03*
Y960110D02*
D03*
Y946331D02*
D03*
Y932551D02*
D03*
Y918772D02*
D03*
X2097500Y1046791D02*
D03*
Y1066791D02*
D03*
Y1086791D02*
D03*
X1726500Y1140000D02*
D03*
D62*
X2097000Y1015228D02*
D03*
X2097500Y1106791D02*
D03*
X1726500Y1120000D02*
D03*
D63*
X2010839Y1137000D02*
D03*
X1991154D02*
D03*
X1947846D02*
D03*
X1928161D02*
D03*
D64*
X1820000Y938500D02*
D03*
D65*
Y918815D02*
D03*
Y928658D02*
D03*
X2060658Y1124000D02*
D03*
D66*
X2080342D02*
D03*
D67*
X1832500Y1127500D02*
D03*
X1822500Y1137500D02*
D03*
Y1117500D02*
D03*
X1842500Y1137500D02*
D03*
Y1117500D02*
D03*
D68*
X1959236Y1018091D02*
D03*
X1988764D02*
D03*
Y1077146D02*
D03*
X1959236D02*
D03*
X1988764Y1097028D02*
D03*
X1959236D02*
D03*
X1988764Y1116909D02*
D03*
X1959236D02*
D03*
D69*
X1722071Y927110D02*
D03*
X2074000Y1092000D02*
D03*
X2035496Y1110500D02*
D03*
X2074500Y921000D02*
D03*
X2074000Y948000D02*
D03*
Y1025000D02*
D03*
Y1070500D02*
D03*
Y1047000D02*
D03*
D70*
X1722071Y917268D02*
D03*
X2054000Y1092000D02*
D03*
X2064000D02*
D03*
X2017465Y1110500D02*
D03*
X2026480D02*
D03*
X1756732Y917071D02*
D03*
X2054500Y921000D02*
D03*
X2064500D02*
D03*
X2054000Y948000D02*
D03*
X2064000D02*
D03*
X2054000Y1025000D02*
D03*
X2064000D02*
D03*
X2054000Y1070500D02*
D03*
X2064000D02*
D03*
X2054000Y1047000D02*
D03*
X2064000D02*
D03*
D71*
X1843000Y1037842D02*
D03*
Y1018157D02*
D03*
D72*
X1785000Y1137000D02*
D03*
D73*
X2045500Y1009441D02*
D03*
Y964559D02*
D03*
D74*
X2015973Y996842D02*
D03*
Y987000D02*
D03*
Y977157D02*
D03*
X2073059Y996842D02*
D03*
D75*
Y977157D02*
D03*
D76*
X1746890Y917071D02*
D03*
D77*
X1872000Y1126500D02*
D03*
X2030000Y922500D02*
D03*
Y1090500D02*
D03*
M02*
