G04 Layer_Color=8150272*
%FSLAX25Y25*%
%MOIN*%
G70*
G01*
G75*
%ADD79C,0.09646*%
%ADD138C,0.00800*%
%ADD139C,0.16548*%
%ADD140C,0.07099*%
%ADD141R,0.07099X0.07099*%
%ADD142R,0.06706X0.06706*%
%ADD143C,0.06706*%
%ADD144C,0.10800*%
%ADD145C,0.06800*%
G04:AMPARAMS|DCode=146|XSize=126.11mil|YSize=58mil|CornerRadius=16.5mil|HoleSize=0mil|Usage=FLASHONLY|Rotation=270.000|XOffset=0mil|YOffset=0mil|HoleType=Round|Shape=RoundedRectangle|*
%AMROUNDEDRECTD146*
21,1,0.12611,0.02500,0,0,270.0*
21,1,0.09311,0.05800,0,0,270.0*
1,1,0.03300,-0.01250,-0.04656*
1,1,0.03300,-0.01250,0.04656*
1,1,0.03300,0.01250,0.04656*
1,1,0.03300,0.01250,-0.04656*
%
%ADD146ROUNDEDRECTD146*%
%ADD147O,0.05800X0.12611*%
%ADD148C,0.09461*%
%ADD149C,0.08674*%
G04:AMPARAMS|DCode=150|XSize=68mil|YSize=68mil|CornerRadius=10mil|HoleSize=0mil|Usage=FLASHONLY|Rotation=90.000|XOffset=0mil|YOffset=0mil|HoleType=Round|Shape=RoundedRectangle|*
%AMROUNDEDRECTD150*
21,1,0.06800,0.04800,0,0,90.0*
21,1,0.04800,0.06800,0,0,90.0*
1,1,0.02000,0.02400,0.02400*
1,1,0.02000,0.02400,-0.02400*
1,1,0.02000,-0.02400,-0.02400*
1,1,0.02000,-0.02400,0.02400*
%
%ADD150ROUNDEDRECTD150*%
%ADD151R,0.06312X0.09068*%
%ADD152R,0.09068X0.06312*%
%ADD153R,0.10642X0.10642*%
%ADD154C,0.08800*%
%ADD155C,0.06200*%
%ADD156R,0.08300X0.08300*%
%ADD157C,0.08300*%
%ADD158C,0.14973*%
%ADD159R,0.06706X0.06706*%
%ADD160C,0.03162*%
%ADD161R,0.01772X0.01772*%
%ADD162R,0.01575X0.01772*%
D79*
X1933000Y804500D02*
D03*
D138*
X1928898Y907978D02*
D03*
X1936253D02*
D03*
X1921542D02*
D03*
X1943609D02*
D03*
X1936944Y846102D02*
D03*
X1929588D02*
D03*
X1944299D02*
D03*
X1922232D02*
D03*
X2050000Y932752D02*
D03*
D139*
X1858000Y1094500D02*
D03*
X1751000Y923000D02*
D03*
D140*
X1776500Y929000D02*
D03*
Y939000D02*
D03*
X1748500Y1051500D02*
D03*
Y1041500D02*
D03*
X1772000Y1051500D02*
D03*
Y1041500D02*
D03*
X1797000Y939000D02*
D03*
Y929000D02*
D03*
D141*
X1776500Y919000D02*
D03*
X1748500Y1031500D02*
D03*
X1772000D02*
D03*
X1797000Y919000D02*
D03*
D142*
X2083000Y1026689D02*
D03*
X2100000Y889311D02*
D03*
D143*
X2083000Y1034563D02*
D03*
Y1042437D02*
D03*
Y1050311D02*
D03*
X1760658Y1013559D02*
D03*
X1780342Y956472D02*
D03*
X1770500D02*
D03*
X1760658D02*
D03*
X2100000Y865689D02*
D03*
Y873563D02*
D03*
Y881437D02*
D03*
D144*
X1719500Y921000D02*
D03*
Y941000D02*
D03*
Y961000D02*
D03*
Y981000D02*
D03*
Y1001000D02*
D03*
Y1021000D02*
D03*
Y1061000D02*
D03*
Y1041000D02*
D03*
D145*
X1825500Y971500D02*
D03*
Y941500D02*
D03*
Y961500D02*
D03*
Y951500D02*
D03*
X2019500Y929000D02*
D03*
X1836500Y971500D02*
D03*
Y941500D02*
D03*
Y961500D02*
D03*
Y951500D02*
D03*
X2100000Y926791D02*
D03*
Y936791D02*
D03*
Y946791D02*
D03*
Y956791D02*
D03*
Y966791D02*
D03*
Y1056791D02*
D03*
Y1046791D02*
D03*
Y1036791D02*
D03*
Y1026791D02*
D03*
Y1016791D02*
D03*
Y1006791D02*
D03*
Y996791D02*
D03*
Y986791D02*
D03*
Y976791D02*
D03*
X1814102Y1006567D02*
D03*
Y976567D02*
D03*
Y996567D02*
D03*
Y986567D02*
D03*
D146*
X1888063Y920000D02*
D03*
D147*
X1895937D02*
D03*
D148*
X2078925Y945476D02*
D03*
X2088866Y942130D02*
D03*
X2072134Y917327D02*
D03*
X2082075Y914374D02*
D03*
X2072134Y935831D02*
D03*
D149*
X2050000Y914248D02*
D03*
X2041142Y919760D02*
D03*
X2058858D02*
D03*
D150*
X2019500Y919000D02*
D03*
D151*
X1922658Y785153D02*
D03*
X1942343D02*
D03*
X1912815D02*
D03*
X1952185D02*
D03*
D152*
X1932500Y765469D02*
D03*
D153*
X1730000Y1118000D02*
D03*
D154*
Y1138000D02*
D03*
D155*
X1835795Y1128500D02*
D03*
X1810200D02*
D03*
D156*
X1780500Y1142000D02*
D03*
D157*
Y1122315D02*
D03*
Y1132158D02*
D03*
D158*
X1792941Y986000D02*
D03*
X1748059D02*
D03*
D159*
X1780342Y1013559D02*
D03*
D160*
X1772500Y1145000D02*
D03*
X1772293Y1141500D02*
D03*
D161*
X1935311Y813390D02*
D03*
X1930783D02*
D03*
Y818311D02*
D03*
X1935311D02*
D03*
D162*
X1933047Y813390D02*
D03*
Y818311D02*
D03*
M02*
