G04 Layer_Color=7318015*
%FSLAX25Y25*%
%MOIN*%
G70*
G01*
G75*
%ADD12O,0.07087X0.02362*%
%ADD13O,0.02362X0.07087*%
%ADD14R,0.24410X0.22835*%
%ADD15R,0.14173X0.07874*%
%ADD16R,0.03740X0.03347*%
%ADD17R,0.04134X0.03740*%
%ADD18R,0.03347X0.03740*%
%ADD19R,0.04134X0.03937*%
%ADD20R,0.08898X0.08504*%
%ADD21R,0.02559X0.04331*%
%ADD22R,0.05906X0.03937*%
%ADD23R,0.04331X0.02559*%
%ADD24R,0.07480X0.18898*%
%ADD25R,0.07480X0.03543*%
%ADD26R,0.07480X0.12598*%
%ADD27R,0.03150X0.03543*%
%ADD28R,0.03543X0.03150*%
%ADD29R,0.07480X0.06102*%
%ADD30R,0.04528X0.04134*%
%ADD31R,0.04724X0.10630*%
%ADD32R,0.02756X0.03543*%
G04:AMPARAMS|DCode=33|XSize=39.37mil|YSize=70.87mil|CornerRadius=9.84mil|HoleSize=0mil|Usage=FLASHONLY|Rotation=90.000|XOffset=0mil|YOffset=0mil|HoleType=Round|Shape=RoundedRectangle|*
%AMROUNDEDRECTD33*
21,1,0.03937,0.05118,0,0,90.0*
21,1,0.01969,0.07087,0,0,90.0*
1,1,0.01969,0.02559,0.00984*
1,1,0.01969,0.02559,-0.00984*
1,1,0.01969,-0.02559,-0.00984*
1,1,0.01969,-0.02559,0.00984*
%
%ADD33ROUNDEDRECTD33*%
G04:AMPARAMS|DCode=34|XSize=51.18mil|YSize=78.74mil|CornerRadius=12.8mil|HoleSize=0mil|Usage=FLASHONLY|Rotation=90.000|XOffset=0mil|YOffset=0mil|HoleType=Round|Shape=RoundedRectangle|*
%AMROUNDEDRECTD34*
21,1,0.05118,0.05315,0,0,90.0*
21,1,0.02559,0.07874,0,0,90.0*
1,1,0.02559,0.02658,0.01280*
1,1,0.02559,0.02658,-0.01280*
1,1,0.02559,-0.02658,-0.01280*
1,1,0.02559,-0.02658,0.01280*
%
%ADD34ROUNDEDRECTD34*%
%ADD35R,0.05906X0.07480*%
%ADD36R,0.03780X0.01969*%
%ADD38O,0.06693X0.01772*%
%ADD39R,0.09449X0.07480*%
%ADD40R,0.02756X0.03740*%
%ADD41R,0.04134X0.04528*%
%ADD42R,0.02362X0.04724*%
%ADD43R,0.04000X0.11700*%
%ADD44R,0.25197X0.32677*%
%ADD45R,0.03937X0.16535*%
%ADD46O,0.06102X0.00984*%
%ADD47O,0.00984X0.06102*%
%ADD49O,0.01378X0.03150*%
%ADD50R,0.03347X0.03543*%
%ADD97R,0.04685X0.04331*%
%ADD98R,0.05118X0.01575*%
D12*
X1959673Y997413D02*
D03*
Y1001744D02*
D03*
Y1006075D02*
D03*
Y1010406D02*
D03*
Y1014736D02*
D03*
Y1019067D02*
D03*
Y1023398D02*
D03*
Y1027728D02*
D03*
X2028965D02*
D03*
Y1023398D02*
D03*
Y1019067D02*
D03*
Y1014736D02*
D03*
Y1010406D02*
D03*
Y1006075D02*
D03*
Y1001744D02*
D03*
Y997413D02*
D03*
Y993083D02*
D03*
X1959673D02*
D03*
D13*
X1970500Y1041311D02*
D03*
X1974831D02*
D03*
X1979161D02*
D03*
X1983492D02*
D03*
X1987823D02*
D03*
X1992154D02*
D03*
X1996484D02*
D03*
X2000815D02*
D03*
X2005146D02*
D03*
X2009476D02*
D03*
X2013807D02*
D03*
X2018138D02*
D03*
Y979500D02*
D03*
X2013807D02*
D03*
X2009476D02*
D03*
X2005146D02*
D03*
X2000815D02*
D03*
X1996484D02*
D03*
X1992154D02*
D03*
X1987823D02*
D03*
X1983492D02*
D03*
X1979161D02*
D03*
X1974831D02*
D03*
X1970500D02*
D03*
D14*
X1756476Y1086500D02*
D03*
D15*
X1784823Y1095516D02*
D03*
Y1077484D02*
D03*
D16*
X1827000Y982843D02*
D03*
Y988157D02*
D03*
X1901500Y987658D02*
D03*
Y982343D02*
D03*
Y1003343D02*
D03*
Y1008657D02*
D03*
X1766000Y975657D02*
D03*
Y970343D02*
D03*
X1754500Y1134657D02*
D03*
Y1129342D02*
D03*
X1949500Y1020343D02*
D03*
Y1025657D02*
D03*
X1977500Y1063157D02*
D03*
Y1057843D02*
D03*
X2000000Y1063157D02*
D03*
Y1057843D02*
D03*
X1776000Y975657D02*
D03*
Y970343D02*
D03*
X1717500Y873843D02*
D03*
Y879158D02*
D03*
D17*
X1888000Y1009854D02*
D03*
Y1004146D02*
D03*
D18*
X1888157Y932500D02*
D03*
X1882842D02*
D03*
X1955342Y946500D02*
D03*
X1960658D02*
D03*
X2004157Y916000D02*
D03*
X1998842D02*
D03*
X1773657Y1003500D02*
D03*
X1768343D02*
D03*
X2054342Y994500D02*
D03*
X2059657D02*
D03*
X2044157Y992000D02*
D03*
X2038843D02*
D03*
X1938342Y832000D02*
D03*
X1943657D02*
D03*
X1825343Y1112500D02*
D03*
X1830658D02*
D03*
X1843158D02*
D03*
X1837843D02*
D03*
X1840343Y1031500D02*
D03*
X1845658D02*
D03*
X1868843Y1030500D02*
D03*
X1874158D02*
D03*
X1883874Y1042307D02*
D03*
X1889189D02*
D03*
X1899343Y1042500D02*
D03*
X1904658D02*
D03*
X1888157Y939000D02*
D03*
X1882842D02*
D03*
X1875657Y971000D02*
D03*
X1870342D02*
D03*
D19*
X1918453Y826500D02*
D03*
X1912547D02*
D03*
D20*
X1743500Y1137646D02*
D03*
Y1118354D02*
D03*
D21*
X2053260Y1012224D02*
D03*
X2057000D02*
D03*
X2060740D02*
D03*
Y1002776D02*
D03*
X2057000D02*
D03*
X2053260D02*
D03*
X2077760Y1008224D02*
D03*
X2081500D02*
D03*
X2085240D02*
D03*
Y998776D02*
D03*
X2081500D02*
D03*
X2077760D02*
D03*
Y978724D02*
D03*
X2081500D02*
D03*
X2085240D02*
D03*
Y969276D02*
D03*
X2081500D02*
D03*
X2077760D02*
D03*
D22*
X1923059Y804500D02*
D03*
X1942941D02*
D03*
D23*
X1793276Y1131260D02*
D03*
Y1135000D02*
D03*
Y1138740D02*
D03*
X1802724D02*
D03*
Y1135000D02*
D03*
Y1131260D02*
D03*
D24*
X1833866Y922874D02*
D03*
X1817134D02*
D03*
D25*
X1869614Y913445D02*
D03*
Y922500D02*
D03*
Y931555D02*
D03*
D26*
X1846386Y922500D02*
D03*
D27*
X1824000Y1146937D02*
D03*
X1827740Y1139063D02*
D03*
X1820260D02*
D03*
X1942500Y1009126D02*
D03*
X1946240Y1001252D02*
D03*
X1938760D02*
D03*
X1792000Y1065937D02*
D03*
X1795740Y1058063D02*
D03*
X1788260D02*
D03*
D28*
X2058437Y947500D02*
D03*
X2050563Y943760D02*
D03*
Y951240D02*
D03*
D29*
X1764500Y1126193D02*
D03*
Y1137807D02*
D03*
D30*
X1882252Y955000D02*
D03*
X1888748D02*
D03*
X1894752Y996000D02*
D03*
X1901248D02*
D03*
X1795248Y1024500D02*
D03*
X1788752D02*
D03*
X1795248Y1007500D02*
D03*
X1788752D02*
D03*
X2000252Y957500D02*
D03*
X2006748D02*
D03*
X1815748Y950000D02*
D03*
X1809252D02*
D03*
X1795248Y1016000D02*
D03*
X1788752D02*
D03*
X1795248Y999000D02*
D03*
X1788752D02*
D03*
X1815748Y958000D02*
D03*
X1809252D02*
D03*
X1815748Y966000D02*
D03*
X1809252D02*
D03*
X1967752Y916000D02*
D03*
X1974248D02*
D03*
Y924000D02*
D03*
X1967752D02*
D03*
X1998252Y931126D02*
D03*
X2004748D02*
D03*
X1989748D02*
D03*
X1983252D02*
D03*
X1989748Y948000D02*
D03*
X1983252D02*
D03*
X2000252D02*
D03*
X2006748D02*
D03*
X1902748Y794000D02*
D03*
X1896252D02*
D03*
X1902748Y802500D02*
D03*
X1896252D02*
D03*
X1967248Y810000D02*
D03*
X1960752D02*
D03*
Y801500D02*
D03*
X1967248D02*
D03*
X1825752Y1120500D02*
D03*
X1832248D02*
D03*
X1827248Y1131500D02*
D03*
X1820752D02*
D03*
X1989748Y957500D02*
D03*
X1983252D02*
D03*
X1974248Y966000D02*
D03*
X1967752D02*
D03*
X1974248Y957500D02*
D03*
X1967752D02*
D03*
X1974248Y948000D02*
D03*
X1967752D02*
D03*
X1945748Y982689D02*
D03*
X1939252D02*
D03*
X1945748Y992189D02*
D03*
X1939252D02*
D03*
X1991248Y1058000D02*
D03*
X1984752D02*
D03*
X2039252Y1016500D02*
D03*
X2045748D02*
D03*
X1788752Y1050000D02*
D03*
X1795248D02*
D03*
X1788752Y1041500D02*
D03*
X1795248D02*
D03*
X1788752Y1033000D02*
D03*
X1795248D02*
D03*
X2039252Y999500D02*
D03*
X2045748D02*
D03*
X2039252Y1008000D02*
D03*
X2045748D02*
D03*
X1816748Y1112000D02*
D03*
X1810252D02*
D03*
X1816748Y1120500D02*
D03*
X1810252D02*
D03*
X1809252Y942000D02*
D03*
X1815748D02*
D03*
X1888748Y947500D02*
D03*
X1882252D02*
D03*
X2078248Y882500D02*
D03*
X2071752D02*
D03*
X2078248Y870000D02*
D03*
X2071752D02*
D03*
X1919248Y818000D02*
D03*
X1912752D02*
D03*
X1919248Y835000D02*
D03*
X1912752D02*
D03*
X1983252Y924000D02*
D03*
X1989748D02*
D03*
X2004748Y924167D02*
D03*
X1998252D02*
D03*
X1983252Y916000D02*
D03*
X1989748D02*
D03*
D31*
X1864209Y945500D02*
D03*
X1852791D02*
D03*
D32*
X1938244Y838500D02*
D03*
X1943756D02*
D03*
D33*
X2015909Y1057918D02*
D03*
D34*
X2009806Y1063823D02*
D03*
Y1052012D02*
D03*
D35*
X1777905Y1067500D02*
D03*
X1766095D02*
D03*
D36*
X2041969Y983500D02*
D03*
Y978500D02*
D03*
Y973500D02*
D03*
Y968500D02*
D03*
X2063032Y983500D02*
D03*
Y978500D02*
D03*
Y973500D02*
D03*
Y968500D02*
D03*
D38*
X1967768Y931661D02*
D03*
Y934221D02*
D03*
Y936779D02*
D03*
Y939339D02*
D03*
X1951232Y931661D02*
D03*
Y934221D02*
D03*
Y936779D02*
D03*
Y939339D02*
D03*
X1949268Y818161D02*
D03*
Y820720D02*
D03*
Y823279D02*
D03*
Y825839D02*
D03*
X1932732Y818161D02*
D03*
Y820720D02*
D03*
Y823279D02*
D03*
Y825839D02*
D03*
D39*
X1913500Y989055D02*
D03*
Y1005197D02*
D03*
D40*
X1773146Y1135248D02*
D03*
Y1128752D02*
D03*
D41*
X2035500Y944252D02*
D03*
Y950748D02*
D03*
X2043500D02*
D03*
Y944252D02*
D03*
D42*
X1902032Y1058331D02*
D03*
X1905772Y1049669D02*
D03*
X1898291D02*
D03*
X1886531Y1058331D02*
D03*
X1890272Y1049669D02*
D03*
X1882791D02*
D03*
D43*
X1727500Y1080026D02*
D03*
Y1098974D02*
D03*
X1857000Y1051526D02*
D03*
Y1070474D02*
D03*
X1930000Y1028026D02*
D03*
Y1046974D02*
D03*
D44*
X1821500Y1057268D02*
D03*
D45*
X1808114Y1098803D02*
D03*
X1814807D02*
D03*
X1821500D02*
D03*
X1828193D02*
D03*
X1834886D02*
D03*
D46*
X1879752Y986236D02*
D03*
Y988205D02*
D03*
Y990173D02*
D03*
Y992142D02*
D03*
Y994110D02*
D03*
Y996079D02*
D03*
Y998047D02*
D03*
Y1000016D02*
D03*
Y1001984D02*
D03*
Y1003953D02*
D03*
Y1005921D02*
D03*
Y1007890D02*
D03*
Y1009858D02*
D03*
Y1011827D02*
D03*
Y1013795D02*
D03*
Y1015764D02*
D03*
X1836248D02*
D03*
Y1013795D02*
D03*
Y1011827D02*
D03*
Y1009858D02*
D03*
Y1007890D02*
D03*
Y1005921D02*
D03*
Y1003953D02*
D03*
Y1001984D02*
D03*
Y1000016D02*
D03*
Y998047D02*
D03*
Y996079D02*
D03*
Y994110D02*
D03*
Y992142D02*
D03*
Y990173D02*
D03*
Y988205D02*
D03*
Y986236D02*
D03*
D47*
X1872764Y1022752D02*
D03*
X1870795D02*
D03*
X1868827D02*
D03*
X1866858D02*
D03*
X1864890D02*
D03*
X1862921D02*
D03*
X1860953D02*
D03*
X1858984D02*
D03*
X1857016D02*
D03*
X1855047D02*
D03*
X1853079D02*
D03*
X1851110D02*
D03*
X1849142D02*
D03*
X1847173D02*
D03*
X1845205D02*
D03*
X1843236D02*
D03*
Y979248D02*
D03*
X1845205D02*
D03*
X1847173D02*
D03*
X1849142D02*
D03*
X1851110D02*
D03*
X1853079D02*
D03*
X1855047D02*
D03*
X1857016D02*
D03*
X1858984D02*
D03*
X1860953D02*
D03*
X1862921D02*
D03*
X1864890D02*
D03*
X1866858D02*
D03*
X1868827D02*
D03*
X1870795D02*
D03*
X1872764D02*
D03*
D49*
X1723031Y881831D02*
D03*
X1726969D02*
D03*
Y872776D02*
D03*
X1723031D02*
D03*
D50*
X1903005Y811500D02*
D03*
X1897887D02*
D03*
X1897941Y818500D02*
D03*
X1903059D02*
D03*
X1903005Y826000D02*
D03*
X1897887D02*
D03*
D97*
X2049764Y981119D02*
D03*
X2049764Y976000D02*
D03*
X2049764Y970882D02*
D03*
X2055236Y981119D02*
D03*
X2055237Y976000D02*
D03*
X2055236Y970882D02*
D03*
D98*
X1725000Y877500D02*
D03*
M02*
