G04 Layer_Color=25308*
%FSLAX25Y25*%
%MOIN*%
G70*
G01*
G75*
%ADD57C,0.15748*%
%ADD58C,0.06299*%
%ADD59R,0.06299X0.06299*%
%ADD60R,0.05906X0.05906*%
%ADD61C,0.05906*%
%ADD62C,0.10000*%
%ADD63C,0.06000*%
G04:AMPARAMS|DCode=64|XSize=118.11mil|YSize=50mil|CornerRadius=12.5mil|HoleSize=0mil|Usage=FLASHONLY|Rotation=270.000|XOffset=0mil|YOffset=0mil|HoleType=Round|Shape=RoundedRectangle|*
%AMROUNDEDRECTD64*
21,1,0.11811,0.02500,0,0,270.0*
21,1,0.09311,0.05000,0,0,270.0*
1,1,0.02500,-0.01250,-0.04656*
1,1,0.02500,-0.01250,0.04656*
1,1,0.02500,0.01250,0.04656*
1,1,0.02500,0.01250,-0.04656*
%
%ADD64ROUNDEDRECTD64*%
%ADD65O,0.05000X0.11811*%
%ADD66C,0.08661*%
%ADD67C,0.07874*%
G04:AMPARAMS|DCode=68|XSize=60mil|YSize=60mil|CornerRadius=6mil|HoleSize=0mil|Usage=FLASHONLY|Rotation=90.000|XOffset=0mil|YOffset=0mil|HoleType=Round|Shape=RoundedRectangle|*
%AMROUNDEDRECTD68*
21,1,0.06000,0.04800,0,0,90.0*
21,1,0.04800,0.06000,0,0,90.0*
1,1,0.01200,0.02400,0.02400*
1,1,0.01200,0.02400,-0.02400*
1,1,0.01200,-0.02400,-0.02400*
1,1,0.01200,-0.02400,0.02400*
%
%ADD68ROUNDEDRECTD68*%
%ADD69R,0.05512X0.08268*%
%ADD70R,0.08268X0.05512*%
%ADD71R,0.09843X0.09843*%
%ADD72C,0.08000*%
%ADD73C,0.05400*%
%ADD74R,0.07500X0.07500*%
%ADD75C,0.07500*%
%ADD76C,0.02362*%
%ADD77C,0.14173*%
%ADD78R,0.05906X0.05906*%
%ADD80R,0.01378X0.01378*%
%ADD81R,0.01181X0.01378*%
D57*
X1858000Y1094500D02*
D03*
X1751000Y923000D02*
D03*
D58*
X1776500Y929000D02*
D03*
Y939000D02*
D03*
X1748500Y1051500D02*
D03*
Y1041500D02*
D03*
X1772000Y1051500D02*
D03*
Y1041500D02*
D03*
X1797000Y939000D02*
D03*
Y929000D02*
D03*
D59*
X1776500Y919000D02*
D03*
X1748500Y1031500D02*
D03*
X1772000D02*
D03*
X1797000Y919000D02*
D03*
D60*
X2083000Y1026689D02*
D03*
X2100000Y889311D02*
D03*
D61*
X2083000Y1034563D02*
D03*
Y1042437D02*
D03*
Y1050311D02*
D03*
X1760658Y1013559D02*
D03*
X1780342Y956472D02*
D03*
X1770500D02*
D03*
X1760658D02*
D03*
X2100000Y865689D02*
D03*
Y873563D02*
D03*
Y881437D02*
D03*
D62*
X1719500Y921000D02*
D03*
Y941000D02*
D03*
Y961000D02*
D03*
Y981000D02*
D03*
Y1001000D02*
D03*
Y1021000D02*
D03*
Y1061000D02*
D03*
Y1041000D02*
D03*
D63*
X1825500Y971500D02*
D03*
Y941500D02*
D03*
Y961500D02*
D03*
Y951500D02*
D03*
X2019500Y929000D02*
D03*
X1836500Y971500D02*
D03*
Y941500D02*
D03*
Y961500D02*
D03*
Y951500D02*
D03*
X2100000Y926791D02*
D03*
Y936791D02*
D03*
Y946791D02*
D03*
Y956791D02*
D03*
Y966791D02*
D03*
Y1056791D02*
D03*
Y1046791D02*
D03*
Y1036791D02*
D03*
Y1026791D02*
D03*
Y1016791D02*
D03*
Y1006791D02*
D03*
Y996791D02*
D03*
Y986791D02*
D03*
Y976791D02*
D03*
X1814102Y1006567D02*
D03*
Y976567D02*
D03*
Y996567D02*
D03*
Y986567D02*
D03*
D64*
X1888063Y920000D02*
D03*
D65*
X1895937D02*
D03*
D66*
X2078925Y945476D02*
D03*
X2088866Y942130D02*
D03*
X2072134Y917327D02*
D03*
X2082075Y914374D02*
D03*
X2072134Y935831D02*
D03*
D67*
X2050000Y914248D02*
D03*
X2041142Y919760D02*
D03*
X2058858D02*
D03*
D68*
X2019500Y919000D02*
D03*
D69*
X1922658Y785153D02*
D03*
X1942343D02*
D03*
X1912815D02*
D03*
X1952185D02*
D03*
D70*
X1932500Y765469D02*
D03*
D71*
X1730000Y1118000D02*
D03*
D72*
Y1138000D02*
D03*
D73*
X1835795Y1128500D02*
D03*
X1810200D02*
D03*
D74*
X1780500Y1142000D02*
D03*
D75*
Y1122315D02*
D03*
Y1132158D02*
D03*
D76*
X2024500Y1096500D02*
D03*
D77*
X1792941Y986000D02*
D03*
X1748059D02*
D03*
D78*
X1780342Y1013559D02*
D03*
D80*
X1935311Y813390D02*
D03*
X1930783D02*
D03*
Y818311D02*
D03*
X1935311D02*
D03*
D81*
X1933047Y813390D02*
D03*
Y818311D02*
D03*
M02*
