M48
;Layer_Color=6321
;FILE_FORMAT=2:5
INCH,LZ
;TYPE=PLATED
T1F00S00C0.01575
T2F00S00C0.03000
T4F00S00C0.03200
T5F00S00C0.03543
T6F00S00C0.03600
T7F00S00C0.03937
T8F00S00C0.04000
T9F00S00C0.04700
T10F00S00C0.04724
T11F00S00C0.05000
T12F00S00C0.05512
T13F00S00C0.05906
T14F00S00C0.07087
T15F00S00C0.08858
T16F00S00C0.10236
T17F00S00C0.12598
;TYPE=NON_PLATED
T18F00S00C0.03150
%
T01
X1958Y0774
X19465Y0771
X1932Y0775
X1912Y07725
X2033Y08915
X2075Y08905
X2078Y08765
X2085Y0876
X20605Y08755
X20715Y08615
X2092Y09145
X20975Y0919
X2089Y09315
X20815Y0935
X2062Y0936752
X20565Y0932252
X20325Y09355
X2027Y0931
X2028Y09245
X20285Y09115
X2010833Y0924167
X20125Y09345
X2001Y09205
X1995Y09195
X19935Y0927
X1974248Y0928252
X1972Y09195
X1947
X1951232Y0927268
X19375Y0927
X1926
X1914Y09275
X19085Y0923
X1914Y09135
X19195Y0918
X1899Y0933
X187826Y09165
X1881Y08675
X18995Y0885
X19165Y08655
X1937
X19365Y0887
X19475Y08785
X19655Y0865
X19735Y0891
X1959221Y093428
X19495Y08385
X19535Y0833
X19575Y0825839
X1964Y08295
X19695Y0819
X1961Y08145
X19535Y08015
X1963Y07895
X1967493Y07825
X1973Y07945
X19755Y08065
X19265Y0813
X1926Y08175
X1919Y08225
X1926Y0836
X19385Y0828
X19035Y0833
X19105Y081
X1913Y07955
X19275Y0793
X1903Y0785
X1892Y0808
X2012Y0866
X1858Y09155
X1855Y0928
X18605Y09325
X18405Y09335
X18085Y0934
Y0929
Y0923
Y09165
X1735Y09155
Y0925
X17295Y09205
Y0911
X17315Y0887
X17205Y089
X1721Y0861
X1731Y08685
X17175
X1716Y1093
X17225
X17325
X1739
X1741Y106975
Y106325
X1736Y10665
X1746
X1751Y106975
Y106325
X1766Y10565
X17805Y10535
X178Y1041
X17805Y10295
X1781Y10065
X17705Y09965
X1763Y0987
X17795Y09855
X1771Y0972
X1786Y0968
X1789Y09555
X17975Y0963
X1803Y0966
X18195Y0953752
X1818Y09385
X1846Y0938
X184225Y095625
X1852Y0965
Y09715
X18595Y09665
X185775Y0963
X186675Y096375
X18715Y0966
X1865Y0956
X1862764Y09865
X18615Y0999
X1854Y09965
X18455Y09945
X184425Y10015
X1849Y1002
X1845Y1008
X1829Y10085
X18245Y10115
X1824Y1001
X18205Y0998
X1828Y09985
X1822Y0983
X18045Y10045
X1809Y1019
X1813Y10345
X1805Y10405
Y10475
X1801Y105
X1805Y1056
X18001Y10605
X1798571Y1072181
X18045Y10825
X1815891Y1082506
X18105Y1088
Y1077
X1803Y1093
X18435Y10905
X18465Y10875
X185Y1085
X1854Y1083
X1859Y10825
X18645Y1084
X1866Y10785
X1871Y10725
X1866Y1066
X1868Y10875
X1872
X184Y10645
X1838Y10555
X18405Y10355
X18465Y1039
X1852Y1043
X1853Y1031
X18565Y10305
X18585Y1036
X1869Y1034815
X1872Y1016
X18655Y10145
X18575Y1014279
X187Y1001984
X1873Y09965
X18725Y0993
X1833Y10225
X1825Y1031
X1734
Y10215
Y1012
X17285Y10075
Y1017
Y10265
Y0991
Y09815
Y0972
Y09625
X1734Y0967
Y09575
Y09765
Y0986
Y09955
X1756Y10025
X1753Y0967
X1875Y09655
X1882252Y0959248
X1885Y09805
X18875Y09845
X1892Y1004
Y10125
X18935Y1024
X18925Y10305
X1898Y1028
X19035Y10275
X19075Y1024
X19115Y10275
X19245Y10325
X19365Y1033
X194Y10285
X19365Y10245
X19325Y10125
X19215
X1925Y09995
X19225Y0984
X1932Y0982
X1926Y0974
X1923Y0971
X1917Y0973
X1911Y0975
Y095
X19055
X1917Y09495
X1931Y09505
X19345Y09555
X19435Y09545
X1944Y0946
X193708Y0940822
X19555Y0943
X19585Y09505
X19605Y0955
X1956Y09605
X19575Y0965
X19675Y09715
X1962Y09845
X1956Y0981
X1947Y0971
X19905Y09735
X199Y09865
X1987Y0988
X1975Y10005
X19695Y0996
Y10055
Y102
X1987Y1024
X19955Y10315
X2014
X201Y10175
X20045Y1013
X1995Y10065
X20095Y09925
X20205Y10025
X20275Y09875
X20245Y0976
X20305Y0967
X20275Y09555
X2023Y0954
X2024Y0942
X2012Y0948
X20175Y09635
X2007Y09655
X20045Y097
X19955Y09625
X1995Y09525
X1984Y0942
X19045Y09375
X1896Y0944
X18755Y09415
X18895Y10375
X1895
X18945Y1044
Y1065
X1885Y10655
X18765Y1066
Y10785
X1876Y10875
X188
X1884
X1888
X1892
X1896
X19
X1904
X1908
X1912
X1916
X192
X1924
X1928
X1932
X1936
X194
X1944
X1948
X1952
X1956
X196
X1964
X1968
X1972
X1976
X198
X1984
X1988
X1992
X1996
X2
X2004
X2008
X2012
X2016
X202
Y10835
Y10795
Y10755
Y10715
Y10675
X20175Y10635
X2028Y1063
X2029Y10675
Y10715
Y10755
Y10795
Y10835
Y10875
X2026Y10585
X2021Y10525
X2016079Y10515
X2003
X1999
X1995
X1991
X1987
X1983
X1979
X197
X1971Y1059
X1984Y10645
X1988
X1992
X1996
X1946Y10515
X19045Y10655
X2033Y10875
X2037
X2041
X2045
X2049
X2053
X2057
X2061
X2065
X2069
X2073
X2077
X2081
X2085
X2089
X2093
X2097
X2101
X20615Y10515
Y10445
X2057Y1031
X2061Y102
X20555Y10165
X2048472Y1012224
X20655Y1013
X20725Y1012
X2079Y1014
X20825Y10125
X20915Y1008291
X2091984Y0998984
X2091Y0991
X2097Y09915
X209Y0983
X20885Y0978724
X2086581Y0965372
X20825Y0965
X2082Y0958
X20785Y0955
X20965Y09615
X2074Y0976
X2077Y09895
X20725Y09955
X20545Y09905
X20425Y09955
X20345
X20355Y0955
X2043
X2050437Y0939563
X20565Y0966
X20395Y10335
X20475Y10515
X20245Y10965
X1843Y1095
Y1099
Y1103
Y1107
Y11195
Y11235
Y11275
Y11315
Y11355
Y11395
Y11435
Y11475
X1832Y1135
X18095
Y11435
X18015Y11475
X17945Y11445
X1788Y1148
X17725Y1145
X1772293Y11415
X17665Y11195
X1766Y11145
X17595Y11185
X1786Y11155
X17935Y1115
X1794Y1124
X1803Y11225
Y1115
Y11075
X1804Y1102
X1739Y1103
X17325
X173575Y1108
Y1098
X171925
X17225Y1103
X171925Y1108
X1716Y1103
T02
X18365Y09415
Y09515
Y09615
Y09715
X18255
Y09615
Y09515
Y09415
T04
X1895937Y092
X1888063
T05
X21Y0865689
Y0873563
Y0881437
Y0889311
X2083Y1026689
Y1034563
Y1042437
Y1050311
T06
X1835795Y11285
X18102
T07
X21Y0926791
Y0936791
X1797Y0929
Y0919
X17765
Y0929
Y0939
X1797
X1780342Y0956472
X17705
X1760658
Y1013559
X1780342
X1772Y10315
Y10415
Y10515
X17485
Y10415
Y10315
X1814102Y1006567
Y0996567
Y0986567
Y0976567
X21Y0976791
Y0966791
Y0956791
Y0946791
Y0986791
Y0996791
Y1006791
Y1016791
Y1026791
Y1036791
Y1046791
Y1056791
T08
X20195Y0919
Y0929
T09
X17805Y1122315
Y1132158
Y1142
T10
X205Y0932752
T11
X173Y1138
T12
X2082075Y0914374
X2072134Y0917327
Y0935831
X17195Y0921
Y0941
Y0961
Y0981
Y1001
Y1021
Y1041
Y1061
X2078925Y0945476
X2088866Y094213
T13
X2058858Y091976
X205Y0914248
X2041142Y091976
T14
X173Y1118
T15
X1933Y08045
T16
X1792941Y0986
X1748059
T17
X1751Y0923
X1858Y10945
T18
X1944299Y0846102
X1936944
X1929588
X1922232
X1921542Y0907978
X1928898
X1936253
X1943609
M30
