M48
;Layer_Color=0
;FILE_FORMAT=2:5
INCH,LZ
;TYPE=PLATED
T1F00S00C0.01575
T2F00S00C0.02362
T3F00S00C0.03000
T4F00S00C0.03150
T5F00S00C0.03543
T6F00S00C0.03900
T7F00S00C0.03937
T8F00S00C0.04700
T9F00S00C0.05000
T10F00S00C0.05906
T11F00S00C0.06299
T12F00S00C0.07087
T13F00S00C0.10236
T14F00S00C0.12598
%
T01
X2079Y0928
X20645Y0931
X2053Y09315
X2047Y0912
X20165Y0911
X19965Y0912
X1976Y0914
X1962Y0925
X19515Y09355
X1934Y0933
Y0929
X19315Y09255
X1921Y0925
X19195Y0937
X19035Y09365
X1896Y0937
X18945Y09205
X1895Y09155
X18895Y0917
X1885
X1881
X1875Y09185
X18755Y09265
X18785Y0929
X18815Y09315
X19015Y0917516
X190435Y09158
X19075Y0916
X19115Y09155
X19285
X2001Y09365
X18675Y0932
X18665Y09285
X18645Y09255
X18695Y092
X1853Y09285
X18555Y0933
X1845
X18365Y09305
X18355Y0925445
X183275Y092125
X1806Y09155
X17915Y0916
X1782Y09225
X1792581Y0931919
X18045Y0931
X17635Y0916
X1752Y09225
X1738Y09235
X1734Y0935
X1729Y0937
X172225Y093575
X172Y0951
X1722Y097
X17225Y09805
Y09895
X17265Y09855
X17315Y09835
Y09785
X1733Y098774
X17345Y0992
X1744Y0991
X17515Y09915
X17545Y09975
X1762Y099
X17605Y0985514
X17595Y0979
X17665Y0981
X17685Y09705
X1772Y09675
X1788Y0958991
X17875Y0955
X17925Y09575
X17905Y09505
X1791Y09455
X17835Y0946
X17795Y0943
X1804Y0951
X1807Y0949
X1815Y09535
X18025Y09645
X18055Y09755
X1796Y0976
X1789248Y0990752
X1801Y0996
X18085Y10065
X18125Y10085
X18135Y1012
X1811Y1017
X18165Y0999
X18225Y09985
X182Y0994
X18175Y09855
X1822Y0977
X18195Y0974
X1842Y09745
X1848Y0975
X1853Y0977
X18575Y0974
X1862Y0968
X1871Y09805
X1874Y0979
X18625Y0992
X1857576Y09985
X186Y1003
X18565Y1008
X1862Y10145
X1859Y10185
Y1025
X18595Y10335
Y1045
X1852Y10275
X1834Y10255
X1829Y1034
X1836Y10525
X18265Y10575
X18275Y10635
X18315Y1078
X1831Y10825
X1843Y10815
X1854Y10825
X1851Y1086
X18615Y1083
X1866Y10855
X18605Y10735
X18725Y1073
X18435Y10695
X18365Y10745
X18155Y10815
X1826Y10925
X17845
X17815Y1073
X17655Y10725
X17575Y1082
X1748Y1088
X17445Y10915
X17295Y10825
X1729Y1070252
Y10605
X17225Y10525
X17275Y10335
X1731Y10295
X17295Y1024
X17245Y1017
X1734Y10075
X1755Y10155
X17635Y10145
X17675Y10345
X17835Y10355
X18025
X1802Y10535
X1801Y1072
X1782Y1054
X1767
X17785Y09995
X1752359Y0976859
X1743965Y09765
X173781Y0965427
X17325Y0967
X1736Y09595
X17425Y09405
X1749Y094
X18385Y09455
X1841Y0958
X1848
X1855Y09405
X1851Y0989
X18465Y0986
X1841Y0982
X18375
X1838Y0989
X1835Y09905
X1875076Y09955
X1879Y10015
X18785Y1011
X1879Y1024
X1892Y10245
X1894Y1014
X1906Y1025
X1916Y1031
X19175Y10195
X19145Y1008
X19105Y1004
X19165Y0999
X1913Y0995
X19215Y0996
X19205Y09925
X19275Y0994
Y10065
X1934Y1014
X1933Y1018
Y1024
X19365Y1026
X1947Y1024
X1951Y1028
X1957Y1037
X196Y1042
X19575Y10515
X19665
X1957Y10675
X1949Y10765
X1952Y10835
X19365Y1081
X19245Y10805
X191975Y1085252
X19095Y10825
X1907768Y1087646
X1906Y10935
X1914Y10765
X19155Y10545
X192Y10535
X1925Y1039
X19305Y104
X19375Y10505
X1938248Y1058
X19475
X1968Y10855
X1972Y10835
X19735Y109
X19785Y1089
X19675Y1092
X1994Y1065
X1997Y10515
X20085
X2006Y1048
X20085Y10425
X2005Y1038
X2Y1039993
X1991Y1039
X2015
X2025Y10395
X20255Y1009
Y09915
X2009Y0986
X2017Y09655
X20165Y09605
X2000394Y0960854
X19875Y09575
X19735Y0959
X1973Y09485
X1979
X1982Y09425
X19935Y0939
X20025Y0942
X20095Y09425
X20205Y0947
X1965Y09485
X1963Y09585
X1951Y0951
X19465Y09495
X1942Y09475
X19425Y0943
X19395Y09395
X1931Y0939
X1931223Y0942266
X1919Y09425
X19155Y09445
X1918Y0951
X19185Y0955
X19115
X1917Y09615
X190404Y0964263
X18995Y09645
X19005Y0959
X1895Y0956
X1888Y0954
Y09585
X1887Y0950007
X1904Y09475
X19115Y09385
X193Y09545
X1926Y097
X1923Y0978
X193
X19305Y09845
X1941755
X19425Y0994
X19505Y0996
X19605Y0997
X19685Y0996
X1977Y09975
X1973Y1005
X1981Y1013
X19525Y10125
X19465Y0975
X1941Y0973
X1907Y0979
X191Y0982
X18965Y09865
X1899494Y0990485
X1882Y09735
X18845Y09705
X1877284Y0977004
X19075Y10435
X1899Y1067
X1886Y10675
X2014Y10695
X2013Y10795
X2018Y10785
X2005Y10215
X1978Y09835
X1985Y0975
X20335Y0966
X20375Y09535
X2057Y0956
X20775Y09575
X20605Y09795
X2048Y09825
Y0973
X2042Y0996
X2053Y1007
X20585Y10045
X20675Y1004
X2068Y1017
X20685Y10305
X20575Y1035
X2049Y10345
X20515Y1019
X2045Y10505
X20415Y10695
X20435Y10775
X2044Y1081
X20495Y10775
X2034Y1075
X20455Y10915
X20725Y1076
X20835Y10755
X208Y107
X2071Y1053
X2101Y10565
X2102Y1037
X20875Y1095
X20855Y11075
X2065
X207Y1098
X20565Y11005
X2039Y11025
X2043Y11175
X2046Y11245
X20465Y11285
X2042Y1131
X2041Y11425
X20475
X2054
X2052Y1121
X20655Y11285
X20705Y11345
X20295Y11355
X20275Y11315
X2019Y11045
X1972Y10945
X1968Y1098
X1948Y1097
X19395Y10975
X1943Y11025
X19255
X1905Y11005
X1902Y10965
X1897Y1096
X1889Y1097
X1891Y1107
X18765Y1097
X19695Y11315
X18655Y10945
X18465Y10955
X1846Y11085
X17935Y1105
X17945Y1113
Y11235
Y11305
X17675Y1123
X1769Y1106
X1776Y11045
X1749Y1098
X1744Y11005
X1719Y1102
Y11105
T02
X1815Y1076827
X1809Y10825
T03
X1829Y09605
Y09705
Y09805
Y09905
X18145
Y09805
Y09705
Y09605
X19555Y097
Y098
Y099
Y1
T04
X1799Y0924236
Y0934079
Y0943921
Y0953764
X1843Y1018157
Y1037842
T05
X2080342Y1124
X2060658
T06
X1785Y1117
X1775
Y1127
X1785
Y1137
X1775
T07
X20745Y0921
X20645
X20545
X1756732Y0917071
X174689
X1722071Y0917268
Y092711
X17175Y0946209
Y0956209
Y0966209
Y0976209
Y0986209
Y0996209
Y1006209
Y1016209
Y1026209
Y1036209
Y1046209
Y1056209
Y1066209
Y1076209
X1965532Y1001209
Y0991209
Y0981209
Y0971209
X2015973Y0977157
Y0987
Y0996842
X2003398Y0996433
Y1006433
Y1016433
Y1026433
X2054Y1025
X2064
X2074
Y1047
X2064
X2054
Y10705
X2064
X2074
Y1092
X2064
X2054
X2073059Y0996842
Y0977157
X2074Y0948
X2064
X2054
X2035496Y11105
X202648
X2017465
T08
X182Y0918815
Y0928658
Y09385
T09
X2097Y0918772
Y0932551
Y0946331
Y096011
Y097389
Y0987669
Y1001449
X20975Y1046791
Y1066791
Y1086791
X17265Y114
T10
X1988764Y1018091
X1959236
Y1077146
X1988764
Y1097028
Y1116909
X1991154Y1137
X2010839
X1947846
X1928161
X1959236Y1116909
Y1097028
X18325Y11275
T11
X18425Y11175
X18225
Y11375
X18425
T12
X2097Y1015228
X20975Y1106791
X17265Y112
T13
X20455Y0964559
Y1009441
T14
X203Y09225
Y10905
X1872Y11265
M30
