G04 Layer_Color=20142*
%FSLAX25Y25*%
%MOIN*%
G70*
G01*
G75*
%ADD87R,0.07000X0.03000*%
%ADD88O,0.03162X0.07887*%
%ADD89O,0.07887X0.03162*%
%ADD90R,0.25997X0.33477*%
%ADD91R,0.04737X0.17335*%
%ADD92O,0.06902X0.01784*%
%ADD93O,0.01784X0.06902*%
%ADD94R,0.03162X0.05524*%
%ADD95R,0.11706X0.16154*%
%ADD96R,0.04580X0.02769*%
%ADD97R,0.05721X0.11430*%
%ADD98R,0.05328X0.04934*%
%ADD99R,0.08280X0.19698*%
%ADD100R,0.06706X0.08280*%
%ADD101R,0.11233X0.07690*%
%ADD102R,0.10249X0.08280*%
%ADD103R,0.04068X0.03280*%
%ADD104O,0.07493X0.02572*%
G04:AMPARAMS|DCode=105|XSize=47.37mil|YSize=78.87mil|CornerRadius=13.84mil|HoleSize=0mil|Usage=FLASHONLY|Rotation=180.000|XOffset=0mil|YOffset=0mil|HoleType=Round|Shape=RoundedRectangle|*
%AMROUNDEDRECTD105*
21,1,0.04737,0.05118,0,0,180.0*
21,1,0.01969,0.07887,0,0,180.0*
1,1,0.02769,-0.00984,0.02559*
1,1,0.02769,0.00984,0.02559*
1,1,0.02769,0.00984,-0.02559*
1,1,0.02769,-0.00984,-0.02559*
%
%ADD105ROUNDEDRECTD105*%
G04:AMPARAMS|DCode=106|XSize=59.18mil|YSize=86.74mil|CornerRadius=16.8mil|HoleSize=0mil|Usage=FLASHONLY|Rotation=180.000|XOffset=0mil|YOffset=0mil|HoleType=Round|Shape=RoundedRectangle|*
%AMROUNDEDRECTD106*
21,1,0.05918,0.05315,0,0,180.0*
21,1,0.02559,0.08674,0,0,180.0*
1,1,0.03359,-0.01280,0.02658*
1,1,0.03359,0.01280,0.02658*
1,1,0.03359,0.01280,-0.02658*
1,1,0.03359,-0.01280,-0.02658*
%
%ADD106ROUNDEDRECTD106*%
%ADD107R,0.09698X0.09304*%
%ADD108R,0.03950X0.04343*%
%ADD109R,0.04800X0.12500*%
%ADD110C,0.06800*%
%ADD111R,0.04540X0.03556*%
%ADD112R,0.05131X0.03359*%
G04:AMPARAMS|DCode=113|XSize=21.78mil|YSize=31.62mil|CornerRadius=7.45mil|HoleSize=0mil|Usage=FLASHONLY|Rotation=90.000|XOffset=0mil|YOffset=0mil|HoleType=Round|Shape=RoundedRectangle|*
%AMROUNDEDRECTD113*
21,1,0.02178,0.01673,0,0,90.0*
21,1,0.00689,0.03162,0,0,90.0*
1,1,0.01489,0.00837,0.00345*
1,1,0.01489,0.00837,-0.00345*
1,1,0.01489,-0.00837,-0.00345*
1,1,0.01489,-0.00837,0.00345*
%
%ADD113ROUNDEDRECTD113*%
%ADD114R,0.23635X0.25210*%
%ADD115R,0.08674X0.14973*%
%ADD116R,0.06902X0.08280*%
%ADD117R,0.04540X0.04147*%
%ADD118R,0.04934X0.04540*%
%ADD119R,0.04934X0.05328*%
%ADD120R,0.04147X0.04540*%
%ADD121R,0.04343X0.03950*%
%ADD122C,0.08800*%
%ADD123R,0.10642X0.10642*%
%ADD124C,0.12611*%
%ADD125R,0.08300X0.08300*%
%ADD126C,0.08300*%
%ADD127R,0.08300X0.08300*%
%ADD128C,0.09658*%
%ADD129C,0.09461*%
%ADD130R,0.07099X0.07099*%
%ADD131C,0.07099*%
%ADD132C,0.06312*%
%ADD133R,0.06800X0.06800*%
%ADD134C,0.14973*%
%ADD135C,0.06706*%
%ADD136R,0.06706X0.06706*%
%ADD137R,0.07099X0.07099*%
%ADD138C,0.16548*%
%ADD139C,0.03162*%
%ADD140C,0.04343*%
D87*
X1744500Y956500D02*
D03*
Y951500D02*
D03*
Y946500D02*
D03*
X1744000Y961500D02*
D03*
X1768500D02*
D03*
Y956500D02*
D03*
Y951500D02*
D03*
Y946500D02*
D03*
D88*
X1772913Y1082327D02*
D03*
X1777244D02*
D03*
X1781575D02*
D03*
X1785905D02*
D03*
X1790236D02*
D03*
X1794567D02*
D03*
X1798898D02*
D03*
X1803228D02*
D03*
Y1013035D02*
D03*
X1798898D02*
D03*
X1794567D02*
D03*
X1790236D02*
D03*
X1785905D02*
D03*
X1781575D02*
D03*
X1777244D02*
D03*
X1772913D02*
D03*
X1768583D02*
D03*
Y1082327D02*
D03*
D89*
X1816811Y1071500D02*
D03*
Y1067169D02*
D03*
Y1062839D02*
D03*
Y1058508D02*
D03*
Y1054177D02*
D03*
Y1049846D02*
D03*
Y1045516D02*
D03*
Y1041185D02*
D03*
Y1036854D02*
D03*
Y1032524D02*
D03*
Y1028193D02*
D03*
Y1023862D02*
D03*
X1755000D02*
D03*
Y1028193D02*
D03*
Y1032524D02*
D03*
Y1036854D02*
D03*
Y1041185D02*
D03*
Y1045516D02*
D03*
Y1049846D02*
D03*
Y1054177D02*
D03*
Y1058508D02*
D03*
Y1062839D02*
D03*
Y1067169D02*
D03*
Y1071500D02*
D03*
D90*
X1885500Y1043768D02*
D03*
D91*
X1872114Y1085303D02*
D03*
X1878807D02*
D03*
X1885500D02*
D03*
X1892193D02*
D03*
X1898886D02*
D03*
D92*
X1881248Y963764D02*
D03*
Y961795D02*
D03*
Y959827D02*
D03*
Y957858D02*
D03*
Y955890D02*
D03*
Y953921D02*
D03*
Y951953D02*
D03*
Y949984D02*
D03*
Y948016D02*
D03*
Y946047D02*
D03*
Y944079D02*
D03*
Y942110D02*
D03*
Y940142D02*
D03*
Y938173D02*
D03*
Y936205D02*
D03*
Y934236D02*
D03*
X1924752D02*
D03*
Y936205D02*
D03*
Y938173D02*
D03*
Y940142D02*
D03*
Y942110D02*
D03*
Y944079D02*
D03*
Y946047D02*
D03*
Y948016D02*
D03*
Y949984D02*
D03*
Y951953D02*
D03*
Y953921D02*
D03*
Y955890D02*
D03*
Y957858D02*
D03*
Y959827D02*
D03*
Y961795D02*
D03*
Y963764D02*
D03*
D93*
X1888236Y927248D02*
D03*
X1890205D02*
D03*
X1892173D02*
D03*
X1894142D02*
D03*
X1896110D02*
D03*
X1898079D02*
D03*
X1900047D02*
D03*
X1902016D02*
D03*
X1903984D02*
D03*
X1905953D02*
D03*
X1907921D02*
D03*
X1909890D02*
D03*
X1911858D02*
D03*
X1913827D02*
D03*
X1915795D02*
D03*
X1917764D02*
D03*
Y970752D02*
D03*
X1915795D02*
D03*
X1913827D02*
D03*
X1911858D02*
D03*
X1909890D02*
D03*
X1907921D02*
D03*
X1905953D02*
D03*
X1903984D02*
D03*
X1902016D02*
D03*
X1900047D02*
D03*
X1898079D02*
D03*
X1896110D02*
D03*
X1894142D02*
D03*
X1892173D02*
D03*
X1890205D02*
D03*
X1888236D02*
D03*
D94*
X1882386Y1010843D02*
D03*
X1889866D02*
D03*
X1886126Y1019505D02*
D03*
X1901626D02*
D03*
X1905366Y1010843D02*
D03*
X1897886D02*
D03*
X1867386D02*
D03*
X1874866D02*
D03*
X1871126Y1019505D02*
D03*
D95*
X1756500Y954000D02*
D03*
D96*
X1767031Y946500D02*
D03*
Y951500D02*
D03*
Y956500D02*
D03*
Y961500D02*
D03*
X1745968Y946500D02*
D03*
Y951500D02*
D03*
Y956500D02*
D03*
Y961500D02*
D03*
D97*
X1977110Y1139000D02*
D03*
X1965890D02*
D03*
D98*
X1924000Y1085252D02*
D03*
Y1091748D02*
D03*
X2027748Y1046000D02*
D03*
X2021252D02*
D03*
X1863252Y955500D02*
D03*
X1869748D02*
D03*
X1871748Y1102500D02*
D03*
X1865252D02*
D03*
X1949252Y960000D02*
D03*
X1955748D02*
D03*
X1857248Y1099500D02*
D03*
X1850752D02*
D03*
X1857248Y1091500D02*
D03*
X1850752D02*
D03*
X1924748Y1046500D02*
D03*
X1918252D02*
D03*
X1944248Y923000D02*
D03*
X1937752D02*
D03*
X1880252Y1102500D02*
D03*
X1886748D02*
D03*
X1835752Y1091500D02*
D03*
X1842248D02*
D03*
X1835752Y1099500D02*
D03*
X1842248D02*
D03*
X2059252Y1136000D02*
D03*
X2065748D02*
D03*
X2027748Y1063000D02*
D03*
X2021252D02*
D03*
X1987748Y965500D02*
D03*
X1981252D02*
D03*
X1742248Y1047500D02*
D03*
X1735752D02*
D03*
X2011748Y956000D02*
D03*
X2005252D02*
D03*
X1742248Y1056000D02*
D03*
X1735752D02*
D03*
X1735252Y1064500D02*
D03*
X1741748D02*
D03*
X1735252Y1073000D02*
D03*
X1741748D02*
D03*
X2027248Y1072500D02*
D03*
X2020752D02*
D03*
X1991752Y947000D02*
D03*
X1998248D02*
D03*
X2028248Y965500D02*
D03*
X2021752D02*
D03*
X2011748Y924000D02*
D03*
X2005252D02*
D03*
X2011748Y965500D02*
D03*
X2005252D02*
D03*
X1746748Y934500D02*
D03*
X1740252D02*
D03*
X1755252D02*
D03*
X1761748D02*
D03*
X1848748Y923000D02*
D03*
X1842252D02*
D03*
X1945248Y930000D02*
D03*
X1938752D02*
D03*
X1936752Y1076500D02*
D03*
X1943248D02*
D03*
X2076752Y1136000D02*
D03*
X2083248D02*
D03*
X1788248Y1099000D02*
D03*
X1781752D02*
D03*
X1735252Y1081000D02*
D03*
X1741748D02*
D03*
X2076748Y1105000D02*
D03*
X2070252D02*
D03*
X2007252Y947000D02*
D03*
X2013748D02*
D03*
X2005252Y932500D02*
D03*
X2011748D02*
D03*
X2027748Y1054500D02*
D03*
X2021252D02*
D03*
X2022252Y956000D02*
D03*
X2028748D02*
D03*
X1917248Y1039000D02*
D03*
X1910752D02*
D03*
X1988248Y1002000D02*
D03*
X1981752D02*
D03*
D99*
X2015634Y1025000D02*
D03*
X2032366D02*
D03*
D100*
X1964095Y1107500D02*
D03*
X1975905D02*
D03*
D101*
X1976909Y991248D02*
D03*
X1993248D02*
D03*
D102*
X1845500Y966071D02*
D03*
Y949929D02*
D03*
D103*
X2039000Y1051276D02*
D03*
Y1060724D02*
D03*
D104*
X1918732Y1069839D02*
D03*
Y1067280D02*
D03*
Y1064721D02*
D03*
Y1062161D02*
D03*
X1935268Y1069839D02*
D03*
Y1067280D02*
D03*
Y1064721D02*
D03*
Y1062161D02*
D03*
D105*
X1822082Y1105020D02*
D03*
D106*
X1816177Y1098918D02*
D03*
X1827988D02*
D03*
D107*
X1752500Y1125354D02*
D03*
Y1144646D02*
D03*
D108*
X1936260Y1038063D02*
D03*
X1943740D02*
D03*
X1940000Y1045937D02*
D03*
X1747740Y1019437D02*
D03*
X1740260D02*
D03*
X1744000Y1011563D02*
D03*
D109*
X1933000Y1121474D02*
D03*
Y1102526D02*
D03*
X1922000Y1028474D02*
D03*
Y1009526D02*
D03*
X2034500Y1124026D02*
D03*
Y1142974D02*
D03*
D110*
X1782500Y931000D02*
D03*
X2001500Y1108500D02*
D03*
X1829000Y990500D02*
D03*
Y960500D02*
D03*
Y980500D02*
D03*
Y970500D02*
D03*
X1775000Y1117000D02*
D03*
X1785000D02*
D03*
X1775000Y1127000D02*
D03*
X1785000D02*
D03*
X1775000Y1137000D02*
D03*
X1965532Y981209D02*
D03*
Y1001209D02*
D03*
Y971209D02*
D03*
X1717500Y1076209D02*
D03*
Y1066209D02*
D03*
Y1056209D02*
D03*
Y1046209D02*
D03*
Y1036209D02*
D03*
Y946209D02*
D03*
Y956209D02*
D03*
Y966209D02*
D03*
Y976209D02*
D03*
Y986209D02*
D03*
Y996209D02*
D03*
Y1006209D02*
D03*
Y1016209D02*
D03*
Y1026209D02*
D03*
X1965532Y991209D02*
D03*
X2003398Y996433D02*
D03*
Y1026433D02*
D03*
Y1006433D02*
D03*
Y1016433D02*
D03*
X1799000Y924236D02*
D03*
Y934079D02*
D03*
Y943921D02*
D03*
Y953764D02*
D03*
X1955500Y1000000D02*
D03*
Y970000D02*
D03*
Y990000D02*
D03*
Y980000D02*
D03*
X1814500Y990500D02*
D03*
Y960500D02*
D03*
Y980500D02*
D03*
Y970500D02*
D03*
D111*
X1882752Y998000D02*
D03*
X1889248D02*
D03*
D112*
X1781724Y989240D02*
D03*
Y985500D02*
D03*
Y981760D02*
D03*
X1772276D02*
D03*
Y985500D02*
D03*
Y989240D02*
D03*
D113*
X1738268Y987339D02*
D03*
Y979661D02*
D03*
X1746732D02*
D03*
Y987339D02*
D03*
Y982220D02*
D03*
Y984779D02*
D03*
X1738268D02*
D03*
Y982220D02*
D03*
D114*
X1975500Y1035476D02*
D03*
D115*
X1966484Y1063823D02*
D03*
X1984516D02*
D03*
D116*
X1738307Y1107500D02*
D03*
X1726693D02*
D03*
X1750693D02*
D03*
X1762307D02*
D03*
D117*
X2039000Y1040343D02*
D03*
Y1045658D02*
D03*
X1731500Y941343D02*
D03*
Y946657D02*
D03*
X1737500Y941343D02*
D03*
Y946657D02*
D03*
X1737000Y1089843D02*
D03*
Y1095158D02*
D03*
X1762000Y1125342D02*
D03*
Y1130657D02*
D03*
X1857000Y954158D02*
D03*
Y948843D02*
D03*
X1883500Y926157D02*
D03*
Y920842D02*
D03*
X1932000Y964342D02*
D03*
Y969658D02*
D03*
X1857000Y965658D02*
D03*
Y960343D02*
D03*
X1748000Y975158D02*
D03*
Y969843D02*
D03*
X1752000Y986658D02*
D03*
Y981343D02*
D03*
X1771000Y921657D02*
D03*
Y916343D02*
D03*
D118*
X1870500Y942854D02*
D03*
Y937146D02*
D03*
D119*
X1739500Y1002748D02*
D03*
Y996252D02*
D03*
X1932500Y1091748D02*
D03*
Y1085252D02*
D03*
X1756500Y1003252D02*
D03*
Y1009748D02*
D03*
X1748000Y996500D02*
D03*
Y1002996D02*
D03*
X1941000Y960252D02*
D03*
Y966748D02*
D03*
X1915500Y1091748D02*
D03*
Y1085252D02*
D03*
X1730000Y1090252D02*
D03*
Y1096748D02*
D03*
X2060500Y1105252D02*
D03*
Y1111748D02*
D03*
X2062500Y968748D02*
D03*
Y962252D02*
D03*
X1942500Y1017252D02*
D03*
Y1023748D02*
D03*
X1758500Y1091752D02*
D03*
Y1098248D02*
D03*
X1826500Y1076752D02*
D03*
Y1083248D02*
D03*
X1772500Y1002748D02*
D03*
Y996252D02*
D03*
X1784000Y1002748D02*
D03*
Y996252D02*
D03*
X1794000Y996748D02*
D03*
Y990252D02*
D03*
X2043500Y1105252D02*
D03*
Y1111748D02*
D03*
X2051000Y1126252D02*
D03*
Y1132748D02*
D03*
X2052000Y1105252D02*
D03*
Y1111748D02*
D03*
X1996000Y965748D02*
D03*
Y959252D02*
D03*
X1721000Y1096748D02*
D03*
Y1090252D02*
D03*
X1944000Y1068748D02*
D03*
Y1062252D02*
D03*
X1910500Y1061252D02*
D03*
Y1067748D02*
D03*
X1941000Y1091748D02*
D03*
Y1085252D02*
D03*
X1910500Y1047752D02*
D03*
Y1054248D02*
D03*
X1731500Y1002748D02*
D03*
Y996252D02*
D03*
X2071000Y962252D02*
D03*
Y968748D02*
D03*
X1771000Y934748D02*
D03*
Y928252D02*
D03*
D120*
X1943657Y915500D02*
D03*
X1938342D02*
D03*
X1832158Y1069500D02*
D03*
X1826842D02*
D03*
X1759842Y996000D02*
D03*
X1765158D02*
D03*
X1755843Y969500D02*
D03*
X1761157D02*
D03*
X1815842Y1090000D02*
D03*
X1821157D02*
D03*
X1793843D02*
D03*
X1799158D02*
D03*
X2056343Y1000000D02*
D03*
X2061658D02*
D03*
X1810158Y1090000D02*
D03*
X1804843D02*
D03*
X1903658Y1004300D02*
D03*
X1898343D02*
D03*
X1883468Y1004674D02*
D03*
X1888783D02*
D03*
X1867969Y1004174D02*
D03*
X1873284D02*
D03*
X1910342Y1100500D02*
D03*
X1915657D02*
D03*
X1926842Y1055000D02*
D03*
X1932158D02*
D03*
X1899500Y1102500D02*
D03*
X1894185D02*
D03*
X1996658Y976500D02*
D03*
X1991343D02*
D03*
X1996658Y982500D02*
D03*
X1991343D02*
D03*
X1918343Y921000D02*
D03*
X1923657D02*
D03*
X1887658Y977500D02*
D03*
X1882343D02*
D03*
D121*
X2075437Y1115500D02*
D03*
X2067563Y1111760D02*
D03*
Y1119240D02*
D03*
X1774937Y1095000D02*
D03*
X1767063Y1091260D02*
D03*
Y1098740D02*
D03*
D122*
X2097000Y973890D02*
D03*
Y987669D02*
D03*
Y1001449D02*
D03*
Y960110D02*
D03*
Y946331D02*
D03*
Y932551D02*
D03*
Y918772D02*
D03*
X2097500Y1046791D02*
D03*
Y1066791D02*
D03*
Y1086791D02*
D03*
X1726500Y1140000D02*
D03*
D123*
X2097000Y1015228D02*
D03*
X2097500Y1106791D02*
D03*
X1726500Y1120000D02*
D03*
D124*
X2010839Y1137000D02*
D03*
X1991154D02*
D03*
X1947846D02*
D03*
X1928161D02*
D03*
D125*
X1820000Y938500D02*
D03*
D126*
Y918815D02*
D03*
Y928658D02*
D03*
X2060658Y1124000D02*
D03*
D127*
X2080342D02*
D03*
D128*
X1832500Y1127500D02*
D03*
X1822500Y1137500D02*
D03*
Y1117500D02*
D03*
X1842500Y1137500D02*
D03*
Y1117500D02*
D03*
D129*
X1959236Y1018091D02*
D03*
X1988764D02*
D03*
Y1077146D02*
D03*
X1959236D02*
D03*
X1988764Y1097028D02*
D03*
X1959236D02*
D03*
X1988764Y1116909D02*
D03*
X1959236D02*
D03*
D130*
X1722071Y927110D02*
D03*
X2074000Y1092000D02*
D03*
X2035496Y1110500D02*
D03*
X2074500Y921000D02*
D03*
X2074000Y948000D02*
D03*
Y1025000D02*
D03*
Y1070500D02*
D03*
Y1047000D02*
D03*
D131*
X1722071Y917268D02*
D03*
X2054000Y1092000D02*
D03*
X2064000D02*
D03*
X2017465Y1110500D02*
D03*
X2026480D02*
D03*
X1756732Y917071D02*
D03*
X2054500Y921000D02*
D03*
X2064500D02*
D03*
X2054000Y948000D02*
D03*
X2064000D02*
D03*
X2054000Y1025000D02*
D03*
X2064000D02*
D03*
X2054000Y1070500D02*
D03*
X2064000D02*
D03*
X2054000Y1047000D02*
D03*
X2064000D02*
D03*
D132*
X1843000Y1037842D02*
D03*
Y1018157D02*
D03*
D133*
X1785000Y1137000D02*
D03*
D134*
X2045500Y1009441D02*
D03*
Y964559D02*
D03*
D135*
X2015973Y996842D02*
D03*
Y987000D02*
D03*
Y977157D02*
D03*
X2073059Y996842D02*
D03*
D136*
Y977157D02*
D03*
D137*
X1746890Y917071D02*
D03*
D138*
X1872000Y1126500D02*
D03*
X2030000Y922500D02*
D03*
Y1090500D02*
D03*
D139*
X1853000Y977000D02*
D03*
X1896000Y937000D02*
D03*
X1903500Y936500D02*
D03*
X1838000Y989000D02*
D03*
X1841000Y982000D02*
D03*
X1837500D02*
D03*
X1875500Y926500D02*
D03*
X1867500Y932000D02*
D03*
X1878500Y929000D02*
D03*
X1881500Y931500D02*
D03*
X1871000Y980500D02*
D03*
X1896500Y986500D02*
D03*
X1899494Y990485D02*
D03*
X1869500Y920000D02*
D03*
X1866500Y928500D02*
D03*
X1804000Y951000D02*
D03*
X1851000Y989000D02*
D03*
X1807000Y949000D02*
D03*
X1817500Y985500D02*
D03*
X1875076Y995500D02*
D03*
X1942500Y994000D02*
D03*
X2025500Y991500D02*
D03*
Y1009000D02*
D03*
X1835500Y925445D02*
D03*
X1815500Y1081500D02*
D03*
X1793500Y1105000D02*
D03*
X1776000Y1104500D02*
D03*
X1947000Y1024000D02*
D03*
X1951000Y1028000D02*
D03*
X1754500Y997500D02*
D03*
X2034000Y1075000D02*
D03*
X2041500Y1069500D02*
D03*
X2039000Y1102500D02*
D03*
X1927500Y994000D02*
D03*
X1920500Y992500D02*
D03*
X1913000Y995000D02*
D03*
X1897000Y1096000D02*
D03*
X1902000Y1096500D02*
D03*
X1905000Y1100500D02*
D03*
X1925500Y1102500D02*
D03*
X1939500Y1097500D02*
D03*
X1891000Y1107000D02*
D03*
X1724500Y1017000D02*
D03*
X1722500Y989500D02*
D03*
X2005000Y1021500D02*
D03*
X2042000Y996000D02*
D03*
X2058500Y1004500D02*
D03*
X2033500Y966000D02*
D03*
X1973000Y1005000D02*
D03*
X1977000Y997500D02*
D03*
X1927500Y1006500D02*
D03*
X1942500Y943000D02*
D03*
X1722500Y1052500D02*
D03*
X1726500Y985500D02*
D03*
X1722500Y980500D02*
D03*
X1889500Y917000D02*
D03*
X1934000Y1014000D02*
D03*
X1957000Y1037000D02*
D03*
X1936500Y1026000D02*
D03*
X1916000Y1031000D02*
D03*
X1937500Y1050500D02*
D03*
X1925000Y1039000D02*
D03*
X1915500Y1054500D02*
D03*
X1920000Y1053500D02*
D03*
X1720000Y951000D02*
D03*
X1722250Y935750D02*
D03*
X1815000Y953500D02*
D03*
X1836500Y930500D02*
D03*
X1832750Y921250D02*
D03*
X1957000Y1067500D02*
D03*
X1933000Y1018000D02*
D03*
X1931223Y942266D02*
D03*
X1931000Y939000D02*
D03*
X1919500Y937000D02*
D03*
X1919000Y942500D02*
D03*
X1731500Y978500D02*
D03*
X1894500Y920500D02*
D03*
X1792500Y957500D02*
D03*
X1752359Y976859D02*
D03*
X1939500Y939500D02*
D03*
X1978500Y1089000D02*
D03*
X1948000Y1097000D02*
D03*
X2006000Y1048000D02*
D03*
X1997000Y1051500D02*
D03*
X1957500D02*
D03*
X1994000Y1065000D02*
D03*
X1734000Y1007500D02*
D03*
X1969500Y1131500D02*
D03*
X1882000Y973500D02*
D03*
X1966500Y1051500D02*
D03*
X1960000Y1042000D02*
D03*
X1887000Y950007D02*
D03*
X1888000Y954000D02*
D03*
X1860000Y1003000D02*
D03*
X1950500Y996000D02*
D03*
X1968500D02*
D03*
X2009000Y986000D02*
D03*
X2046000Y1124500D02*
D03*
X1811000Y1017000D02*
D03*
X1763500Y1014500D02*
D03*
X1755000Y1015500D02*
D03*
X1982000Y942500D02*
D03*
X2017000Y965500D02*
D03*
X1934000Y933000D02*
D03*
X1859000Y1018500D02*
D03*
X1862000Y1014500D02*
D03*
X1907000Y979000D02*
D03*
X1884500Y970500D02*
D03*
X1910000Y982000D02*
D03*
X1857576Y998500D02*
D03*
X1783500Y946000D02*
D03*
X1784500Y1092500D02*
D03*
X1787500Y955000D02*
D03*
X1734000Y935000D02*
D03*
X1743965Y976500D02*
D03*
X1789248Y990752D02*
D03*
X1778500Y999500D02*
D03*
X1801000Y996000D02*
D03*
X1768500Y970500D02*
D03*
X1729000Y1060500D02*
D03*
Y1070252D02*
D03*
X1729500Y1082500D02*
D03*
X1748000Y1088000D02*
D03*
X1744500Y1091500D02*
D03*
X1734500Y992000D02*
D03*
X1733000Y987740D02*
D03*
X1926000Y970000D02*
D03*
X1910500Y1004000D02*
D03*
X1727500Y1033500D02*
D03*
X1846500Y986000D02*
D03*
X1918500Y955000D02*
D03*
X1729500Y1024000D02*
D03*
X1918000Y951000D02*
D03*
X1888000Y958500D02*
D03*
X1864500Y925500D02*
D03*
X1846500Y1095500D02*
D03*
X1851000Y1086000D02*
D03*
X1843000Y1081500D02*
D03*
X1866000Y1085500D02*
D03*
X1861500Y1083000D02*
D03*
X1852000Y1027500D02*
D03*
X1879000Y1001500D02*
D03*
X1816500Y999000D02*
D03*
X1796000Y976000D02*
D03*
X1802500Y964500D02*
D03*
X1952000Y1083500D02*
D03*
X1985000Y975000D02*
D03*
X1993500Y939000D02*
D03*
X1996500Y912000D02*
D03*
X1976000Y914000D02*
D03*
X1766500Y981000D02*
D03*
X1838500Y945500D02*
D03*
X1841000Y958000D02*
D03*
X1848000D02*
D03*
X1842000Y974500D02*
D03*
X1848000Y975000D02*
D03*
X1857500Y974000D02*
D03*
X1862000Y968000D02*
D03*
X1855000Y940500D02*
D03*
X1806000Y915500D02*
D03*
X2020500Y947000D02*
D03*
X2002500Y942000D02*
D03*
X1752000Y922500D02*
D03*
X1738000Y923500D02*
D03*
X1763500Y916000D02*
D03*
X1782000Y922500D02*
D03*
X1779500Y943000D02*
D03*
X1722000Y970000D02*
D03*
X1732500Y967000D02*
D03*
X1772000Y967500D02*
D03*
X1762000Y990000D02*
D03*
X1895000Y956000D02*
D03*
X1900500Y959000D02*
D03*
X1904000Y947500D02*
D03*
X1911500Y955000D02*
D03*
X1917000Y961500D02*
D03*
X1923000Y978000D02*
D03*
X1930000D02*
D03*
X1930500Y984500D02*
D03*
X1916500Y999000D02*
D03*
X1921500Y996000D02*
D03*
X1981000Y1013000D02*
D03*
X1991000Y1039000D02*
D03*
X2049000Y1034500D02*
D03*
X2102000Y1037000D02*
D03*
X2068500Y1030500D02*
D03*
X2068000Y1017000D02*
D03*
X2045500Y1091500D02*
D03*
X2052000Y1121000D02*
D03*
X2065500Y1128500D02*
D03*
X2042000Y1131000D02*
D03*
X2043000Y1117500D02*
D03*
X2085500Y1107500D02*
D03*
X2057500Y1035000D02*
D03*
X2045000Y1050500D02*
D03*
X2071000Y1053000D02*
D03*
X2067500Y1004000D02*
D03*
X2060500Y979500D02*
D03*
X2048000Y982500D02*
D03*
Y973000D02*
D03*
X2057000Y956000D02*
D03*
X2077500Y957500D02*
D03*
X2079000Y928000D02*
D03*
X2064500Y931000D02*
D03*
X2053000Y931500D02*
D03*
X2016500Y911000D02*
D03*
X1767500Y1034500D02*
D03*
X1783500Y1035500D02*
D03*
X1802500D02*
D03*
X1767000Y1054000D02*
D03*
X1782000D02*
D03*
X1802000Y1053500D02*
D03*
X1765500Y1072500D02*
D03*
X1781500Y1073000D02*
D03*
X1801000Y1072000D02*
D03*
X1836000Y1052500D02*
D03*
X1843500Y1069500D02*
D03*
X1834000Y1025500D02*
D03*
X1829000Y1034000D02*
D03*
X1859000Y1025000D02*
D03*
X1906000D02*
D03*
X1907500Y1043500D02*
D03*
X1917500Y1019500D02*
D03*
X1914500Y1008000D02*
D03*
X1894000Y1014000D02*
D03*
X1892000Y1024500D02*
D03*
X1878500Y1011000D02*
D03*
X1856500Y1008000D02*
D03*
X1859500Y1045000D02*
D03*
X1872500Y1073000D02*
D03*
X1886000Y1067500D02*
D03*
X1899000Y1067000D02*
D03*
X1909500Y1082500D02*
D03*
X1924500Y1080500D02*
D03*
X1952500Y1012500D02*
D03*
X1933000Y1024000D02*
D03*
X2101000Y1056500D02*
D03*
X2047000Y912000D02*
D03*
X2016500Y960500D02*
D03*
X1915500Y944500D02*
D03*
X1931500Y925500D02*
D03*
X1911500Y938500D02*
D03*
X1978000Y983500D02*
D03*
X1826000Y1092500D02*
D03*
X1845000Y933000D02*
D03*
X1805500Y975500D02*
D03*
X1946500Y975000D02*
D03*
X1835000Y990500D02*
D03*
X1820000Y994000D02*
D03*
X2013000Y1079500D02*
D03*
X1865500Y1094500D02*
D03*
X1876500Y1097000D02*
D03*
X1889000D02*
D03*
X1965000Y948500D02*
D03*
X1749000Y1098000D02*
D03*
X1769000Y1106000D02*
D03*
X1767500Y1123000D02*
D03*
X1719000Y1102000D02*
D03*
X1794500Y1113000D02*
D03*
Y1123500D02*
D03*
Y1130500D02*
D03*
X1836500Y1074500D02*
D03*
X1719000Y1110500D02*
D03*
X1744000Y1100500D02*
D03*
X1757500Y1082000D02*
D03*
X2009500Y942500D02*
D03*
X1973000Y948500D02*
D03*
X1979000D02*
D03*
X1973500Y959000D02*
D03*
X1831500Y1078000D02*
D03*
X1831000Y1082500D02*
D03*
X1846000Y1108500D02*
D03*
X1826500Y1057500D02*
D03*
X1827500Y1063500D02*
D03*
X1860500Y1073500D02*
D03*
X2087500Y1095000D02*
D03*
X2046500Y1128500D02*
D03*
X2043500Y1077500D02*
D03*
X2044000Y1081000D02*
D03*
X2056500Y1100500D02*
D03*
X2000394Y960854D02*
D03*
X2037500Y953500D02*
D03*
X2072500Y1076000D02*
D03*
X2049500Y1077500D02*
D03*
X2080000Y1070000D02*
D03*
X2083500Y1075500D02*
D03*
X2070000Y1098000D02*
D03*
X1943000Y1102500D02*
D03*
X1859500Y1033500D02*
D03*
X1879000Y1024000D02*
D03*
X1921000Y925000D02*
D03*
X1928500Y915500D02*
D03*
X1962000Y925000D02*
D03*
X1951500Y935500D02*
D03*
X1736000Y959500D02*
D03*
X1791000Y945500D02*
D03*
X1729000Y937000D02*
D03*
X1901500Y917516D02*
D03*
X1907500Y916000D02*
D03*
X1904350Y915800D02*
D03*
X1804500Y931000D02*
D03*
X1791500Y916000D02*
D03*
X1934000Y929000D02*
D03*
X1853000Y928500D02*
D03*
X1742500Y940500D02*
D03*
X1855500Y933000D02*
D03*
X2053000Y1007000D02*
D03*
X2051500Y1019000D02*
D03*
X1822500Y998500D02*
D03*
X1819500Y974000D02*
D03*
X1822000Y977000D02*
D03*
X1906000Y1093500D02*
D03*
X1938248Y1058000D02*
D03*
X1949000Y1076500D02*
D03*
X1919750Y1085252D02*
D03*
X1947500Y1058000D02*
D03*
X1936500Y1081000D02*
D03*
X1808500Y1006500D02*
D03*
X1812500Y1008500D02*
D03*
X1813500Y1012000D02*
D03*
X1862500Y992000D02*
D03*
X1904040Y964263D02*
D03*
X1899500Y964500D02*
D03*
X1968000Y1098000D02*
D03*
X1967500Y1092000D02*
D03*
X1973500Y1090000D02*
D03*
X1972000Y1094500D02*
D03*
X1968000Y1085500D02*
D03*
X1972000Y1083500D02*
D03*
X2019000Y1104500D02*
D03*
X1963000Y958500D02*
D03*
X1877284Y977004D02*
D03*
X1874000Y979000D02*
D03*
X2001000Y936500D02*
D03*
X1941000Y973000D02*
D03*
X1941755Y984500D02*
D03*
X1930500Y1040000D02*
D03*
X1960500Y997000D02*
D03*
X2014000Y1069500D02*
D03*
X1854000Y1082500D02*
D03*
X2070500Y1134500D02*
D03*
X2065000Y1107500D02*
D03*
X1731000Y1029500D02*
D03*
X1930000Y954500D02*
D03*
X2054000Y1142500D02*
D03*
X2047500D02*
D03*
X2041000D02*
D03*
X2027500Y1131500D02*
D03*
X2029500Y1135500D02*
D03*
X1911500Y915500D02*
D03*
X1792581Y931919D02*
D03*
X1790500Y950500D02*
D03*
X1737810Y965427D02*
D03*
X1760500Y985514D02*
D03*
X1751500Y991500D02*
D03*
X1744000Y991000D02*
D03*
X1759500Y979000D02*
D03*
X1731500Y983500D02*
D03*
X2018000Y1078500D02*
D03*
X1987500Y957500D02*
D03*
X1942000Y947500D02*
D03*
X1951000Y951000D02*
D03*
X1946500Y949500D02*
D03*
X2000000Y1039993D02*
D03*
X1907768Y1087646D02*
D03*
X1788000Y958991D02*
D03*
X1914000Y1076500D02*
D03*
X2005000Y1038000D02*
D03*
X2008500Y1042500D02*
D03*
X2025000Y1039500D02*
D03*
X2015000Y1039000D02*
D03*
X1749000Y940000D02*
D03*
X2008500Y1051500D02*
D03*
D140*
X1809000Y1082500D02*
D03*
X1815000Y1076827D02*
D03*
M02*
